<?xml version="1.0" standalone="no"?>
<!DOCTYPE svg PUBLIC "-//W3C//DTD SVG 20010904//EN"
 "http://www.w3.org/TR/2001/REC-SVG-20010904/DTD/svg10.dtd">
<svg version="1.0" xmlns="http://www.w3.org/2000/svg"
 width="1218.000000pt" height="1280.000000pt" viewBox="0 0 1218.000000 1280.000000"
 preserveAspectRatio="xMidYMid meet">
<metadata>
Created by potrace 1.15, written by Peter Selinger 2001-2017
</metadata>
<g transform="translate(0.000000,1280.000000) scale(0.100000,-0.100000)"
fill="#000000" stroke="none">
<path d="M2245 12758 c-69 -24 -83 -66 -40 -115 18 -20 23 -23 18 -9 -6 19 -5
19 24 -2 18 -12 55 -51 83 -87 49 -61 199 -195 219 -195 5 0 24 -12 41 -26 22
-19 34 -24 42 -16 7 7 -17 42 -81 115 -50 58 -91 108 -91 112 0 4 54 -45 121
-109 115 -110 149 -133 149 -102 0 13 -331 329 -364 348 -25 14 -26 -7 -2 -43
13 -19 27 -45 31 -59 7 -25 7 -25 -24 4 -30 29 -71 100 -71 124 0 8 20 12 60
12 59 0 70 -6 50 -26 -18 -18 0 -43 38 -54 51 -14 61 -12 32 6 -23 14 -19 15
65 10 112 -6 300 -42 560 -108 146 -36 257 -72 410 -133 116 -45 220 -86 233
-90 21 -6 22 -11 17 -58 l-6 -52 25 28 c14 15 26 35 26 43 0 8 3 14 8 14 19 0
82 -53 102 -85 30 -49 33 -44 8 15 -18 45 -51 83 -92 107 -10 6 -11 24 -3 86
12 88 8 87 94 31 48 -33 54 -40 48 -62 -5 -22 -4 -24 8 -13 12 10 21 7 49 -17
36 -33 133 -196 124 -211 -3 -5 1 -15 10 -22 65 -54 114 -303 93 -473 -6 -45
-19 -117 -30 -160 -21 -83 -75 -213 -85 -204 -7 8 23 111 52 177 32 71 30 75
-6 21 -37 -55 -37 -50 -1 73 16 54 25 95 21 90 -13 -13 -106 -240 -135 -328
-35 -105 -90 -324 -106 -419 -7 -42 -16 -76 -19 -76 -4 0 -13 18 -20 40 -22
68 10 353 55 481 25 71 9 55 -23 -23 -35 -87 -65 -177 -88 -273 -24 -97 -24
-324 1 -420 9 -38 18 -106 19 -151 1 -68 6 -90 33 -145 18 -36 59 -96 91 -135
68 -81 98 -134 107 -188 11 -69 134 -175 302 -260 40 -20 66 -45 113 -106 186
-245 447 -467 493 -421 8 8 6 11 -8 11 -47 0 -284 220 -409 380 l-50 63 54
-29 c30 -16 73 -48 96 -72 55 -55 134 -160 134 -178 0 -8 5 -14 10 -14 21 0 9
39 -31 100 -22 34 -34 60 -27 57 7 -3 50 -22 96 -42 80 -35 84 -36 108 -20 25
16 27 15 65 -9 35 -24 39 -24 39 -8 0 10 -10 28 -22 39 -23 21 -122 75 -145
79 -7 1 -71 44 -143 94 -85 59 -135 101 -141 118 -8 20 -12 23 -19 13 -16 -26
-94 45 -178 163 -97 134 -242 356 -277 421 -14 27 -30 54 -36 62 -19 22 -5
385 20 528 36 203 146 584 202 699 15 30 16 36 3 21 -9 -11 -29 -47 -45 -80
-18 -38 -29 -52 -29 -38 0 12 4 24 9 28 17 10 24 135 12 228 -14 107 -66 268
-124 382 -32 62 -61 99 -127 163 -87 86 -184 158 -226 168 -44 11 -51 1 -58
-92 -3 -48 -8 -90 -11 -92 -2 -2 -39 12 -82 31 -43 19 -109 49 -148 66 -105
46 -474 188 -605 231 -122 40 -160 47 -200 36 -14 -4 -89 4 -173 19 -154 26
-271 31 -322 13z m9 -74 c4 -10 1 -14 -6 -12 -15 5 -23 28 -10 28 5 0 13 -7
16 -16z m1925 -1431 c-39 -102 -90 -385 -103 -573 -2 -30 -2 24 -1 120 3 153
26 355 50 430 4 11 40 40 62 49 1 1 -2 -11 -8 -26z m-238 -500 c-4 -35 -5 -36
-12 -13 -4 14 -7 43 -7 65 0 40 0 40 12 13 7 -16 10 -45 7 -65z m57 0 c-4 -23
-6 -25 -12 -10 -5 9 -5 34 0 55 7 34 8 35 12 10 2 -16 2 -40 0 -55z m6 -173
c3 -52 9 -106 12 -120 12 -52 -16 5 -40 80 -20 61 -23 84 -16 120 5 25 10 50
10 55 0 6 7 -1 14 -15 7 -14 16 -68 20 -120z m185 -275 c28 -49 32 -85 11 -85
-5 0 -10 -8 -12 -17 -4 -16 -13 20 -34 130 -8 40 0 33 35 -28z m80 -174 c17
-41 29 -76 28 -78 -2 -1 -23 17 -46 41 -41 42 -43 46 -36 86 4 23 11 38 15 33
4 -4 22 -41 39 -82z m95 -101 c55 -80 62 -108 11 -49 -26 31 -80 129 -71 129
3 0 29 -36 60 -80z"/>
<path d="M6010 12621 c-80 -81 -336 -322 -570 -537 -504 -461 -529 -485 -513
-491 7 -2 10 -10 7 -17 -3 -8 33 23 79 68 46 44 126 116 178 160 l94 79 -115
-114 c-63 -63 -133 -129 -155 -147 -23 -19 -31 -31 -20 -27 16 5 14 0 -9 -24
-17 -17 -26 -31 -21 -31 5 0 -6 -16 -25 -35 -22 -23 -43 -35 -61 -35 -34 0
-46 -16 -46 -64 -1 -36 7 -48 87 -135 48 -53 146 -160 218 -239 l130 -143 6
-82 c3 -45 8 -228 11 -407 6 -403 24 -1365 28 -1481 l2 -86 -290 -6 c-159 -3
-500 -11 -758 -18 -400 -11 -471 -10 -494 2 -14 8 -69 66 -121 129 -53 63
-124 147 -158 185 l-63 71 50 64 c58 75 64 93 11 33 -20 -23 -62 -62 -92 -87
l-55 -45 -24 22 c-15 14 -22 17 -19 7 3 -9 -10 -25 -32 -41 -20 -15 -72 -68
-115 -119 l-79 -92 -19 23 c-35 44 -74 133 -117 269 -23 74 -47 141 -52 148
-6 7 -26 19 -44 28 -57 27 -92 143 -80 264 19 190 51 300 88 300 4 0 8 -37 8
-82 0 -101 20 -200 45 -228 19 -22 55 -26 85 -10 17 9 64 76 109 155 l23 40
-33 -40 c-66 -80 -118 -127 -136 -123 -28 5 -44 71 -50 213 -5 120 -4 133 16
170 27 51 27 69 1 62 -16 -4 -20 0 -20 21 0 37 -16 60 -30 46 -17 -17 -30 -84
-20 -109 7 -19 1 -29 -38 -67 -160 -153 -292 -207 -332 -136 -13 25 -13 32 3
79 16 45 17 53 4 66 -12 13 -20 8 -63 -37 -115 -122 -215 -119 -287 9 -25 44
-28 57 -19 72 14 22 9 24 -19 9 -27 -15 -24 -56 7 -118 36 -73 81 -105 152
-110 47 -3 66 1 105 22 26 14 50 26 52 26 2 0 6 -13 10 -29 21 -96 144 -105
276 -19 67 43 73 45 61 21 -21 -40 -42 -168 -42 -255 1 -136 29 -202 106 -250
38 -25 42 -31 74 -139 40 -139 88 -244 129 -283 l30 -29 -47 -60 c-47 -61
-232 -272 -447 -512 -118 -131 -172 -201 -163 -211 3 -2 67 64 143 148 76 84
143 158 148 163 15 15 0 -10 -53 -90 -25 -38 -51 -81 -58 -95 -7 -14 -46 -67
-87 -118 -71 -88 -86 -110 -67 -98 14 9 75 -62 191 -223 110 -152 156 -234 61
-108 -53 70 -112 134 -145 158 -17 12 -60 63 -87 103 -4 6 -10 8 -13 4 -4 -4
5 -24 19 -45 14 -20 26 -45 26 -54 0 -9 11 -24 25 -33 28 -19 33 -38 9 -34
-33 6 -23 -19 29 -78 30 -32 110 -135 179 -229 68 -93 176 -240 239 -325 63
-85 131 -188 152 -227 21 -40 40 -73 43 -73 3 0 0 9 -6 21 -26 47 -1 23 58
-57 l62 -85 1 -77 2 -77 9 63 c8 53 12 61 24 51 23 -19 28 -2 9 27 -12 19 -14
29 -6 37 13 13 19 6 102 -130 34 -57 64 -103 66 -103 3 0 -20 47 -51 105 l-56
105 22 31 c28 37 174 165 289 251 92 70 145 92 383 158 l109 30 576 -21 c317
-12 578 -23 580 -25 2 -2 -4 -13 -14 -24 -25 -28 -14 -35 17 -10 l26 20 6
-153 c3 -83 8 -1322 11 -2751 l5 -2599 -35 -64 c-49 -88 -102 -158 -198 -261
-67 -71 -87 -87 -111 -87 -16 0 -31 -6 -33 -13 -3 -7 1 -10 11 -6 25 9 20 -20
-9 -54 -32 -38 -32 -49 0 -28 31 20 36 20 28 -2 -10 -25 -24 -32 -46 -21 -10
6 -26 8 -34 4 -14 -5 -14 -7 3 -20 10 -8 14 -15 7 -15 -7 0 -10 -7 -7 -15 4
-9 -10 -25 -40 -46 -63 -45 -50 -48 18 -4 65 42 93 54 82 37 -4 -7 -2 -12 4
-12 6 0 8 -10 5 -23 -7 -26 16 -50 80 -86 l40 -23 -30 24 c-16 12 -41 33 -55
45 l-25 22 24 1 c15 0 39 -15 65 -42 22 -24 90 -86 150 -138 60 -52 154 -147
210 -210 170 -193 260 -279 137 -131 -25 30 -40 52 -33 50 16 -5 345 -322 462
-445 52 -54 100 -100 106 -102 6 -2 85 72 175 164 176 178 408 399 394 374 -5
-8 -25 -35 -44 -60 -102 -126 -26 -52 149 145 53 61 148 155 211 210 63 55
130 117 150 138 34 35 69 49 69 27 0 -5 -20 -23 -45 -40 -57 -39 -58 -46 -2
-14 58 32 83 60 69 76 -7 9 -6 18 4 32 13 19 14 18 51 -6 82 -54 93 -60 93
-55 0 2 -25 24 -56 48 -53 41 -55 44 -37 56 19 13 18 15 -19 55 -34 37 -54 89
-28 73 6 -3 10 -2 10 3 0 16 -13 21 -31 12 -14 -8 -32 6 -102 83 -103 111
-144 164 -187 240 l-32 58 7 2785 8 2784 220 -2 221 -3 23 -33 c12 -18 29 -68
38 -110 38 -187 57 -232 95 -232 10 0 43 18 75 39 32 22 80 45 106 51 132 32
268 -82 329 -275 20 -64 58 -133 79 -145 51 -27 105 -8 196 65 l55 45 0 -80
c0 -63 3 -82 15 -87 29 -11 53 28 140 225 89 200 104 227 112 205 3 -7 9 -13
15 -13 8 0 6 17 -9 58 -9 22 18 12 62 -23 l43 -35 -34 -89 c-51 -135 -144
-451 -144 -488 0 -18 4 -33 10 -33 9 0 24 46 76 235 32 117 48 146 28 51 -20
-94 -64 -405 -63 -441 2 -60 28 54 79 347 73 420 70 408 102 371 14 -16 14
-29 0 -123 -22 -150 -21 -448 2 -565 36 -184 94 -256 154 -192 30 32 27 40 -8
22 -16 -8 -32 -15 -35 -15 -12 0 -46 92 -61 163 -8 41 -18 157 -21 268 l-6
197 48 76 c50 81 72 97 61 45 -9 -48 12 -32 87 67 37 49 79 102 94 117 14 16
40 52 58 81 17 29 108 155 201 281 93 127 197 268 231 315 34 47 77 101 97
119 20 19 36 40 36 45 0 6 -9 0 -20 -14 -16 -20 -20 -21 -20 -8 0 16 24 36 45
36 20 1 16 22 -5 22 -17 0 -19 3 -10 19 5 11 19 23 31 26 13 4 18 12 15 21 -3
8 6 33 21 55 33 50 25 61 -13 15 -16 -20 -65 -73 -110 -118 -44 -46 -116 -135
-161 -198 -44 -64 -89 -122 -99 -130 -20 -16 46 81 200 293 130 180 190 253
205 249 16 -3 10 7 -67 102 -35 44 -70 93 -79 110 -9 17 -38 65 -65 106 l-49
75 70 -75 c39 -41 104 -112 143 -157 73 -81 103 -95 54 -25 -14 20 -120 143
-237 272 -190 212 -489 566 -497 590 -2 6 10 10 27 10 104 0 216 50 266 118
60 83 93 219 63 265 -12 18 -14 34 -8 74 5 29 10 82 12 119 2 57 6 68 25 77
17 7 32 5 65 -10 95 -45 186 -55 273 -29 l47 15 47 -48 c85 -87 220 -133 288
-97 17 8 40 31 52 49 24 39 51 137 51 184 0 18 4 33 9 33 5 0 41 -29 79 -64
84 -77 109 -87 134 -56 15 18 18 41 18 125 0 125 -16 252 -36 283 -15 23 -39
28 -64 12 -13 -9 -12 -13 8 -28 20 -16 23 -30 32 -157 6 -77 7 -152 3 -167
l-8 -27 -75 59 c-116 93 -127 91 -148 -23 -32 -173 -86 -211 -210 -148 -62 32
-132 93 -132 117 0 25 -27 27 -60 2 -28 -20 -43 -23 -123 -23 -102 1 -182 24
-159 47 7 7 12 16 12 22 0 6 -5 5 -12 -2 -7 -7 -20 -12 -29 -12 -24 0 -97 84
-124 143 -19 40 -24 46 -24 27 0 -14 4 -45 10 -69 6 -28 6 -48 0 -54 -5 -5 -7
-25 -4 -43 5 -27 2 -34 -11 -34 -48 0 -109 56 -152 141 -13 27 -28 49 -32 49
-20 -1 -30 -20 -36 -74 -8 -69 -34 -133 -65 -161 -32 -28 -93 -26 -125 4 -29
27 -35 78 -11 87 17 7 10 24 -10 24 -42 0 -58 -66 -30 -120 32 -62 131 -80
197 -35 35 24 78 94 78 128 0 25 17 21 36 -8 20 -30 86 -70 132 -80 39 -8 40
-20 12 -155 -25 -119 -25 -137 -1 -145 16 -5 17 -11 10 -51 -11 -58 -55 -140
-88 -163 -15 -10 -72 -40 -128 -66 l-103 -48 -57 54 c-32 30 -57 57 -55 62 4
13 -15 7 -28 -8 -11 -14 -14 -13 -27 5 -8 11 -20 20 -28 20 -8 0 -42 26 -76
58 l-63 57 50 -64 c45 -59 48 -64 30 -75 -24 -14 -246 -185 -315 -242 -33 -27
-63 -44 -80 -44 -14 0 -36 -3 -48 -6 -17 -5 -23 -2 -23 9 0 9 -10 23 -22 31
-20 14 -102 16 -690 16 l-668 0 0 103 c0 106 13 763 30 1452 7 300 13 410 24
440 11 31 15 36 21 23 12 -29 25 -10 25 37 0 37 8 54 48 107 100 130 212 315
212 348 0 23 -27 87 -40 95 -6 4 -9 12 -8 19 2 7 -25 36 -60 64 -35 27 -100
90 -145 139 l-82 88 110 -95 c60 -52 137 -122 172 -156 46 -45 64 -57 68 -46
8 21 -13 42 -490 481 -231 212 -478 443 -550 513 l-130 127 45 47 45 47 -49
-37 c-47 -35 -50 -36 -70 -19 -12 10 -15 11 -8 3 17 -20 15 -30 -7 -30 -11 0
-18 -6 -17 -16 0 -9 -5 -19 -12 -22 -10 -3 -13 4 -10 24 1 15 -2 29 -7 31 -6
2 -56 -35 -110 -82 -96 -83 -95 -81 34 43 99 96 132 134 128 147 -4 9 -11 13
-17 10 -14 -9 -13 8 2 23 7 7 10 12 8 11 -3 0 -70 -67 -150 -148z m81 -94
c-16 -16 -26 0 -10 19 9 11 15 12 17 4 2 -6 -1 -17 -7 -23z m264 -148 c26 -27
10 -17 -44 29 -46 40 -88 72 -92 72 -22 0 -5 -40 31 -75 22 -21 38 -41 35 -43
-9 -9 -153 110 -159 131 -3 14 2 29 16 44 l21 22 76 -68 c42 -38 94 -88 116
-112z m-295 131 c0 -5 -5 -10 -11 -10 -5 0 -7 5 -4 10 3 6 8 10 11 10 2 0 4
-4 4 -10z m-20 -24 c0 -2 -7 -9 -15 -16 -13 -11 -14 -10 -9 4 5 14 24 23 24
12z m63 -116 c3 -58 4 -100 2 -95 -8 18 -31 205 -26 210 12 13 19 -18 24 -115z
m497 -365 c395 -390 480 -465 480 -428 0 4 -62 70 -137 147 l-138 138 110 -91
c61 -50 157 -135 214 -189 93 -88 103 -101 98 -124 -8 -30 3 -30 -288 -7
l-136 11 -94 102 c-53 55 -99 108 -104 116 -5 8 27 -11 71 -41 100 -70 119
-80 70 -38 -117 101 -199 148 -182 103 7 -17 -56 29 -89 66 -11 13 -84 81
-163 152 -121 110 -142 133 -136 151 6 19 5 20 -9 8 -25 -20 -3 -54 93 -144
45 -43 79 -77 76 -77 -3 0 -17 5 -31 12 -29 13 -49 1 -39 -25 3 -9 60 -62 127
-119 67 -57 153 -131 191 -165 79 -72 106 -82 80 -30 -14 29 -11 27 38 -21 38
-38 49 -55 40 -61 -14 -8 29 -24 103 -37 34 -6 37 -8 17 -15 -22 -9 -30 -33
-13 -44 6 -3 -6 -33 -26 -66 -20 -33 -38 -58 -40 -55 -3 2 1 14 7 26 14 26 10
62 -7 52 -6 -4 -48 -60 -91 -125 -44 -65 -83 -114 -86 -108 -7 11 -36 4 -36
-10 0 -4 6 -6 14 -3 8 3 15 -3 18 -18 5 -25 -8 -539 -20 -843 -7 -164 -8 -173
-15 -105 -17 173 -42 590 -35 590 3 0 9 -10 11 -22 2 -13 2 -3 0 21 -6 55 -13
73 -27 68 -14 -5 -13 -235 3 -532 6 -121 14 -470 18 -775 3 -305 9 -557 13
-560 5 -3 12 -101 18 -218 6 -127 14 -218 21 -225 7 -7 16 -6 29 6 17 15 20
15 41 0 18 -12 28 -13 41 -6 16 11 45 9 265 -16 60 -7 46 -9 -100 -11 -213 -4
-134 -17 110 -19 88 -1 264 -6 390 -12 184 -8 700 -17 1068 -19 54 0 57 -1 57
-24 0 -36 17 -76 33 -76 8 0 22 17 31 39 14 29 22 37 37 34 23 -6 88 31 149
85 25 21 65 53 89 69 l44 30 28 -31 c15 -18 82 -113 150 -211 67 -99 153 -220
190 -269 62 -81 67 -91 54 -106 -8 -9 -15 -23 -15 -30 0 -21 -154 -328 -201
-400 -23 -36 -61 -84 -85 -107 l-43 -43 -45 53 c-31 36 -42 55 -35 64 7 8 5
10 -8 7 -12 -3 -30 8 -52 30 -41 42 -71 47 -71 13 0 -12 8 -34 17 -47 9 -14
-28 17 -83 69 -54 52 -100 101 -102 108 -3 9 9 13 40 13 24 0 50 5 58 10 28
19 -10 30 -103 30 -49 0 -86 3 -84 8 6 9 -516 5 -961 -7 -267 -8 -338 -13
-363 -25 -32 -16 -85 -15 -391 11 -56 4 -78 3 -78 -6 0 -7 22 -11 58 -12 97
-2 118 -17 27 -19 -91 -3 -140 -11 -140 -24 0 -5 14 -13 30 -18 17 -5 316 -10
665 -13 637 -5 734 -1 746 30 4 9 42 15 125 20 65 4 121 11 125 16 3 5 54 9
115 9 l109 0 -16 -37 c-8 -21 -18 -74 -22 -118 l-7 -80 -305 -11 c-585 -22
-816 -27 -955 -19 -223 13 -121 22 403 35 493 13 563 17 569 37 6 18 -48 22
-427 30 l-355 8 465 10 c256 5 459 14 452 18 -13 9 -1427 1 -1546 -9 -66 -5
-70 -4 -90 21 -22 27 -56 27 -56 -1 0 -12 -18 -18 -56 -17 -17 0 -24 -119 -24
-406 0 -141 -5 -314 -11 -386 -6 -71 -14 -240 -17 -375 l-7 -245 -9 320 c-5
176 -12 428 -15 560 l-6 240 -9 -120 c-5 -73 -4 -337 3 -675 6 -305 16 -1000
22 -1545 5 -544 14 -1006 19 -1025 7 -24 8 22 6 140 -3 96 -1 366 3 600 6 369
8 293 10 -580 1 -553 6 -1025 10 -1050 13 -83 24 1286 15 1980 -5 377 -9 744
-8 815 0 72 4 484 9 917 l8 786 39 -59 c21 -33 58 -81 82 -107 67 -73 89 -120
83 -178 -3 -27 -6 -56 -8 -64 -1 -8 -1 -422 1 -920 2 -498 6 -880 10 -850 4
30 8 -217 9 -550 2 -333 6 -1197 10 -1920 4 -723 7 -1316 6 -1318 -1 -1 -50 1
-108 5 -93 5 -107 8 -107 24 0 10 8 19 18 22 16 4 15 5 -2 12 -14 6 -23 3 -33
-11 -29 -39 -2 -114 124 -342 40 -73 73 -136 73 -140 -1 -16 -205 -162 -227
-162 -4 0 17 26 47 57 l55 57 -52 -44 c-112 -97 -410 -381 -440 -421 -42 -54
-43 -73 -2 -31 17 18 35 29 41 26 5 -3 15 -1 23 6 11 9 12 7 8 -9 -8 -29 11
-26 65 11 l47 32 -67 -72 c-38 -40 -68 -77 -68 -82 0 -23 28 -6 78 48 36 38
42 42 18 13 -37 -46 -44 -65 -26 -76 17 -11 106 62 340 279 47 43 -3 -9 -110
-116 -107 -107 -226 -226 -265 -266 -38 -40 -73 -72 -77 -72 -12 0 -9 78 4 99
9 15 8 24 -5 45 -9 14 -17 38 -18 53 0 24 -1 25 -9 8 -13 -32 -20 0 -17 78 1
37 -1 67 -5 67 -4 0 -9 12 -11 28 -3 20 -4 17 -6 -13 -1 -30 -4 -36 -11 -25
-7 11 -10 7 -10 -19 0 -34 0 -34 -41 30 -69 106 -162 220 -240 292 -156 143
-170 160 -164 187 3 14 30 86 59 160 30 74 56 152 59 173 6 38 6 39 -16 23
-12 -9 -31 -20 -43 -25 -23 -10 -113 -210 -121 -270 l-5 -37 -127 4 c-70 2
-132 9 -140 15 -10 8 -16 7 -25 -4 -17 -23 -42 -29 -76 -18 l-30 11 56 61 c31
34 76 90 101 124 41 55 49 61 74 56 21 -4 31 0 43 20 17 25 80 46 186 62 79
11 81 13 77 51 -2 19 -9 40 -14 45 -16 16 -130 23 -180 11 -38 -9 -43 -8 -49
11 -7 21 6 3840 13 3821 2 -7 7 -41 11 -75 4 -35 6 366 5 891 -1 525 -5 969
-8 986 -6 29 -3 34 39 63 25 17 63 57 86 88 l40 56 0 -49 c0 -27 -7 -123 -15
-213 -22 -246 -28 -598 -16 -866 6 -132 15 -384 21 -560 19 -630 31 -956 50
-1384 17 -380 18 -481 9 -825 -12 -411 -6 -1084 12 -1384 19 -335 36 -567 39
-532 2 33 2 33 10 10 6 -17 7 -10 4 25 -19 203 -21 449 -12 1660 9 1317 20
1860 28 1370 3 -195 4 -184 11 160 10 509 15 1264 8 1259 -3 -2 -9 101 -12
229 -10 328 -57 930 -73 915 -2 -3 3 -103 12 -224 13 -170 14 -262 8 -414 -5
-107 -10 -166 -11 -130 -2 36 -10 196 -19 355 -9 160 -18 399 -20 533 -2 134
-6 247 -9 252 -4 6 -15 4 -28 -5 -22 -14 -23 -13 -33 30 -9 40 -8 45 7 45 22
0 34 19 21 32 -7 7 -115 7 -334 -1 -600 -20 -730 -22 -723 -11 3 5 16 11 28
11 16 1 18 2 5 6 -10 2 -33 -3 -53 -13 -32 -15 -56 -16 -213 -9 -97 5 -231 10
-297 11 -66 1 -183 5 -260 8 l-140 5 111 -9 c116 -9 282 -35 293 -45 3 -4 -40
-5 -96 -4 -55 1 -105 -1 -110 -4 -4 -3 -78 -9 -163 -13 -161 -7 -246 -22 -134
-23 l61 -1 -5 -29 c-3 -23 -18 -39 -72 -75 -37 -25 -91 -65 -119 -90 -71 -63
-129 -92 -147 -74 -8 7 -45 87 -84 177 -39 90 -112 246 -164 347 -61 119 -89
184 -80 184 8 0 14 -7 14 -15 0 -47 51 14 185 220 54 83 111 167 128 188 16
21 31 48 33 60 1 12 7 35 13 50 14 35 14 37 -1 37 -7 0 -30 -17 -51 -37 l-39
-38 48 69 c44 64 49 68 54 45 8 -32 46 -32 58 0 6 18 14 14 75 -36 53 -43 66
-58 57 -68 -16 -20 18 -51 96 -85 35 -16 85 -45 111 -65 29 -22 53 -33 62 -29
9 3 54 8 101 10 47 2 144 9 215 14 72 6 406 15 744 20 338 5 622 12 633 15 10
4 16 10 13 14 -2 5 -273 6 -602 3 -329 -2 -595 -1 -591 3 3 3 325 10 715 15
468 5 717 11 736 19 31 12 35 31 8 38 -28 7 -51 91 -51 184 0 44 4 79 8 79 16
0 34 105 29 160 -3 30 -10 493 -16 1028 -10 924 -14 1062 -31 1062 -22 0 -35
-1571 -17 -2132 5 -148 4 -258 -1 -258 -4 0 -26 15 -48 33 -21 19 -77 60 -123
92 l-83 58 7 711 c4 391 10 880 14 1086 l6 375 55 -5 c30 -2 78 -4 105 -5 43
0 50 3 50 20 0 11 5 23 10 27 6 4 -2 8 -17 8 -16 0 -28 5 -28 12 0 6 -7 20
-17 30 -26 29 9 23 46 -8 19 -16 38 -24 47 -20 9 4 24 1 32 -6 16 -13 -3 22
-96 177 -54 91 -88 135 -104 135 -4 0 -17 9 -29 21 -19 19 -23 19 -36 6 -13
-13 -13 -18 3 -43 17 -28 16 -27 -20 6 -34 32 -36 35 -16 38 12 2 24 10 27 18
3 8 17 14 32 14 15 0 36 7 47 15 19 15 19 15 0 30 -13 10 -42 15 -82 15 -35 0
-66 5 -69 10 -3 6 -49 10 -103 10 -66 0 -92 3 -82 10 8 5 26 10 40 10 14 0 32
5 40 11 11 8 8 9 -15 5 -16 -3 -63 -6 -104 -8 l-74 -3 -14 40 -14 40 73 67
c40 37 77 68 82 68 19 0 134 108 455 425 318 314 334 329 343 305 5 -14 5 -33
0 -45 -8 -18 28 -366 42 -401 3 -9 -17 -30 -52 -56 -65 -47 -140 -110 -262
-218 -47 -41 -96 -84 -109 -95 -14 -11 52 66 146 170 95 105 185 208 202 229
31 39 40 66 21 66 -21 0 -565 -617 -554 -629 12 -14 186 125 479 384 161 142
170 152 167 183 -2 20 1 32 9 32 9 0 11 47 6 205 l-6 206 72 -63 c40 -35 218
-207 397 -383z m-1130 -61 c-25 -25 -81 -73 -125 -106 -44 -34 -72 -53 -63
-43 21 22 221 193 228 194 2 1 -16 -20 -40 -45z m906 -143 c54 -35 130 -108
194 -186 31 -37 17 -26 -100 76 -47 41 -105 91 -129 112 -58 48 -40 47 35 -2z
m-1284 -295 c4 -22 3 -24 -13 -16 -26 14 -34 31 -18 40 18 11 26 5 31 -24z
m2238 -111 c0 -8 -76 18 -88 29 -7 7 -10 20 -6 29 5 14 13 11 50 -19 24 -20
44 -38 44 -39z m-2304 -72 c14 -24 24 -43 22 -43 -2 0 -24 21 -48 46 -39 39
-42 45 -22 42 14 -2 32 -19 48 -45z m2019 28 c-9 -30 -99 -191 -103 -186 -2 2
8 40 23 85 15 45 25 90 22 101 -4 16 0 19 30 19 29 0 33 -3 28 -19z m75 12 c0
-12 -92 -164 -97 -159 -7 7 76 166 87 166 6 0 10 -3 10 -7z m69 -15 c-17 -34
-19 -34 -19 -5 0 18 5 27 15 27 13 0 14 -4 4 -22z m-1802 -7 c15 -8 188 -212
202 -240 18 -34 5 -25 -46 31 -104 115 -177 188 -185 188 -4 0 -8 -8 -8 -17 0
-14 -3 -13 -23 5 -13 12 -26 22 -30 22 -23 0 6 -38 106 -139 61 -62 105 -110
97 -106 -32 18 -138 102 -193 154 -31 30 -59 52 -62 49 -3 -2 9 -23 26 -47 17
-23 29 -45 25 -48 -13 -13 -75 61 -94 113 l-20 54 97 -6 c53 -4 101 -9 108
-13z m1501 -103 c-44 -68 -85 -127 -90 -133 -5 -5 15 40 45 101 29 60 56 120
59 132 5 17 14 22 36 22 l30 0 -80 -122z m364 90 c-17 -18 -40 -44 -51 -58
-13 -16 -20 -20 -21 -11 0 8 20 34 45 58 53 50 72 58 27 11z m-149 -135 c-13
-53 -31 -110 -39 -126 -16 -29 -16 -29 -30 -8 -8 12 -22 21 -31 21 -12 0 -10
7 9 33 14 17 44 65 67 105 24 39 45 72 46 72 2 0 -8 -44 -22 -97z m-182 23
c-11 -24 -31 -55 -45 -69 -19 -20 -26 -36 -26 -67 0 -40 -10 -49 -38 -31 -10
6 3 32 54 110 37 55 69 101 70 101 2 0 -5 -20 -15 -44z m-1746 -36 c26 -41 35
-70 12 -35 -35 51 -49 75 -43 75 3 0 17 -18 31 -40z m93 -20 c-2 -7 -10 1 -17
16 -12 27 -11 28 4 12 10 -9 16 -21 13 -28z m1439 -62 c-25 -46 -43 -89 -39
-95 4 -6 20 -15 35 -18 l28 -7 -23 -12 c-29 -14 -36 -52 -11 -60 10 -2 49 -4
87 -2 42 1 69 -2 71 -8 2 -6 9 -478 15 -1049 l13 -1038 -36 -30 c-38 -31 -148
-160 -191 -223 -18 -26 -26 -33 -26 -21 0 10 8 28 19 39 10 12 21 39 24 61 6
39 6 39 -8 15 -14 -24 -14 -22 -15 35 0 33 -3 91 -7 128 -5 58 -9 68 -23 64
-16 -4 -17 12 -16 207 0 116 0 409 -2 651 -1 251 2 453 7 470 6 20 10 -132 11
-440 2 -258 5 -519 9 -580 6 -104 6 -98 14 120 14 399 9 1297 -9 1631 l-5 101
41 47 c22 26 47 61 56 78 8 16 18 27 21 24 3 -2 -15 -42 -40 -88z m263 -17 c0
-6 -4 -13 -10 -16 -5 -3 -10 1 -10 9 0 9 5 16 10 16 6 0 10 -4 10 -9z m-1574
-50 c-13 -20 -26 -11 -26 16 0 25 1 26 16 11 9 -9 13 -21 10 -27z m84 -9 c-12
-4 -50 26 -50 40 0 5 14 -2 31 -14 16 -12 25 -24 19 -26z m-103 -84 c-3 -7 -5
-2 -5 12 0 14 2 19 5 13 2 -7 2 -19 0 -25z m4117 -1273 c3 -8 1 -15 -4 -15 -6
0 -10 7 -10 15 0 8 2 15 4 15 2 0 6 -7 10 -15z m-2919 -524 c6 -204 5 -223 -9
-208 -14 14 -15 42 -9 226 3 116 7 210 8 209 1 -2 6 -104 10 -227z m-3064 -83
c46 -57 73 -95 59 -86 -14 10 -49 32 -78 49 -62 36 -112 77 -112 90 0 16 32
59 40 54 4 -2 45 -51 91 -107z m-181 94 c0 -4 -50 -57 -112 -117 -82 -81 -100
-95 -68 -55 52 66 161 180 172 180 4 0 8 -3 8 -8z m0 -35 c0 -2 -10 -12 -22
-23 l-23 -19 19 23 c18 21 26 27 26 19z m-50 -60 c0 -2 -12 -14 -27 -28 l-28
-24 24 28 c23 25 31 32 31 24z m70 -190 l0 -192 -106 -145 c-108 -148 -234
-342 -273 -417 -22 -44 -38 -52 -58 -32 -9 9 -20 8 -45 -4 -26 -12 -47 -14
-98 -7 -66 8 -184 28 -208 36 -8 2 34 57 104 134 115 129 150 162 98 95 -15
-20 -25 -38 -22 -41 3 -2 57 64 120 148 63 84 170 218 237 298 67 80 148 184
179 232 31 48 60 87 65 88 4 0 7 -87 7 -193z m5728 93 c120 -137 117 -143 -9
-16 -60 61 -109 112 -109 114 0 2 8 2 17 0 9 -2 55 -46 101 -98z m-5635 16
c98 -130 219 -234 314 -268 33 -12 34 -14 27 -53 -4 -22 -7 -88 -7 -147 0 -60
-3 -108 -7 -108 -5 0 -50 34 -101 76 -51 41 -130 103 -176 136 l-83 60 0 92
c0 83 -6 140 -26 249 -4 20 -4 37 -2 37 3 0 31 -33 61 -74z m2300 -76 c3 -67
2 -104 -3 -90 -8 24 -14 218 -6 209 2 -2 6 -56 9 -119z m3167 111 c0 -5 -15
-20 -32 -32 l-33 -22 29 31 c32 34 36 37 36 23z m-5180 -268 c0 -14 -76 45
-150 117 -148 145 -142 162 8 21 78 -74 142 -136 142 -138z m-520 234 c0 -2
-10 -12 -22 -23 l-23 -19 19 23 c18 21 26 27 26 19z m5788 -80 c17 -29 99
-135 183 -237 85 -102 198 -245 253 -318 54 -73 101 -131 103 -128 3 3 -5 19
-17 35 -12 17 -20 31 -17 31 2 0 52 -54 112 -121 97 -109 149 -151 190 -153
13 -1 19 -36 6 -36 -6 0 -11 4 -11 9 0 33 -193 44 -330 18 -59 -11 -65 -14
-65 -37 0 -20 -7 -26 -30 -30 -28 -5 -31 -2 -61 60 -53 111 -225 358 -320 460
l-33 35 -4 225 c-2 124 -8 234 -12 245 -16 38 22 -3 53 -58z m-75 -19 c4 -46
7 -126 6 -178 l-1 -95 -28 155 c-26 139 -28 157 -14 177 8 13 18 23 23 23 4 0
11 -37 14 -82z m-121 -15 c-58 -70 -172 -177 -179 -169 -4 4 42 56 102 116
112 113 148 137 77 53z m-5652 44 c0 -2 -10 -12 -22 -23 l-23 -19 19 23 c18
21 26 27 26 19z m5704 -124 c6 -53 5 -63 -9 -63 -23 0 -18 -30 15 -85 33 -56
36 -65 17 -65 -8 0 -65 -34 -128 -75 -81 -53 -123 -75 -146 -75 -40 0 -49 15
-56 98 -3 34 -10 69 -16 76 -9 11 0 19 44 41 71 36 171 119 221 183 23 29 42
45 45 38 4 -6 9 -39 13 -73z m-5754 64 c0 -2 -12 -14 -27 -28 l-28 -24 24 28
c23 25 31 32 31 24z m-141 -167 c-50 -60 -93 -110 -96 -110 -5 0 44 61 130
163 27 31 51 57 53 57 2 0 -37 -49 -87 -110z m5206 54 c-18 -14 -63 -15 -380
-9 -669 14 -719 22 -140 23 490 1 538 0 520 -14z m-1215 -62 c19 -2 40 -7 45
-12 14 -12 163 -19 665 -30 239 -6 502 -13 583 -16 l149 -7 -44 -45 c-48 -50
-37 -47 36 10 55 44 74 43 31 -2 -33 -35 -16 -41 30 -10 38 25 45 14 45 -67
l0 -63 -356 0 c-312 0 -358 2 -368 16 -10 13 -73 16 -520 19 -279 1 -510 5
-512 8 -3 3 31 60 76 127 78 117 83 121 94 99 8 -17 22 -25 46 -27z m-3026
-19 l61 -46 -45 46 -44 47 32 0 c19 0 40 -8 52 -20 20 -20 33 -20 704 -20 590
0 685 2 696 15 14 17 40 6 120 -49 25 -17 71 -45 102 -61 51 -27 56 -33 45
-48 -27 -36 -303 -60 -907 -78 -480 -14 -509 -17 -447 -47 16 -8 -33 -11 -199
-11 l-221 -1 -5 112 c-4 99 -7 113 -26 129 -12 9 -22 25 -22 34 0 14 3 14 26
-4 26 -21 54 -28 54 -14 0 4 -12 20 -27 35 -40 42 -17 34 51 -19z m1756 -73
c8 -5 11 -12 8 -16 -4 -3 -14 1 -23 10 -18 17 -9 21 15 6z m-2820 -24 c0 -2
-8 -10 -17 -17 -16 -13 -17 -12 -4 4 13 16 21 21 21 13z m444 -63 c-74 -128
-293 -435 -305 -427 -11 7 4 33 127 219 80 122 185 255 201 255 3 0 -8 -21
-23 -47z m2426 26 c0 -5 -9 -9 -20 -9 -13 0 -18 5 -14 14 6 15 34 11 34 -5z
m1920 -79 c31 -10 -189 -10 -390 0 -133 6 -124 7 110 7 140 1 266 -3 280 -7z
m-3555 -84 c5 -1 -44 -7 -110 -13 -66 -6 -122 -10 -124 -8 -2 2 -1 10 2 18 4
11 28 13 114 10 59 -3 112 -6 118 -7z m5073 -178 c75 -113 91 -139 75 -123
-16 16 -154 225 -148 225 2 0 35 -46 73 -102z m-6605 -170 l62 -22 -39 -10
c-38 -9 -40 -8 -82 40 -24 27 -43 53 -44 58 0 5 9 -3 20 -17 12 -15 47 -36 83
-49z m46 46 c2 -2 -12 -4 -32 -4 -20 0 -39 5 -42 11 -5 7 5 8 32 3 21 -4 40
-8 42 -10z m294 -74 c6 -24 13 -24 -93 -1 l-85 19 86 1 c79 1 87 -1 92 -19z
m6889 -8 c19 -19 7 -21 -82 -10 -47 5 -119 7 -160 4 -85 -6 -83 0 5 13 78 12
222 8 237 -7z m-6755 -177 c63 -123 143 -311 123 -287 -38 46 -221 426 -220
459 0 9 47 -73 97 -172z m-294 3 c69 -90 161 -201 204 -248 126 -135 210 -239
258 -321 42 -71 55 -109 37 -109 -11 0 -118 121 -168 190 -266 362 -327 440
-339 430 -9 -8 -33 17 -94 99 -44 61 -81 112 -81 115 0 3 13 6 29 6 26 0 43
-18 154 -162z m60 125 c38 -6 43 -11 61 -71 6 -17 -2 -13 -33 20 -30 32 -43
40 -51 32 -9 -9 -9 -17 0 -34 21 -39 5 -30 -40 22 l-44 51 35 -7 c18 -3 51 -9
72 -13z m137 -40 c27 -60 19 -66 -13 -9 -21 38 -25 56 -11 56 2 0 12 -21 24
-47z m6623 30 c-13 -2 -35 -2 -50 0 -16 2 -5 4 22 4 28 0 40 -2 28 -4z m-105
-30 c44 -17 80 -15 257 13 l40 7 -21 -24 c-12 -13 -52 -64 -88 -113 -36 -49
-66 -84 -66 -78 0 6 4 13 9 16 14 9 32 66 21 66 -6 0 -88 -105 -184 -232 -168
-225 -289 -368 -301 -356 -12 12 35 109 119 242 131 209 169 283 172 333 2 24
0 43 -4 43 -4 0 -32 -34 -62 -76 -89 -124 -93 -125 -35 -8 30 61 55 116 55
123 0 22 -19 11 -40 -24 -12 -20 -27 -34 -32 -33 -14 5 -14 9 7 60 20 47 27
52 90 57 10 0 39 -7 63 -16z m-6578 -201 c56 -89 36 -70 -66 61 -114 147 -119
155 -40 72 36 -38 84 -98 106 -133z m41 39 c16 -25 29 -49 29 -53 0 -17 -90
94 -110 135 l-21 42 36 -40 c20 -22 50 -60 66 -84z m19 68 c12 -23 19 -43 16
-46 -4 -4 -46 69 -46 82 0 15 12 1 30 -36z m-396 -18 c10 -10 14 -21 9 -24 -4
-3 -16 6 -26 19 -21 28 -8 32 17 5z m6811 -91 c-19 -38 -37 -70 -40 -70 -8 0
25 82 45 111 34 47 33 34 -5 -41z m35 21 c-28 -56 -35 -52 -8 4 12 24 23 43
26 41 2 -2 -6 -22 -18 -45z m-165 -118 c-88 -156 -130 -223 -175 -273 l-32
-35 20 35 c11 19 61 103 112 185 51 83 104 169 118 192 15 23 28 40 30 38 2
-2 -31 -66 -73 -142z m310 50 c-21 -38 -74 -120 -118 -183 -45 -63 -150 -217
-233 -343 l-151 -227 -7 89 -7 90 41 71 c22 38 42 70 44 70 2 0 3 -7 2 -16 -6
-71 102 39 306 313 83 112 153 203 156 203 2 0 -13 -30 -33 -67z m-2036 23
c-2 -2 -71 -6 -154 -9 -97 -4 -145 -3 -135 3 14 9 299 15 289 6z m-1889 -39
c0 -23 -69 -132 -137 -214 l-34 -43 -137 1 c-75 1 -198 4 -272 8 l-135 6 203
13 c205 13 257 22 249 45 -6 18 -65 26 -269 33 -104 4 -188 10 -188 14 0 4 93
9 206 12 203 5 260 15 203 36 -18 7 -7 10 51 15 49 3 90 13 118 27 44 23 50
33 30 47 -8 5 1 10 27 14 78 12 85 11 85 -14z m1978 6 c-21 -2 -57 -2 -80 0
-24 2 -7 4 37 4 44 0 63 -2 43 -4z m-2123 -20 c19 -6 19 -6 1 -13 -23 -8 -106
10 -106 23 0 8 60 3 105 -10z m1660 3 c11 -2 -86 -4 -215 -4 -129 -1 -230 2
-223 6 11 7 393 5 438 -2z m308 7 c-13 -2 -33 -2 -45 0 -13 2 -3 4 22 4 25 0
35 -2 23 -4z m602 -13 c-16 -4 -100 -7 -185 -7 -134 1 -143 2 -65 7 133 9 286
9 250 0z m-3776 -18 c8 -13 55 -11 186 7 39 6 192 10 340 9 l270 -1 -150 -13
c-82 -7 -285 -16 -450 -19 -290 -5 -508 -24 -529 -46 -21 -20 16 -31 121 -37
107 -6 108 -18 2 -21 -63 -1 -109 -11 -109 -24 0 -6 20 -8 53 -4 218 25 447
30 809 17 207 -7 392 -16 410 -20 l33 -8 -30 -1 c-16 -1 -174 -8 -350 -16
-288 -14 -351 -14 -635 0 -173 8 -325 18 -337 20 -13 3 -23 1 -23 -4 0 -5 37
-14 83 -20 211 -29 211 -29 21 -30 l-181 -1 -6 76 c-5 73 -25 124 -48 124 -6
0 -13 -9 -16 -20 -3 -11 -9 -20 -14 -20 -5 0 -9 9 -9 20 0 11 0 23 0 28 0 7
305 19 463 18 59 -1 90 -5 96 -14z m64 11 c-7 -2 -21 -2 -30 0 -10 3 -4 5 12
5 17 0 24 -2 18 -5z m4904 -129 c-36 -71 -97 -180 -135 -243 -63 -100 -72
-110 -77 -88 -4 14 -5 33 -3 43 3 21 270 425 276 420 2 -2 -26 -62 -61 -132z
m-6193 55 c28 -47 1 -26 -36 29 -26 39 -27 43 -7 25 13 -12 33 -36 43 -54z
m2267 64 c107 -12 27 -21 -181 -20 l-185 0 120 12 c158 16 171 16 246 8z
m-2220 -55 c16 -29 2 -21 -22 15 -17 23 -18 28 -6 18 10 -8 23 -23 28 -33z
m5489 23 c0 -6 -4 -13 -10 -16 -5 -3 -10 1 -10 9 0 9 5 16 10 16 6 0 10 -4 10
-9z m-5766 -73 c22 -39 11 -29 -29 27 -17 23 -21 33 -9 23 10 -9 28 -32 38
-50z m2346 43 c66 -10 -450 -26 -765 -24 -300 3 -404 15 -200 23 199 9 914 9
965 1z m3658 -182 c85 -80 85 -80 14 -20 -123 103 -134 79 -34 -72 38 -56 72
-109 77 -117 4 -8 -46 37 -111 100 -65 63 -120 116 -123 117 -2 2 -6 45 -7 95
l-3 93 50 -57 c27 -32 89 -94 137 -139z m-5178 151 c0 -5 -5 -10 -11 -10 -5 0
-7 5 -4 10 3 6 8 10 11 10 2 0 4 -4 4 -10z m3770 -27 c322 -4 567 -9 545 -10
-22 -1 -218 -7 -435 -14 -217 -6 -415 -14 -440 -17 -58 -9 -61 -33 -6 -44 22
-5 42 -10 44 -12 2 -2 -40 -4 -93 -5 -106 0 -141 -13 -147 -52 -5 -33 -28 -36
-28 -5 0 15 -6 26 -13 26 -8 0 -21 17 -29 38 -9 20 -23 54 -32 76 l-17 38 33
-5 c18 -3 296 -10 618 -14z m-4199 -137 c11 -21 16 -35 10 -31 -6 3 -20 23
-31 43 -11 20 -27 48 -36 62 -12 19 -10 18 10 -5 15 -16 36 -47 47 -69z m462
57 c4 -3 -3 -11 -16 -17 -13 -7 -23 -23 -25 -39 -3 -22 3 -31 32 -48 20 -12
36 -26 36 -32 0 -7 -19 -27 -41 -46 -31 -25 -43 -31 -49 -21 -8 13 -36 11 -75
-6 -12 -5 -2 13 28 45 26 29 47 62 47 73 0 18 -5 20 -35 15 l-35 -6 52 45 c51
43 68 51 81 37z m5361 -42 c3 -4 -1 -17 -9 -27 -14 -18 -14 -18 -15 9 0 26 13
36 24 18z m-5557 -55 c-1 -1 -28 -25 -59 -55 l-56 -54 -10 44 c-10 51 -7 56
44 74 28 9 44 10 61 2 13 -6 22 -11 20 -11z m5028 14 c-4 -6 -70 -10 -168 -9
-100 0 -154 4 -142 9 29 12 318 12 310 0z m416 -99 c29 -20 47 -1 31 34 -7 14
-12 33 -12 43 0 14 2 14 15 2 10 -10 16 -46 19 -115 3 -55 2 -87 -2 -71 -4 16
-13 31 -21 34 -11 4 -13 -4 -8 -34 12 -77 29 -261 26 -277 -3 -12 -13 -5 -39
26 -31 37 -34 47 -33 97 1 40 0 48 -6 30 -8 -23 -9 -23 -16 -6 -5 11 -3 26 3
37 16 24 15 36 0 21 -7 -7 -16 -12 -20 -12 -7 0 -130 182 -163 240 -4 8 42
-34 104 -94 81 -80 115 -106 123 -98 17 17 3 50 -62 151 l-61 94 51 -44 c28
-24 60 -50 71 -58z m119 49 c-6 -11 -13 -20 -16 -20 -2 0 0 9 6 20 6 11 13 20
16 20 2 0 0 -9 -6 -20z m-5555 -66 c-38 -36 -89 -79 -112 -97 -42 -31 -55 -57
-30 -57 6 0 35 16 62 36 46 33 157 94 171 94 15 0 -67 -89 -160 -173 l-101
-92 -8 69 c-6 50 -5 76 4 92 9 17 9 33 1 63 -9 39 -9 41 14 42 13 1 36 2 52 3
15 1 58 23 96 48 39 26 72 45 75 42 4 -4 -25 -35 -64 -70z m5840 -5 c-20 -34
-70 -101 -111 -150 -77 -91 -118 -129 -74 -68 90 124 216 286 218 284 2 -2
-13 -31 -33 -66z m-5508 55 c-3 -3 -12 -4 -19 -1 -8 3 -5 6 6 6 11 1 17 -2 13
-5z m102 2 c-22 -18 -130 -74 -127 -65 4 11 106 69 122 69 5 0 7 -2 5 -4z
m-159 -20 c0 -8 -15 -25 -32 -37 -18 -12 -55 -41 -83 -64 -27 -23 -63 -50 -80
-61 -29 -18 -30 -18 -15 0 21 27 192 176 202 176 4 0 8 -6 8 -14z m4986 -101
c81 -124 82 -126 31 -70 -66 72 -120 152 -112 165 9 15 11 13 81 -95z m-726
64 c78 -15 302 -73 413 -109 84 -27 172 -77 231 -131 8 -7 -210 -239 -226
-239 -4 0 -8 58 -8 129 0 71 -4 141 -10 155 -11 30 -32 26 -49 -10 -16 -36
-13 -44 5 -11 35 64 49 8 42 -165 -5 -114 -6 -120 -34 -149 -16 -17 -57 -51
-91 -76 -96 -68 -105 -65 -178 82 -42 82 -76 136 -110 171 -75 77 -104 89
-211 89 -83 0 -95 -3 -152 -32 -34 -18 -64 -33 -66 -33 -9 0 -35 82 -51 160
-9 47 -28 106 -40 132 l-24 48 222 2 c233 3 248 2 337 -13z m242 -6 c43 -14
76 -28 75 -30 -4 -4 -199 45 -205 52 -15 15 63 2 130 -22z m308 -22 c79 -60
244 -216 212 -201 -12 6 -45 31 -72 55 -77 68 -153 123 -222 161 l-63 34 40 0
c33 0 52 -9 105 -49z m75 38 c11 -17 -1 -21 -15 -4 -8 9 -8 15 -2 15 6 0 14
-5 17 -11z m-212 -35 c82 -42 161 -93 153 -101 -3 -3 -20 5 -38 18 -18 13 -73
45 -123 71 -49 26 -84 48 -77 48 7 0 45 -16 85 -36z m-4673 -9 c0 -2 -10 -10
-22 -16 -21 -11 -22 -11 -9 4 13 16 31 23 31 12z m-493 -142 c4 -55 3 -57 -11
-33 -8 14 -15 32 -16 41 0 8 -11 38 -25 65 -14 27 -25 51 -25 54 0 2 16 -12
37 -32 32 -32 37 -44 40 -95z m333 13 c0 -2 -24 -23 -52 -46 l-53 -42 50 46
c49 45 55 50 55 42z m-331 -160 l1 -29 -18 24 c-10 13 -36 49 -57 79 l-40 55
57 -50 c44 -38 57 -57 57 -79z m5501 48 c23 -26 22 -25 -17 5 -24 18 -43 35
-43 37 0 10 36 -16 60 -42z m-5333 -20 c-13 -27 -33 -64 -44 -82 l-20 -33 -17
26 c-17 25 -16 26 29 80 42 48 64 67 73 60 2 -2 -8 -25 -21 -51z m5443 40 c0
-8 -5 -12 -10 -9 -6 4 -8 11 -5 16 9 14 15 11 15 -7z m229 -71 c-22 -32 -52
-75 -66 -95 -26 -38 -43 -42 -43 -9 0 10 9 21 20 24 11 3 20 13 20 22 0 13 94
113 108 115 2 0 -16 -26 -39 -57z m-3442 -205 c-1 -46 -3 -9 -3 82 0 91 2 128
3 83 2 -46 2 -120 0 -165z m-2327 217 c-7 -8 -17 -12 -23 -8 -6 4 -3 9 9 14
27 11 28 11 14 -6z m2379 -375 c7 -212 18 -558 26 -769 16 -400 19 -1370 5
-1291 -5 25 -15 263 -24 530 -9 267 -21 600 -26 740 -15 377 -11 1197 5 1178
1 -2 8 -176 14 -388z m3151 358 c0 -6 -7 -5 -15 2 -8 7 -15 17 -15 22 0 6 7 5
15 -2 8 -7 15 -17 15 -22z m63 -53 c33 -39 36 -47 25 -65 -7 -11 -16 -20 -20
-20 -16 0 -55 82 -50 105 2 14 5 25 6 25 1 0 19 -20 39 -45z m-420 -179 c-72
-144 -81 -150 -82 -51 -1 48 1 51 71 122 40 40 74 71 75 69 2 -2 -26 -65 -64
-140z m401 99 c15 -23 15 -27 -6 -70 -12 -25 -24 -45 -27 -45 -4 0 -5 31 -3
70 2 38 7 70 12 70 4 0 15 -11 24 -25z m-3117 -840 c0 -194 -2 -235 -7 -160
-4 55 -7 255 -7 445 1 306 1 324 8 160 3 -102 6 -302 6 -445z m-48 -3082 c-1
-170 -5 -283 -8 -253 -7 55 -2 560 5 560 2 0 3 -138 3 -307z m-129 -1302 c-8
-5 -41 -16 -72 -24 l-58 -15 0 24 c0 23 3 24 73 24 46 0 67 -4 57 -9z m1187
-57 c44 -4 52 -9 55 -27 2 -12 15 -28 30 -35 14 -7 47 -41 73 -77 25 -36 72
-93 103 -127 31 -34 48 -57 37 -51 -11 6 -26 8 -35 3 -8 -4 -48 -11 -89 -14
-40 -4 -79 -10 -86 -12 -7 -3 -20 17 -33 54 -32 85 -63 128 -93 125 -21 -2
-30 9 -72 87 l-48 89 53 -5 c29 -3 76 -7 105 -10z m-1487 3 c0 -2 -15 -16 -32
-33 l-33 -29 29 33 c28 30 36 37 36 29z m54 -59 c-12 -17 -15 -18 -10 -5 3 11
9 31 13 45 7 25 8 26 11 5 2 -13 -4 -33 -14 -45z m1596 -21 c0 -5 -4 -5 -10
-2 -5 3 -10 14 -10 23 0 15 2 15 10 2 5 -8 10 -19 10 -23z m-1750 -110 c0 -2
-15 -16 -32 -33 l-33 -29 29 33 c28 30 36 37 36 29z m2105 -116 c3 -5 1 -13
-5 -16 -14 -8 -40 13 -40 32 0 10 4 11 19 3 11 -5 22 -14 26 -19z m-425 -66
c5 3 11 1 15 -5 3 -6 -4 -10 -18 -10 -17 0 -28 10 -41 38 l-17 37 26 -33 c15
-18 30 -30 35 -27z m380 26 c0 -14 -38 -24 -52 -14 -9 5 -3 10 17 14 17 4 31
7 33 8 1 0 2 -3 2 -8z m-1765 -11 c-3 -5 1 -20 9 -32 25 -35 20 -37 -41 -21
-73 18 -112 41 -92 54 20 12 132 12 124 -1z m83 3 c-10 -2 -18 -11 -18 -20 0
-12 3 -13 13 -4 15 12 42 -13 65 -59 26 -51 142 -205 243 -322 57 -66 111
-130 119 -142 l14 -21 -23 20 c-50 43 -311 344 -416 480 -16 22 -38 47 -47 57
-17 17 -16 18 25 17 23 -1 34 -3 25 -6z m-468 -23 c0 -5 -8 -10 -17 -10 -15 0
-16 2 -3 10 19 12 20 12 20 0z m2010 1 c0 -16 -20 -23 -46 -17 -36 9 -29 26
11 26 19 0 35 -4 35 -9z m80 -16 c0 -3 -18 -14 -40 -25 -45 -23 -48 -20 -19
21 17 24 24 27 40 19 10 -6 19 -13 19 -15z m-2030 -26 c0 -5 -11 -3 -25 3 -18
8 -22 14 -13 19 13 8 38 -7 38 -22z m146 -5 c43 -12 59 -24 101 -77 83 -101
227 -304 202 -281 -13 11 -58 51 -99 88 -41 38 -121 104 -177 148 -91 70 -143
122 -143 143 0 7 40 0 116 -21z m1504 6 c9 -17 8 -20 -8 -17 -12 1 -58 -32
-123 -89 -128 -111 -190 -153 -94 -63 74 70 208 189 212 189 1 0 7 -9 13 -20z
m70 -33 c-356 -333 -536 -493 -425 -378 124 128 386 371 401 371 8 0 14 7 14
15 0 14 26 34 45 34 6 1 -10 -18 -35 -42z m188 35 c17 -11 -46 -76 -158 -163
-116 -91 -311 -270 -401 -368 -41 -45 -99 -100 -129 -123 -67 -50 75 90 390
384 118 111 219 208 224 216 5 9 4 17 -5 23 -11 7 -10 11 6 23 22 17 53 20 73
8z m-1434 -157 c58 -74 103 -135 101 -135 -4 0 -209 184 -275 246 l-25 24 47
0 46 0 106 -135z m220 -65 c65 -75 226 -290 226 -299 -1 -3 -32 28 -71 69 -66
71 -236 301 -221 299 4 0 34 -31 66 -69z m765 8 c-3 -2 -45 -41 -94 -88 l-90
-85 85 88 c46 48 89 87 94 87 5 0 7 -1 5 -2z m-849 -288 c0 -8 39 -53 88 -99
48 -46 71 -73 52 -60 -47 31 -216 208 -260 272 -60 87 -55 86 34 -8 47 -49 85
-97 86 -105z m619 187 c-2 -1 -15 -11 -29 -22 l-25 -20 19 23 c11 12 24 22 29
22 6 0 8 -1 6 -3z m-327 -241 c10 -19 8 -18 -16 3 -14 14 -26 29 -26 34 0 13
29 -12 42 -37z m-54 -89 c39 -40 72 -79 72 -87 0 -8 -36 21 -80 65 -44 44 -80
83 -80 87 0 18 20 4 88 -65z m132 -50 c0 -18 -2 -19 -10 -7 -13 20 -13 43 0
35 6 -3 10 -16 10 -28z m0 -82 c0 -8 -2 -15 -4 -15 -2 0 -6 7 -10 15 -3 8 -1
15 4 15 6 0 10 -7 10 -15z"/>
<path d="M5677 3853 c-8 -514 -7 -1598 2 -1803 12 -286 24 676 18 1469 -3 404
-8 735 -10 737 -2 2 -7 -179 -10 -403z"/>
<path d="M6553 3725 c0 -38 2 -53 4 -32 2 20 2 52 0 70 -2 17 -4 1 -4 -38z"/>
<path d="M6486 2985 c2 -170 13 -467 24 -660 l19 -350 -4 255 c-3 140 -10 336
-15 435 -6 99 -15 281 -20 405 -8 221 -8 220 -4 -85z"/>
<path d="M6478 2255 l-3 -140 -17 125 c-15 111 -16 116 -11 40 2 -47 11 -123
19 -170 9 -47 19 -187 23 -311 6 -144 13 -233 20 -245 10 -15 11 11 7 124 -3
78 -4 142 -2 142 2 0 10 -33 17 -72 7 -40 14 -65 17 -55 2 9 -6 65 -17 125
-13 68 -25 189 -31 332 -6 124 -13 230 -15 235 -2 6 -5 -53 -7 -130z"/>
<path d="M5660 1076 c0 -2 8 -10 18 -17 15 -13 16 -12 3 4 -13 16 -21 21 -21
13z"/>
<path d="M5766 982 c5 -5 104 -82 219 -172 116 -89 219 -170 230 -179 19 -15
19 -15 6 2 -42 54 -428 357 -455 357 -6 0 -6 -3 0 -8z"/>
<path d="M9775 12625 c-49 -8 -120 -21 -158 -29 -37 -7 -70 -10 -73 -5 -11 19
-85 7 -209 -35 -156 -52 -574 -215 -642 -249 -26 -14 -76 -36 -110 -50 l-61
-25 -6 22 c-3 11 -6 46 -6 77 0 39 -5 63 -17 78 -18 20 -18 20 -58 2 -91 -42
-245 -179 -305 -272 -43 -66 -113 -241 -137 -339 -20 -82 -24 -293 -5 -312 6
-6 12 -19 12 -28 -1 -8 -17 15 -36 53 -37 72 -55 91 -28 30 29 -67 121 -355
148 -463 49 -198 68 -335 73 -532 l6 -187 -92 -153 c-89 -148 -266 -405 -313
-455 -37 -40 -91 -69 -96 -53 -3 8 -9 3 -16 -13 -12 -29 -259 -207 -288 -207
-9 0 -20 -5 -23 -10 -4 -6 -21 -16 -38 -24 -47 -19 -97 -65 -97 -88 0 -19 2
-18 31 6 32 27 54 33 64 16 11 -19 56 -10 132 25 42 19 77 34 79 33 1 -2 -13
-28 -33 -60 -47 -75 -41 -110 7 -37 45 70 154 178 209 208 l44 23 -34 -47
c-90 -125 -349 -371 -401 -382 -37 -7 -36 -23 0 -23 75 0 318 223 478 438 36
49 60 70 108 94 160 80 280 185 291 254 8 51 39 109 84 159 97 107 140 195
141 286 0 36 9 105 20 155 24 110 26 288 4 404 -17 92 -62 237 -101 322 -32
72 -40 71 -12 -1 24 -63 55 -242 65 -367 6 -76 4 -95 -12 -125 l-18 -34 -13
65 c-27 137 -66 290 -105 409 -38 118 -122 327 -138 344 -4 5 5 -36 21 -90 36
-121 36 -127 2 -75 -33 51 -42 48 -15 -5 11 -21 28 -65 37 -98 10 -33 20 -66
23 -74 4 -10 1 -12 -7 -6 -36 22 -95 216 -110 361 -17 165 24 380 84 453 14
15 22 31 19 34 -8 8 78 157 113 195 22 23 38 32 49 28 13 -5 15 -2 11 13 -4
16 8 29 57 61 34 22 68 40 74 40 7 0 12 -14 12 -34 0 -18 3 -53 6 -77 5 -41 4
-45 -25 -62 -35 -20 -52 -43 -76 -99 -19 -47 -13 -49 15 -4 18 30 75 76 93 76
3 0 14 -16 26 -35 11 -19 24 -35 28 -35 4 0 6 22 5 49 -4 46 -2 49 25 55 15 4
116 43 223 85 277 111 732 224 950 237 89 5 94 4 75 -11 -19 -16 -19 -16 10
-9 17 4 38 11 48 16 19 10 23 33 7 43 -22 14 4 25 56 25 45 0 54 -3 54 -18 0
-33 -81 -144 -95 -130 -5 4 12 39 39 80 38 58 -8 35 -101 -51 -252 -232 -279
-259 -266 -272 14 -15 22 -8 176 141 48 46 87 81 87 76 0 -5 -41 -56 -90 -113
-67 -76 -87 -105 -76 -109 8 -3 31 6 51 21 19 15 35 24 35 21 0 -15 167 139
222 204 63 75 94 98 100 78 8 -24 41 41 34 67 -15 57 -146 78 -321 50z m273
-67 c-2 -6 -10 -14 -16 -16 -7 -2 -10 2 -6 12 7 18 28 22 22 4z m-1896 -1421
c19 -18 28 -42 41 -122 25 -146 37 -276 35 -395 -1 -58 -3 -89 -5 -70 -1 19
-8 85 -13 145 -12 125 -39 264 -73 383 -13 45 -21 82 -17 82 4 0 18 -10 32
-23z m221 -473 c-7 -57 -7 -58 -16 -27 -7 23 -6 41 3 63 18 43 22 32 13 -36z
m-63 -28 c-7 -7 -10 6 -9 40 l1 49 9 -39 c6 -26 6 -43 -1 -50z m27 -136 c-4
-41 -45 -166 -52 -158 -6 7 18 225 27 248 l11 25 9 -35 c6 -19 8 -55 5 -80z
m-204 -336 c-9 -49 -18 -82 -21 -74 -2 8 -11 23 -19 32 -13 15 -11 23 18 77
18 33 34 59 36 57 2 -1 -4 -43 -14 -92z m-47 -90 c6 -33 3 -40 -40 -82 l-46
-47 33 83 c17 45 35 82 39 82 4 0 10 -16 14 -36z m-120 -132 c-19 -38 -47 -77
-61 -86 -17 -11 -24 -13 -18 -4 28 45 107 158 110 158 2 0 -12 -31 -31 -68z"/>
<path d="M2370 12316 c-90 -34 -235 -109 -321 -166 -52 -35 -136 -87 -188
-117 -129 -73 -212 -134 -311 -228 -47 -44 -112 -100 -145 -125 -33 -24 -269
-253 -525 -510 l-465 -466 -136 -72 c-75 -40 -143 -72 -152 -72 -37 0 -25 22
25 46 35 17 43 23 23 19 -81 -18 -120 -60 -78 -83 15 -9 12 -13 -18 -31 -38
-23 -29 -28 11 -6 22 12 27 11 44 -3 44 -41 319 -23 588 39 72 16 134 29 139
29 5 0 -12 -28 -37 -62 -109 -149 -225 -373 -292 -569 -39 -112 -133 -463
-131 -490 0 -8 12 24 25 71 40 137 124 388 162 485 103 265 343 657 379 621 3
-3 1 -11 -4 -18 -14 -18 -83 -198 -128 -338 -33 -99 -235 -532 -235 -503 0 19
51 187 71 233 l19 45 -25 -30 c-34 -41 -60 -114 -101 -280 -18 -77 -59 -203
-89 -280 -49 -121 -139 -390 -204 -605 -11 -39 -19 -55 -20 -40 -2 53 30 291
49 356 10 38 17 70 15 72 -6 7 -44 -107 -59 -179 -8 -41 -22 -153 -31 -249
-16 -176 -19 -203 -32 -236 -4 -11 -3 -15 5 -10 7 4 9 -10 7 -46 -16 -203 -23
-412 -35 -998 -4 -239 -16 -522 -25 -629 -23 -273 -15 -284 19 -26 16 121 32
226 36 234 4 7 10 -20 14 -62 4 -41 13 -118 21 -171 8 -54 24 -186 35 -294 11
-108 34 -290 50 -404 17 -114 30 -213 29 -220 0 -16 -71 220 -95 315 -23 95
-29 77 -8 -25 9 -45 18 -110 19 -143 1 -33 14 -107 29 -165 27 -105 148 -476
166 -508 10 -19 146 -351 195 -479 17 -44 36 -87 41 -95 14 -17 96 -210 91
-214 -1 -2 -18 25 -37 59 -18 34 -96 170 -173 302 -78 132 -172 299 -209 370
-38 72 -66 119 -63 105 12 -43 102 -227 181 -368 42 -76 88 -157 102 -182 44
-78 7 -30 -85 111 -48 75 -94 145 -100 155 -11 16 -11 15 -3 -9 17 -47 40 -87
165 -282 67 -104 168 -267 224 -362 88 -146 101 -174 92 -191 -6 -12 -10 -51
-10 -89 l2 -68 11 85 11 85 42 -75 c22 -41 51 -99 63 -128 13 -29 25 -50 28
-47 8 7 212 -337 212 -357 0 -10 5 -18 10 -18 17 0 80 -105 157 -260 67 -135
81 -147 46 -41 -11 31 -12 46 -4 54 6 6 11 19 11 29 0 10 6 18 14 18 30 0 39
30 37 123 -4 276 -103 897 -210 1332 -22 88 -38 162 -36 164 2 2 35 -59 73
-135 147 -293 376 -675 639 -1063 l145 -213 232 -622 c128 -341 246 -656 261
-699 15 -42 29 -76 31 -74 2 2 -25 91 -61 197 -36 106 -63 195 -61 197 1 2 83
-224 182 -501 103 -289 182 -499 187 -492 4 6 5 -2 1 -18 -5 -20 -4 -27 4 -22
7 4 10 2 7 -6 -3 -7 11 -60 30 -118 45 -133 65 -271 105 -740 18 -201 34 -367
37 -370 6 -6 -5 556 -12 615 -4 38 -4 38 6 10 12 -36 59 -346 59 -394 0 -18
-9 -49 -21 -67 -22 -37 -10 -48 15 -13 14 21 15 21 21 -12 3 -19 12 -86 19
-149 l14 -115 2 115 c2 83 5 107 11 85 7 -24 7 -22 4 15 -13 127 -15 198 -6
225 9 29 9 29 10 4 1 -38 23 -63 49 -55 56 18 109 223 148 566 20 179 30 696
18 966 l-8 199 -7 -125 c-4 -69 -12 -244 -19 -390 -23 -542 -67 -951 -121
-1125 -11 -36 -24 -65 -29 -65 -13 0 -13 53 0 66 14 14 37 199 45 359 3 72 15
239 26 372 11 133 19 253 16 265 -3 14 -5 8 -6 -17 -1 -22 -6 -58 -10 -80 -4
-23 -10 132 -13 365 -7 470 -29 713 -104 1163 -12 71 -15 30 -4 -58 13 -104
40 -501 39 -565 l-1 -45 -8 45 c-5 25 -20 126 -35 225 -37 256 -87 486 -160
740 -62 215 -83 280 -84 260 -1 -6 10 -51 24 -100 14 -50 25 -97 24 -105 0 -8
-29 86 -64 210 -35 124 -82 281 -104 350 -21 69 -35 126 -31 128 4 2 -1 31
-11 65 -32 102 -116 407 -113 407 2 0 59 -112 126 -250 67 -137 123 -248 125
-246 5 5 -179 410 -251 553 -47 94 -171 421 -163 430 8 7 258 -509 272 -561 9
-32 73 -198 141 -370 125 -310 425 -1080 439 -1124 4 -13 9 -22 11 -19 10 9
-184 557 -292 825 -125 310 -138 347 -98 262 77 -161 217 -518 299 -760 51
-151 116 -340 143 -420 38 -108 54 -175 65 -262 17 -132 41 -200 30 -84 -5 54
-3 67 7 61 9 -5 10 -2 5 14 -3 11 -3 30 0 42 7 20 9 19 37 -15 21 -26 37 -36
58 -36 64 0 83 104 83 450 -1 536 -88 1082 -263 1660 -22 74 -42 144 -45 155
-3 11 -23 73 -46 138 -42 120 -62 154 -33 58 8 -29 14 -54 12 -56 -9 -9 -118
188 -138 248 -12 38 -24 66 -27 63 -3 -3 0 -19 6 -37 18 -52 6 -44 -37 24 -49
77 -100 188 -95 204 2 6 -39 138 -91 293 -53 155 -96 287 -95 293 0 7 76 -140
170 -326 93 -185 174 -337 180 -337 15 0 6 25 -68 179 -112 234 -184 393 -180
397 5 5 199 -285 201 -301 1 -7 19 -32 39 -56 64 -74 155 -212 190 -290 19
-41 67 -128 107 -194 117 -195 451 -890 406 -845 -9 8 -62 119 -119 245 -57
127 -117 255 -132 285 -49 99 -169 293 -173 281 -2 -6 16 -46 41 -89 75 -130
258 -516 257 -540 -1 -4 -19 27 -40 68 -43 83 -51 88 -20 13 34 -82 -4 -20
-83 135 -89 174 -157 331 -157 361 0 13 -4 19 -11 16 -15 -10 -3 -55 48 -180
95 -233 216 -454 315 -576 26 -32 56 -77 68 -100 31 -62 103 -179 111 -179 3
0 -14 41 -38 90 -47 99 -47 100 -34 100 5 0 17 -20 27 -45 21 -55 29 -53 14 4
-9 36 -8 44 10 68 11 16 23 51 26 78 3 28 12 64 20 82 38 85 43 527 10 838 -9
77 -20 201 -26 275 -6 74 -17 189 -26 256 -8 66 -14 156 -12 200 l3 79 56 -95
c31 -52 89 -153 129 -225 96 -171 158 -262 209 -308 43 -39 89 -54 59 -19 -11
13 -98 159 -145 245 -2 4 -2 7 0 7 3 0 24 -33 47 -72 101 -172 172 -243 215
-214 17 12 20 26 22 92 1 51 12 118 31 189 29 108 62 302 62 367 0 40 10 78
20 78 4 0 17 -26 28 -57 30 -83 76 -151 107 -159 56 -14 98 39 145 187 17 53
38 106 46 118 14 19 17 20 42 7 15 -8 46 -35 68 -60 48 -53 79 -60 94 -20 6
14 10 35 10 47 -1 17 -4 14 -16 -13 l-16 -35 -21 30 c-51 70 -114 125 -143
125 -60 0 -90 -40 -138 -186 -15 -45 -33 -90 -41 -100 -18 -24 -23 -17 -65 86
-47 115 -53 125 -80 125 -28 0 -38 16 -39 63 -1 29 1 32 18 22 11 -5 42 -10
68 -10 89 0 160 63 278 245 65 101 67 105 61 105 -2 0 -23 -30 -46 -67 -116
-186 -199 -266 -275 -266 -49 0 -103 26 -115 56 -5 12 -9 16 -9 8 -1 -7 -36
18 -78 56 -117 105 -160 133 -203 133 -58 0 -95 -49 -139 -182 -43 -129 -72
-136 -167 -42 -102 102 -182 254 -155 296 17 27 13 33 -9 13 -14 -13 -20 -31
-20 -60 0 -58 66 -188 131 -259 29 -31 44 -56 37 -58 -6 -2 -16 -18 -22 -36
-11 -31 -12 -29 -74 116 -74 173 -78 180 -91 167 -9 -9 -4 -43 34 -225 12 -57
-13 9 -30 78 -9 40 -21 75 -26 78 -5 3 -9 1 -9 -5 0 -15 20 -114 27 -131 3 -8
5 -22 4 -32 -1 -9 3 -19 8 -22 6 -4 8 -13 5 -20 -3 -8 -1 -17 5 -20 6 -4 8
-13 4 -21 -3 -8 -1 -15 5 -15 6 0 9 -11 7 -25 -1 -14 1 -25 6 -25 4 0 15 -31
23 -69 19 -83 20 -103 5 -81 -7 11 -8 -3 -3 -45 3 -33 4 -57 0 -54 -4 3 -18
44 -31 90 -61 210 -113 376 -124 398 -21 38 -31 7 -29 -89 l2 -85 5 90 c3 50
9 86 12 80 4 -5 28 -86 53 -180 26 -93 58 -206 71 -250 24 -79 50 -266 80
-564 17 -179 18 -231 0 -116 -17 110 -17 61 -1 -135 13 -153 13 -244 -1 -280
-4 -8 -12 12 -19 45 l-12 60 -1 -62 c-1 -79 12 -117 39 -110 19 5 20 0 19 -71
l-1 -77 -13 50 -14 50 5 -75 c3 -41 13 -86 21 -99 24 -38 1 -271 -27 -271 -5
0 -16 24 -26 53 -42 128 -263 582 -422 867 -42 74 -99 178 -129 229 -29 52
-50 97 -46 100 3 4 8 1 10 -6 15 -41 73 -83 73 -53 0 6 -38 90 -85 187 -47 97
-84 178 -82 179 8 8 82 -104 162 -246 93 -164 110 -188 122 -176 4 4 -11 44
-35 89 -24 45 -33 69 -20 52 73 -96 106 -130 126 -133 32 -5 29 37 -11 128
l-33 75 16 52 c9 29 24 59 33 66 23 16 31 53 57 252 18 146 37 243 39 205 4
-65 24 -187 33 -195 7 -7 8 6 3 40 -16 125 -16 305 -1 397 18 102 20 311 3
248 -11 -44 -13 -46 -32 -30 -20 16 -22 8 -34 -115 -15 -150 -63 -407 -116
-615 -66 -263 -65 -260 -76 -260 -20 0 -119 103 -170 178 -29 42 -76 109 -104
147 -28 39 -102 149 -164 245 -62 96 -115 177 -117 179 -2 2 -10 1 -18 -2 -13
-5 -12 -14 11 -59 39 -78 110 -202 171 -298 46 -71 218 -420 207 -420 -2 0
-38 53 -81 118 -152 226 -257 372 -271 372 -17 0 -17 -20 0 -45 28 -41 58 -95
55 -95 -3 0 -19 21 -37 46 -20 26 -39 43 -46 40 -9 -3 -24 12 -39 38 -24 41
-24 46 -14 112 14 85 13 575 -1 624 -10 34 -10 33 -7 -15 4 -63 -13 -358 -24
-405 -6 -24 -8 5 -9 95 -2 188 -23 321 -59 365 -23 29 -49 17 -62 -28 -16 -58
-11 -314 10 -597 36 -456 35 -430 10 -569 -13 -69 -27 -126 -31 -126 -4 0 -68
69 -143 154 -139 157 -177 191 -200 183 -16 -6 -129 107 -186 188 -24 33 -62
83 -86 111 l-42 50 -4 220 c-1 120 1 305 6 409 5 109 5 246 0 320 l-9 130 -6
-195 c-3 -107 -10 -233 -14 -280 -10 -101 -12 -94 -45 123 -12 81 -25 146 -27
143 -3 -2 2 -58 11 -123 37 -290 40 -369 17 -526 -12 -79 -21 -150 -21 -156 0
-6 -5 -11 -11 -11 -7 0 -8 32 -3 103 5 88 4 104 -10 116 -21 18 -42 1 -51 -40
-4 -16 -10 -29 -13 -29 -4 0 -33 50 -65 110 -32 61 -60 110 -63 110 -2 0 25
-58 60 -128 62 -123 64 -131 55 -172 -24 -105 -94 -654 -135 -1045 -15 -154
-33 -220 -56 -213 -6 2 -62 123 -125 268 -171 398 -193 455 -193 503 0 41 2
40 55 -69 60 -125 97 -174 128 -174 16 -1 35 -20 67 -68 42 -62 80 -91 80 -60
0 7 -20 43 -43 79 -53 81 -85 145 -138 274 -23 55 -76 170 -119 256 l-78 155
29 215 c87 656 132 1185 153 1799 l5 145 -14 -180 c-68 -857 -79 -974 -175
-1765 -7 -52 -14 -97 -17 -100 -3 -3 -2 60 1 140 22 483 46 1872 33 1860 -7
-6 -14 -185 -57 -1375 -5 -154 -13 -360 -16 -457 -4 -98 -10 -178 -14 -178 -4
0 -20 52 -35 116 l-29 116 18 191 c9 106 28 295 42 420 14 126 24 236 22 245
-2 9 -21 -120 -42 -288 -21 -168 -41 -318 -45 -335 -5 -20 -13 42 -25 180
l-18 210 42 385 c22 212 52 483 66 603 14 120 24 223 22 229 -3 8 -109 -794
-135 -1020 -3 -29 -7 -51 -9 -49 -3 2 -32 258 -50 430 -3 37 -8 66 -10 64 -3
-2 7 -149 21 -326 l25 -321 -19 -193 c-45 -431 -54 -600 -55 -935 -1 -327 -1
-333 -20 -310 -15 19 -17 34 -12 88 4 43 2 60 -4 50 -5 -8 -10 -27 -10 -42 0
-45 -9 -59 -31 -47 -28 15 -25 -12 5 -40 16 -15 26 -38 30 -74 4 -29 31 -124
61 -212 43 -127 55 -180 61 -253 4 -51 11 -95 17 -99 7 -4 8 16 4 57 -6 74 1
69 40 -25 25 -58 31 -91 39 -200 16 -232 6 -513 -22 -580 -7 -17 -6 -18 8 -7
9 7 19 27 22 45 10 48 36 323 37 392 1 52 2 56 10 30 6 -19 5 -85 -2 -175 -5
-80 -13 -332 -17 -560 l-7 -415 -49 90 c-27 50 -79 137 -116 195 -105 164
-246 457 -357 740 -47 121 -79 225 -118 390 -97 409 -205 931 -244 1180 -20
130 -47 438 -39 446 3 2 10 -35 16 -83 21 -159 106 -695 110 -685 2 6 -11 111
-27 234 -58 423 -101 773 -100 813 l1 40 8 -45 c4 -25 13 -97 19 -160 13 -125
76 -614 90 -695 12 -70 13 -27 1 75 -14 126 -57 591 -79 871 -16 188 -18 266
-11 335 5 49 19 179 30 289 27 264 72 593 120 895 37 228 44 257 101 413 34
92 64 166 65 164 2 -2 -14 -76 -36 -166 -22 -89 -40 -172 -40 -183 0 -12 -11
-80 -25 -152 -47 -249 -98 -681 -109 -911 l-5 -110 10 85 c86 779 269 1631
420 1963 72 156 296 604 326 648 13 21 39 43 56 50 75 29 311 151 417 215 144
87 142 86 99 33 -20 -24 -61 -83 -92 -130 -91 -140 -119 -236 -79 -272 23 -21
94 -22 175 -3 31 7 57 12 57 11 0 -2 -23 -51 -51 -109 -97 -199 -73 -276 96
-321 61 -15 238 -19 285 -6 29 8 39 5 -162 46 -139 29 -181 45 -203 79 -21 32
-14 55 62 216 29 63 52 123 51 134 -6 37 -31 41 -109 18 -41 -12 -96 -25 -123
-29 l-49 -6 6 37 c10 61 53 144 154 294 l97 143 193 145 c106 79 193 147 193
150 0 3 -28 -14 -62 -39 -77 -54 -431 -275 -576 -359 -151 -87 -404 -209 -421
-203 -8 3 -24 -3 -35 -13 -12 -11 -43 -27 -70 -36 l-49 -16 23 25 c13 13 88
52 169 86 188 79 366 169 543 276 158 95 438 280 438 289 0 4 -12 -2 -27 -12
-274 -181 -788 -454 -1063 -563 -85 -34 -165 -69 -178 -77 -13 -8 -41 -17 -64
-20 -22 -3 -50 -11 -62 -19 -31 -19 -261 -68 -381 -80 -33 -4 -69 -9 -80 -12
-48 -14 14 31 139 99 280 153 491 318 699 547 105 115 181 219 237 324 33 61
57 90 111 135 39 31 75 59 81 61 6 2 -20 -34 -57 -80 -76 -93 -161 -220 -194
-289 -12 -25 -16 -37 -9 -26 130 193 342 422 556 599 111 92 187 131 330 168
80 22 221 29 260 15 17 -6 22 -5 22 8 0 44 -127 59 -249 31 -35 -9 -66 -14
-68 -11 -2 2 22 18 53 36 51 28 64 32 107 26 47 -5 49 -5 33 13 -23 25 -21 27
28 40 50 12 88 3 105 -26 10 -17 10 -16 11 4 0 52 -82 77 -160 49z m-1039
-810 c-71 -103 -152 -196 -170 -196 -11 0 -38 -22 -61 -49 -28 -35 -46 -48
-57 -44 -11 4 -28 -7 -52 -34 -44 -49 -141 -138 -141 -129 0 25 495 514 508
501 2 -2 -10 -24 -27 -49z m-505 -468 c-14 -22 -93 -93 -141 -127 -11 -8 18
24 64 72 83 84 108 103 77 55z m150 -343 c-11 -8 -27 -15 -35 -15 -9 1 -2 7
14 15 39 18 44 18 21 0z m123 -62 c-54 -96 -80 -135 -86 -129 -7 7 75 158 94
174 27 20 26 15 -8 -45z m-39 23 c0 -3 -17 -33 -37 -68 -20 -35 -63 -121 -96
-193 -87 -193 -93 -185 -19 25 70 197 76 212 102 225 25 14 50 19 50 11z
m-226 -13 c4 -4 -17 -13 -46 -19 -66 -15 -73 -11 -16 9 52 19 53 19 62 10z
m-529 -43 c-3 -5 -12 -10 -18 -10 -7 0 -6 4 3 10 19 12 23 12 15 0z m579 -9
c-12 -11 -164 -35 -171 -27 -4 3 5 6 18 7 13 1 53 9 89 18 66 17 81 18 64 2z
m-614 -13 c0 -11 153 -7 240 7 27 4 30 3 14 -4 -29 -13 -187 -31 -269 -31
l-70 1 35 19 c41 23 50 24 50 8z m80 -68 c-74 -11 -171 -10 -195 0 -12 5 31 8
115 8 105 -1 123 -2 80 -8z m376 -606 c-4 -15 -45 -123 -92 -240 -46 -116 -84
-218 -84 -225 0 -7 -2 -10 -5 -7 -13 12 19 148 52 223 53 122 125 275 131 275
2 0 1 -12 -2 -26z m-251 -620 c-14 -78 -61 -244 -69 -244 -2 0 -1 33 1 73 3
49 16 103 40 170 20 54 38 96 40 93 2 -2 -3 -44 -12 -92z m-110 -311 c-12 -92
-75 -336 -90 -352 -8 -7 -6 36 5 134 7 59 25 133 52 212 23 67 44 121 45 119
2 -1 -4 -52 -12 -113z m26 -163 c-6 -30 -9 -36 -10 -19 -1 33 12 99 16 79 2
-8 -1 -35 -6 -60z m-140 -150 c-8 -72 -8 -73 -10 -20 -1 50 7 105 14 98 2 -2
0 -37 -4 -78z m75 -27 c-2 -43 -14 -175 -27 -293 l-24 -215 -3 205 c-3 200 -3
207 24 293 15 48 29 87 30 87 2 0 2 -35 0 -77z m-89 -115 c-3 -8 -6 -5 -6 6
-1 11 2 17 5 13 3 -3 4 -12 1 -19z m3 -340 c0 -139 -4 -302 -10 -363 -5 -60
-13 -145 -16 -188 -3 -43 -8 -76 -11 -73 -9 9 24 876 33 876 1 0 3 -114 4
-252z m17 -690 c-2 -13 -4 -3 -4 22 0 25 2 35 4 23 2 -13 2 -33 0 -45z m-30
-300 c-2 -24 -4 -7 -4 37 0 44 2 63 4 43 2 -21 2 -57 0 -80z m849 -5 c-5 -92
-2 -141 12 -222 18 -100 18 -111 1 -330 -10 -124 -18 -255 -19 -290 0 -35 -3
-61 -7 -58 -3 4 -14 55 -24 115 -24 152 -23 89 3 -123 15 -130 19 -199 14
-249 l-8 -70 -18 24 c-26 34 -34 135 -26 342 3 95 8 229 10 298 4 128 43 617
51 658 12 53 16 14 11 -95z m1652 -300 l-1 -228 -9 155 c-9 136 -4 300 8 300
2 0 3 -102 2 -227z m39 -10 c-2 -16 -4 -5 -4 22 0 28 2 40 4 28 2 -13 2 -35 0
-50z m10 -155 c-2 -24 -4 -5 -4 42 0 47 2 66 4 43 2 -24 2 -62 0 -85z m1623
34 c17 -11 73 -52 126 -93 l96 -74 -6 -50 c-24 -234 -82 -585 -112 -676 -9
-29 -12 -63 -9 -90 l6 -44 -31 35 c-17 19 -63 82 -102 140 -39 58 -96 138
-127 179 -48 63 -57 71 -59 51 -3 -17 -21 7 -77 102 -89 151 -125 193 -159
184 -23 -6 -25 -2 -36 51 -6 32 -17 87 -24 123 -8 36 -13 66 -12 68 2 1 23
-45 47 -103 47 -111 79 -162 96 -152 6 4 14 27 18 52 6 41 9 45 28 40 12 -4
45 -22 74 -40 52 -34 117 -65 136 -65 6 0 -17 19 -51 42 -56 39 -59 44 -42 53
30 16 47 44 80 136 54 149 76 170 140 131z m-3203 -257 l-3 -30 -11 25 c-6 14
-13 54 -17 90 l-5 65 19 -60 c11 -33 19 -73 17 -90z m783 38 c-1 -67 -3 -84
-11 -70 -10 17 -3 157 7 157 2 0 4 -39 4 -87z m-835 -190 c21 -312 28 -543 17
-543 -5 0 -14 12 -20 28 -19 48 -52 269 -52 344 0 128 23 430 32 415 4 -8 15
-118 23 -244z m705 106 c-5 -46 -10 -89 -10 -96 0 -7 -4 -13 -8 -13 -5 0 -3
39 4 88 8 48 14 93 14 101 0 8 2 12 5 9 3 -3 1 -43 -5 -89z m51 -11 l-11 -33
5 40 c3 22 6 54 7 70 1 27 2 26 5 -7 2 -20 -1 -51 -6 -70z m199 -89 c0 -9 22
-44 48 -76 70 -83 146 -202 159 -245 6 -21 10 -38 8 -38 -1 0 -35 43 -75 95
-39 52 -96 116 -125 143 -71 64 -109 139 -100 199 l6 45 40 -53 c21 -29 39
-60 39 -70z m-752 -1 c41 -89 49 -121 13 -49 -34 66 -73 157 -62 146 5 -5 27
-49 49 -97z m621 10 c1 -49 -1 -56 -15 -51 -14 5 -15 3 -5 -15 12 -23 13 -67
2 -96 -6 -17 -9 -16 -25 8 -16 25 -16 32 -1 114 8 48 18 98 21 112 6 23 7 24
14 5 5 -11 9 -46 9 -77z m-782 -35 c-2 -16 -4 -5 -4 22 0 28 2 40 4 28 2 -13
2 -35 0 -50z m111 -104 c-15 -10 -23 8 -30 71 l-6 45 25 -54 c19 -43 21 -56
11 -62z m527 12 c-4 -45 -12 -81 -17 -81 -6 0 -7 16 -4 38 3 20 8 59 12 85 10
77 17 46 9 -42z m240 -23 c28 -61 52 -116 53 -122 2 -6 -24 30 -57 79 -44 64
-61 99 -61 123 0 17 3 32 8 32 4 0 30 -51 57 -112z m803 -80 c22 -71 38 -128
36 -128 -2 0 -11 15 -20 33 -9 17 -20 34 -23 37 -21 15 -60 105 -56 126 13 61
18 78 21 69 1 -5 21 -67 42 -137z m-1618 72 c0 -13 -1 -13 -10 0 -5 8 -10 22
-10 30 0 13 1 13 10 0 5 -8 10 -22 10 -30z m867 -175 c129 -221 168 -305 213
-457 22 -75 40 -140 40 -145 -1 -21 -117 211 -146 291 -18 50 -33 84 -33 76
-1 -21 23 -108 42 -152 37 -87 1 -23 -123 220 l-132 257 7 54 7 55 18 -25 c11
-13 58 -91 107 -174z m78 70 c48 -63 130 -186 184 -272 87 -142 124 -205 231
-396 23 -42 36 -55 43 -48 8 8 -2 37 -34 100 -29 59 -41 94 -35 103 5 9 -7 41
-38 97 -46 84 -58 111 -32 76 9 -12 20 -16 35 -12 34 9 97 -31 142 -89 76 -99
101 -77 35 29 -51 81 -53 87 -31 87 20 0 33 27 50 112 9 40 20 77 25 82 6 6
10 26 10 47 0 53 12 129 20 129 12 0 185 -368 177 -376 -2 -2 -41 48 -88 111
-46 62 -86 112 -88 109 -3 -2 44 -76 105 -164 135 -197 142 -210 203 -395 210
-636 342 -1259 345 -1627 0 -87 4 -158 9 -158 37 0 33 305 -7 570 -14 91 -28
183 -30 205 l-6 40 10 -35 c27 -100 94 -512 106 -650 6 -80 -13 -682 -25 -765
-9 -61 -12 -54 -45 110 -33 170 -93 385 -171 620 -88 265 -190 519 -205 510
-4 -2 -17 22 -30 53 -84 205 -334 699 -476 940 -24 40 -42 77 -39 81 2 5 -43
91 -101 192 -130 227 -171 308 -214 426 -19 50 -37 90 -40 88 -7 -4 -32 45
-77 143 -13 29 -19 51 -13 47 5 -3 48 -57 95 -120z m-888 73 c-3 -8 -6 -5 -6
6 -1 11 2 17 5 13 3 -3 4 -12 1 -19z m132 -101 c28 -54 47 -96 41 -92 -6 4
-33 52 -61 108 -64 127 -50 116 20 -16z m501 58 c0 -5 -5 -3 -10 5 -5 8 -10
20 -10 25 0 6 5 3 10 -5 5 -8 10 -19 10 -25z m-1525 -245 c25 -113 58 -254 74
-315 17 -60 29 -111 27 -112 -2 -2 -29 71 -61 163 -49 141 -60 188 -76 312
-10 81 -21 163 -23 182 -5 35 -5 35 4 5 6 -16 30 -122 55 -235z m1504 211 c8
-25 8 -45 0 -75 l-11 -41 -15 29 c-11 21 -13 43 -8 83 7 58 15 59 34 4z m-669
-8 c0 -22 -8 -14 -19 20 -10 29 -9 30 4 13 8 -11 15 -26 15 -33z m541 -116
c-12 -79 -21 -150 -21 -157 0 -7 -3 -11 -6 -8 -3 4 2 69 11 145 18 153 25 194
32 176 2 -7 -5 -77 -16 -156z m-1514 121 c-3 -8 -6 -5 -6 6 -1 11 2 17 5 13 3
-3 4 -12 1 -19z m10 -40 c-3 -8 -6 -5 -6 6 -1 11 2 17 5 13 3 -3 4 -12 1 -19z
m957 -75 c-4 -20 -12 -33 -21 -33 -12 0 -14 7 -9 31 3 17 6 48 6 68 l1 36 15
-34 c9 -21 12 -47 8 -68z m1125 -668 c79 -144 85 -160 157 -409 275 -958 464
-1769 464 -1992 0 -31 3 -43 11 -38 9 5 10 43 6 133 -10 197 -52 444 -133 780
-24 102 -43 189 -41 194 5 17 216 -794 271 -1043 49 -224 79 -688 80 -1245 1
-394 -9 -541 -39 -581 -11 -15 -13 -11 -19 32 -28 192 -181 843 -272 1154 -51
176 -128 384 -186 510 -22 47 -62 153 -90 235 -193 583 -358 952 -522 1170
-37 49 -73 118 -121 230 -71 168 -220 471 -263 533 -26 38 -195 384 -208 424
-3 13 27 -26 68 -87 41 -60 86 -128 101 -150 15 -22 46 -60 68 -85 38 -42 38
-40 -13 35 -47 70 -85 145 -73 145 2 0 18 -25 35 -55 40 -69 49 -72 14 -4 -31
63 -26 76 6 15 13 -24 29 -42 34 -40 7 3 11 38 11 87 0 60 10 120 37 227 20
80 44 180 53 223 10 43 20 76 22 73 14 -13 47 21 70 71 21 47 27 53 35 38 34
-60 199 -433 243 -548 38 -100 54 -132 58 -116 3 12 -5 45 -19 77 -13 30 -67
190 -120 354 -52 165 -104 322 -115 349 -10 28 -16 55 -13 61 4 5 77 -129 164
-299 87 -169 194 -375 239 -458z m-1080 713 c5 -13 11 -39 15 -58 l6 -35 -19
40 c-19 39 -26 75 -16 75 3 0 9 -10 14 -22z m-960 -113 c-1 -16 -26 57 -32 95
-4 19 2 8 13 -25 11 -33 19 -64 19 -70z m3921 85 c6 -11 8 -20 6 -20 -3 0 -10
9 -16 20 -6 11 -8 20 -6 20 3 0 10 -9 16 -20z m-3255 -31 c4 -18 10 -27 14
-21 13 21 41 -44 39 -90 -1 -24 1 -61 6 -83 5 -27 4 -35 -2 -25 -14 21 -82
227 -82 246 0 25 18 6 25 -27z m886 -80 c-21 -65 -51 -110 -51 -76 0 17 29
165 36 187 4 11 10 7 21 -14 15 -28 14 -35 -6 -97z m179 -214 c0 -5 -18 28
-39 75 -21 47 -50 108 -64 137 -15 29 -25 59 -22 67 3 9 8 24 11 34 4 11 26
-42 60 -143 30 -88 54 -164 54 -170z m-973 248 c-3 -10 -5 -2 -5 17 0 19 2 27
5 18 2 -10 2 -26 0 -35z m214 -20 c26 -59 103 -313 96 -320 -2 -1 -33 55 -70
125 -63 121 -66 131 -66 195 1 37 3 67 5 67 2 0 18 -30 35 -67z m-64 15 c-3
-8 -6 -5 -6 6 -1 11 2 17 5 13 3 -3 4 -12 1 -19z m-8 -133 c1 -62 -2 -85 -9
-75 -5 8 -9 58 -9 110 0 62 3 88 9 75 5 -11 9 -60 9 -110z m2319 -1 c-2 -2
-21 19 -42 47 -29 39 -35 53 -25 59 9 6 21 -8 42 -47 16 -30 27 -56 25 -59z
m-2170 39 c11 -32 23 -67 26 -78 4 -11 -4 0 -17 25 -24 43 -44 110 -34 110 3
0 14 -26 25 -57z m-270 -33 c1 -14 11 -69 22 -124 27 -134 24 -138 -16 -21
-23 66 -34 118 -34 154 0 49 1 53 13 36 7 -11 14 -31 15 -45z m253 -220 c4
-25 32 -99 63 -164 31 -66 54 -121 52 -123 -2 -2 -23 31 -46 74 -24 43 -72
126 -107 184 -63 105 -63 106 -62 180 l0 74 46 -90 c26 -49 50 -110 54 -135z
m186 -189 c29 -69 52 -126 50 -127 -2 -2 -38 54 -80 124 -62 101 -82 146 -102
220 -14 52 -25 96 -24 100 1 14 104 -196 156 -317z m-8 115 c39 -87 70 -160
68 -162 -7 -8 -147 299 -147 323 0 14 11 -8 79 -161z m-310 -9 c-1 -87 -4
-132 -9 -117 -12 38 -12 272 0 265 6 -4 10 -63 9 -148z m104 -40 c154 -269
413 -780 522 -1027 53 -121 236 -592 232 -596 -9 -10 -381 602 -566 931 -56
99 -137 252 -181 340 l-79 160 -4 157 c-3 87 -1 155 3 153 5 -3 37 -56 73
-118z m1048 -98 c27 -56 48 -104 45 -107 -3 -3 -13 12 -22 34 -9 21 -32 69
-50 107 -19 37 -32 67 -29 67 3 0 28 -45 56 -101z m824 28 c28 -95 18 -92 -19
7 -18 48 -22 65 -11 56 8 -7 22 -35 30 -63z m-1525 -37 c0 -47 -5 -50 -24 -11
-11 21 -12 31 -3 40 20 20 27 12 27 -29z m1712 -342 c27 -109 48 -205 47 -211
-1 -7 1 -28 4 -47 16 -86 47 -298 46 -316 0 -10 -18 57 -40 150 -46 200 -114
455 -164 616 -20 63 -38 124 -41 135 -3 11 18 -13 46 -53 51 -72 54 -80 102
-274z m-787 -126 c26 -79 45 -146 42 -148 -5 -5 -97 268 -97 288 0 23 9 0 55
-140z m-1357 -627 l1 -350 -21 39 c-17 33 -20 56 -19 140 2 100 19 771 23 876
4 115 15 -370 16 -705z m57 390 c14 -99 31 -238 37 -310 6 -71 14 -132 18
-135 7 -5 67 -541 67 -595 0 -16 3 -38 7 -47 5 -10 4 -18 -1 -18 -10 0 -23 25
-99 185 l-57 120 -2 505 c-2 278 -1 498 1 490 2 -8 15 -96 29 -195z m2092 -57
c-3 -8 -6 -5 -6 6 -1 11 2 17 5 13 3 -3 4 -12 1 -19z m10 -50 c-3 -8 -6 -5 -6
6 -1 11 2 17 5 13 3 -3 4 -12 1 -19z m10 -50 c-3 -7 -5 -2 -5 12 0 14 2 19 5
13 2 -7 2 -19 0 -25z m-487 -73 c0 -5 -5 -3 -10 5 -5 8 -10 20 -10 25 0 6 5 3
10 -5 5 -8 10 -19 10 -25z m-1515 -204 c54 -364 78 -631 57 -631 -4 0 -15 89
-25 198 -9 109 -29 287 -42 397 -27 216 -27 220 -21 214 3 -2 16 -83 31 -178z
m2159 -106 c69 -465 95 -1013 55 -1167 -12 -48 -37 -50 -74 -6 -20 23 -25 39
-21 58 2 15 8 63 12 106 4 43 16 102 27 129 18 44 21 72 21 245 1 107 -5 258
-12 335 -6 77 -17 199 -23 270 -5 72 -13 148 -16 170 -3 22 -3 38 0 35 3 -3
17 -81 31 -175z m-1403 -157 c136 -277 271 -644 439 -1188 99 -323 273 -930
267 -936 -2 -2 -30 83 -62 188 -178 590 -443 1345 -730 2081 -4 9 -4 17 -1 17
4 0 43 -73 87 -162z m1039 -48 c13 -34 20 -63 17 -66 -3 -3 -13 19 -22 48 -10
29 -20 59 -23 66 -2 6 -2 12 1 12 2 0 15 -27 27 -60z m10 -2795 c-22 -150 -44
-265 -50 -265 -3 0 -11 54 -18 120 -13 116 -12 121 8 147 28 36 49 112 58 213
l7 85 3 -115 c1 -63 -2 -146 -8 -185z"/>
<path d="M1012 5915 c0 -5 6 -26 13 -45 7 -19 14 -28 14 -20 0 8 -6 29 -14 45
-7 17 -13 26 -13 20z"/>
<path d="M9813 12201 c-31 -8 -63 -38 -63 -57 0 -13 4 -12 26 5 30 24 51 26
105 9 36 -10 38 -13 24 -28 -15 -17 -13 -18 32 -17 36 1 61 -7 96 -27 26 -16
46 -31 43 -33 -3 -3 -28 0 -56 7 -80 19 -192 18 -223 -3 -41 -27 -34 -40 16
-31 140 25 377 -42 516 -146 182 -138 440 -402 560 -574 59 -86 50 -55 -14 48
-59 93 -127 186 -184 249 -50 55 -25 45 59 -26 60 -50 83 -79 116 -140 72
-133 154 -237 314 -397 208 -208 367 -329 595 -450 55 -29 116 -64 135 -77
l35 -23 -32 0 c-60 0 -245 32 -379 64 -124 31 -135 36 -185 79 -58 51 -137 95
-270 153 -118 51 -541 215 -545 211 -4 -3 56 -30 399 -178 247 -107 356 -161
382 -189 12 -13 -10 -9 -92 21 -59 21 -110 39 -113 39 -3 0 20 -14 50 -31 30
-16 69 -43 85 -60 l30 -30 -33 12 c-17 6 -34 15 -37 20 -3 4 -11 6 -18 3 -7
-2 -26 9 -42 26 -32 33 -59 42 -30 10 25 -27 18 -26 -155 14 -300 71 -542 170
-880 358 -69 39 -156 91 -195 116 -38 24 -81 51 -95 60 l-25 14 25 -21 c52
-45 399 -272 499 -326 233 -126 509 -225 744 -266 64 -11 70 -14 94 -53 59
-92 334 -668 367 -766 134 -403 279 -1115 346 -1700 10 -85 18 -136 19 -112 1
56 -45 511 -69 682 -33 224 -69 426 -110 600 -21 91 -37 166 -36 168 2 1 31
-73 65 -165 56 -154 64 -188 101 -408 62 -375 111 -758 144 -1132 11 -122 11
-176 0 -322 -19 -249 -51 -602 -75 -834 -11 -109 -19 -203 -17 -209 4 -12 81
567 99 747 6 61 15 130 19 155 l8 45 1 -40 c1 -41 -32 -311 -95 -779 -19 -142
-33 -261 -31 -263 5 -4 58 324 88 542 22 157 27 181 34 174 7 -8 -23 -329 -40
-430 -46 -267 -172 -868 -248 -1179 -16 -67 -37 -119 -70 -175 -26 -44 -47
-76 -47 -72 0 5 9 43 19 85 37 144 64 326 96 651 10 95 -4 49 -20 -70 -20
-139 -76 -412 -115 -563 -68 -258 -90 -312 -257 -623 -89 -164 -198 -372 -244
-463 -56 -113 -84 -159 -87 -145 -3 11 -2 144 1 295 7 372 27 502 153 1020 35
146 93 351 129 455 35 105 67 210 71 235 4 25 14 54 24 65 34 40 35 48 6 41
-24 -6 -26 -4 -27 26 0 18 -4 42 -9 53 -6 14 -9 0 -9 -46 -1 -65 -2 -67 -62
-145 -33 -44 -64 -82 -68 -87 -4 -4 5 82 21 190 39 279 60 452 56 465 -3 7
-10 -29 -17 -78 -7 -49 -19 -112 -27 -140 -7 -29 -23 -107 -35 -175 -11 -67
-22 -126 -24 -130 -3 -4 -7 -45 -9 -92 -5 -79 -25 -157 -42 -157 -4 0 -4 24 0
53 4 28 9 72 10 97 2 25 9 65 15 89 9 33 9 62 2 110 -10 60 -9 68 10 94 19 26
37 97 24 97 -2 0 -12 -15 -21 -32 -16 -30 -18 -31 -25 -13 -6 16 -8 14 -8 -11
-1 -48 -110 -195 -345 -464 -60 -69 -118 -136 -130 -150 -12 -13 2 -6 29 17
59 48 194 188 250 258 53 68 60 74 45 45 -13 -26 -308 -494 -342 -542 -39 -57
-8 -25 63 62 40 49 74 90 76 90 11 0 -91 -182 -119 -213 l-35 -38 -26 58 c-26
60 -40 118 -57 241 l-10 73 51 132 c55 141 92 222 109 232 16 10 12 25 -5 19
-23 -9 -54 -67 -106 -197 -26 -67 -50 -115 -53 -107 -13 42 -14 275 -1 399 8
75 19 215 25 311 5 96 16 203 24 238 14 64 6 87 -10 30 -8 -28 -12 -10 -26
115 -15 136 -22 168 -31 156 -2 -2 -1 -33 3 -68 3 -35 3 -125 -2 -200 -4 -75
-12 -224 -17 -331 -8 -149 -21 -259 -55 -465 -62 -375 -99 -616 -94 -620 5 -5
80 371 105 525 10 58 19 97 21 88 4 -20 -64 -507 -78 -558 -6 -19 -10 -46 -9
-60 0 -14 7 1 15 34 8 32 35 106 61 163 l47 106 18 -94 c20 -104 72 -222 100
-227 11 -2 22 6 29 22 7 14 16 26 20 26 4 0 -3 -25 -17 -55 -13 -31 -24 -61
-24 -68 0 -18 33 39 128 221 46 90 86 161 88 159 6 -6 -164 -397 -221 -505
-51 -97 -55 -109 -17 -55 14 19 14 19 -4 -34 -3 -10 17 23 43 72 46 85 236
402 248 414 13 12 -254 -520 -295 -589 -54 -93 -191 -376 -255 -530 -30 -71
-69 -142 -101 -185 -159 -213 -309 -543 -487 -1070 -47 -137 -94 -268 -105
-290 -56 -107 -137 -325 -196 -526 -62 -213 -219 -855 -250 -1023 -15 -77 -28
-141 -30 -143 -2 -2 -13 36 -25 86 -28 124 -36 411 -22 812 15 415 25 532 67
784 44 263 63 348 165 732 45 169 88 334 97 366 8 32 16 56 18 54 2 -2 -18
-98 -46 -213 -84 -359 -130 -640 -130 -805 0 -53 4 -89 10 -89 6 0 10 23 10
51 0 221 188 1024 469 1999 87 300 91 311 190 509 55 112 101 198 101 192 0
-7 -22 -73 -50 -148 -27 -75 -48 -138 -46 -140 2 -2 11 14 20 37 9 22 17 40
20 40 2 0 -7 -44 -20 -97 -13 -54 -24 -102 -23 -108 0 -12 97 226 175 430 29
77 54 134 54 128 0 -7 -18 -99 -40 -205 -65 -308 -64 -325 1 -73 23 87 56 236
74 330 31 158 48 225 59 225 2 0 2 -8 0 -17 -17 -82 -144 -817 -142 -824 3 -8
75 318 115 516 6 28 7 28 12 7 3 -13 10 -23 16 -23 10 -1 68 172 61 179 -2 2
-14 -21 -25 -50 l-22 -53 6 93 c14 233 42 387 105 584 34 105 59 192 57 194
-2 3 -21 -42 -42 -98 -37 -101 -62 -149 -51 -98 3 14 17 106 31 205 67 470 78
520 140 632 19 35 33 63 30 63 -2 0 -20 -23 -39 -51 -21 -31 -36 -46 -39 -37
-3 8 -6 5 -6 -7 -1 -20 -92 -248 -97 -243 -2 2 81 320 131 500 4 17 3 19 -3 8
-12 -18 -128 -406 -173 -575 -17 -66 -49 -156 -71 -200 -51 -101 -125 -231
-154 -270 -12 -16 -41 -64 -64 -105 -67 -119 -293 -440 -310 -440 -24 0 -27
277 -5 501 14 146 80 448 155 705 17 58 30 108 28 110 -2 2 -33 -84 -68 -191
-35 -107 -65 -193 -67 -191 -2 2 3 49 12 104 34 225 7 135 -40 -138 -20 -113
-47 -258 -61 -323 -55 -269 -77 -533 -56 -671 13 -79 28 -102 63 -91 23 8 23
8 3 16 -27 10 -34 52 -33 194 1 78 4 97 8 65 4 -25 13 -66 21 -92 21 -72 42
-66 139 39 45 48 81 84 81 80 0 -4 -24 -53 -52 -110 -66 -129 -64 -121 -44
-114 20 8 20 8 -4 -48 -24 -56 -25 -71 -5 -78 11 -5 48 63 149 266 74 150 160
328 191 397 31 69 63 132 72 140 14 13 15 13 9 -5 -4 -11 -10 -60 -12 -110 -6
-99 -129 -629 -145 -620 -4 3 -13 -14 -19 -37 -20 -75 -145 -336 -156 -326 -4
4 89 320 142 482 19 59 33 110 31 112 -4 4 -137 -361 -137 -379 0 -8 -3 -7 -9
2 -7 10 -18 -2 -41 -50 -18 -35 -91 -165 -163 -289 -71 -124 -163 -289 -204
-368 -41 -78 -76 -142 -78 -142 -4 0 63 207 148 455 93 272 130 373 157 425
28 54 6 51 -29 -5 -54 -85 -232 -567 -350 -950 -62 -198 -158 -441 -181 -455
-15 -9 -73 -144 -139 -321 -33 -91 -96 -240 -139 -330 -44 -90 -94 -201 -113
-246 -19 -46 -37 -83 -41 -83 -5 0 -8 125 -8 278 0 243 3 297 25 442 28 188
85 493 92 487 2 -2 -5 -56 -17 -118 -60 -341 -80 -709 -37 -709 9 0 12 37 13
133 2 342 119 919 308 1519 93 293 85 277 254 523 99 146 128 207 37 81 -88
-123 -125 -170 -125 -158 0 16 78 187 146 323 30 60 52 109 49 109 -2 0 -14
-19 -26 -42 -12 -24 -35 -63 -52 -87 -16 -24 -76 -142 -133 -263 -91 -192
-160 -315 -171 -305 -2 2 4 23 12 47 8 23 15 48 14 54 0 6 -15 -29 -32 -79
-28 -78 -77 -173 -125 -240 -13 -19 -14 -19 -7 5 17 60 111 304 157 405 77
172 221 466 225 461 2 -2 -14 -41 -37 -86 -23 -45 -39 -84 -37 -87 10 -10 150
242 348 627 24 47 54 99 67 117 15 21 19 32 11 35 -8 3 -4 24 15 71 14 36 29
81 32 99 4 26 -3 17 -31 -37 -95 -183 -132 -238 -243 -364 -20 -22 -19 -17 7
32 17 31 27 57 22 57 -14 0 -50 -51 -116 -165 -32 -55 -92 -154 -134 -220 -66
-105 -76 -116 -81 -95 -6 24 -7 23 -32 -20 -87 -151 -154 -273 -179 -329 -16
-35 -66 -129 -113 -210 -209 -365 -460 -877 -491 -1004 -9 -34 -23 -35 -36 -1
-15 41 -25 244 -11 244 11 0 16 21 26 113 4 30 2 46 -4 42 -6 -3 -10 -20 -10
-36 0 -17 -3 -28 -7 -26 -5 3 -7 34 -5 69 3 58 6 64 25 64 18 -1 23 7 30 54 4
30 6 69 4 85 -2 24 -5 19 -11 -23 -5 -29 -12 -55 -16 -57 -15 -9 -21 131 -11
245 6 63 10 131 9 150 -1 33 -1 32 -8 -10 -7 -45 -7 -45 -8 -8 -4 76 63 636
88 743 5 22 7 41 5 43 -4 4 -17 -42 -34 -116 -5 -24 -11 -46 -14 -49 -11 -10
-5 185 7 267 13 83 13 125 0 61 -6 -30 -24 -54 -24 -32 0 6 -11 11 -24 11 -33
0 -76 -53 -156 -189 -50 -84 -66 -105 -70 -89 -4 17 -17 4 -71 -68 -36 -49
-98 -137 -137 -195 -39 -58 -81 -114 -93 -125 l-21 -19 7 47 c5 32 2 62 -8 95
-23 70 -53 235 -77 413 -24 183 -39 284 -47 325 -7 29 -7 28 -14 -15 -4 -25
-8 -63 -8 -85 -1 -38 -2 -40 -33 -40 -31 0 -33 -2 -74 -104 -23 -57 -47 -108
-53 -114 -12 -12 -43 52 -80 166 -31 92 -61 127 -111 127 -32 0 -46 -7 -77
-38 -21 -21 -50 -53 -64 -72 l-26 -35 -16 30 c-16 30 -16 30 -17 5 0 -27 25
-70 41 -70 5 0 39 27 74 60 35 33 71 60 78 60 17 0 27 -21 67 -141 50 -151 94
-199 155 -171 21 10 85 124 109 195 12 36 24 6 31 -80 9 -111 48 -328 75 -415
15 -50 19 -80 14 -121 -8 -68 6 -97 46 -97 39 0 87 51 162 172 74 120 82 130
62 88 -10 -19 -43 -79 -76 -133 -32 -55 -58 -101 -58 -103 0 -13 25 1 62 34
53 47 108 132 260 399 93 164 124 211 129 196 12 -30 10 -123 -6 -229 -8 -54
-19 -164 -25 -244 -6 -80 -18 -210 -27 -290 -13 -106 -17 -229 -17 -460 0
-281 1 -320 18 -360 10 -25 22 -70 27 -100 5 -30 19 -68 30 -83 18 -24 19 -32
9 -63 -7 -19 -9 -38 -6 -41 3 -4 6 1 6 9 0 16 39 70 40 55 0 -4 -18 -44 -40
-89 -22 -44 -39 -83 -36 -85 5 -6 91 133 110 179 9 20 34 58 58 85 62 72 130
179 201 321 119 235 198 442 169 442 -5 0 -12 -15 -15 -34 -7 -41 -104 -256
-181 -400 -58 -107 -79 -136 -51 -70 26 63 15 52 -25 -26 -21 -41 -39 -72 -40
-69 -1 24 191 429 262 552 22 37 38 73 36 79 -2 6 -37 -43 -76 -109 -73 -122
-137 -251 -243 -491 -72 -163 -99 -215 -105 -209 -7 7 146 348 239 533 41 82
108 206 148 274 40 69 96 172 126 228 61 119 124 218 182 284 23 25 41 50 41
54 0 4 8 17 18 28 11 12 58 80 107 151 111 164 119 173 56 55 -297 -548 -577
-1354 -710 -2040 -67 -347 -91 -585 -96 -955 -3 -223 -2 -260 5 -160 20 302
111 1028 127 1012 2 -3 -6 -87 -18 -188 -19 -153 -23 -239 -23 -509 -1 -286 1
-333 17 -389 13 -44 16 -79 12 -112 -4 -32 -3 -49 5 -54 15 -10 26 8 34 54 4
27 12 39 34 49 16 7 35 23 42 37 19 36 33 19 27 -34 -4 -29 -3 -39 3 -26 6 15
9 6 12 -35 5 -72 13 -50 30 85 13 93 34 167 143 485 141 416 197 568 202 553
2 -6 -22 -80 -53 -164 -64 -175 -175 -511 -171 -516 2 -1 34 79 72 180 37 100
73 189 80 197 6 8 26 59 43 112 18 53 106 281 196 505 90 224 175 446 190 492
15 46 62 154 106 240 89 178 265 506 255 476 -70 -209 -110 -304 -208 -500
-109 -218 -297 -625 -297 -642 1 -4 79 151 175 346 96 195 177 352 180 349 12
-12 -60 -195 -91 -232 -42 -49 -108 -177 -167 -321 -86 -210 -122 -345 -196
-735 -28 -146 -64 -321 -80 -390 -16 -69 -32 -134 -34 -145 -9 -37 -7 70 3
168 6 61 19 120 34 158 21 52 22 58 6 44 -28 -25 -58 -105 -72 -187 -7 -40
-16 -75 -20 -78 -16 -12 -76 -434 -98 -685 -6 -71 -15 -286 -19 -477 -4 -191
-11 -351 -14 -355 -4 -3 -8 16 -8 43 -1 27 -4 39 -6 27 -2 -12 3 -99 12 -195
8 -95 20 -254 25 -353 13 -236 29 -382 46 -424 16 -39 18 -71 4 -71 -66 0
-157 871 -161 1555 -1 157 -3 172 -12 120 -5 -34 -10 -258 -11 -515 -1 -481 7
-607 54 -880 35 -199 82 -320 125 -320 17 0 35 30 36 62 1 20 2 19 10 -7 9
-27 7 -107 -6 -210 -4 -32 -3 -35 4 -15 6 18 10 -7 11 -85 l2 -110 14 115 c7
63 16 126 19 139 l6 24 15 -22 c25 -35 37 -24 15 13 -22 35 -29 118 -12 145
19 29 41 -79 42 -203 1 -134 5 -134 14 -3 6 76 9 86 22 76 13 -11 14 -8 6 27
-11 53 -8 156 12 369 31 339 46 419 125 645 127 368 383 1080 386 1077 2 -2
-25 -91 -61 -197 -36 -106 -63 -195 -61 -198 2 -2 7 7 11 20 4 13 115 312 248
666 l240 643 171 257 c199 298 302 462 434 692 52 91 97 167 100 170 2 3 2
-11 -2 -30 -15 -77 -76 -524 -91 -665 -9 -82 -18 -268 -20 -413 -4 -286 -3
-290 50 -262 37 20 45 5 25 -47 -40 -108 -25 -100 32 17 l61 125 13 -69 c23
-119 35 -106 42 49 l5 117 114 191 c63 105 121 204 130 220 8 16 17 27 19 24
3 -3 33 50 68 117 75 146 217 384 383 644 112 175 183 299 183 319 0 4 -15
-17 -34 -48 -45 -75 -176 -271 -189 -284 -6 -5 -1 6 9 25 173 304 233 416 265
491 58 134 47 129 -24 -11 -35 -69 -124 -228 -198 -355 -74 -126 -154 -265
-178 -308 -23 -42 -44 -77 -46 -77 -5 0 48 125 91 216 19 39 34 74 34 77 0 21
167 400 265 602 132 271 186 385 180 385 -2 0 -31 -51 -66 -112 -72 -129 -104
-182 -94 -153 61 183 130 465 115 475 -4 3 1 45 11 94 31 139 17 122 -24 -30
-21 -77 -46 -166 -57 -199 l-20 -60 5 45 c2 25 16 122 29 215 14 94 32 242 41
330 30 288 71 582 78 550 3 -16 18 -121 33 -232 15 -112 29 -201 31 -199 5 5
-25 431 -33 465 -3 13 -7 200 -9 415 -4 332 -12 597 -30 996 -2 41 -8 131 -14
200 -23 258 -46 384 -82 448 -11 20 -17 28 -14 17 27 -86 65 -315 65 -394 0
-37 -21 15 -60 148 -49 170 -115 361 -176 514 -24 60 -60 174 -79 254 -36 148
-75 252 -103 275 -14 11 -15 10 -7 -7 19 -44 64 -182 70 -215 3 -20 -36 48
-89 155 -65 129 -112 239 -147 345 -29 85 -67 191 -86 234 -18 43 -32 81 -30
83 23 23 160 -177 271 -397 86 -170 156 -352 229 -595 29 -96 53 -171 55 -165
5 14 -85 349 -130 480 -51 150 -160 371 -252 509 -41 61 -71 111 -66 111 5 0
69 -13 142 -30 235 -52 457 -73 538 -50 47 13 97 66 83 89 -12 19 -46 37 -88
46 -20 4 -12 -2 23 -19 50 -24 62 -46 25 -46 -9 0 -77 33 -152 72 l-136 73
-460 461 c-253 254 -489 483 -525 510 -36 26 -103 84 -150 129 -89 84 -185
154 -305 220 -38 22 -115 69 -170 106 -98 65 -281 159 -341 173 -16 4 -36 8
-44 10 -8 2 -25 1 -37 -3z m1400 -1042 c108 -109 197 -203 197 -210 0 -8 -41
27 -91 76 -58 57 -93 85 -96 77 -3 -9 -23 7 -55 43 -28 31 -56 54 -63 51 -16
-6 -136 142 -190 234 -20 34 111 -86 298 -271z m302 -291 c60 -61 69 -73 35
-47 -57 43 -120 106 -120 119 0 6 1 10 3 10 1 0 38 -37 82 -82z m-182 -292
c56 -22 109 -59 62 -42 -11 4 -31 10 -45 13 -21 4 -95 53 -80 53 3 0 31 -11
63 -24z m-112 -103 c39 -71 45 -90 23 -75 -11 7 -94 156 -94 168 0 18 34 -27
71 -93z m33 66 c19 -9 33 -32 54 -88 84 -221 132 -388 71 -249 -13 29 -55 116
-94 193 -38 77 -71 143 -73 148 -5 10 13 9 42 -4z m231 -15 l30 -14 -35 5
c-19 3 -39 10 -44 15 -15 15 14 12 49 -6z m545 -59 c17 -9 30 -18 30 -22 0 -8
-213 6 -265 17 -27 6 -1 7 78 4 80 -4 117 -2 117 5 0 6 -6 11 -14 11 -8 0 -18
4 -21 10 -7 11 26 0 75 -25z m-565 10 l50 -15 -60 6 c-33 3 -64 10 -69 15 -15
14 21 11 79 -6z m88 -22 c-7 -2 -19 -2 -25 0 -7 3 -2 5 12 5 14 0 19 -2 13 -5z
m566 -48 c-8 -7 -106 -10 -184 -5 -60 3 -53 5 55 10 124 5 138 4 129 -5z
m-501 -742 c51 -113 84 -202 92 -243 6 -36 13 -74 16 -85 l4 -20 -10 20 c-19
39 -179 451 -185 478 -15 57 6 21 83 -150z m195 -470 c22 -63 37 -124 40 -170
3 -40 4 -73 2 -73 -7 0 -45 126 -59 195 -22 109 -27 145 -23 145 3 0 21 -44
40 -97z m167 -537 c7 -58 10 -111 8 -117 -8 -23 -80 243 -94 344 -7 56 -13
107 -13 112 0 6 20 -45 44 -112 33 -92 47 -148 55 -227z m-102 59 c0 -25 -2
-24 -9 10 -10 51 -10 92 1 50 4 -16 8 -43 8 -60z m141 -149 c1 -67 -5 -55 -12
24 -4 40 -2 57 3 45 5 -11 9 -42 9 -69z m-30 -311 c0 -110 -2 -195 -4 -190 -6
15 -52 464 -53 515 0 44 0 42 29 -40 28 -82 29 -88 28 -285z m57 -339 c18
-507 13 -569 -16 -196 -10 127 -13 626 -4 617 2 -2 11 -192 20 -421z m-45
-526 c-10 -25 -10 -25 -10 5 -1 17 3 41 7 55 7 25 7 24 10 -5 2 -17 -1 -42 -7
-55z m36 -277 c-2 -21 -4 -4 -4 37 0 41 2 58 4 38 2 -21 2 -55 0 -75z m-1608
-212 c-9 -53 -17 -75 -31 -82 -11 -6 -21 -9 -23 -7 -2 2 11 40 28 85 18 45 33
80 35 79 1 -2 -3 -36 -9 -75z m-44 -226 c-13 -72 -35 -203 -49 -293 -14 -89
-30 -170 -35 -180 -8 -13 -10 -14 -11 -2 0 23 37 257 53 332 8 37 10 65 5 62
-9 -6 -2 31 13 74 5 13 9 29 8 35 -1 20 -50 -111 -80 -213 -15 -52 -28 -88
-28 -79 -2 39 50 243 75 291 29 58 64 111 70 106 2 -2 -8 -62 -21 -133z m116
-182 c-9 -41 -10 -32 -6 52 3 55 6 125 7 155 1 30 4 7 5 -52 2 -59 -1 -128 -6
-155z m-174 35 c-3 -8 -6 -5 -6 6 -1 11 2 17 5 13 3 -3 4 -12 1 -19z m-10 -40
c-3 -8 -6 -5 -6 6 -1 11 2 17 5 13 3 -3 4 -12 1 -19z m-11 -50 c-4 -18 -18
-105 -31 -193 -18 -120 -35 -189 -67 -277 -23 -65 -43 -116 -45 -114 -2 1 19
95 46 207 27 112 59 250 71 307 13 56 25 102 28 102 2 0 1 -15 -2 -32z m-356
-379 c-7 -11 -14 -18 -17 -15 -3 3 0 12 7 21 18 21 23 19 10 -6z m1143 -71
c-5 -57 -15 -80 -106 -240 -56 -98 -102 -176 -104 -175 -1 2 19 55 46 118 26
63 58 143 70 179 19 55 85 180 96 180 2 0 1 -28 -2 -62z m792 -106 c-14 -113
-26 -166 -73 -304 -31 -92 -57 -166 -59 -164 -2 1 21 104 51 227 30 123 63
264 72 312 10 49 20 84 22 78 2 -6 -4 -73 -13 -149z m-2745 108 c-11 -22 -23
-40 -25 -40 -3 0 4 18 15 40 11 22 23 40 25 40 3 0 -4 -18 -15 -40z m2819 -75
c-12 -41 -24 -74 -26 -71 -2 2 7 40 19 85 13 45 24 77 26 71 2 -5 -6 -44 -19
-85z m-1502 23 c-3 -7 -5 -2 -5 12 0 14 2 19 5 13 2 -7 2 -19 0 -25z m-2407
-28 c-6 -11 -13 -20 -16 -20 -2 0 0 9 6 20 6 11 13 20 16 20 2 0 0 -9 -6 -20z
m1058 -47 c-28 -30 -33 -23 -11 15 11 20 20 27 25 19 4 -6 -2 -22 -14 -34z
m2082 -172 c-36 -109 -67 -197 -68 -196 -2 2 8 63 23 137 23 115 32 142 67
196 22 34 41 62 42 62 1 0 -28 -90 -64 -199z m-133 14 c-19 -72 -42 -119 -109
-230 -46 -77 -103 -175 -127 -217 -23 -43 -44 -78 -47 -78 -2 0 11 30 29 68
68 134 108 233 109 264 1 19 22 68 51 117 27 47 63 113 80 146 41 78 46 51 14
-70z m-888 66 c-6 -18 -13 -30 -15 -28 -2 2 1 18 7 36 6 18 13 30 15 28 2 -2
-1 -18 -7 -36z m280 -218 c-18 -48 -37 -92 -42 -98 -7 -7 -8 -4 -3 8 3 11 18
89 34 175 l27 157 9 -77 c8 -72 6 -81 -25 -165z m-350 18 c-28 -84 -53 -150
-56 -147 -5 5 19 83 70 224 50 140 40 85 -14 -77z m977 -116 c-31 -171 -61
-283 -73 -272 -7 8 82 450 94 471 16 25 11 -22 -21 -199z m-1167 26 c-6 -18
-14 -30 -17 -27 -2 3 1 19 8 36 16 40 23 33 9 -9z m1066 -122 c-15 -63 -42
-185 -60 -272 l-34 -158 -107 -192 c-173 -311 -564 -957 -580 -957 -2 0 7 24
20 53 110 246 178 393 331 722 98 209 210 453 250 542 68 152 194 388 202 379
2 -2 -8 -55 -22 -117z m-1871 -40 c-31 -76 -39 -87 -29 -39 8 39 44 114 51
108 2 -3 -8 -34 -22 -69z m-85 -149 c-52 -161 -135 -467 -172 -635 -20 -88
-38 -169 -40 -180 l-5 -20 -1 20 c0 11 8 74 19 140 10 66 21 146 24 178 6 62
67 326 96 419 17 52 97 185 106 176 2 -2 -11 -46 -27 -98z m1952 -226 c-44
-176 -51 -184 -21 -24 17 95 48 196 57 187 2 -2 -15 -75 -36 -163z m525 -206
c-76 -172 -203 -418 -265 -513 -39 -60 -112 -190 -162 -287 -49 -98 -92 -178
-94 -178 -8 0 7 30 118 244 60 116 122 226 138 244 30 34 101 169 159 302 33
76 119 240 125 240 2 0 -7 -24 -19 -52z m-1892 -179 c-85 -249 -179 -547 -220
-696 -21 -73 -39 -131 -42 -129 -2 3 3 28 11 58 8 29 18 78 21 108 8 79 69
318 111 439 62 179 160 400 171 389 2 -3 -21 -79 -52 -169z m-717 -101 c-3 -7
-5 -2 -5 12 0 14 2 19 5 13 2 -7 2 -19 0 -25z m474 -115 c-12 -20 -14 -14 -5
12 4 9 9 14 11 11 3 -2 0 -13 -6 -23z m-63 -151 c-23 -56 -44 -100 -46 -98 -2
2 16 50 39 105 23 56 43 100 45 98 2 -2 -15 -49 -38 -105z m816 -367 c-104
-271 -253 -674 -340 -923 -36 -103 -89 -245 -116 -317 -28 -71 -52 -143 -53
-160 -3 -33 -197 -667 -202 -661 -6 6 126 466 157 549 17 44 28 83 25 87 -12
20 265 872 371 1142 85 217 228 518 240 506 1 -2 -35 -102 -82 -223z m-1457
183 c-3 -8 -6 -5 -6 6 -1 11 2 17 5 13 3 -3 4 -12 1 -19z m2223 -283 c-22 -49
-33 -58 -26 -22 3 12 13 92 23 177 l18 155 3 -132 c2 -116 0 -138 -18 -178z
m0 -175 c-19 -39 -37 -70 -42 -70 -9 0 3 32 37 100 40 78 44 50 5 -30z m-1996
-220 c-19 -69 -47 -187 -62 -262 -15 -76 -30 -138 -33 -138 -6 0 -19 125 -19
189 0 24 24 87 72 188 39 84 73 152 74 150 1 -1 -13 -58 -32 -127z m-174 -117
c0 -9 5 -31 11 -48 10 -26 8 -42 -9 -91 l-20 -59 -1 113 c-1 73 3 111 9 107 6
-3 10 -13 10 -22z m407 -35 c-3 -8 -6 -5 -6 6 -1 11 2 17 5 13 3 -3 4 -12 1
-19z m-10 -75 c-3 -10 -5 -4 -5 12 0 17 2 24 5 18 2 -7 2 -21 0 -30z m-353
-134 c7 -62 6 -66 -20 -92 -15 -15 -33 -27 -42 -27 -19 0 -11 65 20 163 25 77
30 72 42 -44z m345 -1927 c30 -110 39 -194 22 -220 -5 -8 -16 35 -29 110 -26
150 -37 235 -29 228 3 -3 20 -56 36 -118z m127 31 c-3 -21 -8 -69 -12 -108 -6
-66 -7 -68 -16 -36 -7 24 -5 55 7 107 17 78 31 100 21 37z"/>
<path d="M3388 11458 c4 -91 22 -134 22 -52 0 27 3 58 6 70 3 12 -2 29 -13 43
-18 22 -18 21 -15 -61z"/>
<path d="M8932 11525 c-12 -9 -29 -40 -39 -73 -24 -79 -24 -319 1 -457 33
-186 51 -142 41 99 -7 174 4 315 28 366 7 13 27 34 44 46 26 17 29 23 17 28
-28 11 -69 6 -92 -9z"/>
<path d="M3486 11321 c-19 -36 -20 -45 -5 -35 7 4 9 0 6 -12 -14 -45 -46 -184
-56 -234 -12 -68 -2 -124 23 -128 15 -3 16 -1 7 16 -12 23 1 102 44 262 26 98
29 151 8 157 -6 3 -19 -9 -27 -26z"/>
<path d="M3456 10802 c-69 -258 -73 -511 -13 -795 l15 -67 -26 -20 c-19 -15
-28 -17 -38 -9 -10 8 -14 8 -14 1 0 -23 36 -31 65 -16 15 8 29 13 30 12 1 -2
29 -55 62 -118 80 -153 207 -365 282 -471 111 -155 264 -292 301 -269 11 6 -8
31 -78 104 -130 137 -330 449 -478 749 l-37 74 33 59 32 59 -34 -39 -35 -40
-11 50 c-38 161 -50 400 -34 659 6 93 10 171 8 172 -2 2 -15 -41 -30 -95z"/>
<path d="M8876 10694 c55 -128 56 -134 51 -249 -11 -228 -117 -602 -196 -690
-10 -11 -22 -38 -26 -60 -9 -56 -30 -85 -61 -85 -29 0 -64 17 -81 39 -9 11
-12 12 -13 3 0 -24 48 -62 80 -62 16 0 30 -3 30 -6 0 -13 -109 -172 -157 -229
-112 -135 -229 -238 -264 -233 -25 4 -45 -22 -36 -46 19 -49 149 25 281 158
80 82 200 240 242 321 27 51 31 55 66 55 33 0 37 -3 43 -31 8 -38 30 -47 55
-24 12 11 26 15 37 11 17 -7 17 -6 1 10 -16 16 -18 16 -43 0 -24 -16 -26 -16
-32 1 -11 32 -35 53 -61 53 -21 0 -23 3 -17 28 3 15 20 48 36 74 138 226 240
760 172 898 -21 42 -63 79 -106 96 -18 6 -18 5 -1 -32z"/>
<path d="M10347 10723 c-14 -14 -6 -45 12 -50 21 -5 124 -126 171 -199 38 -60
57 -139 39 -160 -17 -21 -66 -14 -149 21 -36 14 -77 32 -92 38 -23 9 -31 8
-44 -5 -15 -15 -14 -21 19 -75 45 -73 55 -110 33 -119 -11 -4 -24 3 -37 20
-11 14 -27 26 -35 26 -12 0 -11 -8 7 -39 18 -33 21 -49 16 -95 -6 -64 -43
-139 -71 -144 -44 -9 -88 10 -131 55 -75 78 -108 29 -35 -51 43 -47 60 -88 60
-148 0 -62 -52 -82 -143 -57 -22 6 -41 9 -43 6 -2 -2 5 -16 16 -30 39 -50 152
-44 186 9 17 25 16 103 -1 146 -6 16 -2 17 39 12 96 -14 155 50 164 177 4 56
8 69 22 69 9 0 25 9 35 20 14 16 17 30 11 73 l-6 54 53 -18 c123 -43 187 -14
187 83 0 92 -52 179 -189 321 -63 64 -80 75 -94 60z"/>
<path d="M3119 10104 c-21 -26 -24 -135 -4 -198 30 -94 90 -127 154 -84 36 24
75 90 86 143 6 26 3 24 -20 -15 -35 -59 -60 -86 -96 -101 -27 -10 -32 -9 -54
11 -42 40 -75 172 -56 224 14 34 9 43 -10 20z"/>
<path d="M391 9414 c0 -11 3 -14 6 -6 3 7 2 16 -1 19 -3 4 -6 -2 -5 -13z"/>
<path d="M1222 8770 c0 -14 2 -19 5 -12 2 6 2 18 0 25 -3 6 -5 1 -5 -13z"/>
<path d="M1222 7785 c0 -16 2 -22 5 -12 2 9 2 23 0 30 -3 6 -5 -1 -5 -18z"/>
<path d="M9821 7084 c0 -11 3 -14 6 -6 3 7 2 16 -1 19 -3 4 -6 -2 -5 -13z"/>
<path d="M402 6375 c0 -16 2 -22 5 -12 2 9 2 23 0 30 -3 6 -5 -1 -5 -18z"/>
<path d="M11852 6300 c0 -14 2 -19 5 -12 2 6 2 18 0 25 -3 6 -5 1 -5 -13z"/>
<path d="M3892 6285 c0 -16 2 -22 5 -12 2 9 2 23 0 30 -3 6 -5 -1 -5 -18z"/>
<path d="M401 6234 c0 -11 3 -14 6 -6 3 7 2 16 -1 19 -3 4 -6 -2 -5 -13z"/>
<path d="M9878 5707 c-70 -139 -132 -265 -138 -282 -22 -64 22 11 125 217 99
194 150 307 143 314 -2 1 -61 -111 -130 -249z"/>
<path d="M3137 5885 c25 -65 246 -525 251 -521 8 8 -243 544 -264 566 -3 3 3
-17 13 -45z"/>
<path d="M9080 5703 c-86 -175 -183 -393 -178 -399 3 -3 226 462 253 529 34
83 2 28 -75 -130z"/>
<path d="M3922 5635 c0 -16 2 -22 5 -12 2 9 2 23 0 30 -3 6 -5 -1 -5 -18z"/>
<path d="M8362 5510 c0 -19 2 -27 5 -17 2 9 2 25 0 35 -3 9 -5 1 -5 -18z"/>
<path d="M2910 4295 c0 -5 5 -17 10 -25 5 -8 10 -10 10 -5 0 6 -5 17 -10 25
-5 8 -10 11 -10 5z"/>
</g>
</svg>
