<?xml version="1.0" encoding="UTF-8"?>
<svg enable-background="new 0 0 3600 1635.2" version="1.1" viewBox="0 0 3600 1635.2" xml:space="preserve" xmlns="http://www.w3.org/2000/svg">
<style type="text/css">
	.st0{fill:#754C24;}
	.st1{fill:#004937;}
	.st2{fill:#1D1D1B;}
	.st3{fill:url(#a);}
	.st4{fill:none;stroke:#C1272D;stroke-width:3;stroke-miterlimit:10;}
	.st5{fill:none;stroke:#1D1D1B;stroke-linecap:round;stroke-miterlimit:10;}
	.st6{fill:#FFFFFF;stroke:#1B1464;stroke-width:3;stroke-miterlimit:10;}
	.st7{fill:none;stroke:#1B1464;stroke-width:3;stroke-miterlimit:10;}
	.st8{fill:#1B1464;stroke:#1B1464;stroke-width:3;stroke-miterlimit:10;}
	.st9{fill:#2E3192;stroke:#1B1464;stroke-width:3;stroke-miterlimit:10;}
	.st10{stroke:#1B1464;stroke-width:3;stroke-miterlimit:10;}
	.st11{fill:none;stroke:#000000;stroke-width:3;stroke-miterlimit:10;}
	.st12{stroke:#000000;stroke-width:3;stroke-miterlimit:10;}
	.st13{fill:#29ABE2;}
	.st14{fill:#F7931E;stroke:#ED1C24;stroke-miterlimit:10;}
	.st15{fill:none;stroke:#ED1C24;stroke-miterlimit:10;}
	.st16{fill:#F15A24;stroke:#ED1C24;stroke-miterlimit:10;}
	.st17{fill:#FBB03B;stroke:#ED1C24;stroke-miterlimit:10;}
	.st18{fill:#FBB03B;}
	.st19{fill:#FCEE21;}
	.st20{fill:#8CC63F;stroke:#000000;stroke-width:4;stroke-miterlimit:10;}
	.st21{fill:none;stroke:#22B573;stroke-width:4;stroke-miterlimit:10;}
	.st22{fill:#22B573;}
	.st23{fill:#006837;}
</style>
	<path class="st0" d="m275.9 926l52 6.7 51.9 7.1 51.8 7.6 51.8 8.1 51.7 8.7 51.6 9.3 51.5 10 51.3 10.7 51.2 11.4 51 12.2 50.8 13.1 50.5 14 50.3 15 50 15.9 49.6 17 49.2 18.1c32.7 12.4 65.1 25.6 97.1 39.6s63.8 28.8 95 44.4c62.6 31.2 123.5 65.8 182.2 103.9s115.1 79.8 168.4 125.2 103.5 94.5 149.6 147.3h-5.4l35.1-38.8 17.9-19.1 9-9.6c3-3.2 6-6.4 9-9.5l18.3-18.8c6.1-6.3 12.1-12.6 18.4-18.6l18.7-18.4c3.1-3.1 6.2-6.2 9.3-9.2l9.5-9 19-18 4.8-4.5 4.9-4.4 9.7-8.8 19.5-17.6 19.9-17.1 9.9-8.6c1.7-1.4 3.3-2.9 5-4.3l5.1-4.2 20.3-16.6c3.4-2.8 6.7-5.6 10.2-8.3l10.3-8.1 20.7-16.1c1.7-1.3 3.4-2.7 5.2-4l5.3-3.9 10.5-7.8c7-5.2 14-10.4 21.1-15.5l21.5-15 10.7-7.5c1.8-1.2 3.6-2.5 5.4-3.7l5.5-3.6 21.8-14.5 10.9-7.2 11.1-7 22.2-14 5.5-3.5c1.8-1.2 3.7-2.3 5.6-3.4l11.3-6.7 22.5-13.4 2.8-1.7 2.8-1.6 5.7-3.2 11.4-6.5 22.8-12.9 23.1-12.4c7.7-4.1 15.3-8.3 23.1-12.4 7.8-4 15.5-8 23.3-12 7.8-3.9 15.7-7.8 23.5-11.7l23.6-11.3c31.6-14.9 63.7-28.8 96-42s65-25.7 97.9-37.4 66.1-22.7 99.5-32.8 67.1-19.4 101-27.9l12.7-3.1c4.2-1 8.5-2.1 12.7-3.1l25.5-5.8 25.6-5.4c4.3-0.9 8.6-1.7 12.8-2.6l12.9-2.5c34.3-6.5 68.8-11.9 103.5-16.1 34.7-4.1 69.5-7 104.4-8.2s69.9-0.6 104.6 2.4l-0.1 0.9-26.1-1.3-26.1-0.5-26.1 0.2-26.1 0.9c-34.8 1.7-69.5 5-104 9.6s-68.9 10.4-103 17.2c-8.5 1.8-17.1 3.4-25.6 5.3l-25.5 5.7-25.2 6.2c-4.2 1-8.4 2.1-12.7 3.2l-12.7 3.2c-33.7 8.7-67.2 18.3-100.4 28.6-33.3 10.3-66.2 21.5-99 33.4-32.7 11.9-65.2 24.4-97.4 37.8-32.2 13.3-64 27.4-95.4 42.3l-23.5 11.3c-7.8 3.8-15.5 7.8-23.3 11.6-7.8 3.9-15.5 8-23.2 12-7.6 4.1-15.3 8.3-22.9 12.4l-23 12.4-22.7 12.9-11.3 6.5-5.7 3.2-2.8 1.6-2.8 1.7-22.4 13.4-11.2 6.7c-1.9 1.1-3.7 2.2-5.6 3.4l-5.5 3.5-22.1 13.9-11.1 6.9-10.9 7.2-21.8 14.4-5.4 3.6c-1.8 1.2-3.6 2.5-5.4 3.7l-10.7 7.5-21.4 14.9c-7 5.1-14 10.3-21.1 15.4l-10.5 7.7-5.3 3.9c-1.8 1.3-3.5 2.6-5.2 4l-20.7 15.9-10.3 8c-3.4 2.7-6.8 5.5-10.1 8.2l-20.3 16.4-5.1 4.1c-1.7 1.4-3.3 2.8-5 4.2l-9.9 8.5-19.9 16.9-19.5 17.4-9.7 8.7-4.9 4.4c-1.6 1.5-3.2 3-4.8 4.4l-19 17.9-9.5 8.9c-3.2 3-6.2 6.1-9.4 9.1l-18.7 18.3c-6.3 6-12.3 12.3-18.4 18.5l-18.3 18.7c-3.1 3.1-6.1 6.3-9 9.4l-9 9.5-17.9 19-35.2 38.6-2.8 3-2.7-3.1c-45.7-52.6-95.5-101.7-148.4-147-52.9-45.4-109-87.1-167.3-125.3-58.4-38.2-119-72.9-181.4-104.2-31.2-15.7-62.7-30.5-94.7-44.6-31.9-14.1-64.2-27.3-96.8-39.8l-49.1-18.2-49.5-17.2-49.8-16.1-50.1-15.1-50.4-14.2-50.7-13.3-50.9-12.5-51.1-11.6-50.6-11-51.4-10.2-51.5-9.5-51.6-8.9-51.7-8.3-51.8-7.8-51.9-7.4-51.9-6.9v-1z"/>
	<path class="st0" d="m154.2 1150.9l53.8-5 53.9-4 54-2.9 54-1.8 54.1-0.8 54.1 0.3 54 1.4 54 2.5c18 1.1 36 2.4 53.9 3.6 18 1.5 35.9 3.2 53.9 4.8 2.2 0.2 4.5 0.4 6.7 0.7l6.7 0.7 13.4 1.5 26.9 3 3.4 0.4 3.4 0.4 6.7 0.9 13.4 1.8 26.8 3.6c4.5 0.5 8.9 1.3 13.4 2l13.4 2.1 26.7 4.2c4.5 0.6 8.9 1.5 13.3 2.3l13.3 2.4 26.6 4.8c4.4 0.7 8.8 1.7 13.3 2.6l13.3 2.7 26.5 5.4c4.4 0.8 8.8 1.9 13.2 2.9l13.2 3 26.4 6c4.4 1 8.8 2.1 13.1 3.2l13.1 3.3 26.2 6.6c4.4 1.1 8.7 2.3 13.1 3.5l13 3.6 26.1 7.3c4.4 1.2 8.6 2.5 13 3.8l12.9 4 25.9 7.9c4.3 1.3 8.6 2.8 12.9 4.2l12.8 4.3 25.7 8.6c4.3 1.4 8.5 3 12.8 4.5l12.7 4.6 25.4 9.2c4.3 1.5 8.4 3.2 12.6 4.8l12.6 4.9 25.2 9.9 3.1 1.2 3.1 1.3 6.2 2.6 12.5 5.3 24.9 10.5 3.1 1.3 3.1 1.4 6.2 2.8 12.3 5.6 24.6 11.2c2.1 0.9 4.1 1.9 6.1 2.9l6.1 3 12.2 5.9 24.3 11.9c2 1 4 2 6 3.1l6 3.1 12 6.3 24 12.6c15.8 8.8 31.5 17.7 47.2 26.5l46.4 27.9 45.6 29.3 44.6 30.6 43.7 32 42.6 33.4-4-0.3 23.7-13.1 11.8-6.6c2-1.1 3.9-2.2 5.9-3.3l6-3.1 24-12.6 12-6.3 12.1-6 24.2-12.1 6.1-3c2-1 4.1-1.9 6.1-2.9l12.2-5.8 24.5-11.6c4.1-2 8.2-3.8 12.3-5.6l12.3-5.6 24.7-11.2c8.3-3.6 16.6-7.2 24.8-10.8l24.9-10.7 25-10.3 25-10.3 25.2-10 25.2-10 25.3-9.6 25.3-9.6c8.5-3.1 17-6.1 25.4-9.2l25.5-9.2c4.2-1.6 8.5-3 12.8-4.5l12.8-4.4c17.1-5.9 34.1-11.9 51.3-17.4l25.7-8.5c4.3-1.4 8.6-2.9 12.9-4.2l12.9-4.1 25.8-8.1 12.9-4.1 13-3.9 25.9-7.8c8.6-2.6 17.3-5.2 26-7.7 17.4-4.9 34.7-9.9 52.1-14.8l52.2-14.2 52.4-13.4c4.4-1.1 8.8-2.2 13.1-3.3l13.2-3.2 26.3-6.4c35.1-8.3 70.3-16.3 105.6-23.7 17.6-3.9 35.4-7.2 53-10.8l13.3-2.6 6.6-1.3 6.7-1.2 26.6-4.9c8.9-1.6 17.7-3.3 26.6-4.8l26.7-4.5 26.7-4.5 26.8-4.1 26.8-4.1 26.8-3.6 26.8-3.6 26.9-3.2 26.9-3.2 26.9-2.7 26.9-2.6 27-2.2 13.5-1.1c4.5-0.3 9-0.8 13.5-1l27-1.6 13.5-0.8c2.3-0.1 4.5-0.3 6.8-0.4l6.8-0.2 27-1 13.5-0.5 13.5-0.2 27.1-0.3 6.8-0.1c2.3 0 4.5 0.1 6.8 0.1l13.5 0.2 27 0.4v0.9h-47.3l-6.8 0.2-27 0.7-13.5 0.4-13.5 0.7-27 1.3-6.7 0.3c-2.2 0.1-4.5 0.3-6.7 0.5l-13.5 1-26.9 1.9c-4.5 0.3-9 0.8-13.5 1.2l-13.5 1.2-26.9 2.5-26.9 2.9-26.9 3-26.8 3.5-26.8 3.4-26.7 3.9-26.7 3.9-26.7 4.3-26.7 4.3-26.6 4.7-26.6 4.7c-8.9 1.6-17.7 3.4-26.5 5l-26.5 5.1-6.6 1.3-6.6 1.4-13.2 2.7c-17.6 3.7-35.3 7.2-52.9 11.1l-26.4 5.8-13.2 2.9-13.2 3.1-26.3 6.1c-8.8 2.1-17.5 4-26.3 6.3l-26.2 6.5-13.1 3.2c-4.4 1.1-8.7 2.1-13.1 3.3l-52.3 13.7-52.1 14.3c-17.3 4.9-34.6 9.9-51.9 14.9-8.7 2.4-17.3 5.1-25.9 7.7l-25.9 7.8-12.9 3.9-12.9 4.1-25.8 8.1-12.9 4.1c-4.3 1.3-8.6 2.8-12.8 4.2l-25.7 8.4c-17.1 5.5-34.1 11.4-51.2 17.3l-12.8 4.4c-4.3 1.5-8.5 2.9-12.8 4.4l-25.4 9.1c-8.5 3.1-17 6-25.4 9.1l-25.3 9.5-25.3 9.5-25.2 9.8-25.2 9.8-25 10.2-25 10.2-24.8 10.6c-8.3 3.5-16.6 7-24.8 10.6l-24.6 11-12.3 5.5c-4.1 1.9-8.2 3.6-12.3 5.6l-24.4 11.5-12.2 5.7c-2 1-4.1 1.9-6.1 2.9l-6.1 3-24.2 12-12.1 6-12 6.2-23.9 12.5-6 3.1c-2 1-3.9 2.2-5.9 3.2l-11.8 6.5-23.7 13-2.1 1.2-1.9-1.5-42.4-33.4-43.4-32-44.4-30.7-45.3-29.3-46.2-27.9c-15.7-8.8-31.3-17.8-47-26.5l-23.8-12.6-11.9-6.3-6-3.2c-2-1-4-2.1-6-3.1l-24.2-11.9-12.1-6-6-3c-2-1-4-2-6.1-2.9l-24.5-11.3-12.3-5.6-6.1-2.8-3.1-1.4-3.1-1.3-24.8-10.6-12.4-5.3-6.2-2.6-3.1-1.3-3.1-1.2-25.1-9.9-12.5-5c-4.2-1.6-8.3-3.4-12.6-4.9l-25.3-9.3-12.7-4.6c-4.2-1.5-8.4-3.2-12.7-4.5l-25.6-8.6-12.8-4.3c-4.3-1.4-8.5-2.9-12.8-4.2l-25.8-8-12.9-4c-4.3-1.3-8.6-2.7-12.9-3.9l-26-7.3-13-3.7c-4.3-1.2-8.6-2.5-13-3.6l-26.1-6.7-13.1-3.4c-4.4-1.1-8.7-2.3-13.1-3.2l-26.3-6.1-13.1-3c-4.4-1-8.8-2.1-13.2-2.9l-26.4-5.5-13.2-2.7c-4.4-0.9-8.8-1.9-13.2-2.6l-26.6-4.9-13.3-2.4c-4.4-0.8-8.8-1.7-13.3-2.3l-26.7-4.3-13.3-2.1c-4.4-0.7-8.9-1.5-13.3-2.1l-27-3.5-13.4-1.8-6.7-0.9-3.3-0.5-3.4-0.4-26.8-3.1-13.4-1.5-6.7-0.8c-2.2-0.3-4.5-0.5-6.7-0.7-17.9-1.7-35.8-3.4-53.8-5-18-1.3-35.9-2.6-53.9-3.9l-53.9-2.7-54-1.6-54-0.5-54 0.5-54 1.6-54 2.7-53.9 3.7-53.8 4.8-0.1-1z"/>
	<path class="st0" d="m578.4 553.1c34.6 2.9 69.2 7.2 103.5 12.8l25.7 4.5 25.6 5.1 6.4 1.3c2.1 0.5 4.2 1 6.4 1.4l12.7 2.9 12.7 2.9 12.6 3.2 12.6 3.2 6.3 1.6c2.1 0.5 4.2 1.2 6.3 1.8l25.1 7.1c16.6 5.1 33.3 10.1 49.7 15.9 32.9 11.3 65.5 23.6 97.3 37.5 31.9 13.9 63.3 28.8 94.1 45.1 30.7 16.4 60.8 33.9 90.2 52.4l21.9 14.2 5.4 3.6 5.4 3.7 10.8 7.4c7.2 4.8 14.2 10 21.3 15.1l10.6 7.6 2.6 1.9 2.6 2 5.2 4 10.4 7.9 5.2 4 2.6 2 2.5 2 20.4 16.3 2.5 2 2.5 2.1 5 4.2 10 8.4 5 4.2 2.5 2.1 2.4 2.2 9.8 8.7 9.8 8.7 2.4 2.2 2.4 2.2 4.8 4.5 9.5 8.9 4.8 4.5c1.6 1.5 3.2 3 4.7 4.5l18.6 18.3c3.1 3 6.1 6.2 9.1 9.3l9.1 9.4 4.5 4.7c1.5 1.6 3 3.1 4.5 4.7l8.8 9.6c5.9 6.4 11.8 12.8 17.4 19.4l8.5 9.9 4.3 4.9c1.4 1.6 2.9 3.3 4.2 5l16.6 20.2 2.1 2.5 0.5 0.6 0.5 0.7 1 1.3 4 5.2 8 10.3c5.3 6.9 10.7 13.7 15.8 20.8l15.4 21.1c2.6 3.5 5 7.1 7.5 10.7l7.4 10.7 7.4 10.7 1.9 2.7 1.8 2.7 3.6 5.5 14.3 21.8c1.2 1.8 2.4 3.7 3.5 5.5l3.4 5.5 6.9 11.1 6.9 11.1c2.3 3.7 4.5 7.5 6.7 11.2l13.3 22.4c4.4 7.5 8.6 15.1 12.9 22.7l6.5 11.3c2.1 3.8 4.2 7.6 6.3 11.4l12.5 22.9 12.2 23.1 6.1 11.5 5.9 11.6 11.9 23.2 11.6 23.4 5.8 11.7 5.7 11.7 11.4 23.5 11.2 23.5 5.6 11.8 5.5 11.8 11.1 23.6 11 23.6 21.9 47.3-6.6-0.2c15.6-29.7 33.4-58.1 52.7-85.5s40.2-53.6 61.9-79c21.8-25.4 44.5-49.9 67.9-73.8 23.5-23.8 47.6-47 72.3-69.4 24.7-22.5 50-44.3 75.7-65.7 25.7-21.3 51.8-42.2 78.4-62.4 26.5-20.3 53.4-40.1 80.7-59.4 27.2-19.3 54.8-38.2 82.6-56.6s56-36.4 84.4-54 57-34.7 85.9-51.4 58.1-32.9 87.5-48.8c29.4-15.8 59.1-31.1 89-45.9s60-29.2 90.5-42.9c30.4-13.7 61.1-26.9 92.1-39.3s62.2-24.1 93.8-34.8l11.9-4 5.9-2 6-1.9 11.9-3.8c4-1.3 8-2.4 12-3.7 16-4.9 32-9.3 48.2-13.5l0.2 0.9c-16 4.6-32 9.2-47.9 14.4-4 1.3-7.9 2.5-11.9 3.8l-11.8 4-5.9 2-5.9 2.1-11.8 4.1c-31.4 11.2-62.4 23.3-93.2 36.2-30.7 12.8-61.2 26.3-91.4 40.3-30.2 14.1-60.2 28.6-89.9 43.7-59.4 30.2-117.9 62.2-175.3 95.9-28.7 16.9-57.2 34.1-85.5 51.8-28.2 17.6-56.2 35.7-83.9 54.3-27.7 18.5-55.1 37.4-82.2 56.7-27.1 19.4-53.9 39.1-80.3 59.3-52.8 40.5-104.4 82.7-153.7 127.3-24.7 22.3-48.8 45.2-72.3 68.8-23.4 23.6-46.2 47.9-67.9 73-21.7 25.2-42.5 51.1-61.8 78.2-19.2 27.1-37 55.2-52.5 84.5l-3.5 6.6-3.1-6.7-21.7-47.4-10.9-23.7-11-23.6-5.5-11.8-5.6-11.8-11.1-23.6-11.3-23.5-5.7-11.7-5.8-11.7-11.5-23.4-11.8-23.2-5.9-11.6-6-11.5-12.1-23.1-12.4-22.9c-2.1-3.8-4.1-7.6-6.2-11.4l-6.4-11.3c-4.3-7.5-8.5-15.1-12.8-22.6l-13.2-22.4c-2.2-3.7-4.4-7.5-6.7-11.2l-6.8-11.1-6.8-11.1-3.4-5.5c-1.1-1.8-2.3-3.7-3.5-5.5l-14.2-21.8-3.5-5.5-1.8-2.7-1.8-2.7-7.4-10.7-7.4-10.7c-2.5-3.6-4.8-7.2-7.4-10.7l-15.3-21c-5-7.1-10.4-13.9-15.7-20.8l-7.9-10.3-4-5.2-1-1.3-0.5-0.6-0.5-0.6-2.1-2.5-16.4-20.2c-1.4-1.7-2.8-3.3-4.2-5l-4.2-4.9-8.5-9.9c-5.6-6.6-11.5-13-17.3-19.4l-8.7-9.6c-1.4-1.6-2.9-3.2-4.4-4.7l-4.5-4.7-9-9.4c-3-3.1-5.9-6.3-9.1-9.3l-18.5-18.3c-1.5-1.5-3.1-3-4.7-4.5l-4.7-4.5-9.5-8.9-4.7-4.5-2.4-2.2-2.4-2.2-9.7-8.7-9.7-8.7-2.4-2.2-2.5-2.1-5-4.2-9.9-8.4-5-4.2-2.5-2.1-2.5-2-20.2-16.4-2.5-2-2.6-2-5.2-4-10.3-7.9-5.2-4-2.6-2-2.6-1.9-10.5-7.7c-7-5.1-14-10.3-21.2-15.1l-10.7-7.4-5.4-3.7c-1.8-1.2-3.6-2.5-5.4-3.6l-21.8-14.3c-29.3-18.7-59.2-36.2-89.8-52.7-30.6-16.4-61.9-31.4-93.7-45.4-31.7-14-64.2-26.5-97-37.9-16.4-5.8-33-10.9-49.5-16.1l-25-7.2-6.3-1.8-6.3-1.6-12.6-3.3-12.6-3.3-12.7-3-12.7-3-6.3-1.5-6.4-1.3-25.5-5.2-25.6-4.6c-34.3-5.8-68.7-10.2-103.3-13.3l0.5-0.4z"/>
	<rect class="st1" x="19" y="1581.2" width="3508" height="31"/>
	<path class="st2" d="m3528 1580.3v31.9h-0.5l-3508 3.1h-3.6v-3.6l-0.1-31v-3.7h3.7l438.5-0.8 438.5-0.3 877 0.3 877 1.3 438.5 1.1 439 1.7zm-1 0.9l-438 1.6-438.5 1.1-877 1.3-877 0.3-438.5-0.3-438.5-0.8 3.7-3.7-0.1 31-3.6-3.6 3508 3.1-0.5 0.5v-30.5z"/>
	<radialGradient id="a" cx="1777.8" cy="1472.4" r="1717.3" gradientUnits="userSpaceOnUse">
		<stop stop-color="#FBDB7C" offset="0"/>
		<stop stop-color="#fff" offset=".7672"/>
		<stop stop-color="#FBDB7C" offset="1"/>
	</radialGradient>
	<path class="st3" d="m58.6 1573.8c4.9 1.5 2.4-145.4 36.7-204 100.2 2.4 808.3-29 1684.5 204.2 614.7-184.6 1551.9-206.1 1669.2-204.4 33 45.7 51.3 102 47.6 205.8-58.7 0-3438-1.6-3438-1.6z"/>
	<path class="st0" d="m58.6 1573.4h0.1-0.1c-0.1 0 0 0 0 0s0.1-0.1 0.1-0.2c0.1-0.2 0.2-0.5 0.2-0.7 0.1-0.5 0.2-1 0.3-1.6 0.2-1.1 0.3-2.1 0.4-3.2 0.2-2.2 0.4-4.3 0.6-6.5 0.3-4.3 0.6-8.7 0.9-13 0.6-8.7 1.1-17.4 1.8-26.1 1.3-17.4 2.8-34.7 5-52s4.9-34.5 8.9-51.5c2-8.5 4.3-16.9 7.1-25.2 2.9-8.2 6.2-16.4 10.6-24l0.2-0.3h0.4c17.7 0.3 35.4 0 53.2-0.1 17.7-0.1 35.5-0.2 53.2-0.3 35.5 0 70.9 0.1 106.4 0.7s70.9 1.4 106.4 2.6l26.6 0.9 26.6 1.1c8.9 0.4 17.7 0.7 26.6 1.1l26.6 1.3c17.7 0.8 35.4 1.9 53.1 2.9s35.4 2.2 53.1 3.4c17.7 1.1 35.4 2.5 53.1 3.8l26.5 2 26.5 2.3 26.5 2.3c8.8 0.8 17.7 1.7 26.5 2.5l26.5 2.5 13.2 1.3 13.2 1.4 52.9 5.6 52.9 6.1c8.8 1 17.6 2.1 26.4 3.2l26.4 3.3c8.8 1.1 17.6 2.2 26.4 3.4l26.4 3.6 26.4 3.6 13.2 1.8 13.2 2 52.6 7.9c4.4 0.6 8.8 1.3 13.1 2.1l13.1 2.1 26.3 4.2 26.3 4.2 26.2 4.6 26.2 4.6 13.1 2.3c4.4 0.8 8.7 1.5 13.1 2.3l52.3 9.8c17.5 3.2 34.8 6.7 52.2 10.2l26.1 5.2c8.7 1.7 17.4 3.4 26.1 5.3 34.7 7.5 69.4 14.6 104 22.7l25.9 5.9c8.6 2 17.3 3.9 25.9 6l51.7 12.5 12.9 3.1c4.3 1.1 8.6 2.1 12.9 3.2l25.8 6.6 51.5 13.3h-1.3l50.7-14.6c8.4-2.5 17-4.6 25.4-6.9l25.5-6.8c17-4.6 34.1-8.6 51.1-12.8l25.6-6.2c8.6-2 17.1-3.9 25.7-5.8l25.7-5.8 12.9-2.9 12.9-2.7 51.6-10.7 51.8-10 12.9-2.5 13-2.3 26-4.6 26-4.6 26-4.3 26-4.3 13-2.2c4.3-0.7 8.7-1.3 13-2l52.1-8 52.2-7.5c17.4-2.6 34.8-4.8 52.2-7.1l26.1-3.5c8.7-1.2 17.4-2.2 26.2-3.3l26.2-3.2c8.7-1.1 17.4-2.2 26.2-3.1l52.4-6c34.9-3.8 69.9-7.5 104.9-10.9l26.2-2.6 26.2-2.4c17.5-1.6 35-3.2 52.5-4.7 17.5-1.4 35-3 52.5-4.4l52.6-4.1 52.6-3.8 52.6-3.5 52.6-3.2 52.6-2.9 52.7-2.6 26.3-1.2 13.2-0.6 13.2-0.5 26.3-1 26.3-0.9 13.2-0.5 13.2-0.4 26.4-0.7 26.4-0.6 26.4-0.5c17.6-0.2 35.1-0.5 52.8-0.3h1.8l1 1.5 3.9 5.6 1.9 2.8c0.6 0.9 1.2 1.9 1.8 2.9l3.6 5.8c1.2 1.9 2.3 4 3.4 5.9l1.7 3 0.8 1.5 0.8 1.5 3.1 6.1c1.1 2 2 4.1 2.9 6.2l2.8 6.3 2.5 6.4 1.2 3.2 0.6 1.6 0.5 1.6 2.1 6.5 1.1 3.2 0.9 3.3c1.2 4.4 2.5 8.7 3.5 13.2 1 4.4 2.1 8.8 2.8 13.3 0.8 4.5 1.7 8.9 2.3 13.4l0.9 6.7c0.2 1.1 0.3 2.2 0.5 3.4l0.3 3.4 0.7 6.8c0.2 2.3 0.5 4.5 0.6 6.8l0.9 13.5 0.5 13.5 0.1 3.4v17c0 2.3-0.1 4.5-0.1 6.8l-0.3 13.5-0.1 3.6h-3.7l-859.5 0.4-429.7-0.1-429.7-0.5-859.5-1.7-429.7-1.3-429.7-1.7-0.1-0.4zm1 0l428.7-1.3 429.7-0.9 859.5-0.9 429.7-0.1 429.7 0.3 859.5 1.2-3.8 3.6 0.3-13.4c0-2.2 0.1-4.5 0.1-6.7v-16.7l-0.1-3.3-0.4-13.4-0.9-13.3c-0.1-2.2-0.4-4.4-0.6-6.6l-0.7-6.6-0.3-3.3c-0.1-1.1-0.3-2.2-0.4-3.3l-0.9-6.6c-0.5-4.4-1.4-8.8-2.2-13.1-0.7-4.4-1.8-8.7-2.7-13s-2.2-8.6-3.3-12.9l-0.9-3.2-1-3.2-2.1-6.3-0.5-1.6-0.6-1.5-1.2-3.1-2.4-6.2-2.7-6.1c-0.9-2-1.8-4.1-2.8-6l-3-5.9-0.7-1.5-0.8-1.4-1.6-2.9c-1.1-1.9-2.1-3.9-3.3-5.7l-3.5-5.6c-0.6-0.9-1.2-1.9-1.8-2.8l-1.9-2.7-3.8-5.5 2.8 1.5c-17.5-0.2-35.1 0-52.6 0.2l-26.3 0.4-26.3 0.6-26.3 0.7-13.2 0.4-13.2 0.4-26.3 0.9-26.3 1-13.2 0.5-13.2 0.6-26.3 1.1-52.6 2.5-52.6 2.8-52.6 3.1-52.6 3.4-52.5 3.7-52.5 4c-17.5 1.3-35 2.9-52.5 4.3s-35 3-52.5 4.6l-26.2 2.3-26.2 2.5c-35 3.3-69.9 7-104.8 10.7l-52.3 5.9c-8.7 0.9-17.4 2.1-26.2 3.1l-26.1 3.2c-8.7 1.1-17.4 2.1-26.1 3.2l-26.1 3.4c-17.4 2.3-34.8 4.5-52.2 7l-52.2 7.4-52.1 7.9c-4.3 0.7-8.7 1.3-13 2l-13 2.1-26 4.3-26 4.3-25.9 4.6-25.9 4.6-13 2.3-12.9 2.5-51.7 9.9-51.6 10.7-12.9 2.7-12.8 2.9-25.7 5.7c-8.6 1.9-17.1 3.8-25.7 5.8l-25.6 6.2c-17.1 4.2-34.2 8.1-51.1 12.7l-25.5 6.7c-8.5 2.3-17 4.4-25.4 6.9l-50.6 14.5-0.6 0.2-0.6-0.2-51.5-13.3-25.7-6.7c-4.3-1.1-8.6-2.2-12.9-3.2l-12.9-3.2-51.7-12.6c-8.6-2.2-17.3-4-25.9-6.1l-25.9-6c-34.5-8.1-69.2-15.4-103.9-22.9-8.7-1.9-17.3-3.6-26-5.4l-26.1-5.3c-17.4-3.5-34.7-7.1-52.2-10.3l-52.3-9.9c-4.4-0.8-8.7-1.6-13.1-2.4l-13.1-2.3-26.2-4.6-26.2-4.6-26.2-4.3-26.2-4.3-13.1-2.1c-4.4-0.7-8.7-1.4-13.1-2.1l-52.6-8-13.1-2-13.2-1.8-26.3-3.7-26.3-3.7c-8.8-1.2-17.6-2.3-26.4-3.4l-26.4-3.4c-8.8-1.1-17.6-2.3-26.4-3.3l-52.8-6.2-52.9-5.7-13.2-1.4-13.2-1.3-26.5-2.6c-8.8-0.8-17.6-1.7-26.5-2.5l-26.5-2.3-26.5-2.3-26.5-2.1c-17.7-1.4-35.3-2.8-53-3.9-17.7-1.2-35.4-2.5-53.1-3.5s-35.4-2.2-53.1-3l-26.6-1.4c-8.9-0.5-17.7-0.8-26.6-1.2l-26.6-1.2-26.6-0.9c-35.4-1.3-70.9-2.1-106.3-2.8-35.5-0.6-70.9-0.9-106.4-0.9-17.7 0-35.5 0.1-53.2 0.1-17.7 0.1-35.5 0.3-53.2 0l0.6-0.3c-4.4 7.5-7.7 15.5-10.5 23.7s-5.1 16.6-7.1 25c-4 16.9-6.7 34.1-9 51.4-2.2 17.3-3.8 34.6-5.1 51.9-0.7 8.7-1.2 17.4-1.8 26-0.3 4.3-0.6 8.7-1 13-0.2 2.2-0.4 4.3-0.6 6.5-0.1 1.1-0.3 2.2-0.5 3.3-0.1 0.5-0.2 1.1-0.3 1.6 0.2 0.2 0.1 0.4 0 0.7z"/>
	<path class="st0" d="m69.2 1465.1s6.6-0.7 19-2c12.4-1.2 30.6-2.8 53.7-4.4 23.2-1.6 51.3-3.1 83.6-4.5s68.8-2.6 108.6-3.6c19.9-0.5 40.6-1 62.1-1.4 10.7-0.2 21.6-0.4 32.7-0.6 2.8-0.1 5.5-0.1 8.3-0.2 1.4 0 2.8 0 4.2-0.1h4.2c5.6 0 11.3-0.1 17-0.1 22.8 0.1 46.3 0.5 70.2 1.5 6 0.2 12 0.4 18 0.7s12.1 0.6 18.2 0.9c12.2 0.5 24.5 1.3 36.9 1.9 49.7 2.8 101 6.6 153 10.8 52.1 4.2 104.9 9 157.8 13.9 52.8 4.9 105.6 10.2 157.6 15.3s103.1 10.6 152.6 15.8c49.4 5.4 97.2 10.7 142.5 15.9 22.6 2.6 44.7 5.1 66 7.6s41.9 4.9 61.6 7.2c39.5 4.7 75.7 9 107.8 12.8 32.1 3.9 60.1 7.2 83.1 10s41.1 5 53.5 6.5c12.3 1.5 18.9 2.3 18.9 2.3l-0.1 0.9s-6.6-0.6-19-1.7-30.5-2.8-53.7-4.9c-11.6-1.1-24.4-2.3-38.3-3.6s-29-2.8-45.1-4.4-33.2-3.3-51.2-5.1-37-3.7-56.8-5.8c-19.8-2-40.4-4.2-61.7-6.4s-43.4-4.6-66.1-6.9c-45.3-4.7-93.1-9.9-142.6-15.2-49.4-5.4-100.5-11-152.4-16.7s-104.7-11.2-157.4-16.5c-52.8-5.3-105.6-10.4-157.6-14.9-52-4.6-103.2-8.6-152.8-11.8-49.6-3.1-97.6-5.4-143.1-5.9h-25.4c-2.8 0-5.6 0.1-8.3 0.1-11.1 0.1-22 0.2-32.7 0.4-21.4 0.2-42.2 0.6-62.1 0.9-39.8 0.7-76.2 1.6-108.5 2.7s-60.4 2.4-83.6 3.8c-23.2 1.3-41.3 2.9-53.7 3.9-12.4 1.2-19 1.8-19 1.8l0.1-0.9z"/>
	<path class="st0" d="m78 1416.1s26.4-1.7 72.6-4.8c5.8-0.4 11.9-0.6 18.3-0.9s13.1-0.5 20.1-0.8c14-0.6 29-1.2 45.2-1.8 16.1-0.3 33.3-0.6 51.4-0.9 9-0.2 18.3-0.3 27.8-0.5 9.5 0 19.2 0.1 29.1 0.1s20.1 0.1 30.4 0.1c5.2 0 10.4 0 15.6 0.1 5.3 0 10.6 0.2 15.9 0.3 21.4 0.5 43.5 1 66.3 1.5 22.7 0.9 46.1 1.9 70 2.8 1.5 0.1 3 0.1 4.5 0.2l4.5 0.3c3 0.2 6 0.3 9 0.5 6 0.3 12.1 0.7 18.2 1 12.2 0.7 24.5 1.4 36.9 2.1 6.2 0.3 12.4 0.8 18.7 1.2 6.2 0.4 12.5 0.9 18.8 1.3 12.6 0.9 25.2 1.8 38 2.7 6.4 0.4 12.8 1 19.2 1.5s12.8 1.1 19.3 1.6c12.9 1.1 25.8 2.1 38.8 3.2 13 1.2 26 2.4 39.1 3.7 6.5 0.6 13.1 1.2 19.6 1.8s13.1 1.2 19.7 1.9c13.1 1.4 26.3 2.7 39.4 4.1 6.6 0.7 13.2 1.4 19.7 2l19.7 2.2c13.2 1.5 26.3 2.9 39.5 4.4 13.1 1.4 26.3 3 39.4 4.5s26.2 3.1 39.2 4.6c13 1.6 26 3.1 38.9 4.7 25.9 3.1 51.5 6.3 76.9 9.5 12.7 1.6 25.3 3.2 37.8 4.8 6.3 0.8 12.5 1.6 18.7 2.4s12.4 1.7 18.5 2.5c24.6 3.6 48.8 7.3 72.3 11.2 23.6 3.8 46.6 7.7 69 11.6s44.2 7.6 65.3 11.3 41.4 7.3 61 10.8c39.1 7 74.9 13.4 106.6 19.1s59.4 10.8 82.2 14.9 40.7 7.2 52.9 9.4c12.2 2.1 18.7 3.2 18.7 3.2l-0.1 0.9s-6.6-0.9-18.9-2.6-30.3-4.4-53.2-7.8c-11.4-1.7-24.1-3.7-37.9-5.8-13.8-2.2-28.7-4.5-44.6-7-31.8-5.1-67.8-10.9-107-17.2-39.2-6.4-81.6-13.3-126.5-20.6-44.9-7.2-92.3-15-141.2-22.1-6.1-0.9-12.3-1.7-18.5-2.6-6.2-0.8-12.4-1.6-18.6-2.5-12.5-1.6-25.1-3.3-37.7-4.9-25.3-3.3-50.9-6.7-76.8-10.1-12.9-1.7-25.9-3.4-38.9-5s-26.1-3.3-39.1-4.9c-13.1-1.6-26.2-3.3-39.3-4.8-13.1-1.6-26.3-3.1-39.4-4.7l-19.7-2.3c-6.6-0.7-13.1-1.4-19.7-2.2-13.1-1.4-26.3-2.9-39.4-4.3-6.5-0.7-13.1-1.4-19.6-2-6.5-0.7-13.1-1.3-19.6-2-13-1.3-26.1-2.6-39-3.9-13-1.2-25.9-2.3-38.7-3.5-6.4-0.6-12.8-1.1-19.2-1.7s-12.8-1.2-19.1-1.6c-12.7-1-25.4-1.9-37.9-2.9-6.3-0.5-12.5-1-18.8-1.4-6.2-0.5-12.4-1-18.6-1.3-12.4-0.8-24.6-1.5-36.8-2.3-6.1-0.4-12.1-0.8-18.1-1.1l-9-0.6-4.5-0.3c-1.5-0.1-3-0.1-4.5-0.2-23.8-1.1-47.2-2.2-69.9-3.3-22.7-0.7-44.8-1.4-66.2-2.1-5.3-0.1-10.6-0.4-15.9-0.4-5.3-0.1-10.5-0.1-15.6-0.2-10.3-0.1-20.4-0.2-30.4-0.4-9.9-0.1-19.6-0.2-29.1-0.3-9.5 0.1-18.8 0.2-27.8 0.3-18.1 0.2-35.2 0.3-51.4 0.5-16.1 0.5-31.2 1-45.1 1.4-7 0.2-13.7 0.4-20 0.6-6.4 0.2-12.5 0.3-18.3 0.7-46.2 2.6-72.7 4.2-72.7 4.2l-0.4-1.1z"/>
	<path class="st0" d="m1782.2 1572.3s26.3-4.4 72.2-12.2c46-7.6 111.7-18.4 190.6-30.6 39.5-6.1 82.3-12.5 127.5-19.2 22.6-3.3 45.9-6.6 69.7-10 11.9-1.7 23.9-3.4 36.1-5.1s24.4-3.3 36.8-5 24.8-3.4 37.4-5.1c12.6-1.6 25.2-3.3 38-5 12.7-1.7 25.6-3.3 38.4-5 12.9-1.7 25.8-3.2 38.9-4.8 13-1.6 26.1-3.2 39.2-4.8s26.3-3.1 39.4-4.6c13.2-1.5 26.4-3 39.6-4.6 6.6-0.8 13.2-1.5 19.8-2.2l19.9-2.1c13.2-1.4 26.5-2.8 39.7-4.3l9.9-1.1 9.9-1c6.6-0.6 13.2-1.3 19.8-1.9 13.2-1.3 26.4-2.6 39.5-3.9 3.3-0.3 6.6-0.6 9.8-1 3.3-0.3 6.6-0.6 9.8-0.9 6.6-0.6 13.1-1.2 19.6-1.7 26.1-2.3 52-4.8 77.7-6.6 12.8-1 25.6-1.9 38.2-2.9 6.3-0.5 12.6-1 18.9-1.4s12.5-0.8 18.8-1.2c12.5-0.8 24.8-1.5 37.1-2.3 6.1-0.4 12.2-0.7 18.3-1.1s12.1-0.6 18.1-0.9c24-1.1 47.5-2.3 70.4-3.1 22.9-0.7 45.1-1.4 66.7-2 2.7-0.1 5.4-0.2 8-0.2 2.7 0 5.3-0.1 8-0.1 5.3-0.1 10.5-0.1 15.7-0.2 10.4-0.1 20.6-0.3 30.6-0.4s19.8-0.3 29.3-0.4c9.6 0 18.9 0.1 28 0.1s18 0.1 26.6 0.1 17 0 25.1 0.2c32.5 0.7 60.8 1.2 84.1 2.1 23.3 1 41.6 1.8 54.1 2.3 12.5 0.6 19.1 0.9 19.1 0.9v0.9s-6.7-0.1-19.1-0.2c-12.5-0.2-30.8-0.4-54.1-0.7-5.8-0.1-12-0.1-18.4 0-6.4 0-13.2 0-20.2 0.1h-45.4c-16.2 0.2-33.5 0.5-51.7 0.7-9.1 0.1-18.4 0.3-28 0.4-9.5 0.2-19.3 0.5-29.3 0.8s-20.2 0.6-30.5 0.9c-5.2 0.1-10.4 0.3-15.7 0.4-2.6 0.1-5.3 0.2-8 0.2-2.7 0.1-5.3 0.2-8 0.3-21.5 0.9-43.7 1.8-66.6 2.7-22.8 1.2-46.3 2.4-70.3 3.6-6 0.3-12 0.6-18.1 1s-12.1 0.8-18.3 1.1c-12.2 0.8-24.6 1.5-37 2.3-6.2 0.4-12.5 0.7-18.8 1.1s-12.6 0.9-18.9 1.3c-12.6 0.9-25.4 1.8-38.2 2.7-25.6 1.7-51.5 3.9-77.6 6-6.5 0.5-13.1 1-19.6 1.6-3.3 0.3-6.6 0.5-9.8 0.8-3.3 0.3-6.6 0.6-9.8 0.9-13.1 1.2-26.3 2.4-39.5 3.6l-19.8 1.8-9.9 0.9-9.9 1c-13.2 1.3-26.5 2.6-39.7 4l-19.9 2c-6.6 0.7-13.2 1.3-19.8 2.1-13.2 1.4-26.4 2.9-39.6 4.3-13.2 1.5-26.3 2.8-39.4 4.4-13.1 1.5-26.2 3.1-39.2 4.6s-26 3-38.9 4.6-25.7 3.2-38.5 4.8c-12.7 1.6-25.4 3.2-38 4.7-12.6 1.6-25 3.2-37.4 4.8s-24.6 3.2-36.8 4.8c-12.1 1.6-24.2 3.3-36.1 4.9-23.8 3.2-47.1 6.4-69.8 9.4-45.3 6.2-88.2 12.3-127.7 18.1-79 11.5-144.8 21.7-190.8 28.9-46 7.4-72.3 11.6-72.3 11.6l0.1-1z"/>
	<path class="st0" d="m1795.4 1581.2s26.3-3.6 72.3-10c11.5-1.6 24.2-3.4 38.1-5.2s28.9-3.7 45-5.8 33.1-4.3 51.1-6.6c18-2.2 37-4.4 56.8-6.8 9.9-1.2 20-2.4 30.3-3.6s20.8-2.5 31.4-3.7c21.3-2.4 43.4-4.8 66.1-7.3 11.3-1.2 22.8-2.6 34.5-3.8s23.4-2.3 35.4-3.5c23.9-2.4 48.2-4.9 73-7.2 49.6-4.5 100.8-9.3 153-13.4 52.1-4.5 105.1-8 158.1-11.9 53-3.3 106-6.9 158.3-9.6 52.2-3.1 103.6-5.1 153.4-7.4 12.4-0.5 24.8-0.8 37-1.2s24.3-0.8 36.3-1.1c12-0.4 23.8-0.7 35.5-1.1 11.7-0.3 23.3-0.5 34.7-0.7 22.8-0.4 45-0.8 66.5-1.2 10.7-0.2 21.3-0.2 31.7-0.3s20.5-0.2 30.5-0.2c19.9-0.1 39-0.3 57.2-0.3 18.2 0.1 35.4 0.2 51.6 0.2 16.2 0.1 31.3 0.2 45.3 0.3s26.9 0.5 38.5 0.6c23.2 0.4 41.5 0.8 53.9 1 12.4 0.3 19.1 0.4 19.1 0.4v0.9s-6.6 0.1-19.1 0.3c-12.4 0.1-30.7 0.3-53.9 0.6-11.6 0.1-24.5 0.2-38.5 0.4s-29.1 0.5-45.3 0.7-33.4 0.5-51.5 0.8c-18.1 0.4-37.2 0.8-57.1 1.3-10 0.2-20.1 0.4-30.5 0.7-10.4 0.2-20.9 0.4-31.6 0.8-21.5 0.6-43.6 1.2-66.4 1.9-11.4 0.3-23 0.7-34.7 1-11.7 0.4-23.5 0.8-35.5 1.3-23.9 0.8-48.4 1.7-73.3 2.5-49.7 2-101.1 3.8-153.3 6.4-52.2 2.2-105.2 5.5-158.2 8.4-53 3.6-106 6.8-158.1 10.9-52.1 3.7-103.4 8.3-153 12.4-24.8 2.2-49.2 4.6-73 6.8-11.9 1.1-23.7 2.2-35.4 3.3-11.6 1.2-23.2 2.3-34.5 3.5-22.7 2.3-44.8 4.6-66.1 6.7-10.7 1-21.2 2.3-31.5 3.4s-20.4 2.3-30.3 3.4c-19.8 2.2-38.8 4.3-56.8 6.3-18 2.2-35.1 4.2-51.2 6.2-16.1 1.9-31.1 3.7-45 5.4s-26.6 3.4-38.2 4.9c-46.1 6-72.4 9.4-72.4 9.4l-0.2-1.2z"/>
	<path class="st0" d="m1772.9 1584s26.8-2.1 73.7-5.9c11.7-0.9 24.7-2 38.9-3.1 14.1-1 29.4-2.2 45.8-3.4 16.3-1.2 33.7-2.5 52.1-3.9 18.3-1.3 37.6-2.6 57.8-3.9 20.1-1.3 41.1-2.8 62.8-4.2 21.7-1.3 44.2-2.7 67.2-4.2 11.5-0.7 23.2-1.4 35.1-2.1 11.8-0.6 23.8-1.3 36-2 24.2-1.3 49-2.7 74.2-4 50.4-2.4 102.4-5.1 155.4-7.3 52.9-2.4 106.7-4.2 160.5-6.2 53.8-1.7 107.6-3.5 160.5-4.7 53-1.6 105.1-2.3 155.5-3.2 12.6-0.2 25.1-0.3 37.5-0.4s24.7-0.2 36.8-0.3 24.1-0.2 36-0.3h35.1c23.1 0 45.6 0.1 67.4 0.1 21.8 0.1 42.8 0.4 63 0.5 20.2 0.2 39.5 0.4 57.9 0.6 18.4 0.3 35.8 0.6 52.2 0.9s31.7 0.6 45.9 0.9 27.2 0.8 39 1.1c23.5 0.7 42 1.2 54.6 1.6s19.3 0.6 19.3 0.6v0.9s-6.7 0-19.3 0.1h-54.6c-23.5 0-52.1 0-84.9 0.1-16.4 0-33.8 0-52.2 0.1s-37.7 0.2-57.9 0.3-41.2 0.1-62.9 0.3-44.2 0.4-67.3 0.6c-11.6 0.1-23.3 0.2-35.1 0.3-11.9 0.1-23.9 0.3-36 0.4-24.3 0.3-49.1 0.6-74.3 0.8-50.4 0.7-102.5 1.3-155.5 2.3-52.9 0.7-106.7 2.3-160.5 3.5-53.8 1.7-107.5 3.1-160.4 5.2-52.9 1.8-105 4.2-155.4 6.3-25.2 1.2-50 2.4-74.2 3.6-12.1 0.6-24.1 1.2-36 1.7-11.8 0.6-23.5 1.2-35.1 1.9-23.1 1.2-45.5 2.4-67.3 3.6-21.7 1.2-42.7 2.5-62.8 3.7s-39.4 2.4-57.8 3.5c-18.3 1.2-35.8 2.3-52.1 3.4-16.4 1.1-31.7 2.1-45.8 3-14.2 1-27.1 1.9-38.9 2.8-47 3.4-73.8 5.3-73.8 5.3l-0.1-0.9z"/>
	<path class="st0" d="m62.4 1545.6s26.7-3.6 73.4-9.8c11.7-1.4 24.7-2.7 38.8-4.3 7.1-0.8 14.4-1.6 22-2.4s15.5-1.8 23.7-2.4c16.4-1.4 33.8-2.9 52.1-4.4 4.6-0.4 9.2-0.8 13.9-1.2s9.5-0.6 14.3-0.9c9.7-0.6 19.5-1.2 29.6-1.8s20.4-1.3 30.9-1.9 21.2-0.9 32.1-1.4 22-0.9 33.2-1.4c2.8-0.1 5.6-0.2 8.5-0.4 2.8-0.1 5.7-0.2 8.5-0.3 5.7-0.1 11.5-0.3 17.2-0.4 11.6-0.3 23.3-0.5 35.2-0.8 5.9-0.1 11.9-0.3 17.9-0.4s12.1-0.1 18.1-0.1c12.2-0.1 24.4-0.1 36.9-0.2 6.2 0 12.4-0.1 18.7-0.1 6.3-0.1 12.5 0.1 18.9 0.1 12.6 0.1 25.4 0.2 38.2 0.4 6.4 0.1 12.9 0.1 19.3 0.2 6.5 0.1 12.9 0.3 19.4 0.4 13 0.3 26.1 0.6 39.2 0.9 6.6 0.2 13.2 0.3 19.8 0.5s13.2 0.5 19.8 0.7c13.3 0.5 26.6 0.9 39.9 1.4 6.7 0.2 13.4 0.4 20 0.7l20.1 0.9c26.8 1.2 53.7 2.3 80.6 3.9 13.5 0.7 26.9 1.4 40.3 2.1s26.9 1.6 40.3 2.3c13.4 0.8 26.8 1.6 40.1 2.4s26.6 1.7 39.8 2.5 26.4 1.7 39.5 2.5c13.1 0.9 26.2 1.8 39.1 2.7 25.9 1.8 51.5 3.6 76.7 5.4 50.4 3.7 99 7.4 145.2 11.1 23.1 1.8 45.5 3.6 67.2 5.3 21.7 1.8 42.7 3.5 62.8 5.1 40.3 3.3 77.2 6.4 109.9 9.1 16.4 1.4 31.7 2.7 45.8 3.9s27.1 2.4 38.9 3.4c23.5 2.1 41.9 3.7 54.5 4.8 12.6 1.2 19.3 1.8 19.3 1.8l-0.1 0.9s-6.7-0.4-19.3-1.1-31.1-1.8-54.6-3.2c-11.8-0.7-24.8-1.5-39-2.3-14.2-0.9-29.5-1.9-45.9-2.9-32.8-2.1-69.7-4.5-110-7.2-20.2-1.4-41.1-2.8-62.9-4.2-21.7-1.5-44.2-3.1-67.3-4.7-46.2-3.2-94.9-6.7-145.2-10.4-25.2-1.9-50.8-3.8-76.7-5.8-25.9-1.9-52.1-3.9-78.6-5.8-13.2-1-26.5-1.9-39.8-2.9-13.3-0.9-26.7-1.8-40-2.7-13.4-0.9-26.8-1.9-40.2-2.6-13.4-0.8-26.9-1.6-40.3-2.4-26.9-1.7-53.8-3-80.5-4.4-6.7-0.3-13.4-0.7-20.1-1s-13.4-0.6-20-0.9c-13.3-0.5-26.6-1.1-39.9-1.6-6.6-0.3-13.2-0.5-19.8-0.8-6.6-0.2-13.2-0.4-19.7-0.6-13.1-0.4-26.2-0.8-39.2-1.2-6.5-0.2-13-0.4-19.4-0.5-6.5-0.1-12.9-0.2-19.3-0.3-12.8-0.2-25.5-0.4-38.2-0.6-6.3-0.1-12.6-0.3-18.8-0.2h-73.6c-6 0.1-12 0.2-17.9 0.3-11.9 0.2-23.6 0.4-35.2 0.5-5.8 0.1-11.5 0.2-17.2 0.3-2.9 0-5.7 0.1-8.5 0.2s-5.6 0.2-8.5 0.3c-11.2 0.4-22.3 0.8-33.2 1.1-10.9 0.4-21.6 0.7-32.1 1.1-10.5 0.6-20.8 1.1-30.9 1.7-10.1 0.5-20 1.1-29.6 1.6-4.8 0.3-9.6 0.5-14.3 0.8-4.7 0.4-9.4 0.7-13.9 1.1-18.4 1.4-35.8 2.7-52.1 4-8.2 0.5-16.1 1.5-23.7 2.2-7.6 0.8-15 1.5-22 2.2-14.1 1.4-27.1 2.7-38.8 3.9-46.8 5.9-73.5 9.2-73.5 9.2l0.2-1z"/>
		<path class="st4" d="m2553.5 576.3c91.4-8 167.8-66.4 187.9-153-77.4-42.6-171.2-25.3-238.2 36.4 11.7 15.9 21.9 33.5 30.4 52.5 9.4 21.1 15.9 42.7 19.9 64.1z"/>
		<path class="st4" d="m2503.2 459.7c-55.9-76.4-144.3-115.1-224.9-96.9 8.4 84.1 69.7 162 158.3 196.3 3.7-9.8 7.9-19.4 12.9-28.9 14.4-27.5 32.7-51.2 53.7-70.5z"/>
		<path class="st4" d="m2553.5 576.3c-3.9-21.5-10.5-43-19.9-64.2-8.5-19-18.7-36.6-30.4-52.5-21 19.3-39.4 43-53.7 70.6-4.9 9.5-9.2 19.2-12.9 28.9 9.6 3.7 19.5 7 29.6 9.6 29.7 7.8 59.2 10.1 87.3 7.6z"/>
		<path class="st4" d="m2553.5 576.3c-28.1 2.4-57.5 0.2-87.2-7.5-10.2-2.7-20.1-5.9-29.6-9.6-32.7 86.3-17.7 181 35.5 243.6 66.9-46.2 98-135.4 81.3-226.5z"/>
		<path class="st4" d="m2544.5 567c74.6-6.5 137.1-54.2 153.6-125-63.2-34.8-139.9-20.7-194.6 29.7 9.5 13 17.9 27.3 24.8 42.9 7.6 17.2 13 34.8 16.2 52.4z"/>
		<path class="st4" d="m2503.4 471.7c-45.7-62.4-117.9-94-183.7-79.2 6.9 68.7 57 132.3 129.3 160.4 3-8 6.5-15.9 10.5-23.6 11.8-22.5 26.8-41.8 43.9-57.6z"/>
		<path class="st4" d="m2544.5 567c-3.2-17.5-8.6-35.2-16.2-52.4-6.9-15.5-15.3-29.9-24.8-42.9-17.1 15.8-32.2 35.1-43.9 57.6-4 7.8-7.5 15.6-10.5 23.6 7.8 3 15.9 5.7 24.2 7.9 24.2 6.3 48.2 8.1 71.2 6.2z"/>
		<path class="st4" d="m2544.5 567c-22.9 2-47 0.2-71.2-6.2-8.3-2.2-16.4-4.8-24.2-7.9-26.7 70.5-14.4 147.9 29 199.1 54.6-37.8 80-110.6 66.4-185z"/>
<path class="st5" d="m2402.4 1010.6h-0.1c0-0.1 0-0.1 0.1 0z"/>
<path class="st5" d="m2402.1 1010.5h0.1-0.1z"/>
<path class="st5" d="m2202.5 901.3z"/>
<path class="st5" d="m2202.5 901.1z"/>
	<path class="st6" d="m2156.5 611.1l34.6 7.4c8.2-38.2-23.7-77.1-72.2-91.1-4.3 3.8-9 7.8-13.8 11.5 35.3 13.3 57.5 43.5 51.4 72.2z"/>
	<path class="st7" d="m1837.3 542.3l-0.1 0.3-33.8-7.2c-8 38.3 24.6 77.3 73.7 91 4.3-3.8 8.5-7.7 13.3-11.5-36-13-59.3-43.4-53.1-72.6z"/>
	<path class="st8" d="m2085.9 655.8c3.2 5.6 6.2 11.2 8.8 16.7 47.2 4.2 88.6-18.2 96.3-54l-34.6-7.4c-5.6 26.2-35.4 45-70.5 44.7z"/>
	<path class="st8" d="m1837.3 542.4c5.8-27.1 35.6-44.7 70.4-44.7-3.2-5.7-6-11-8.7-16.5-46.8-4-87.7 18.3-95.6 54.1l33.8 7.2c0 0.1 0.1-0.1 0.1-0.1z"/>
	<path class="st7" d="m1963.3 735.8l-7.4 34.6c35.8 7.7 72.5-20.7 88.2-64.9-3.9-4.7-7.6-9.7-11.4-15-14.3 31.6-43.2 50.9-69.4 45.3z"/>
	<path class="st7" d="m1942.9 492.5l-0.7-1v0.2l0.5 0.7s0.1 0.1 0.2 0.1z"/>
	<path class="st7" d="m2030.7 416.7l0.9 0.2 7.3-34.1c-38.3-8-73 20.6-88.7 64.8 3.9 4.7 7.5 9.4 11.4 14.7 14.3-31.7 42.1-51.4 69.1-45.6z"/>
	<path class="st7" d="m1952.5 507.5l-0.6-0.9v0.2l0.4 0.6c0.1 0.1 0.2 0.1 0.2 0.1z"/>
	<path class="st8" d="m1955.9 770.3l7.4-34.6c-26.3-5.6-42.3-30.5-44.9-61.5-6 3.7-11.6 7-17.3 9.9-0.4 42.9 21.3 79.1 54.8 86.2z"/>
	<path class="st7" d="m1923.3 631.1l-15.8 11.5c0 0.1 0 0.1-0.1 0.2l15.8-11.5s0.1-0.1 0.1-0.2z"/>
	<path class="st8" d="m2030.6 416.6c25.6 5.5 42.8 32.2 44.6 64.4 5.8-3.7 12-6.9 17.6-9.9 1.3-43.8-20.5-81.1-53.9-88.4l-7.3 34.1c0 0.1-0.9-0.1-1-0.2z"/>
	<path class="st7" d="m1937.4 620.9l-13.3 9.7h0.2l13.3-9.7h-0.2z"/>
	<path class="st7" d="m1866.5 672.6l40.9-29.8-69.5 50.6c7.6 10.4 32.6 5.9 62.4-9.4 0-3.8 0.2-7.8 0.6-11.7-16.6 6.2-29.6 6.7-34.4 0.3z"/>
	<path class="st7" d="m2129.8 480.8l28.6-20.8c-7.9-10.6-34.5-5.4-65.8 11.2-0.1 3.7-0.4 7.5-0.8 11.3 18.4-7.4 32.9-8.5 38-1.7z"/>
	<path class="st9" d="m1948 646.2c-10.4 7.5-20.7 13.9-30.5 18.9 0 3.1 0.1 6.1 0.4 9.1 6.3-3.9 12.8-8.2 19.2-12.9 24.9-18.1 44.5-38.1 54.9-54.6-0.2-1-0.4-1.9-0.5-2.9-8.9 13-24.2 28.3-43.5 42.4z"/>
	<polygon class="st7" points="1924.3 630.5 1923.2 631.3 1923.2 631.3"/>
	<path class="st10" d="m2059.3 492.2c-26.2 19.1-46.5 40.2-56.5 57.2 0.2 1 0.3 1.9 0.4 2.8 8.6-13.6 24.7-30 45.2-45 9.2-6.7 18.3-12.4 27.1-17.1 0.1-3 0.1-6-0.1-8.9-5.4 3.5-10.8 7.1-16.1 11z"/>
	<path class="st7" d="m1998 576.4c-0.1-0.1-0.1-0.1 0 0z"/>
	<polygon class="st7" points="1994.3 579.5 1937.6 620.9 1937.6 620.9"/>
	<path class="st9" d="m1923.2 631.3l-15.8 11.5c-1.6 4.8-3 9.8-4.1 14.9-1 4.9-1.8 9.8-2.3 14.6 5.2-1.9 10.7-4.4 16.5-7.3 0-7.1 0.8-14.4 2.4-21.8 0.9-4.1 2-8.1 3.3-11.9z"/>
	<path class="st9" d="m2069.4 522.6c1.1-0.1 2.2-0.2 3.4-0.3l11.3-8.3c2.3-6.1 4.2-12.4 5.6-19.1 0.9-4.2 1.6-8.3 2.1-12.4-5.2 2.1-10.7 4.7-16.3 7.7-0.2 6.3-1 12.8-2.4 19.3-1 4.5-2.2 8.9-3.7 13.1z"/>
	<path class="st7" d="m1937.6 620.9l-13.3 9.7c29.4-2.9 54.3-16.5 66.4-37v-1.1c-10.3 15.6-30 26-53.1 28.4z"/>
	<path class="st7" d="m2059.5 532l8.8-6.4c0.4-1 0.7-1.9 1.1-2.9-29.2 3.1-53.8 16.8-65.7 37.4v1.1c10.6-16.6 31.4-27.4 55.8-29.2z"/>
	<path class="st8" d="m1887 628.6c-0.7-0.1-1.4-0.3-2.1-0.4-2.6-0.6-5.2-1.2-7.7-1.9-30.9 27.4-47.9 55.1-39.3 67l28.6-20.8c-6-8.2 2.8-25.4 20.5-43.9z"/>
	<path class="st8" d="m2129.9 480.9c5.8 8.2-2.9 25.4-20.7 43.9 0.2 0 0.4 0.1 0.6 0.1 3.1 0.7 6.2 1.4 9.2 2.3 31-27.4 48-55.1 39.5-67.1l-28.6 20.8z"/>
	<path class="st9" d="m1974.5 573.6c-0.7-0.4-1.5-0.9-2.2-1.3-19.4 3.9-46.4 16.9-73.4 36.5-2.8 2-5.5 4.1-8.1 6.1 2.6 0.9 5.2 1.8 7.9 2.5 5.5-4.8 11.5-9.7 17.9-14.4 21.1-15.3 42.2-25.7 57.9-29.4z"/>
	<path class="st9" d="m2079.6 550.2c-22.1 16.1-44.2 26.7-60.1 30l2.1 1.2c19.5-3.3 47.6-16.5 75.7-37 2.7-1.9 5.3-3.9 7.8-5.9-2.5-1-5.1-1.8-7.8-2.6-5.4 4.9-11.3 9.7-17.7 14.3z"/>
	<path class="st7" d="m1995.3 574c-0.1-0.1-0.2-0.1-0.2-0.2l0.2 0.3c0.1 0 0.1 0.1 0.2 0.1l-0.2-0.2z"/>
	<path class="st7" d="m1998 576.4c-0.1 0-0.1 0 0 0-0.1 0-0.1 0 0 0z"/>
	<path class="st7" d="m2129.9 480.9c-0.1 0-0.1 0 0 0-0.1 0-0.1 0 0 0z"/>
	<polygon class="st7" points="1924.1 630.5 1923.3 631.1 1923.3 631.1"/>
	<polygon class="st7" points="2084.1 514.1 2129.8 480.8 2129.8 480.8"/>
	<polygon class="st7" points="2068.3 525.5 2072.8 522.3 2072.8 522.3"/>
	<polygon class="st7" points="1999.2 575.9 2059.5 532 2059.5 532"/>
	<path class="st9" d="m2075.6 532c4.6 0.4 9.3 1.1 14.1 2.1 2.6 0.6 5.1 1.2 7.6 1.9 4.3-3.8 8.2-7.5 11.8-11.3-9.6-2-19.1-2.9-28.3-2.8-1.6 3.5-3.3 6.9-5.2 10.1z"/>
	<path class="st9" d="m1905 619c-2.1-0.5-4.2-1-6.2-1.5-4.2 3.7-8.1 7.5-11.7 11.2 8.5 1.7 16.9 2.5 25 2.5 1.6-3.5 3.4-7 5.2-10.2-4.1-0.5-8.2-1.2-12.3-2z"/>
	<path class="st7" d="m1997.6 576.6z"/>
	<polygon class="st7" points="1996.8 576.4"/>
	<path class="st7" d="m1996.8 576.4h0.1-0.1z"/>
	<path class="st7" d="m1997.3 576.8z"/>
	<path class="st7" d="m1997.3 576.8z"/>
	<path class="st7" d="m2080.8 522c1.1-2.5 2.2-5.1 3.2-7.7l-11.1 8c2.7-0.2 5.3-0.3 7.9-0.3z"/>
	<path class="st9" d="m1912.1 631.1c-1.7 3.7-3.2 7.5-4.6 11.5l15.8-11.5c0.1-0.2 0.1-0.4 0.2-0.5-3.8 0.3-7.6 0.5-11.4 0.5z"/>
	<path class="st9" d="m1979.2 575.9c-0.3-0.1-0.7-0.3-1-0.5-23.6 2.7-46.2 19.8-60.9 45.4 3.3 0.3 6.6 0.5 9.8 0.5 11.3-24.7 31-42 52.1-45.4z"/>
	<path class="st9" d="m2012.7 576.9c0.3 0.1 0.7 0.3 1 0.4 24-2.3 47-19.4 61.9-45.3-3.3-0.3-6.6-0.4-9.9-0.3-11.4 25.1-31.6 42.3-53 45.2z"/>
	<path class="st7" d="m1997.7 576.6s-0.1 0 0 0c-0.1 0 0 0 0 0z"/>
	<path class="st7" d="m1996.9 576.4h-0.2 0.2z"/>
	<path class="st7" d="m2065.8 531.7c0.9-1.9 1.7-3.9 2.5-6l-8.6 6.2c2-0.1 4-0.2 6.1-0.2z"/>
	<path class="st7" d="m1927.1 621.4c-1.3 3-2.6 6.1-3.7 9.2 0.2 0 0.4 0 0.6-0.1l13.3-9.7c-3.3 0.4-6.7 0.6-10.2 0.6z"/>
	<path class="st7" d="m2129.8 480.8z"/>
	<polygon class="st7" points="2084 514.3 2084 514.3 2129.8 480.9 2129.8 480.9"/>
	<polygon class="st7" points="2068.3 525.7 2073 522.3 2073 522.3"/>
	<path class="st7" d="m2073 522.3l11.1-8c0-0.1 0-0.1 0.1-0.2l-11.3 8.3c-0.1-0.1 0-0.1 0.1-0.1z"/>
	<path class="st7" d="m2059.7 532l8.6-6.2c0-0.1 0.1-0.1 0.1-0.2l-8.8 6.4h0.1z"/>
	<path class="st7" d="m1908.9 440l-19.1-29.7c-11.7 7.5-7.1 36.6 9.5 70.8 3.5 0.3 7.1 0.7 10.7 1.3-7.9-20.9-8.8-37.4-1.1-42.4z"/>
	<path class="st7" d="m2104.4 743.6z"/>
	<path class="st9" d="m2019.1 581.8c13.5 8.9 29.9 26.6 44.4 49.1 5.3 8.3 9.9 16.5 13.8 24.4 2.9 0.3 5.8 0.4 8.6 0.4-2.5-4.3-5.1-8.7-7.9-13-18.5-28.7-39.5-50.9-56.3-61.3-0.9 0.2-1.7 0.3-2.6 0.4z"/>
	<path class="st7" d="m2085.4 713.8l19.1 29.7c11.6-7.7 6.9-36.8-9.7-71.1-3.5-0.3-7.1-0.8-10.6-1.4 7.8 21.1 8.9 37.7 1.2 42.8z"/>
	<path class="st9" d="m1972.3 572.2c0.8-0.2 1.6-0.3 2.4-0.4-13.5-9-29.7-26.6-44.1-48.9-5.4-8.4-10.1-16.7-13.9-24.7-2.9-0.2-5.8-0.4-8.6-0.4 2.5 4.4 5.2 8.9 8.1 13.3 18.4 28.6 39.3 50.7 56.1 61.1z"/>
	<path class="st7" d="m1998 576.4z"/>
	<path class="st7" d="m1999 576l0.1-0.1c-0.4 0.2-0.8 0.3-1.2 0.5 0.4-0.1 0.8-0.3 1.1-0.4z"/>
	<path class="st7" d="m1976.7 573.1c-0.7 0.1-1.5 0.3-2.2 0.5 1.2 0.7 2.5 1.3 3.7 1.9 0.8-0.1 1.6-0.2 2.4-0.2-1.3-0.7-2.6-1.4-3.9-2.2z"/>
	<path class="st7" d="m2011.3 577.5c1.9 0.8 3.9 1.9 5.9 3.1 0.7-0.1 1.5-0.3 2.3-0.4-2-1.1-4-2.1-5.8-2.9-0.8 0.1-1.6 0.2-2.4 0.2z"/>
	<path class="st7" d="m1997.7 576.6z"/>
	<polygon class="st7" points="1997.3 576.8"/>
	<path class="st7" d="m1997.3 576.8c0.1-0.1 0.2-0.2 0.4-0.2-0.2 0.1-0.3 0.1-0.4 0.2z"/>
	<polygon class="st7" points="1997.1 576.9"/>
	<path class="st7" d="m1997.1 576.9z"/>
	<path class="st7" d="m1997.3 576.8c-0.1 0-0.1 0.1 0 0-0.1 0.1-0.1 0 0 0z"/>
	<path class="st7" d="m1981.4 575.6c-0.7 0.1-1.5 0.2-2.2 0.3 7.3 3.3 13.5 3.8 17.9 1-3.8 2.5-9.3 1.9-15.7-1.3z"/>
	<path class="st7" d="m1997.7 576.6c0.1-0.1 0.2-0.1 0.3-0.1-0.1 0-0.2 0-0.3 0.1z"/>
	<path class="st7" d="m1999.5 575.8l-0.2 0.1c3.1-0.9 6.9-0.4 11.2 1.3 0.7-0.1 1.4-0.2 2.1-0.2-5-2-9.5-2.5-13.1-1.2z"/>
	<path class="st7" d="m1999.4 575.9l0.2-0.1c-0.1 0-0.3 0.1-0.4 0.1l-0.1 0.1s0.2-0.1 0.3-0.1z"/>
	<polygon class="st7" points="1942.2 491.7 1908.9 440 1908.9 440"/>
	<polygon class="st7" points="1951.9 506.8 1942.7 492.4 1942.7 492.4"/>
	<polygon class="st7" points="1952.3 507.4 1952.3 507.4 1995.1 573.8 1995.1 573.8"/>
	<polygon class="st7" points="1997.1 576.9"/>
	<ellipse class="st7" transform="matrix(.8433 -.5374 .5374 .8433 2.8818 1163.7)" cx="1997.1" cy="576.9" rx="0" ry="0"/>
	<ellipse class="st7" transform="matrix(.8396 -.5432 .5432 .8396 7.1504 1177)" cx="1996.8" cy="576.4" rx="0" ry="0"/>
	<polygon class="st7" points="1996.8 576.4 1996.8 576.4 1997.1 576.9"/>
	<polygon class="st7" points="1995.3 574.1 1995.3 574.1 1996.8 576.4 1996.8 576.4"/>
	<path class="st9" d="m1942.8 503.6c-0.4-3.7-0.6-7.6-0.6-11.5-8.1-3.7-17-6.6-26.3-8.6-2-0.4-4-0.8-6-1.1 1.9 5 4.1 10.3 6.8 15.7 4.5 0.4 9.1 1.1 13.7 2 4.3 1 8.4 2.2 12.4 3.5z"/>
	<path class="st9" d="m2050.8 649.6c0.4 3.7 0.6 7.5 0.6 11.3 8.4 3.9 17.6 7 27.3 9.1 1.8 0.4 3.7 0.7 5.5 1.1-1.9-5-4.2-10.3-6.8-15.7-4.4-0.4-8.8-1-13.2-2-4.7-1-9.1-2.3-13.4-3.8z"/>
	<path class="st7" d="m2051.4 661c-0.1-0.1-0.1-0.1 0 0z"/>
	<path class="st7" d="m1942.2 491.7v0.5c0.2 0.1 0.3 0.1 0.5 0.2l-0.5-0.7z"/>
	<path class="st7" d="m2041.6 645.8c3 1.4 6 2.6 9.2 3.7-3-30.2-17.1-55.5-38.4-67.3h-1c18.6 11.4 30.1 35.7 30.2 63.6z"/>
	<path class="st7" d="m1951.9 507.2c-2.9-1.3-6-2.5-9.1-3.6 3.1 30.4 17.6 55.9 39.3 67.4h0.9c-19.1-11.1-30.9-35.6-31.1-63.8z"/>
	<ellipse class="st7" transform="matrix(.2205 -.9754 .9754 .2205 994.98 2398.5)" cx="1998.2" cy="576.7" rx="0" ry="0"/>
	<path class="st7" d="m1998 576.7h0.1-0.1z"/>
	<path class="st7" d="m1951.9 506.8v0.4c0.1 0.1 0.3 0.1 0.4 0.2l-0.4-0.6z"/>
	<path class="st7" d="m1998.1 576.7c0.1 0 0.1 0 0 0z"/>
	<polygon class="st7" points="1998.2 576.7"/>
	<ellipse class="st7" transform="matrix(.8137 -.5813 .5813 .8137 37.028 1269)" cx="1998.2" cy="576.7" rx="0" ry="0"/>
	<path class="st7" d="m1998.2 576.7z"/>
	<polygon class="st7" points="1997.5 577.3 1997.5 577.3 1998.2 576.7 1998.2 576.7"/>
	<path class="st7" d="m1999.9 581l0.3 0.5c-0.3-1.8-1-3.4-2-4.8 0.9 1.3 1.4 2.7 1.7 4.3z"/>
	<path class="st7" d="m1998.1 576.6c0-0.1-0.1-0.1-0.1-0.2 0 0.1 0.1 0.2 0.1 0.2z"/>
	<ellipse class="st7" transform="matrix(.7974 -.6035 .6035 .7974 56.86 1322.8)" cx="1998.2" cy="576.7" rx="0" ry="0"/>
	<ellipse class="st7" transform="matrix(.2246 -.9744 .9744 .2246 987.32 2394.3)" cx="1998.2" cy="576.7" rx="0" ry="0"/>
	<path class="st7" d="m2010.5 581.3c0.6 0.3 1.3 0.7 1.9 1 2.1 0 4.4-0.1 6.8-0.4-0.6-0.4-1.3-0.8-1.9-1.2-2.5 0.3-4.8 0.5-6.8 0.6z"/>
	<polygon class="st7" points="1998.2 576.7"/>
	<path class="st7" d="m1976.7 573.1c2.7-0.5 5.1-0.9 7.4-1-0.7-0.3-1.4-0.7-2-1-2.3 0.1-4.7 0.3-7.4 0.8 0.7 0.3 1.4 0.8 2 1.2z"/>
	<path class="st7" d="m1998.2 576.7z"/>
	<path class="st7" d="m1995.3 574.1l-0.2-0.3c-3-1.9-7.1-2.8-12.1-2.8 0.6 0.4 1.2 0.7 1.8 1 4.3-0.1 7.9 0.6 10.5 2.1z"/>
	<path class="st7" d="m1998.2 576.7c2.6 3.4 7.1 5.2 13.1 5.5-0.6-0.3-1.1-0.7-1.7-1-5.2-0.1-9.2-1.5-11.4-4.5z"/>
	<path class="st7" d="m1998.2 576.7c-0.1 0-0.1-0.1 0 0-0.1-0.1-0.1 0 0 0z"/>
	<path class="st7" d="m1998.1 576.6l-0.2-0.2 0.2 0.2z"/>
	<path class="st7" d="m1998.2 576.7z"/>
	<polygon class="st7" points="1998 576.7 1998 576.7 1998.1 576.7 1998.1 576.7"/>
	<polygon class="st7" points="1998 576.7 1998 576.7 1997.4 577.2 1997.4 577.2"/>
	<polygon class="st7" points="1998.1 576.6"/>
	<polygon class="st7" points="1998.1 576.7 1998.1 576.6"/>
	<polygon class="st7" points="1998.1 576.6 1998.1 576.6 1999 576 1999 576"/>
	<path class="st7" d="m2009.6 581.2h0.8c-3.8-1.9-7.9-3.5-12.1-4.5 4 1.1 7.8 2.6 11.3 4.5z"/>
	<path class="st7" d="m1984.8 572h-0.7c3.5 1.7 7.2 3 11.1 4-3.6-0.9-7.1-2.2-10.4-4z"/>
	<path class="st7" d="m1998.3 576.8s-0.1-0.1 0 0c-0.1-0.1 0 0 0 0z"/>
	<path class="st7" d="m1997.6 576.6c0.1 0 0.3 0.1 0.4 0.1-0.1 0-0.2-0.1-0.4-0.1z"/>
	<path class="st7" d="m1996.7 576.4h0.1-0.1z"/>
	<path class="st7" d="m1997.3 576.8c0 0.1-0.1 0.1 0 0-0.1 0.1 0 0.1 0 0z"/>
	<path class="st7" d="m1997.2 576.9v-0.1c0.1 0.1 0.1 0.1 0 0.1z"/>
	<path class="st7" d="m1998.1 576.7z"/>
	<path class="st7" d="m1998.3 576.7c4.4 0.8 8.7 1.1 13.1 0.8-0.3-0.1-0.5-0.2-0.8-0.3-4.1 0.4-8.2 0.2-12.3-0.5z"/>
		<ellipse class="st7" transform="matrix(.046031 -.9989 .9989 .046031 1330.1 2546.2)" cx="1998.2" cy="576.7" rx="0" ry="0"/>
	<path class="st7" d="m1995 576c-4.8-0.9-9.6-1.1-14.4-0.8 0.3 0.1 0.5 0.3 0.8 0.4 4.5-0.5 9-0.4 13.6 0.4z"/>
	<path class="st7" d="m1998.1 576.7c-0.1 0-0.3-0.1-0.4-0.1 0.1 0 0.2 0 0.4 0.1z"/>
	<path class="st7" d="m1996.5 576.3h0.1c0 0.1 0 0.1-0.1 0z"/>
	<path class="st7" d="m1996.5 576.3l-1.5-0.3 1.5 0.3z"/>
	<path class="st7" d="m1996.8 576.4h-0.1 0.1z"/>
	<path class="st7" d="m1995.2 576c0.5 0.1 0.9 0.2 1.4 0.3-0.4 0-0.9-0.1-1.4-0.3z"/>
	<path class="st7" d="m1998.2 576.7z"/>
	<path class="st7" d="m1998.2 576.7s-0.1-0.1 0 0c-0.1-0.1-0.1 0 0 0z"/>
	<polygon class="st7" points="1998.2 576.7 1998.2 576.7 1998.3 576.7 1998.3 576.7"/>
	<polygon class="st7" points="1999.4 575.9 1998.3 576.7 1998.3 576.7"/>
	<path class="st7" d="m1998.2 576.7z"/>
	<path class="st8" d="m1909 440c7.7-4.9 22 2.5 37.6 17.8 0.9-3.5 2-7 3.2-10.4-24.1-28.8-48.3-44.7-59.9-37.2l52.3 81.2-33.2-51.4z"/>
	<path class="st8" d="m2081.5 713.8c-7 4.9-20.6-2.9-36.5-18.8-0.9 3.5-1 6.9-2.2 10.3 24.3 29.3 47.5 45.6 59.2 38.2l-20.5-29.7z"/>
	<path class="st7" d="m2104.5 743.5z"/>
	<polygon class="st7" points="1951.9 506.6 1942.9 492.5 1942.9 492.5"/>
	<path class="st9" d="m2018.9 659.7c-13-20.2-21.8-40.1-25.3-55.6-0.5 0.8-1 1.6-1.5 2.5 3.7 19.2 14.8 45 31.6 71.1 2.8 4.3 5.7 8.5 8.6 12.6 1.2-2.6 2.2-5.2 3.2-8-5.7-6.7-11.3-14.3-16.6-22.6z"/>
	<path class="st9" d="m2001.3 551.9c0.4-0.8 0.9-1.7 1.4-2.5-3.2-19.4-14.5-46.3-32-73.4-3-4.7-6.2-9.3-9.3-13.6-1.2 2.6-2.3 5.3-3.2 8.1 5.9 7 11.7 14.9 17.3 23.6 13.6 21.1 22.7 42.1 25.8 57.8z"/>
	<path class="st7" d="m1994.3 579.5l0.3-0.2c0.1-0.1 0.2-0.2 0.2-0.3l-0.3 0.2c0 0.1-0.1 0.2-0.2 0.3z"/>
	<path class="st7" d="m1997.9 576.4z"/>
	<path class="st7" d="m1991.8 591.4l-1.2 2.1c0 3.1 0.3 6.5 0.9 10.3 0.5-0.7 1-1.5 1.5-2.2-0.7-3.8-1.1-7.2-1.2-10.2z"/>
	<path class="st7" d="m2002.5 562.1l1.2-2.1c0-2.4-0.2-5-0.5-7.7-0.5 0.8-0.9 1.5-1.4 2.3 0.4 2.7 0.7 5.2 0.7 7.5z"/>
	<path class="st7" d="m1997.9 576.3c3.7-2.9 5.6-8.1 5.8-15.2-0.4 0.6-0.8 1.3-1.2 1.9 0.1 6.2-1.4 10.8-4.6 13.3z"/>
	<path class="st7" d="m1990.7 592.3c0.4-0.6 0.8-1.2 1.1-1.8 0-4.7 0.9-8.6 2.8-11.2l-0.3 0.2c-2.2 3-3.4 7.4-3.6 12.8z"/>
	<path class="st7" d="m1997.6 576.6z"/>
	<polygon class="st7" points="1996.9 576.4"/>
	<polygon class="st7" points="1997.3 576.8"/>
	<path class="st7" d="m1997.3 576.8c0.1-0.1 0.2-0.1 0.3-0.2-0.1 0.1-0.2 0.1-0.3 0.2z"/>
	<polygon class="st7" points="1997.2 576.9"/>
	<path class="st7" d="m1997.2 576.9z"/>
	<path class="st7" d="m1997.3 576.8c-0.1 0-0.1 0 0 0-0.1 0-0.1 0 0 0z"/>
	<polygon class="st7" points="1996.9 576.4 1996.9 576.4 1997.2 576.9 1997.2 576.9"/>
	<path class="st7" d="m1997.6 576.6c0.1-0.1 0.2-0.1 0.3-0.2-0.1 0-0.2 0.1-0.3 0.2z"/>
	<path class="st7" d="m1997.1 576.9c-0.9 0.6-1.8 1.4-2.5 2.3l0.3-0.2c0.6-0.8 1.4-1.5 2.2-2.1z"/>
	<polygon class="st7" points="1995.5 574.2 1995.5 574.2 1996.9 576.4 1996.9 576.4"/>
	<path class="st7" d="m2085.3 713.8z"/>
	<polygon class="st7" points="2051.4 661 2085.4 713.8 2085.4 713.8"/>
	<polygon class="st7" points="2051.3 660.9 2051.3 660.9 2041.6 645.9 2041.6 645.9"/>
	<polygon class="st7" points="2000.2 581.5 2041.6 645.8 2041.6 645.8"/>
	<polygon class="st7" points="1997.4 577.2 1997.4 577.2 1997.5 577.3 1997.5 577.3"/>
	<polygon class="st7" points="1997.5 577.3 1999.9 581 1999.9 581"/>
	<polygon class="st7" points="1997.2 576.9"/>
	<path class="st7" d="m1997.2 576.9c-0.1 0-0.1 0 0 0-0.1 0-0.1 0 0 0z"/>
	<polygon class="st7" points="1997.2 576.9"/>
	<polygon class="st7" points="1997.2 576.9 1997.4 577.2 1997.4 577.2"/>
	<polygon class="st7" points="1997.2 576.9"/>
	<polygon class="st7" points="1997.2 576.9"/>
	<path class="st9" d="m1954.3 484c1-4.7 2.3-9.3 3.9-13.6-3.9-4.6-7.8-8.9-11.6-12.6-0.5 2-1 4.1-1.5 6.2-2 9.3-2.9 18.5-2.9 27.5l0.7 1c3.3 1.5 6.4 3.1 9.5 4.8 0.3-4.4 1-8.8 1.9-13.3z"/>
	<path class="st9" d="m2051.4 661.2l-0.2-0.4c-3.4-1.6-6.7-3.3-9.9-5.2-0.4 4.3-1 8.7-2 13.1-1 4.7-2.3 9.2-3.8 13.5 3.9 4.7 7.7 8.9 11.5 12.8 0.5-2.1 1-4.1 1.5-6.2 1.9-9.4 2.9-18.6 2.9-27.6z"/>
	<path class="st7" d="m1997.1 577.4v0.2-0.2z"/>
	<path class="st9" d="m2041.4 645.8c-23.3-10.8-39.8-29.2-44.1-49-0.2 0.4-0.4 0.8-0.6 1.3 3.7 22.4 20.2 43.5 44.4 57.6 0.3-3.2 0.4-6.4 0.4-9.6l-0.1-0.3z"/>
	<path class="st9" d="m1997.8 559.9c0.1-0.4 0.3-0.8 0.4-1.2-2.6-23.9-19.9-46.6-45.8-61.4-0.3 3.1-0.4 6.2-0.4 9.2l0.6 0.9c24.8 11.5 41.9 31.3 45.2 52.5z"/>
	<path class="st7" d="m1997.2 577.3v0.2c-0.1 0 0-0.1 0-0.2z"/>
	<path class="st7" d="m1997.5 575.8v-0.2 0.2z"/>
	<path class="st7" d="m1997.5 575.6v0.2-0.2z"/>
	<polygon class="st7" points="1994.7 579.3 1994.7 579.3 1997.1 577.5 1997.1 577.5"/>
	<path class="st7" d="m1996.4 595.5c-1 1.9-2.1 3.9-3.4 6 0.2 0.9 0.4 1.7 0.6 2.6 1.2-2.1 2.3-4.1 3.2-6.1-0.1-0.8-0.3-1.7-0.4-2.5z"/>
	<polygon class="st7" points="1997.1 577.5"/>
	<path class="st7" d="m2001.8 554.5c-0.1-0.8-0.3-1.7-0.5-2.6-1.3 2.4-2.3 4.6-3.2 6.8 0.1 0.9 0.2 1.8 0.2 2.7 1-2.2 2.1-4.5 3.5-6.9z"/>
	<path class="st7" d="m2000.2 581.8l-0.3-0.5c0.5 3.6-0.6 8.1-3 13.2 0.1 0.8 0.3 1.5 0.4 2.3 2.6-5.8 3.6-10.9 2.9-15z"/>
	<polygon class="st7" points="1997.1 577.5 1997.1 577.5 1997.4 577.3 1997.4 577.3"/>
	<path class="st7" d="m1997.6 575.6c-1.8-3.4-1.5-8 0.5-13.3l-0.3-2.4c-2.2 6.4-1.9 11.9-0.2 15.7z"/>
	<path class="st7" d="m1997.5 575.7z"/>
	<path class="st7" d="m1997.9 576.3c-0.1-0.2-0.3-0.4-0.4-0.7 0.2 0.3 0.3 0.5 0.4 0.7z"/>
	<path class="st7" d="m1991.8 590.5v0.9c2.2-4.2 4-8.7 5.1-13.4-1 4.5-2.8 8.6-5.1 12.5z"/>
	<path class="st7" d="m1997 578.1c0-0.2 0.1-0.3 0.1-0.5 0 0.1-0.1 0.3-0.1 0.5z"/>
	<path class="st7" d="m1997 578.3c-1.1 5.7-1.2 11.5-0.5 17.2 0.2-0.3 0.3-0.7 0.5-1-1-5.3-1-10.8 0-16.2z"/>
	<path class="st7" d="m1997.1 577.5c-0.1 0.3-0.1 0.5-0.2 0.8 0.1-0.3 0.2-0.5 0.2-0.8z"/>
	<path class="st7" d="m2002.6 563v-0.9c-2.1 4-3.8 8.3-4.9 12.9 1-4.3 2.7-8.3 4.9-12z"/>
	<path class="st7" d="m1997.7 575c-0.1 0.2-0.1 0.4-0.2 0.7 0.1-0.3 0.1-0.5 0.2-0.7z"/>
	<path class="st7" d="m1997.6 575.2c0 0.1 0 0.2-0.1 0.4 0-0.1 0.1-0.2 0.1-0.4z"/>
	<path class="st7" d="m1997.6 575.2c0.9-4.6 1.1-9.2 0.8-13.8-0.1 0.3-0.2 0.6-0.4 0.9 0.5 4.3 0.4 8.6-0.4 12.9z"/>
	<path class="st7" d="m1997.5 575.8c-1-0.8-1.3-1.3-2.1-1.9l0.2 0.3c0.7 0.5 0.9 0.9 1.9 1.6z"/>
	<path class="st7" d="m1997.5 575.8z"/>
	<path class="st7" d="m1997.9 576.3c-0.1-0.2-0.3-0.3-0.4-0.5 0.1 0.2 0.3 0.4 0.4 0.5z"/>
	<polygon class="st7" points="1997.1 577.4 1997.1 577.4 1997.2 577.3 1997.2 577.3"/>
	<polygon class="st7" points="1994.9 579 1994.9 579 1997.1 577.4 1997.1 577.4"/>
	<polygon class="st7" points="1997.2 577.3 1997.2 577.3 1997.3 577.2 1997.3 577.2"/>
	<path class="st7" d="m1997.3 576.5z"/>
	<polygon class="st7" points="1997.3 576.5"/>
	<path class="st7" d="m1997.3 576.5z"/>
	<path class="st7" d="m1997.6 576.6c-0.1 0-0.2 0-0.3-0.1 0.1 0.1 0.2 0.1 0.3 0.1z"/>
		<ellipse class="st7" transform="matrix(.2096 -.9778 .9778 .2096 1014.9 2408.6)" cx="1997.3" cy="576.5" rx="0" ry="0"/>
	<path class="st7" d="m1997.3 576.5c-0.1 0-0.3-0.1-0.4-0.1 0.2 0.1 0.3 0.1 0.4 0.1z"/>
	<path class="st7" d="m1997.3 576.6v0.2-0.2z"/>
	<path class="st7" d="m1997.3 576.5v0.1-0.1z"/>
	<path class="st7" d="m1997.2 577.1c0 0.1 0 0.2-0.1 0.3 0.1-0.1 0.1-0.2 0.1-0.3z"/>
	<path class="st7" d="m1997.2 577.1v0.2-0.2z"/>
	<path class="st7" d="m1997.3 576.8z"/>
	<path class="st7" d="m1997.3 576.6v0.1-0.1z"/>
	<path class="st7" d="m1997.3 576.5v0.1-0.1z"/>
		<ellipse class="st7" transform="matrix(.2096 -.9778 .9778 .2096 1014.9 2408.6)" cx="1997.3" cy="576.5" rx="0" ry="0"/>
	<path class="st7" d="m1997.6 576.6c-0.1 0-0.2 0-0.3-0.1 0.1 0 0.2 0 0.3 0.1z"/>
	<path class="st7" d="m1997.3 576.5c-0.1 0-0.3-0.1-0.4-0.1 0.2 0.1 0.3 0.1 0.4 0.1z"/>
	<path class="st7" d="m1997.5 575.9c0 0.2-0.1 0.4-0.2 0.7 0.1-0.3 0.1-0.5 0.2-0.7z"/>
	<path class="st7" d="m1997.3 576.5c0-0.2 0.1-0.4 0.1-0.7 0 0.3 0 0.5-0.1 0.7z"/>
	<path class="st7" d="m2085.4 713.8c-0.1 0-0.1 0 0 0-0.1 0-0.1 0 0 0z"/>
	<path class="st7" d="m1997.2 576.9z"/>
	<polygon class="st7" points="2051.4 661.2 2051.4 661.2 2085.3 713.8 2085.3 713.8"/>
	<polygon class="st7" points="2041.6 646 2041.6 646 2051.1 660.8 2051.1 660.8"/>
	<polygon class="st7" points="1997.3 577.2 1997.4 577.3 1997.4 577.3"/>
	<polygon class="st7" points="1997.4 577.3 1997.4 577.3 1999.9 581.3 1999.9 581.3"/>
	<polygon class="st7" points="1997.2 577.1"/>
	<polygon class="st7" points="1997.2 577.1 1997.1 576.9 1997.1 576.9"/>
	<polygon class="st7" points="1997.2 577.1 1997.3 577.2 1997.3 577.2"/>
	<path class="st7" d="m2051.1 660.8l0.2 0.4v-0.3s-0.1-0.1-0.2-0.1z"/>
	<path class="st7" d="m2041.6 645.9z"/>
	<path class="st7" d="m2041.4 645.8l0.2 0.3v-0.2c0-0.1-0.1-0.1-0.2-0.1z"/>
	<polygon class="st7" points="1997.5 577.3 1997.4 577.3 1997.4 577.3"/>
	<path class="st7" d="m1999.9 581.3l0.3 0.5v-0.3l-0.3-0.5v0.3z"/>
	<polygon class="st7" points="1997.3 577.2 1997.3 577.2 1997.4 577.2 1997.4 577.2"/>
	<path class="st7" d="m1997.2 576.9v0.2-0.2z"/>
	<path class="st7" d="m1997.2 577.1v-0.2 0.2z"/>
<path class="st11" d="m1536.2 634.6c1.7 14.8-0.1 29.4-5 43.1 3.2 5.4 5.8 11 7.9 16.8 16.7-24.8 24.5-54.7 20-85.6-30.8-4-60.4 4.1-84.9 21.1 7 2.6 13.8 5.9 20.3 9.9 13.2-4.9 27.3-6.8 41.7-5.3z"/>
<path class="st11" d="m1327.2 719.6c-6.4-6.9-11.7-14.5-15.8-22.9 8.3-5.7 17.3-10.1 26.8-13 4.2-8.2 9.4-16.1 15.8-23.3-29.4-2.4-58.2 4.2-81.7 20.1 11.9 23.2 30.8 42.6 54.1 56.4-0.2-5.8 0.1-11.6 0.8-17.3z"/>
<path class="st11" d="m1474.4 858.8c-8.6-4.4-16.4-10.2-23.3-17-5.6 0.8-11.3 1.1-17 1 13.3 22 31.7 40.1 53.6 51.8 15.3-22.7 21.9-50.3 20-78.6-6.2 5.4-12.9 10-19.8 13.7-2.9 10.4-7.3 20.2-13.5 29.1z"/>
<path class="st12" d="m1452.2 648.9c6.7-7.2 14.1-13.5 22-19-39.2-14.4-85-5.6-116.3 26.2-1.4 1.4-2.7 2.8-4 4.3 11.4 0.9 22.9 3.2 34.3 6.8 19-14.6 42.1-20.7 64-18.3z"/>
<path class="st12" d="m1376 796.8c-13.3-13.1-21-29.8-23.2-47.3-9.3-3.4-18.2-7.6-26.5-12.5 0.9 27.2 11.8 54 32.6 74.5 20.9 20.5 47.9 31 75.1 31.4-4.6-7.5-8.5-15.5-11.8-23.9-17-2.2-33.2-9.5-46.2-22.2z"/>
<path class="st12" d="m1522.2 715c4.1 24.1-2.5 50.3-19.5 71 2.8 10 4.5 20.1 5.1 30.2 2.3-2 4.5-4 6.6-6.2 30.9-31.5 39.1-76.8 24.7-115.5-4.9 7.2-10.6 14.1-16.9 20.5z"/>
<path class="st12" d="m1518.8 701.7c5.2-7.5 9.4-15.6 12.4-24-4.8-8.2-10.7-16-17.9-23-5.8-5.7-12.1-10.6-18.8-14.8-8.7 3.2-17.1 7.5-24.8 13 10.9 3.7 21.2 9.9 29.9 18.4 8.9 8.7 15.3 19.1 19.2 30.4z"/>
<path class="st11" d="m1474.5 740.3c10.7 17.8 16.5 37.5 17.2 56.8 1.8-1.6 3.6-3.2 5.3-4.9 2-2 3.9-4.1 5.6-6.3-4.1-14.9-10.5-29.5-19.1-43.4 14.6-7.3 27.6-16.6 38.6-27.5-0.8-4.5-1.9-9-3.4-13.3-10.8 15.8-26 29.2-44.2 38.6z"/>
<path class="st12" d="m1375.4 679.2c-12.7-0.7-25.3 0.8-37.2 4.5-5.8 11.4-9.4 23.6-11 35.9 7.2 7.7 15.6 14.4 25.1 19.8-0.1-21.2 7.6-42.8 23.1-60.2z"/>
<path class="st11" d="m1431.8 697.1c9.2-18.2 22.4-33.4 37.9-44.3-5.7-1.9-11.5-3.2-17.4-3.9-9.9 10.6-18.4 22.9-25.1 36.6-12.5-7.9-25.6-14-38.9-18.2-3.4 2.6-6.6 5.4-9.6 8.5-1.1 1.1-2.2 2.3-3.2 3.4 19.1 1 38.6 7 56.3 17.9z"/>
<path class="st11" d="m1417.4 755.1c-23.9 0.8-46.5-5-65.2-15.7 0 3.4 0.2 6.7 0.6 10 18 6.6 37.6 10.1 57.8 10 0.2 21 4.3 41.1 11.6 59.5 3.8 0.5 7.7 0.7 11.6 0.6-10.8-18.4-16.8-40.6-16.4-64.4z"/>
<path class="st12" d="m1451.1 841.8c12.7-1.8 25.2-5.8 36.8-12 3-10.5 4.2-21.5 3.8-32.7-16.8 14.6-37.4 22.2-57.8 22.4 4.8 8.3 10.6 15.8 17.2 22.3z"/>
	<path class="st13" d="m1650.3 808.3c-10.7-1.3-20.9-5.9-28.9-13.9-8.3-8.2-13.1-18.6-14.5-29.6-5.8-2.1-11.4-4.8-16.6-7.8 0.6 17 7.4 33.8 20.4 46.7 13.1 12.9 30 19.4 47 19.6-2.8-4.7-5.3-9.7-7.4-15z"/>
	<path class="st13" d="m1629 713.4c11.9-9.1 26.3-13 40.1-11.5 4.2-4.5 8.8-8.5 13.8-11.9-24.6-9-53.2-3.5-72.8 16.4-0.9 0.9-1.7 1.8-2.5 2.7 7.1 0.6 14.3 2 21.4 4.3z"/>
	<path class="st13" d="m1712.8 743.3c2.5 15.1-1.6 31.5-12.2 44.4 1.7 6.3 2.8 12.6 3.2 18.9 1.4-1.2 2.8-2.5 4.1-3.9 19.4-19.7 24.5-48.1 15.5-72.3-3.1 4.6-6.6 8.9-10.6 12.9z"/>
<path class="st12" d="m1356.6 767.9c-7.8-19-7.5-46-0.2-63.1-4.5-7.2-8.1-14.8-10.8-22.6-21.6 28.1-25.1 67.4-5.7 100.7 0.9 1.5 1.7 2.9 2.7 4.3 3.5-9 8.2-11 14-19.3z"/>
<path class="st12" d="m1459 815.2c-19.3 7.1-46.2 5.7-63-2.3-7.4 4.2-15.1 7.5-23 9.9 27.3 22.6 66.4 27.7 100.4 9.6 1.5-0.8 3-1.6 4.4-2.5-8.9-3.8-10.7-8.6-18.8-14.7z"/>
<path class="st12" d="m1442.4 645.8c20.5 1.1 47.9 10.9 60.2 24.9 8.5-0.9 13.7 1 21.9 1.9-16.2-31.5-50.1-51.5-88.5-48.2-1.7 0.1-3.4 0.3-5 0.6 6.6 7 6.4 12.1 11.4 20.8z"/>
	<path class="st14" d="m2306.7 674.3c8.6 13.2 13.7 27.8 15.5 43 5.5 3.6 10.7 7.7 15.4 12.1 4.1-31.3-2.6-63.1-21.4-90.1-30.9 10.8-55 32.3-70.1 59.8 7.8-0.9 15.8-1 23.8-0.2 10.2-10.7 22.6-19.2 36.8-24.6z"/>
	<path class="st15" d="m2322.3 717.3c-1.8-15.2-6.9-29.8-15.5-43-14.2 5.4-26.6 13.9-36.8 24.6 8.2 0.8 16.5 2.4 24.7 5.1 9.9 3.3 19.1 7.8 27.6 13.3z"/>
	<path class="st14" d="m2149.7 852.9c-9.2-3.5-17.9-8.2-25.7-14.2 5.1-9.3 11.6-17.6 19.1-24.9 0.1-9.7 1.3-19.6 3.9-29.4-28.9 11.6-52.9 31.3-67.5 57.4 22.1 16.3 49.1 25.7 77.6 27.7-2.8-5.3-5.3-10.9-7.4-16.6z"/>
	<path class="st15" d="m2124 838.7c7.8 6 16.5 10.7 25.7 14.2-4.4-12.4-6.6-25.6-6.6-39-7.5 7.2-14 15.5-19.1 24.8z"/>
	<path class="st14" d="m2354 914.8c-10.2-0.1-20.2-1.9-30-5-4.9 3.4-10.1 6.4-15.5 9 22.9 14.5 48.8 22.9 74.9 23.6 3.8-28.6-3-57.7-18.1-83.5-3.3 8-7.4 15.4-12.2 22.3 2.2 10.9 2.5 22.3 0.9 33.6z"/>
	<path class="st15" d="m2354 914.8c1.6-11.3 1.2-22.6-0.9-33.7-8 11.3-17.9 21-29.1 28.6 9.8 3.2 19.9 4.9 30 5.1z"/>
	<path class="st14" d="m2234.3 727.4c3-9.9 6.9-19.4 11.8-28.3-43.7 4.9-82.8 34.8-97.3 79.5-0.6 2-1.2 3.9-1.7 5.9 11.2-4.5 23.1-7.8 35.5-9.7 11-22.7 29.9-39.4 51.7-47.4z"/>
	<path class="st14" d="m2331.3 756.7c15.2 20.8 21.3 48.6 15 76.1 7.3 8.2 13.7 16.9 19 26 1.2-2.9 2.3-5.9 3.3-8.9 14.4-44.2 0.7-90.8-31.1-120.5-1 9.2-3.1 18.4-6.2 27.3z"/>
	<path class="st14" d="m2232.1 902.6c-18.7-6.1-33.8-18.2-44.1-33.7-10.4 1.2-20.7 1.4-30.9 0.7 13.6 25.2 36.5 45.4 65.8 54.9 29.4 9.5 59.7 6.6 85.6-5.8-7.8-5-15.3-10.6-22.4-17-17 6.1-35.8 6.8-54 0.9z"/>
	<path class="st15" d="m2234.3 727.4c-21.8 8-40.7 24.7-51.7 47.4 14.6-2.3 29.8-2.7 45.2-1.1-0.1-16.1 2.1-31.7 6.5-46.3z"/>
	<path class="st15" d="m2346.3 832.8c6.3-27.5 0.2-55.3-15-76.1-5.2 15.5-13.1 30.4-23.4 44.1 14.7 9.1 27.6 19.9 38.4 32z"/>
	<path class="st15" d="m2188 868.9c10.3 15.5 25.4 27.6 44.1 33.7 18.2 5.9 37 5.2 54-0.9-15.5-13.9-28.8-31-38.9-50.6-19 9.6-39.1 15.5-59.2 17.8z"/>
	<path class="st15" d="m2321.9 745.8c3.5 3.4 6.6 7 9.5 10.9 3-9 5.1-18.1 6.3-27.3-4.7-4.4-9.9-8.5-15.4-12.1 1.1 9.4 0.9 19-0.4 28.5z"/>
	<path class="st16" d="m2321.9 745.8c1.3-9.5 1.5-19.1 0.4-28.5-8.4-5.5-17.7-10-27.7-13.3-8.2-2.7-16.5-4.3-24.7-5.1-6.8 7.1-12.5 15.1-17.3 23.9 12.1-1.6 24.6-0.7 36.8 3.3 12.6 4.1 23.5 10.9 32.5 19.7z"/>
	<path class="st14" d="m2238 775c1.2-18.8 6.2-36.6 14.6-52.2-6.2 0.8-12.4 2.4-18.3 4.5-4.4 14.6-6.6 30.2-6.5 46.3 3.4 0.4 6.8 0.9 10.2 1.4z"/>
	<path class="st14" d="m2302.2 797.5c1.9 1.1 3.9 2.2 5.7 3.4 10.4-13.7 18.2-28.7 23.4-44.1-2.8-3.9-6-7.5-9.5-10.9-2.4 17.8-9.1 35.5-19.6 51.6z"/>
	<path class="st15" d="m2238 775c9.7 1.5 19.5 3.9 29.3 7.1 12.4 4.1 24.1 9.3 34.8 15.4 10.5-16.1 17.2-33.8 19.7-51.7-9-8.8-19.9-15.6-32.5-19.7-12.2-4-24.7-4.9-36.8-3.3-8.3 15.6-13.3 33.4-14.5 52.2z"/>
	<path class="st15" d="m2182.7 859.7c-11.5-0.7-22.6-3-33-6.9 2 5.8 4.5 11.4 7.4 16.7 10.2 0.7 20.5 0.5 30.9-0.7-1.9-2.8-3.7-5.9-5.3-9.1z"/>
	<path class="st15" d="m2176.2 792.1c0.4-1.6 0.9-3.1 1.4-4.7 1.4-4.4 3.1-8.6 5.1-12.6-12.4 1.9-24.3 5.2-35.5 9.7-2.6 9.8-3.9 19.6-3.9 29.4 9.4-9.1 20.5-16.5 32.9-21.8z"/>
	<path class="st16" d="m2176.2 792.1c-12.3 5.3-23.5 12.7-33 21.7-0.1 13.4 2.2 26.6 6.6 39 10.4 3.9 21.5 6.2 33 6.9-10.1-19.9-13-43.9-6.6-67.6z"/>
	<path class="st14" d="m2245.3 847c-20.4 9.7-42 13.9-62.5 12.7 1.6 3.2 3.4 6.2 5.3 9.2 20-2.3 40.2-8.2 59.2-17.8-0.7-1.3-1.4-2.7-2-4.1z"/>
	<path class="st14" d="m2227.9 773.7c-15.5-1.6-30.7-1.1-45.2 1.1-1.9 4-3.6 8.2-5.1 12.6-0.5 1.6-1 3.1-1.4 4.7 15.9-6.9 33.6-10.4 52-10.1-0.2-2.8-0.3-5.6-0.3-8.3z"/>
	<path class="st15" d="m2238.7 831.8c-6.2-16.6-9.6-33.4-10.6-49.9-18.4-0.3-36.1 3.3-52 10.1-6.4 23.7-3.5 47.7 6.6 67.7 20.5 1.2 42.1-3 62.5-12.7-2.3-4.9-4.5-10-6.5-15.2z"/>
	<path class="st15" d="m2303.4 806.5c1.5-1.9 3-3.7 4.5-5.7-1.9-1.2-3.8-2.3-5.7-3.4-1.2 1.9-2.5 3.8-3.8 5.6 1.7 1.2 3.4 2.3 5 3.5z"/>
	<path class="st15" d="m2238 775c-3.4-0.5-6.8-1-10.2-1.3 0 2.7 0.1 5.5 0.3 8.3 3.2 0.1 6.4 0.2 9.6 0.5l0.3-7.5z"/>
	<path class="st15" d="m2245.3 847c0.7 1.4 1.3 2.7 2 4.1l6.3-3.3c-0.7-1.3-1.4-2.6-2-3.9-2.1 1.1-4.2 2.1-6.3 3.1z"/>
	<path class="st17" d="m2238 775c-0.2 2.5-0.3 5-0.3 7.5 9.9 0.9 20 2.9 29.9 6.2 11.1 3.6 21.3 8.5 30.6 14.5 1.3-1.8 2.6-3.7 3.8-5.6-10.8-6.1-22.4-11.4-34.8-15.4-9.6-3.3-19.4-5.7-29.2-7.2z"/>
	<path class="st17" d="m2251.5 843.9c-2.3-4.9-4.4-10-6.2-15.3-5.2-15.4-7.6-31-7.5-46.2-3.2-0.3-6.4-0.4-9.6-0.5 1 16.4 4.4 33.2 10.6 49.9 1.9 5.2 4.1 10.3 6.5 15.2 2.1-1 4.2-2 6.2-3.1z"/>
	<path class="st15" d="m2251.5 843.9c4.7-2.5 9.3-5.4 13.8-8.5 13.1-9.2 24.2-20.2 33-32.3-9.3-5.9-19.6-10.8-30.6-14.5-10-3.3-20-5.3-29.9-6.2-0.1 15.2 2.3 30.8 7.5 46.2 1.8 5.3 3.9 10.4 6.2 15.3z"/>
	<path class="st17" d="m2265.4 835.4c-4.5 3.2-9.1 6-13.8 8.5 0.6 1.3 1.3 2.6 2 3.9 4-2.2 7.9-4.5 11.7-7.1 14.9-9.8 27.6-21.4 38.2-34.2-1.7-1.2-3.4-2.3-5.1-3.4-8.9 12.1-19.9 23.1-33 32.3z"/>
	<path class="st15" d="m2344 841.4c-0.8 2.4-1.7 4.8-2.7 7.1 5.6 10.3 9.6 21.3 11.8 32.6 4.8-6.8 8.9-14.3 12.2-22.3-5.3-9.1-11.7-17.9-19-26-0.6 2.9-1.4 5.7-2.3 8.6z"/>
	<path class="st15" d="m2324.1 909.7c-9.3-3-18.3-7.4-26.7-12.8-3.6 1.9-7.4 3.5-11.2 4.9 7.1 6.3 14.6 12 22.4 17 5.4-2.7 10.6-5.7 15.5-9.1z"/>
	<path class="st16" d="m2324.1 909.7c11.2-7.7 21.1-17.3 29.1-28.6-2.2-11.3-6.2-22.3-11.8-32.6-8.9 21.7-24.9 38.5-44 48.4 8.4 5.5 17.4 9.8 26.7 12.8z"/>
	<path class="st14" d="m2247.3 851.1c10.1 19.7 23.4 36.7 38.9 50.6 3.8-1.4 7.6-3 11.2-4.9-17.8-11.6-33.1-28.3-43.8-49.1-2.1 1.2-4.2 2.3-6.3 3.4z"/>
	<path class="st14" d="m2303.4 806.5c16.1 11.3 29 25.8 37.9 42 1-2.3 1.9-4.7 2.7-7.1 0.9-2.8 1.7-5.7 2.3-8.6-10.9-12.1-23.8-22.9-38.4-32-1.4 2-2.9 3.9-4.5 5.7z"/>
	<path class="st15" d="m2265.3 840.7c-3.8 2.5-7.8 4.9-11.7 7.1 10.7 20.8 26 37.6 43.8 49.1 19.1-9.8 35-26.7 44-48.4-8.9-16.2-21.8-30.7-37.9-42-10.6 12.8-23.3 24.4-38.2 34.2z"/>
			<path class="st18" d="m1166.1 343.1s0.2 0.4 0.7 1c0.4 0.7 1.1 1.6 1.8 2.9 1.5 2.5 3.5 6.2 5.8 10.6 2.2 4.4 4.7 9.7 7.1 15.3 0.6 1.4 1.2 2.9 1.8 4.3l1.8 4.5c1.2 3 2.3 6.1 3.4 9.2s2.2 6.2 3.1 9.3c0.5 1.5 1 3.1 1.4 4.6 0.5 1.5 0.9 3 1.3 4.5 1.7 5.9 3.1 11.5 4.2 16.4 1.1 4.8 1.8 9 2.2 11.8 0.2 1.4 0.3 2.6 0.4 3.4s0.1 1.2 0.1 1.2-0.2-0.4-0.7-1c-0.4-0.7-1.1-1.6-1.8-2.9-1.5-2.5-3.5-6.1-5.8-10.6-2.2-4.4-4.7-9.7-7.1-15.3-0.6-1.4-1.2-2.9-1.8-4.3l-1.8-4.5c-1.2-3-2.3-6.1-3.4-9.2s-2.2-6.2-3.1-9.3c-0.5-1.5-1-3.1-1.4-4.6-0.5-1.5-0.9-3-1.3-4.5-1.7-5.9-3.1-11.5-4.2-16.4-1.1-4.8-1.8-8.9-2.2-11.8-0.2-1.4-0.3-2.6-0.4-3.4s-0.1-1.2-0.1-1.2z"/>
			<path class="st18" d="m1210.3 467.4s0.2 0.4 0.7 1c0.4 0.7 1.1 1.6 1.8 2.9 1.5 2.5 3.5 6.2 5.8 10.6 2.2 4.4 4.7 9.7 7.1 15.3 0.6 1.4 1.2 2.9 1.8 4.3l1.8 4.5c1.2 3 2.3 6.1 3.4 9.2s2.2 6.2 3.1 9.3c0.5 1.5 1 3.1 1.4 4.6 0.5 1.5 0.9 3 1.3 4.5 1.7 5.9 3.1 11.5 4.2 16.4 1.1 4.8 1.8 9 2.2 11.8 0.2 1.4 0.3 2.6 0.4 3.4s0.1 1.2 0.1 1.2-0.2-0.4-0.7-1c-0.4-0.7-1.1-1.6-1.8-2.9-1.5-2.5-3.5-6.1-5.8-10.6-2.2-4.4-4.7-9.7-7.1-15.3-0.6-1.4-1.2-2.9-1.8-4.3l-1.8-4.5c-1.2-3-2.3-6.1-3.4-9.2s-2.2-6.2-3.1-9.3c-0.5-1.5-1-3.1-1.4-4.6-0.5-1.5-0.9-3-1.3-4.5-1.7-5.9-3.1-11.5-4.2-16.4-1.1-4.8-1.8-8.9-2.2-11.8-0.2-1.4-0.3-2.6-0.4-3.4s-0.1-1.2-0.1-1.2z"/>
			<path class="st18" d="m1317.4 415.1s-0.4 0.2-1 0.7c-0.7 0.4-1.6 1.1-2.9 1.8-2.5 1.5-6.2 3.5-10.6 5.8-4.4 2.2-9.7 4.7-15.3 7.1-1.4 0.6-2.9 1.2-4.3 1.8l-4.5 1.8c-3 1.2-6.1 2.3-9.2 3.4s-6.2 2.2-9.3 3.1c-1.5 0.5-3.1 1-4.6 1.4-1.5 0.5-3 0.9-4.5 1.3-5.9 1.7-11.5 3.1-16.4 4.2-4.8 1.1-9 1.8-11.8 2.2-1.4 0.2-2.6 0.3-3.4 0.4s-1.2 0.1-1.2 0.1 0.4-0.2 1-0.7c0.7-0.4 1.6-1.1 2.9-1.8 2.5-1.5 6.1-3.5 10.6-5.8 4.4-2.2 9.7-4.7 15.3-7.1 1.4-0.6 2.9-1.2 4.3-1.8l4.5-1.8c3-1.2 6.1-2.3 9.2-3.4s6.2-2.2 9.3-3.1c1.5-0.5 3.1-1 4.6-1.4 1.5-0.5 3-0.9 4.5-1.3 5.9-1.7 11.5-3.1 16.4-4.2 4.8-1.1 8.9-1.8 11.8-2.2 1.4-0.2 2.6-0.3 3.4-0.4s1.2-0.1 1.2-0.1z"/>
			<path class="st18" d="m1193.1 459.3s-0.4 0.2-1 0.7c-0.7 0.4-1.6 1.1-2.9 1.8-2.5 1.5-6.2 3.5-10.6 5.8-4.4 2.2-9.7 4.7-15.3 7.1-1.4 0.6-2.9 1.2-4.3 1.8l-4.5 1.8c-3 1.2-6.1 2.3-9.2 3.4s-6.2 2.2-9.3 3.1c-1.5 0.5-3.1 1-4.6 1.4-1.5 0.5-3 0.9-4.5 1.3-5.9 1.7-11.5 3.1-16.4 4.2-4.8 1.1-9 1.8-11.8 2.2-1.4 0.2-2.6 0.3-3.4 0.4s-1.2 0.1-1.2 0.1 0.4-0.2 1-0.7c0.7-0.4 1.6-1.1 2.9-1.8 2.5-1.5 6.1-3.5 10.6-5.8 4.4-2.2 9.7-4.7 15.3-7.1 1.4-0.6 2.9-1.2 4.3-1.8l4.5-1.8c3-1.2 6.1-2.3 9.2-3.4s6.2-2.2 9.3-3.1c1.5-0.5 3.1-1 4.6-1.4 1.5-0.5 3-0.9 4.5-1.3 5.9-1.7 11.5-3.1 16.4-4.2 4.8-1.1 8.9-1.8 11.8-2.2 1.4-0.2 2.6-0.3 3.4-0.4s1.2-0.1 1.2-0.1z"/>
			<line class="st19" x1="1231.8" x2="1209.7" y1="378.9" y2="446.4"/>
			<path class="st19" d="m1231.8 378.9v3.2c-0.1 2-0.3 4.9-0.7 8.2-0.4 3.4-1.1 7.2-2.1 11.3-0.2 1-0.5 2-0.8 3.1-0.3 1-0.5 2.1-0.8 3.1-0.6 2.1-1.2 4.2-1.9 6.3s-1.4 4.2-2.2 6.2l-1.2 3c-0.4 1-0.8 2-1.2 2.9-1.6 3.8-3.4 7.4-5 10.3-1.6 3-3.2 5.4-4.3 7.1-0.6 0.8-1.1 1.5-1.4 1.9s-0.5 0.7-0.5 0.7 0-0.3 0-0.8v-2.4c0.1-2 0.3-4.9 0.7-8.2 0.4-3.4 1.1-7.2 2.1-11.3 0.2-1 0.5-2 0.8-3.1 0.3-1 0.5-2.1 0.8-3.1 0.6-2.1 1.2-4.2 1.9-6.3s1.4-4.2 2.2-6.2l1.2-3c0.4-1 0.8-2 1.2-2.9 1.6-3.8 3.4-7.4 5-10.3 1.6-3 3.2-5.4 4.3-7.1 0.6-0.8 1.1-1.5 1.4-1.9 0.4-0.5 0.5-0.7 0.5-0.7z"/>
			<line class="st19" x1="1204" x2="1181.8" y1="463.7" y2="531.2"/>
			<path class="st19" d="m1204 463.7v3.2c-0.1 2-0.3 4.9-0.7 8.2-0.4 3.4-1.1 7.2-2.1 11.3-0.2 1-0.5 2-0.8 3.1-0.3 1-0.5 2.1-0.8 3.1-0.6 2.1-1.2 4.2-1.9 6.3s-1.4 4.2-2.2 6.2l-1.2 3c-0.4 1-0.8 2-1.2 2.9-1.6 3.8-3.4 7.4-5 10.3-1.6 3-3.2 5.4-4.3 7.1-0.6 0.8-1.1 1.5-1.4 1.9s-0.5 0.7-0.5 0.7 0-0.3 0-0.8v-2.4c0.1-2 0.3-4.9 0.7-8.2 0.4-3.4 1.1-7.2 2.1-11.3 0.2-1 0.5-2 0.8-3.1 0.3-1 0.5-2.1 0.8-3.1 0.6-2.1 1.2-4.2 1.9-6.3s1.4-4.2 2.2-6.2l1.2-3c0.4-1 0.8-2 1.2-2.9 1.6-3.8 3.4-7.4 5-10.3 1.6-3 3.2-5.4 4.3-7.1 0.6-0.8 1.1-1.5 1.4-1.9 0.3-0.5 0.5-0.7 0.5-0.7z"/>
			<line class="st19" x1="1283" x2="1215.5" y1="480.1" y2="457.9"/>
			<path class="st19" d="m1283 480.1h-3.2c-2-0.1-4.9-0.3-8.2-0.7-3.4-0.4-7.2-1.1-11.3-2.1-1-0.2-2-0.5-3.1-0.8-1-0.3-2.1-0.5-3.1-0.8-2.1-0.6-4.2-1.2-6.3-1.9s-4.2-1.4-6.2-2.2l-3-1.2c-1-0.4-2-0.8-2.9-1.2-3.8-1.6-7.4-3.4-10.3-5-3-1.6-5.4-3.2-7.1-4.3-0.8-0.6-1.5-1.1-1.9-1.4s-0.7-0.5-0.7-0.5 0.3 0 0.8 0h2.4c2 0.1 4.9 0.3 8.2 0.7 3.4 0.4 7.2 1.1 11.3 2.1 1 0.2 2 0.5 3.1 0.8 1 0.3 2.1 0.5 3.1 0.8 2.1 0.6 4.2 1.2 6.3 1.9s4.2 1.4 6.2 2.2l3 1.2c1 0.4 2 0.8 2.9 1.2 3.8 1.6 7.4 3.4 10.3 5 3 1.6 5.4 3.2 7.1 4.3 0.8 0.6 1.5 1.1 1.9 1.4s0.7 0.5 0.7 0.5z"/>
			<line class="st19" x1="1198.2" x2="1130.7" y1="452.2" y2="430"/>
			<path class="st19" d="m1198.2 452.2h-3.2c-2-0.1-4.9-0.3-8.2-0.7-3.4-0.4-7.2-1.1-11.3-2.1-1-0.2-2-0.5-3.1-0.8-1-0.3-2.1-0.5-3.1-0.8-2.1-0.6-4.2-1.2-6.3-1.9s-4.2-1.4-6.2-2.2l-3-1.2c-1-0.4-2-0.8-2.9-1.2-3.8-1.6-7.4-3.4-10.3-5-3-1.6-5.4-3.2-7.1-4.3-0.8-0.6-1.5-1.1-1.9-1.4s-0.7-0.5-0.7-0.5 0.3 0 0.8 0h2.4c2 0.1 4.9 0.3 8.2 0.7 3.4 0.4 7.2 1.1 11.3 2.1 1 0.2 2 0.5 3.1 0.8 1 0.3 2.1 0.5 3.1 0.8 2.1 0.6 4.2 1.2 6.3 1.9s4.2 1.4 6.2 2.2l3 1.2c1 0.4 2 0.8 2.9 1.2 3.8 1.6 7.4 3.4 10.3 5 3 1.6 5.4 3.2 7.1 4.3 0.8 0.6 1.5 1.1 1.9 1.4 0.5 0.3 0.7 0.5 0.7 0.5z"/>
			<path class="st18" d="m1764.3 1292.5s0.3 0.8 0.7 2.3 1 3.5 1.5 6c1.2 5 2.3 11.7 3.2 18.5s1.4 13.6 1.5 18.7c0.1 2.6 0.1 4.7 0 6.2 0 1.5-0.1 2.4-0.1 2.4s-0.3-0.8-0.7-2.3-1-3.5-1.5-6c-1.2-5-2.3-11.7-3.2-18.5-0.8-6.8-1.4-13.6-1.5-18.7-0.1-2.6-0.1-4.7 0-6.2s0.1-2.4 0.1-2.4z"/>
			<path class="st18" d="m1772.9 1360.4s0.3 0.8 0.7 2.3 1 3.5 1.5 6c1.2 5 2.3 11.7 3.2 18.5s1.4 13.6 1.5 18.7c0.1 2.6 0.1 4.7 0 6.2 0 1.5-0.1 2.4-0.1 2.4s-0.3-0.8-0.7-2.3-1-3.5-1.5-6c-1.2-5-2.3-11.7-3.2-18.5-0.8-6.8-1.4-13.6-1.5-18.7-0.1-2.6-0.1-4.7 0-6.2 0-1.5 0.1-2.4 0.1-2.4z"/>
			<path class="st18" d="m1833 1345.8s-0.8 0.3-2.3 0.7-3.5 1-6 1.5c-5 1.2-11.7 2.3-18.5 3.2s-13.6 1.4-18.7 1.5c-2.6 0.1-4.7 0.1-6.2 0-1.5 0-2.4-0.1-2.4-0.1s0.8-0.3 2.3-0.7 3.5-1 6-1.5c5-1.2 11.7-2.3 18.5-3.2 6.8-0.8 13.6-1.4 18.7-1.5 2.6-0.1 4.7-0.1 6.2 0 1.5 0 2.4 0.1 2.4 0.1z"/>
			<path class="st18" d="m1765.1 1354.4s-0.8 0.3-2.3 0.7-3.5 1-6 1.5c-5 1.2-11.7 2.3-18.5 3.2s-13.6 1.4-18.7 1.5c-2.6 0.1-4.7 0.1-6.2 0-1.5 0-2.4-0.1-2.4-0.1s0.8-0.3 2.3-0.7 3.5-1 6-1.5c5-1.2 11.7-2.3 18.5-3.2 6.8-0.8 13.6-1.4 18.7-1.5 2.6-0.1 4.7-0.1 6.2 0 1.5 0 2.4 0.1 2.4 0.1z"/>
			<line class="st19" x1="1793.7" x2="1774.9" y1="1318" y2="1349.7"/>
			<path class="st19" d="m1793.7 1318s-0.1 0.6-0.5 1.6c-0.3 1-0.8 2.4-1.5 4-1.3 3.2-3.4 7.4-5.7 11.3-2.3 4-5 7.8-7.2 10.5-1.1 1.4-2.1 2.5-2.8 3.2-0.7 0.8-1.1 1.2-1.1 1.2s0.1-0.6 0.5-1.6c0.3-1 0.8-2.4 1.5-4 1.3-3.2 3.4-7.4 5.7-11.3 2.3-4 5-7.8 7.2-10.5 1.1-1.4 2.1-2.5 2.8-3.2 0.6-0.8 1.1-1.2 1.1-1.2z"/>
			<line class="st19" x1="1770.1" x2="1751.4" y1="1357.8" y2="1389.6"/>
			<path class="st19" d="m1770.1 1357.8s-0.1 0.6-0.5 1.6c-0.3 1-0.8 2.4-1.5 4-1.3 3.2-3.4 7.4-5.7 11.3-2.3 4-5 7.8-7.2 10.5-1.1 1.4-2.1 2.5-2.8 3.2-0.7 0.8-1.1 1.2-1.1 1.2s0.1-0.6 0.5-1.6c0.3-1 0.8-2.4 1.5-4 1.3-3.2 3.4-7.4 5.7-11.3 2.3-4 5-7.8 7.2-10.5 1.1-1.4 2.1-2.5 2.8-3.2 0.7-0.8 1.1-1.2 1.1-1.2z"/>
			<line class="st19" x1="1808.3" x2="1776.6" y1="1374.9" y2="1356.2"/>
			<path class="st19" d="m1808.3 1374.9s-0.6-0.1-1.6-0.5c-1-0.3-2.4-0.8-4-1.5-3.2-1.3-7.4-3.4-11.3-5.7-4-2.3-7.8-5-10.5-7.2-1.4-1.1-2.5-2.1-3.2-2.8-0.8-0.7-1.2-1.1-1.2-1.1s0.6 0.1 1.6 0.5c1 0.3 2.4 0.8 4 1.5 3.2 1.3 7.4 3.4 11.3 5.7 4 2.3 7.8 5 10.5 7.2 1.4 1.1 2.5 2.1 3.2 2.8 0.8 0.7 1.2 1.1 1.2 1.1z"/>
			<line class="st19" x1="1768.5" x2="1736.7" y1="1351.4" y2="1332.6"/>
			<path class="st19" d="m1768.5 1351.4s-0.6-0.1-1.6-0.5c-1-0.3-2.4-0.8-4-1.5-3.2-1.3-7.4-3.4-11.3-5.7-4-2.3-7.8-5-10.5-7.2-1.4-1.1-2.5-2.1-3.2-2.8-0.8-0.7-1.2-1.1-1.2-1.1s0.6 0.1 1.6 0.5c1 0.3 2.4 0.8 4 1.5 3.2 1.3 7.4 3.4 11.3 5.7 4 2.3 7.8 5 10.5 7.2 1.4 1.1 2.5 2.1 3.2 2.8 0.8 0.6 1.2 1.1 1.2 1.1z"/>
			<path class="st18" d="m2753 574.2s-0.1 0.3-0.2 0.8-0.3 1.3-0.5 2.3c-0.5 2-1.2 4.7-2.2 8s-2.2 7.1-3.7 11.1c-0.7 2-1.5 4.1-2.3 6.1-0.8 2.1-1.7 4.2-2.6 6.3s-1.8 4.2-2.7 6.2-1.9 4-2.8 5.9c-1.9 3.8-3.7 7.3-5.4 10.3s-3.2 5.4-4.3 7.1c-0.5 0.9-1 1.5-1.3 2-0.3 0.4-0.5 0.7-0.5 0.7s0.1-0.3 0.2-0.8 0.3-1.3 0.5-2.3c0.5-2 1.2-4.7 2.2-8s2.2-7.1 3.7-11.1c0.7-2 1.5-4.1 2.3-6.1 0.8-2.1 1.7-4.2 2.6-6.3s1.8-4.2 2.7-6.2 1.9-4 2.8-5.9c1.9-3.8 3.7-7.3 5.4-10.3s3.2-5.4 4.3-7.1c0.5-0.9 1-1.5 1.3-2s0.5-0.7 0.5-0.7z"/>
			<path class="st18" d="m2717.4 658s-0.1 0.3-0.2 0.8-0.3 1.3-0.5 2.3c-0.5 2-1.2 4.7-2.2 8s-2.2 7.1-3.7 11.1c-0.7 2-1.5 4.1-2.3 6.1-0.8 2.1-1.7 4.2-2.6 6.3s-1.8 4.2-2.7 6.2-1.9 4-2.8 5.9c-1.9 3.8-3.7 7.3-5.4 10.3s-3.2 5.4-4.3 7.1c-0.5 0.9-1 1.5-1.3 2-0.3 0.4-0.5 0.7-0.5 0.7s0.1-0.3 0.2-0.8 0.3-1.3 0.5-2.3c0.5-2 1.2-4.7 2.2-8s2.2-7.1 3.7-11.1c0.7-2 1.5-4.1 2.3-6.1 0.8-2.1 1.7-4.2 2.6-6.3s1.8-4.2 2.7-6.2 1.9-4 2.8-5.9c1.9-3.8 3.7-7.3 5.4-10.3s3.2-5.4 4.3-7.1c0.5-0.9 1-1.5 1.3-2 0.3-0.4 0.5-0.7 0.5-0.7z"/>
			<path class="st18" d="m2804.2 687.7s-0.3-0.1-0.9-0.2c-0.6-0.2-1.4-0.4-2.5-0.7-2.2-0.6-5.2-1.6-8.8-2.8s-7.8-2.8-12.2-4.6c-2.2-0.9-4.5-1.8-6.8-2.8s-4.6-2-6.9-3.1-4.6-2.1-6.8-3.2c-2.3-1.1-4.4-2.2-6.6-3.3-4.2-2.2-8.1-4.3-11.4-6.3-3.3-1.9-6-3.6-7.9-4.9-0.9-0.6-1.7-1.1-2.2-1.5s-0.8-0.5-0.8-0.5 0.3 0.1 0.9 0.2c0.6 0.2 1.4 0.4 2.5 0.7 2.2 0.6 5.2 1.6 8.8 2.8s7.8 2.8 12.2 4.6c2.2 0.9 4.5 1.8 6.8 2.8s4.6 2 6.9 3.1 4.6 2.1 6.8 3.2l6.6 3.3c4.2 2.2 8.1 4.3 11.4 6.3 3.3 1.9 6 3.6 7.9 4.9 0.9 0.6 1.7 1.1 2.2 1.5 0.6 0.3 0.8 0.5 0.8 0.5z"/>
			<path class="st18" d="m2711.6 645.2s-0.3-0.1-0.9-0.2c-0.6-0.2-1.4-0.4-2.5-0.7-2.2-0.6-5.2-1.6-8.8-2.8s-7.8-2.8-12.2-4.6c-2.2-0.9-4.5-1.8-6.8-2.8s-4.6-2-6.9-3.1-4.6-2.1-6.8-3.2c-2.3-1.1-4.4-2.2-6.6-3.3-4.2-2.2-8.1-4.3-11.4-6.3-3.3-1.9-6-3.6-7.9-4.9-0.9-0.6-1.7-1.1-2.2-1.5s-0.8-0.5-0.8-0.5 0.3 0.1 0.9 0.2c0.6 0.2 1.4 0.4 2.5 0.7 2.2 0.6 5.2 1.6 8.8 2.8s7.8 2.8 12.2 4.6c2.2 0.9 4.5 1.8 6.8 2.8s4.6 2 6.9 3.1 4.6 2.1 6.8 3.2l6.6 3.3c4.2 2.2 8.1 4.3 11.4 6.3 3.3 1.9 6 3.6 7.9 4.9 0.9 0.6 1.7 1.1 2.2 1.5 0.5 0.3 0.8 0.5 0.8 0.5z"/>
			<line class="st19" x1="2773" x2="2727.3" y1="625.8" y2="647.4"/>
			<path class="st19" d="m2773 625.8s-0.2 0.1-0.4 0.4c-0.3 0.2-0.7 0.6-1.3 1.1-1.1 0.9-2.7 2.1-4.7 3.5s-4.3 2.8-6.9 4.3c-1.3 0.7-2.6 1.5-4 2.2l-4.2 2.1c-1.4 0.7-2.9 1.3-4.3 1.9s-2.9 1.2-4.2 1.7c-2.8 1.1-5.4 2-7.7 2.6-2.3 0.7-4.3 1.1-5.7 1.4-0.7 0.2-1.3 0.2-1.6 0.3-0.4 0.1-0.6 0.1-0.6 0.1s0.2-0.1 0.4-0.4c0.3-0.2 0.7-0.6 1.3-1.1 1.1-0.9 2.7-2.1 4.7-3.5s4.3-2.8 6.9-4.3c1.3-0.7 2.6-1.5 4-2.2l4.2-2.1c1.4-0.7 2.9-1.3 4.3-1.9s2.8-1.2 4.2-1.7c2.8-1.1 5.4-2 7.7-2.6 2.3-0.7 4.3-1.1 5.7-1.4 0.7-0.2 1.3-0.2 1.6-0.3 0.4-0.1 0.6-0.1 0.6-0.1z"/>
			<line class="st19" x1="2715.6" x2="2669.9" y1="653" y2="674.6"/>
			<path class="st19" d="m2715.6 653s-0.2 0.1-0.4 0.4c-0.3 0.2-0.7 0.6-1.3 1.1-1.1 0.9-2.7 2.1-4.7 3.5s-4.3 2.8-6.9 4.3c-1.3 0.7-2.6 1.5-4 2.2l-4.2 2.1c-1.4 0.7-2.9 1.3-4.3 1.9s-2.9 1.2-4.2 1.7c-2.8 1.1-5.4 2-7.7 2.6-2.3 0.7-4.3 1.1-5.7 1.4-0.7 0.2-1.3 0.2-1.6 0.3-0.4 0.1-0.6 0.1-0.6 0.1s0.2-0.1 0.4-0.4c0.3-0.2 0.7-0.6 1.3-1.1 1.1-0.9 2.7-2.1 4.7-3.5s4.3-2.8 6.9-4.3c1.3-0.7 2.6-1.5 4-2.2l4.2-2.1c1.4-0.7 2.9-1.3 4.3-1.9s2.8-1.2 4.2-1.7c2.8-1.1 5.4-2 7.7-2.6 2.3-0.7 4.3-1.1 5.7-1.4 0.7-0.2 1.3-0.2 1.6-0.3 0.4-0.1 0.6-0.1 0.6-0.1z"/>
			<line class="st19" x1="2752.7" x2="2725" y1="701.8" y2="656.1"/>
			<path class="st19" d="m2752.7 701.8s-0.2-0.1-0.5-0.4l-1.2-1.2c-1.1-1.1-2.5-2.6-4.1-4.6s-3.4-4.3-5.2-6.9c-0.9-1.3-1.8-2.6-2.7-4s-1.8-2.8-2.7-4.2-1.7-2.9-2.5-4.3-1.6-2.9-2.3-4.3c-1.4-2.8-2.7-5.5-3.6-7.8-1-2.3-1.7-4.3-2.2-5.8-0.2-0.7-0.4-1.3-0.5-1.7s-0.2-0.6-0.2-0.6 0.2 0.1 0.5 0.4l1.2 1.2c1.1 1.1 2.5 2.6 4.1 4.6s3.4 4.3 5.2 6.9c0.9 1.3 1.8 2.6 2.7 4s1.8 2.8 2.7 4.2 1.7 2.9 2.5 4.3 1.6 2.9 2.3 4.3c1.4 2.8 2.7 5.5 3.6 7.8 1 2.3 1.7 4.3 2.2 5.8 0.2 0.7 0.4 1.3 0.5 1.7 0.2 0.4 0.2 0.6 0.2 0.6z"/>
			<line class="st19" x1="2717.9" x2="2690.2" y1="644.3" y2="598.6"/>
			<path class="st19" d="m2717.9 644.3s-0.2-0.1-0.5-0.4l-1.2-1.2c-1.1-1.1-2.5-2.6-4.1-4.6s-3.4-4.3-5.2-6.9c-0.9-1.3-1.8-2.6-2.7-4s-1.8-2.8-2.7-4.2-1.7-2.9-2.5-4.3-1.6-2.9-2.3-4.3c-1.4-2.8-2.7-5.5-3.6-7.8-1-2.3-1.7-4.3-2.2-5.8-0.2-0.7-0.4-1.3-0.5-1.7s-0.2-0.6-0.2-0.6 0.2 0.1 0.5 0.4l1.2 1.2c1.1 1.1 2.5 2.6 4.1 4.6s3.4 4.3 5.2 6.9c0.9 1.3 1.8 2.6 2.7 4s1.8 2.8 2.7 4.2 1.7 2.9 2.5 4.3 1.6 2.9 2.3 4.3c1.4 2.8 2.7 5.5 3.6 7.8 1 2.3 1.7 4.3 2.2 5.8 0.2 0.7 0.4 1.3 0.5 1.7 0.2 0.4 0.2 0.6 0.2 0.6z"/>
			<path class="st18" d="m1819 220.9s0.4 1.1 1.1 2.9c0.7 1.9 1.6 4.6 2.6 7.8 0.5 1.6 1.1 3.4 1.6 5.3s1.1 3.8 1.7 5.9c1.1 4.1 2.3 8.5 3.3 12.9l1.5 6.6c0.5 2.2 0.9 4.3 1.4 6.4 0.4 2.1 0.8 4.1 1.2 6s0.7 3.7 0.9 5.4c0.6 3.4 0.9 6.2 1.2 8.2 0.2 2 0.3 3.1 0.3 3.1s-0.4-1.1-1.1-2.9c-0.7-1.9-1.6-4.6-2.6-7.8-0.5-1.6-1.1-3.4-1.6-5.3-0.6-1.9-1.1-3.8-1.7-5.9s-1.1-4.2-1.7-6.3c-0.6-2.2-1.1-4.4-1.6-6.6-1-4.4-2-8.8-2.9-13-0.4-2.1-0.8-4.1-1.2-6s-0.7-3.7-0.9-5.4c-0.6-3.4-0.9-6.2-1.2-8.2-0.2-1.9-0.3-3.1-0.3-3.1z"/>
			<path class="st18" d="m1840.2 309.5s0.4 1.1 1.1 2.9c0.7 1.9 1.6 4.6 2.6 7.8 0.5 1.6 1.1 3.4 1.6 5.3s1.1 3.8 1.7 5.9c1.1 4.1 2.3 8.5 3.3 12.9l1.5 6.6c0.5 2.2 0.9 4.3 1.4 6.4 0.4 2.1 0.8 4.1 1.2 6s0.7 3.7 0.9 5.4c0.6 3.4 0.9 6.2 1.2 8.2 0.2 2 0.3 3.1 0.3 3.1s-0.4-1.1-1.1-2.9c-0.7-1.9-1.6-4.6-2.6-7.8-0.5-1.6-1.1-3.4-1.6-5.3-0.6-1.9-1.1-3.8-1.7-5.9s-1.1-4.2-1.7-6.3c-0.6-2.2-1.1-4.4-1.6-6.6-1-4.4-2-8.8-2.9-13-0.4-2.1-0.8-4.1-1.2-6s-0.7-3.7-0.9-5.4c-0.6-3.4-0.9-6.2-1.2-8.2-0.2-1.9-0.3-3.1-0.3-3.1z"/>
			<path class="st18" d="m1927.6 281.8l-3.3 1.1c-2.1 0.7-5.2 1.6-8.8 2.6-1.8 0.5-3.8 1.1-5.9 1.6s-4.3 1.1-6.7 1.7c-2.3 0.5-4.7 1.1-7.1 1.7-2.4 0.5-4.9 1.1-7.4 1.6s-5 1-7.4 1.5-4.9 0.9-7.2 1.3-4.6 0.8-6.8 1.1c-2.2 0.4-4.2 0.7-6.1 0.9-3.8 0.5-6.9 0.9-9.2 1.1-2.2 0.2-3.5 0.3-3.5 0.3s1.2-0.4 3.3-1.1 5.2-1.6 8.8-2.6c1.8-0.5 3.8-1.1 5.9-1.6s4.3-1.1 6.7-1.7c2.3-0.5 4.7-1.1 7.1-1.7 2.4-0.5 4.9-1.1 7.4-1.6s5-1 7.4-1.5 4.9-0.9 7.2-1.3 4.6-0.8 6.8-1.1c2.2-0.4 4.2-0.7 6.1-0.9 3.8-0.5 6.9-0.9 9.2-1.1s3.5-0.3 3.5-0.3z"/>
			<path class="st18" d="m1827.9 302.6l-3.3 1.1c-2.1 0.7-5.2 1.6-8.8 2.6-1.8 0.5-3.8 1.1-5.9 1.6s-4.3 1.1-6.7 1.7c-2.3 0.5-4.7 1.1-7.1 1.7-2.4 0.5-4.9 1.1-7.4 1.6s-5 1-7.4 1.5-4.9 0.9-7.2 1.3-4.6 0.8-6.8 1.1c-2.2 0.4-4.2 0.7-6.1 0.9-3.8 0.5-6.9 0.9-9.2 1.1-2.2 0.2-3.5 0.3-3.5 0.3s1.2-0.4 3.3-1.1 5.2-1.6 8.8-2.6c1.8-0.5 3.8-1.1 5.9-1.6s4.3-1.1 6.7-1.7c2.3-0.5 4.7-1.1 7.1-1.7 2.4-0.5 4.9-1.1 7.4-1.6s5-1 7.4-1.5 4.9-0.9 7.2-1.3 4.6-0.8 6.8-1.1c2.2-0.4 4.2-0.7 6.1-0.9 3.8-0.5 6.9-0.9 9.2-1.1 2.2-0.2 3.5-0.3 3.5-0.3z"/>
			<line class="st19" x1="1865.8" x2="1841.9" y1="250.5" y2="295.1"/>
			<path class="st19" d="m1865.8 250.5s-0.2 0.8-0.7 2.1-1.1 3.2-2 5.4c-1.8 4.4-4.5 10.2-7.5 15.7-3 5.6-6.3 11-9 14.9-1.3 2-2.5 3.6-3.4 4.7-0.8 1.1-1.4 1.7-1.4 1.7s0.2-0.8 0.7-2.1 1.1-3.2 2-5.4c1.8-4.4 4.5-10.2 7.5-15.7 3-5.6 6.3-11 9-14.9 1.3-2 2.5-3.6 3.4-4.7 0.8-1.1 1.4-1.7 1.4-1.7z"/>
			<line class="st19" x1="1835.8" x2="1811.9" y1="306.5" y2="351.1"/>
			<path class="st19" d="m1835.8 306.5s-0.2 0.8-0.7 2.1-1.1 3.2-2 5.4c-1.8 4.4-4.5 10.2-7.5 15.7-3 5.6-6.3 11-9 14.9-1.3 2-2.5 3.6-3.4 4.7-0.8 1.1-1.4 1.7-1.4 1.7s0.2-0.8 0.7-2.1 1.1-3.2 2-5.4c1.8-4.4 4.5-10.2 7.5-15.7 3-5.6 6.3-11 9-14.9 1.3-2 2.5-3.6 3.4-4.7 0.8-1.1 1.4-1.7 1.4-1.7z"/>
			<line class="st19" x1="1894.6" x2="1845.1" y1="323.7" y2="303.4"/>
			<path class="st19" d="m1894.6 323.7s-0.8-0.2-2.3-0.5c-1.4-0.4-3.5-0.9-5.9-1.6-4.8-1.4-11.1-3.7-17.3-6.2s-12.2-5.4-16.7-7.8c-2.2-1.2-4.1-2.2-5.3-3-1.3-0.8-2-1.2-2-1.2s0.8 0.2 2.3 0.5c1.4 0.3 3.5 0.9 5.9 1.6 4.8 1.4 11.1 3.7 17.3 6.2s12.2 5.4 16.7 7.8c2.2 1.2 4.1 2.2 5.3 3 1.3 0.8 2 1.2 2 1.2z"/>
			<line class="st19" x1="1832.5" x2="1783" y1="298.2" y2="277.8"/>
			<path class="st19" d="m1832.5 298.2s-0.8-0.2-2.3-0.5c-1.4-0.4-3.5-0.9-5.9-1.6-4.8-1.4-11.1-3.7-17.3-6.2s-12.2-5.4-16.7-7.8c-2.2-1.2-4.1-2.2-5.3-3-1.3-0.8-2-1.2-2-1.2s0.8 0.2 2.3 0.5c1.4 0.3 3.5 0.9 5.9 1.6 4.8 1.4 11.1 3.7 17.3 6.2s12.2 5.4 16.7 7.8c2.2 1.2 4.1 2.2 5.3 3 1.3 0.7 2 1.2 2 1.2z"/>
<path class="st20" d="m1651.8 415.8c49.9-62.6 58.9-146 16.2-210.8-73.4 23.3-118.9 93.1-120.1 172.5-81.9-10.5-159.5 22.1-196.4 84 58.3 45.2 144.3 53.2 219.3 17.9 34.9 72.6 103.8 119.9 175.4 123.9 11-70.1-26.7-143.3-94.4-187.5zm-77.5 52c-61.2 28.9-131.6 22.3-179.2-14.6 30.1-50.6 93.5-77.2 160.5-68.6 1-64.9 38.1-121.9 98.1-140.9 34.9 52.9 27.5 121.1-13.2 172.2 55.3 36.1 86.1 95.9 77.1 153.2-58.5-3.3-114.8-42-143.3-101.3z"/>
	<path class="st21" d="m1590.7 418.7c-21-15.4-24.8-44.4-9.5-65.4 12.3-16.8 35.9-20.4 52.6-8.1 13.4 9.8 16.3 28.7 6.5 42.1-7.9 10.7-23 13.1-33.7 5.2-8.6-6.3-10.5-18.4-4.2-27 5-6.9 14.7-8.4 21.6-3.3 5.5 4 6.7 11.8 2.7 17.3-3.2 4.4-9.4 5.4-13.8 2.1-3.5-2.6-4.3-7.5-1.7-11 2.1-2.8 6-3.4 8.8-1.4"/>
	<path class="st21" d="m1618.7 469c3.2-1.3 4.7-5.1 3.4-8.3-1.7-4-6.3-5.9-10.3-4.2-5 2.1-7.4 7.9-5.3 12.9 2.6 6.3 9.9 9.2 16.2 6.6 7.9-3.3 11.6-12.3 8.3-20.2-4.1-9.8-15.4-14.4-25.2-10.3-12.3 5.1-18.1 19.3-12.9 31.6 6.4 15.3 24.1 22.6 39.4 16.1 19.2-8 28.2-30.1 20.2-49.3-10.1-24-37.6-35.3-61.6-25.2 0 0-16.1 46.3-50.3 43.9-20.7-1.5-36.3-19.6-34.8-40.3 1.2-16.6 15.7-29.1 32.3-27.8 13.3 1 23.3 12.5 22.3 25.8-0.8 10.6-10 18.6-20.6 17.8-8.5-0.6-14.9-8-14.3-16.5 0.5-6.8 6.4-11.9 13.2-11.4 5.4 0.4 9.5 5.1 9.1 10.6-0.3 4.4-4.1 7.6-8.5 7.3-3.5-0.3-6.1-3.3-5.8-6.8"/>
		<path class="st18" d="m2118.8 181.4s0.3 0.5 0.9 1.3c0.6 0.9 1.5 2.2 2.6 4 2.2 3.6 5 9.1 7.5 16.6 1.2 3.8 2.2 8 2.8 12.8 0.7 4.7 0.9 9.9 0.6 15.4-0.7 11-3.8 23.5-10.7 35.3-3.4 5.9-7.8 11.6-12.9 16.9-2.6 2.6-5.4 5.1-8.4 7.4s-6.2 4.5-9.7 6.4c-13.8 7.7-31.4 10.1-47.9 5.8-16.5-4.2-31.7-15.1-40.8-30.3-0.5-0.9-1.1-1.9-1.7-2.8l-1.4-3-0.7-1.5-0.6-1.6-1.1-3.2c-0.3-1.1-0.5-2.2-0.8-3.3l-0.4-1.6c-0.1-0.5-0.2-1.1-0.3-1.7l-0.5-3.3c-0.1-1.1-0.1-2.2-0.2-3.4-0.5-9 1.6-18.1 5.6-26.3 2.1-4 4.5-8 7.7-11.3 1.4-1.8 3.2-3.3 4.8-4.9 0.8-0.8 1.8-1.4 2.7-2.2l1.4-1 0.7-0.5 0.3-0.3 0.4-0.3 2.8-1.7c0.4-0.3 1-0.5 1.5-0.8l1.6-0.8c0.5-0.2 1.1-0.5 1.6-0.7l1.6-0.6c1.1-0.4 2.2-0.8 3.3-1.1 4.4-1.3 9.1-1.7 13.7-1.5l1.7 0.1c0.6 0 1.1 0.1 1.7 0.2l1.7 0.2c0.6 0.1 1.1 0.2 1.7 0.3l3.3 0.8 3.2 1.1c4.3 1.7 8.2 4 11.8 6.8 1.7 1.5 3.4 3 4.9 4.7l1.1 1.2c0.4 0.4 0.7 0.9 1 1.3l1 1.3 0.5 0.7 0.3 0.3s0.2 0.2 0.2 0.3l0.1 0.2c0.5 0.9 1.1 1.8 1.6 2.7 0.5 1.1 1 2.1 1.5 3.2 0.4 1.1 0.8 2.1 1.1 3.2s0.6 2.2 0.8 3.3c1.9 8.8 0.1 18.1-4.3 25.5-2.2 3.7-5.1 7-8.4 9.6-0.9 0.6-1.7 1.2-2.6 1.9l-1.4 0.8c-0.4 0.2-0.8 0.5-1.3 0.7-1 0.5-2 1-3 1.3s-2 0.7-3 1c-8.1 2.1-16.8 0.5-23.4-3.8-3.3-2.2-6-5-8.1-8.1l-0.2-0.3-0.2-0.4-0.3-0.6c-0.2-0.4-0.4-0.7-0.6-1.1-0.4-0.9-0.9-1.8-1.2-2.7s-0.6-1.8-0.8-2.7c-0.1-0.5-0.2-0.9-0.3-1.4l-0.2-1.4c-0.9-7.4 2.1-14.5 6.8-19.1 0.6-0.6 1.2-1.1 1.8-1.6l1-0.7 0.5-0.4 0.2-0.2 0.1-0.1 0.2-0.1 1-0.5 0.5-0.3 0.6-0.3 1.2-0.5c0.4-0.2 0.8-0.3 1.1-0.4 3-1 6.2-1.1 9.1-0.6 5.9 1 10.5 5 12.9 9.4 1.2 2.4 1.7 4.8 1.7 7.1s-0.7 4.5-1.6 6.4c-1 1.9-2.2 3.4-3.7 4.6-1.4 1.2-2.9 2-4.5 2.4-3.1 0.9-5.9 0.3-7.9-0.6s-3.2-2.1-3.9-3c-0.4-0.4-0.6-0.8-0.8-1s-0.2-0.3-0.2-0.3l0.4-0.3 0.3 0.3c0.2 0.2 0.4 0.5 0.8 0.9 0.7 0.8 1.9 1.8 3.8 2.5 1.8 0.7 4.4 1.1 7.1 0.1 2.6-0.9 5.4-3.2 6.8-6.5 0.7-1.6 1.1-3.5 1.1-5.5-0.1-1.9-0.6-4-1.6-5.8-1.1-1.9-2.6-3.6-4.6-4.9-1.9-1.3-4.2-2.3-6.6-2.6s-5-0.2-7.4 0.8c-0.3 0.1-0.6 0.2-0.9 0.3l-0.8 0.4c-0.1 0.1-0.3 0.1-0.4 0.2l-0.5 0.3-0.9 0.6-1.5 1.2c-0.5 0.5-1 0.9-1.5 1.4-3.8 4-6 9.9-5.1 15.9l0.2 1.1c0.1 0.4 0.2 0.7 0.3 1.1 0.1 0.7 0.4 1.4 0.7 2.2 0.2 0.7 0.6 1.3 0.9 2 0.2 0.4 0.4 0.7 0.7 1.1l0.3 0.6 0.1 0.1s0.1 0.2 0 0l0.2 0.2c1.8 2.6 4.2 4.9 6.9 6.6 2.8 1.7 5.9 2.9 9.2 3.5 3.3 0.5 6.8 0.4 10.1-0.5 0.8-0.2 1.6-0.6 2.5-0.8 0.8-0.3 1.5-0.7 2.3-1 0.4-0.2 0.8-0.5 1.2-0.7l1.1-0.7c0.7-0.5 1.4-1.1 2.2-1.6 2.8-2.3 5.3-5 7.1-8.2 3.8-6.3 5.3-14.2 3.8-21.8-0.2-0.9-0.4-1.9-0.7-2.8l-0.9-2.7-1.1-2.6c-0.5-0.9-1.1-1.8-1.6-2.7l-0.1-0.2c0-0.1 0.1 0.1 0 0l-0.2-0.3-0.4-0.6-0.9-1.2c-0.3-0.4-0.6-0.8-0.9-1.2l-1-1.1c-1.3-1.6-2.8-2.9-4.3-4.2-3.1-2.5-6.7-4.6-10.5-6.2s-7.9-2.4-12-2.7-8.3 0-12.4 1c-1 0.2-2 0.6-3 0.9l-1.5 0.5c-0.5 0.2-0.9 0.4-1.4 0.6l-1.4 0.6c-0.5 0.2-0.9 0.4-1.4 0.7l-2.9 1.7-0.2 0.1s-0.2 0.1-0.1 0.1l-0.3 0.2-0.7 0.5-1.3 0.9c-0.9 0.6-1.8 1.2-2.6 1.9-1.6 1.4-3.3 2.8-4.7 4.4-3 3.1-5.5 6.7-7.6 10.4-4 7.6-6.4 16.3-6.1 25 0 1.1 0 2.2 0.1 3.3l0.4 3.2c0.1 0.5 0.1 1.1 0.2 1.6l0.4 1.6c0.2 1.1 0.5 2.1 0.7 3.2l1 3.1 0.5 1.5 0.7 1.5 1.3 2.9c0.5 1 1.1 1.9 1.6 2.8l0.8 1.4c0.1 0.2 0.3 0.5 0.4 0.7l0.5 0.7c0.6 0.9 1.2 1.8 1.9 2.6 1.3 1.7 2.7 3.4 4.2 4.9 2.9 3.1 6.2 5.9 9.6 8.4 6.9 4.9 14.8 8.1 22.7 9.9 8 1.7 16.1 1.9 23.8 0.6s14.9-4 21.3-7.6c12.9-7.5 23-17.9 29.5-29.1 6.7-11.1 10-22.9 11-33.5 0.5-5.3 0.5-10.3 0-14.9-0.4-4.6-1.2-8.8-2.1-12.5-1.9-7.4-4.5-13-6.3-16.7-0.9-1.9-1.7-3.2-2.3-4.2-0.5-0.9-0.8-1.4-0.8-1.4l0.8-0.1z"/>
		<path class="st18" d="m2103.4 83.6c-2.9 0.2-5.7 1.6-7.5 3.8s-2.7 5.1-2.3 7.9c0.3 2.8 1.6 5.5 3.5 7.6 1.9 2 4.5 3.4 7.3 3.8 0.7 0.1 1.4 0.4 2.1 0.3l0.5 0.2h0.1l0.1-0.2 0.3-0.1 1.1-0.2c0.7-0.1 1.3-0.3 2-0.5s1.3-0.4 2-0.7c2.6-1.1 4.8-2.9 6.5-5.1 0.8-1.1 1.5-2.3 2-3.6 0.3-0.6 0.4-1.3 0.7-2 0.1-0.7 0.3-1.3 0.4-2v-1c0-0.3-0.1-0.7-0.1-1v-0.5c0-0.1 0.1-0.2 0.1-0.2v-0.3l-0.1-1.1c0-0.8-0.2-1.4-0.3-2.1s-0.4-1.3-0.6-2c-0.9-2.6-2.3-5.1-4.2-7.1s-4.2-3.6-6.7-4.7-5.3-1.6-8-1.6h-1l-1.1 0.1c-0.7 0.1-1.5 0.1-2.1 0.3-0.7 0.2-1.3 0.2-2 0.5l-2 0.6c-5.2 2-9.7 5.7-12.6 10.4-2.8 4.8-4.2 10.3-3.4 15.9 0.5 5.6 2.7 10.9 6 15.4 3.4 4.4 7.8 8 13 10.2 1.3 0.6 2.6 1 3.9 1.4 0.7 0.2 1.4 0.3 2 0.5 0.7 0.1 1.4 0.3 2 0.4l2.1 0.2c0.7 0.1 1.4 0 2.1 0h1.3c0.1 0 0 0 0 0h0.1l0.6-0.1 2.2-0.2 1.1-0.1c0.4 0 0.7-0.1 1-0.2l2-0.4c0.3-0.1 0.7-0.1 1-0.2l1-0.3 2-0.6c0.7-0.2 1.3-0.5 2-0.8l1.9-0.8c1.3-0.6 2.5-1.3 3.7-2 9.6-5.9 16.5-15.9 18.5-27 0.3-1.4 0.3-2.8 0.5-4.2 0.1-1.4 0-2.8 0.1-4.2l-0.4-4.3c0-0.4 0-0.8-0.1-1.1l-0.2-1-0.4-2c-1.2-5.5-3.3-10.9-6.2-15.8-5.9-9.8-15.3-17.3-26.1-21.2l-2-0.7c-0.7-0.2-1.4-0.5-2.1-0.6l-4.2-0.9-4.3-0.5c-0.7-0.1-1.4-0.1-2.2-0.1h-4.4l-2.2 0.1c-1.5 0.1-2.9 0.3-4.3 0.5-2.9 0.4-5.7 1-8.5 1.8-11.2 3.2-21.4 9.6-29.3 18.2s-13.4 19.5-15.5 31c-1.1 5.8-1.3 11.7-0.9 17.5 0.4 5.9 1.5 11.7 3.3 17.3 3.5 11.2 9.5 21.6 17.4 30.3 7.9 8.6 17.8 15.6 28.6 20s22.6 6.4 34.3 5.8l-1 0.5c3.9-4.6 8-8.9 12.3-13s8.8-8 13.5-11.6c9.4-7.3 19.7-13.5 31-17.8 5.6-2.1 11.5-3.7 17.5-4.6s12.2-0.9 18.2-0.1c6.1 0.8 11.9 2.6 17.6 5.1 2.6 1.2 5.5 2.7 8 4.3 2.6 1.6 5.1 3.4 7.4 5.4 9.3 7.9 16.5 18.3 20.4 29.9s4.6 24.2 2 36.2c-0.7 3-1.5 5.9-2.6 8.8-0.5 1.5-1.1 2.8-1.7 4.3l-0.1 0.1-0.1 0.2-0.1 0.2-0.3 0.5-0.5 1-1 2-0.5 1-0.6 1-1.3 2c-0.4 0.7-0.8 1.4-1.3 2l-1.5 1.8-1.5 1.8c-0.5 0.6-1.1 1.1-1.6 1.7l-1.6 1.7-0.8 0.8-0.9 0.7c-1.2 1-2.3 2-3.6 2.9l-3.8 2.6c-1.3 0.8-2.7 1.5-4.1 2.2-0.7 0.4-1.4 0.7-2.1 1l-2.1 0.9c-5.7 2.3-11.9 3.6-18.1 3.9h-2.3c-0.8 0-1.5 0.1-2.3 0l-4.6-0.4-4.6-0.8c-0.8-0.1-1.5-0.4-2.2-0.6l-2.2-0.6c-1.5-0.4-2.9-1-4.4-1.6l-2.2-0.9-0.1-0.1-0.2-0.1-0.2-0.1-0.5-0.3-1-0.5-2-1-2-1.3c-0.7-0.4-1.4-0.9-2-1.3l-1.8-1.5c-4.8-4-8.8-9-11.5-14.6s-4.2-11.8-4.4-18 1-12.5 3.4-18.2l0.4-1.1 0.1-0.3 0.1-0.2 0.1-0.1 0.3-0.5 1-2c0.2-0.3 0.4-0.7 0.6-1l0.7-1c0.5-0.7 0.9-1.4 1.4-2l1.5-1.8c0.5-0.6 1.1-1.1 1.6-1.7 1.1-1.2 2.3-2.1 3.5-3.1 2.5-1.8 5.2-3.5 8.2-4.6l1.1-0.5 1.1-0.4c0.7-0.2 1.5-0.5 2.2-0.7 1.5-0.3 3-0.7 4.6-0.8 3.1-0.4 6.3-0.3 9.3 0.1 1.5 0.3 3.1 0.5 4.6 1 0.7 0.2 1.5 0.4 2.2 0.7l2.2 0.9 0.5 0.2 0.1 0.1s0.3 0.1 0.2 0.1l0.2 0.1 1 0.5 1 0.5c0.3 0.2 0.7 0.4 1 0.6 0.7 0.5 1.4 0.9 2 1.4l1.8 1.5c2.3 2.1 4.3 4.7 5.8 7.4 1.5 2.8 2.6 5.8 3.1 8.9s0.5 6.3 0 9.3c-0.2 0.8-0.3 1.5-0.5 2.3l-0.7 2.2c-0.3 0.7-0.6 1.4-0.9 2.2l-0.2 0.5-0.1 0.2-0.1 0.1-0.1 0.2-0.5 1c-1.6 2.8-3.7 5.2-6.2 7.1-5 3.8-11.6 5.3-17.8 4.1-0.4-0.1-0.8-0.1-1.1-0.2l-1.1-0.3c-0.4-0.1-0.8-0.2-1.1-0.3l-1.1-0.4c-0.4-0.2-0.7-0.3-1.1-0.5l-1-0.5c-0.3-0.2-0.7-0.4-1-0.6l-1-0.7c-2.5-1.9-4.6-4.4-5.8-7.3-2.5-5.7-1.8-12.7 2-17.7 1.9-2.5 4.7-4.2 7.7-5 3-0.7 6.2-0.5 9 0.7l0.6 0.2 0.5 0.3 0.5 0.3 0.5 0.3c0.3 0.2 0.6 0.4 0.9 0.7 0.3 0.2 0.6 0.5 0.8 0.8 1.1 1.1 1.9 2.4 2.5 3.8 1.1 2.8 1 6.1-0.3 8.8l-0.5-0.2c1.2-2.6 1.2-5.7 0-8.3-0.6-1.3-1.4-2.5-2.4-3.5-0.2-0.2-0.5-0.5-0.8-0.7s-0.6-0.4-0.8-0.6l-0.4-0.3-0.5-0.2-0.5-0.2-0.5-0.2c-2.6-1.1-5.6-1.2-8.3-0.4s-5.1 2.4-6.8 4.6c-3.3 4.5-3.8 10.9-1.4 15.8 1.1 2.5 3 4.7 5.2 6.3l0.8 0.5c0.3 0.2 0.5 0.4 0.9 0.5l1 0.5c0.2 0.1 0.6 0.2 0.9 0.4l1 0.4c0.3 0.1 0.7 0.2 1 0.3l1 0.3c0.3 0.1 0.7 0.1 1 0.2 5.5 0.9 11.3-0.5 15.6-4 2.2-1.7 3.9-3.8 5.2-6.2l0.5-1 0.1-0.2 0.1-0.1c0.1-0.1 0 0 0-0.1l0.2-0.5 0.7-1.9 0.5-2c0.2-0.7 0.2-1.4 0.4-2 0.4-2.7 0.3-5.5-0.2-8.2s-1.5-5.3-2.9-7.7-3.1-4.5-5.1-6.4l-1.6-1.3c-0.5-0.4-1.1-0.7-1.6-1.1-0.3-0.2-0.5-0.4-0.8-0.5l-1-0.5-1-0.5-0.2-0.1c-0.1-0.1 0 0 0 0h-0.1l-0.5-0.2-1.9-0.8c-0.6-0.3-1.3-0.4-2-0.6-1.3-0.4-2.7-0.6-4.1-0.8-2.7-0.3-5.5-0.4-8.3 0-1.4 0.1-2.7 0.5-4.1 0.8-0.7 0.2-1.3 0.4-2 0.6l-1 0.3-0.9 0.4c-2.6 1-4.9 2.5-7.1 4.1-1 0.9-2.1 1.7-3.1 2.8-0.5 0.5-1 1-1.4 1.5l-1.3 1.6c-0.5 0.5-0.8 1.1-1.1 1.7l-0.5 0.8c-0.2 0.3-0.4 0.5-0.5 0.9l-1 2-0.3 0.5-0.1 0.1c0 0.1 0.1-0.1 0 0l-0.1 0.2-0.4 1c-2.1 5.2-3.1 10.7-2.9 16.3 0.2 5.5 1.6 11 4.1 16s6 9.4 10.3 12.9l1.6 1.3c0.5 0.4 1.1 0.7 1.7 1.1l1.7 1.1 2 1 1 0.5 0.5 0.3 0.2 0.1s0.2 0.1 0 0h0.1l2 0.8c1.3 0.5 2.6 1.1 4 1.4l2 0.6c0.7 0.2 1.3 0.4 2 0.5l4.1 0.7 4.2 0.3c0.7 0.1 1.4 0 2.1 0l2.1-0.1c5.6-0.3 11.1-1.5 16.3-3.5l1.9-0.8c0.6-0.3 1.3-0.5 1.9-0.9l3.7-2 3.5-2.4c1.1-0.8 2.2-1.8 3.2-2.6l0.8-0.7 0.7-0.7 1.5-1.5c0.5-0.5 1-1 1.4-1.5l1.3-1.6 1.3-1.6c0.4-0.5 0.8-1.1 1.1-1.7l1.1-1.7 0.6-0.8 0.5-1 2-3.8c0.5-1.3 1.2-2.6 1.6-3.9 1-2.6 1.8-5.4 2.5-8.1 2.5-11 2-22.7-1.6-33.5-3.5-10.8-10.1-20.5-18.7-27.9-2.1-1.9-4.4-3.5-6.8-5.1l-1.8-1.1c-0.6-0.4-1.2-0.7-1.8-1-1.2-0.7-2.6-1.3-3.9-2-5.1-2.3-10.6-4-16.2-4.9-11.2-1.8-22.9 0.1-33.7 4-10.8 4-20.9 9.9-30.3 16.8-4.7 3.5-9.2 7.2-13.5 11.1s-8.5 8.1-12.2 12.4l-0.4 0.5h-0.6c-12.1 0.4-24.2-1.8-35.3-6.6-5.5-2.3-10.8-5.3-15.7-8.8s-9.4-7.5-13.4-11.9c-8.1-8.9-14.1-19.6-17.6-31-0.4-1.4-0.8-2.9-1.2-4.3-0.3-1.5-0.7-2.9-0.9-4.4-0.5-2.9-1-5.9-1.2-8.9-0.5-5.9-0.3-12 0.8-17.9s3-11.7 5.6-17.1c1.3-2.7 2.8-5.3 4.5-7.8s3.5-4.9 5.5-7.1c8-9.1 18.5-15.9 30-19.5 2.9-0.9 5.9-1.6 8.8-2.1 1.5-0.2 3.1-0.4 4.5-0.6l2.2-0.2h4.6c0.8 0 1.5 0 2.3 0.1l4.6 0.5 4.5 0.9c0.8 0.1 1.5 0.4 2.2 0.6l2.2 0.7c11.6 3.9 22 11.8 28.5 22.3 3.3 5.3 5.6 11 7 17.1l0.5 2.3 0.2 1.2c0.1 0.4 0.1 0.7 0.1 1.1l0.2 2.2 0.1 1.1 0.1 0.6v0.7c0 1.6 0 3.1-0.1 4.7-0.2 1.6-0.3 3.1-0.6 4.7-1.1 6.2-3.5 12.1-7 17.2-3.5 5.2-8.2 9.5-13.5 12.8-1.4 0.7-2.7 1.5-4.1 2.2l-2.2 0.9c-0.7 0.3-1.4 0.6-2.2 0.8l-2.2 0.7-1.1 0.3c-0.4 0.1-0.8 0.2-1.2 0.2l-2.4 0.5c-0.4 0.1-0.8 0.2-1.2 0.2l-1.1 0.1-2.2 0.2-0.6 0.1h-1.9c-0.8 0-1.6 0-2.4-0.1l-2.4-0.3c-0.8-0.1-1.6-0.2-2.3-0.4-0.8-0.2-1.6-0.3-2.3-0.5-1.5-0.5-3-0.9-4.5-1.6-5.8-2.4-10.9-6.6-14.6-11.7-0.8-1.3-1.8-2.6-2.5-4-0.4-0.7-0.8-1.4-1.1-2.1l-0.9-2.2c-0.3-0.7-0.5-1.5-0.7-2.2-0.2-0.8-0.5-1.5-0.6-2.3-0.3-1.6-0.7-3.2-0.7-4.6l-0.1-1.1v-3.6c0.2-1.6 0.3-3.2 0.7-4.7 0.7-3.1 2-6.1 3.6-8.7 3.4-5.4 8.6-9.5 14.6-11.6l2.3-0.7c0.8-0.2 1.6-0.3 2.4-0.5s1.5-0.2 2.3-0.3l1.1-0.1h1.3c3.2 0 6.4 0.7 9.2 2 2.9 1.3 5.5 3.2 7.6 5.6 2.1 2.3 3.7 5.2 4.7 8.2 0.2 0.8 0.5 1.5 0.6 2.3s0.3 1.6 0.4 2.3l0.1 1.1v2.5l-0.1 1.2c-0.4 3.2-1.8 6.2-3.7 8.6-2 2.5-4.6 4.4-7.5 5.6-0.7 0.3-1.5 0.5-2.2 0.7-0.8 0.2-1.6 0.3-2.3 0.4l-1.1 0.1h-1.2c-0.8 0-1.6-0.1-2.4-0.2-3.1-0.6-6-2.2-8.1-4.5s-3.4-5.3-3.6-8.4c-0.3-3.1 0.8-6.3 2.8-8.6s5.1-3.7 8.1-3.8l0.3 0.3z"/>
		<path class="st22" d="m1880.1 1041.1s-0.3 0.8-0.8 2.3-1.2 3.9-2.4 6.8c-2.3 5.9-6 14.4-12.6 24.2-6.7 9.7-16.3 20.6-29.8 30.1-6.7 4.7-14.4 9.1-22.9 12.7s-17.9 6.3-28 7.9c-10 1.7-20.7 2-31.6 1-5.5-0.6-11-1.4-16.5-2.7-5.5-1.2-11.1-2.9-16.5-5-10.9-4.3-21.4-10.6-30.5-18.9s-16.8-18.5-22.5-30c-5.6-11.5-9.1-24.3-9.9-37.5-0.9-13.2 1-26.7 5.5-39.4 2.3-6.4 5.4-12.5 9.2-18.1 3.9-5.6 8.4-10.8 13.6-15.3 10.3-9 23.1-15.3 36.5-18.1 6.7-1.4 13.7-1.9 20.5-1.5 6.9 0.4 13.6 1.6 20.2 3.8l2.4 0.8 2.4 1c0.8 0.3 1.6 0.7 2.4 1 0.8 0.4 1.6 0.7 2.3 1.1 3.1 1.5 6 3.4 8.8 5.4 5.6 4 10.4 9 14.4 14.5 7.9 11.1 12.2 24.5 12.2 37.9 0 3.3-0.3 6.7-0.8 9.9-0.3 1.6-0.6 3.3-1 4.9l-0.6 2.4-0.3 1.2-0.2 0.6c0 0.1 0 0.1-0.1 0.4l-0.1 0.3c-0.6 1.5-1.1 3-1.7 4.5-0.7 1.5-1.5 3-2.2 4.5-0.8 1.4-1.7 2.8-2.6 4.2s-2 2.6-2.9 3.9c-8.3 10.1-20.3 16.6-32.7 18.3-6.2 0.9-12.5 0.6-18.4-0.7-1.5-0.4-2.9-0.8-4.4-1.2-0.1 0-0.3-0.1-0.3-0.1l-0.3-0.1-0.5-0.2-1-0.4c-0.7-0.3-1.4-0.5-2.1-0.8-1.4-0.7-2.8-1.3-4.1-2.1l-1.9-1.2c-0.6-0.4-1.3-0.8-1.9-1.3-4.8-3.5-8.8-8.1-11.6-13.1-2.9-5-4.6-10.6-5.2-16.2s0-11.2 1.6-16.3l0.1-0.5 0.2-0.5 0.3-0.9c0.2-0.6 0.4-1.2 0.7-1.8l0.9-1.8c0.3-0.6 0.6-1.2 1-1.8 0.7-1.1 1.4-2.3 2.2-3.3 0.4-0.5 0.8-1.1 1.2-1.5l1.3-1.4c0.9-1 1.9-1.8 2.9-2.6s2.1-1.5 3.1-2.3c2.2-1.3 4.4-2.5 6.8-3.3 4.7-1.7 9.6-2.3 14.3-1.8 1.2 0.1 2.3 0.4 3.5 0.5 1.1 0.3 2.2 0.6 3.4 0.9 0.5 0.2 1 0.4 1.6 0.6l0.8 0.3c0.3 0.1 0.5 0.3 0.8 0.4 0.5 0.3 1 0.5 1.6 0.8 0.5 0.3 1 0.6 1.4 0.9 3.8 2.4 6.8 5.7 8.9 9.4s3.2 7.7 3.3 11.6c0.2 3.9-0.5 7.7-1.9 11-1.4 3.4-3.7 6.2-6.2 8.3-2.6 2.1-5.5 3.4-8.5 4.1-2.9 0.7-5.8 0.7-8.4 0.2s-5-1.4-6.9-2.7-3.4-2.9-4.5-4.5-1.8-3.3-2.2-4.8c-0.8-3.1-0.7-5.6-0.4-7.1 0.1-0.8 0.3-1.4 0.4-1.8s0.2-0.6 0.2-0.6 0 0.2-0.1 0.6-0.3 1-0.4 1.8c-0.2 1.6-0.3 4.1 0.5 7.1 0.9 2.9 2.9 6.5 6.8 9 1.9 1.2 4.2 2.1 6.7 2.5s5.3 0.4 8.1-0.3 5.6-2 8-4.1c2.4-2 4.5-4.8 5.8-7.9 1.2-3.3 1.8-6.9 1.6-10.6s-1.3-7.5-3.3-10.9-4.9-6.5-8.5-8.7c-0.5-0.3-0.9-0.6-1.4-0.8l-1.4-0.7c-0.2-0.1-0.5-0.2-0.7-0.3l-0.8-0.3c-0.5-0.2-1-0.4-1.6-0.6-1-0.3-2.1-0.5-3.1-0.8-1.1-0.1-2.2-0.3-3.3-0.4-4.4-0.4-9.1 0.2-13.4 1.8-2.2 0.8-4.3 1.9-6.3 3.1-1 0.7-2 1.4-2.9 2.1-0.9 0.8-1.9 1.6-2.6 2.5-6.8 7-9.8 17.7-8.6 28.1 0.6 5.2 2.3 10.4 5 15.1s6.5 8.9 11 12.1c0.5 0.4 1.1 0.8 1.7 1.2l1.8 1.1c1.2 0.7 2.5 1.2 3.7 1.8 0.7 0.3 1.4 0.5 2 0.8l2 0.7c1.4 0.3 2.8 0.7 4.2 1 5.6 1.2 11.5 1.3 17.3 0.5 5.8-0.9 11.5-2.8 16.7-5.7s9.9-6.8 13.8-11.5c0.9-1.2 1.9-2.4 2.7-3.7l2.4-3.9c0.7-1.4 1.3-2.7 2-4.1 0.5-1.5 1.1-3 1.6-4.5l0.1-0.3c0 0.1 0-0.1 0.1-0.2l0.2-0.6 0.3-1.1c0.2-0.7 0.4-1.5 0.6-2.3 0.4-1.5 0.6-3.1 0.9-4.6 0.5-3.1 0.7-6.2 0.7-9.4 0-12.6-4.1-25.3-11.6-35.7s-18.4-18.4-30.9-22.3c-6.2-2-12.7-3.1-19.2-3.5-6.5-0.3-13.1 0.2-19.5 1.5-12.8 2.6-25 8.6-34.8 17.1-4.9 4.3-9.3 9.2-13 14.5-3.6 5.4-6.7 11.2-8.8 17.2-4.4 12.3-6.2 25.2-5.4 37.9s4.1 25.1 9.5 36.2 12.8 21 21.6 29.1c8.7 8.1 18.8 14.4 29.3 18.6 5.3 2.1 10.7 3.8 16.1 5 5.4 1.3 10.8 2.2 16.1 2.8 10.7 1.1 21.2 0.8 31-0.7 1.2-0.2 2.5-0.4 3.7-0.6s2.4-0.5 3.6-0.7l1.8-0.4 1.8-0.4c1.2-0.3 2.3-0.6 3.5-0.9s2.3-0.7 3.4-1c1.1-0.4 2.3-0.7 3.4-1.1 2.2-0.8 4.4-1.5 6.5-2.4 8.5-3.4 16.1-7.6 22.8-12.1 13.5-9.1 23.2-19.9 30-29.4 6.7-9.6 10.7-18 13.1-23.8 1.2-2.9 2-5.2 2.5-6.7 0.4-1.4 0.6-2.2 0.6-2.2z"/>
		<path class="st22" d="m1980.6 929.5c-3-3.4-7.4-5.4-11.9-5.4-4.5-0.1-8.9 1.7-12 4.9-3.2 3.1-5.2 7.3-5.9 11.7-0.6 4.4 0.3 9 2.5 12.8 1.1 1.9 2.5 3.6 4.1 5.2 1.6 1.5 3.4 2.8 5.4 3.8 3.9 2.1 8.3 3.1 12.7 3s8.8-1.4 12.5-3.8c3.7-2.3 6.8-5.6 9-9.4 4.3-7.7 5.7-17.1 3.4-25.6-1.1-4.3-3.1-8.3-5.9-11.6-0.7-0.8-1.5-1.7-2.2-2.4l-2.5-2.2c-1.7-1.4-3.5-2.7-5.4-3.7-7.6-4.4-16.7-6.3-25.4-4.9-8.7 1.3-16.9 5.4-22.9 11.8l-1.2 1.2c-0.4 0.4-0.7 0.8-1.1 1.2l-2.1 2.5c-0.7 0.9-1.2 1.8-1.9 2.7l-0.9 1.4c-0.3 0.5-0.5 1-0.8 1.4l-1.5 2.9c-0.4 1-0.8 2-1.3 3l-0.6 1.5-0.5 1.6c-0.3 1.1-0.7 2.1-0.9 3.2-0.4 2.2-1 4.3-1.1 6.5l-0.2 1.6c-0.1 0.5-0.1 1.1-0.1 1.6v3.3c0.2 4.4 0.7 8.8 2.1 12.9l0.5 1.6 0.6 1.5 1.2 3.1c0.5 1 1 1.9 1.5 2.9l0.8 1.5 0.9 1.4 1.8 2.7 2.1 2.6 1 1.3c0.3 0.4 0.7 0.8 1.1 1.2l1.2 1.2 1.2 1.1c6.3 6.1 14 10.8 22.3 13.7s17.2 4 25.9 3.2 17.3-3.5 24.9-7.8c3.8-2.2 7.4-4.8 10.6-7.7l2.4-2.3c0.8-0.8 1.5-1.6 2.3-2.4s1.5-1.6 2.2-2.4l1.1-1.2 1-1.3c5.5-6.9 9.7-14.7 12.5-23.1 2.8-8.3 4.2-17.1 4-25.9-0.1-8.8-1.8-17.5-4.9-25.7-1.5-4.1-3.4-8.1-5.6-11.9s-4.8-7.4-7.6-10.7l-1.1-1.3-0.3-0.3-0.1-0.1-0.1-0.2-0.6-0.6-2.3-2.5c-0.8-0.8-1.6-1.5-2.3-2.3-0.8-0.8-1.5-1.5-2.4-2.2l-2.5-2.2c-0.8-0.7-1.7-1.4-2.6-2.1-1.7-1.4-3.5-2.6-5.3-3.9-14.6-9.8-31.9-15.5-49.5-16.3-4.4-0.2-8.8 0-13.2 0.3-4.4 0.4-8.7 1.1-13 2.1-8.6 2-16.9 5.1-24.6 9.4-7.7 4.2-14.8 9.6-21.1 15.7s-12.1 12.9-16.9 20.2c-9.7 14.7-16.2 31.6-18.8 49-2.5 17.4-1.4 35.5 3.7 52.4 5 16.9 13.8 32.6 25.6 45.8l-1.5-0.7c9.1 0.2 17.9 1 26.8 2.2s17.7 2.9 26.4 5c17.4 4.3 34.4 10.4 50 19.5 7.8 4.6 15.1 9.9 21.7 16.1s12.4 13.2 17.1 21 8.2 16.2 10.5 25c0.5 2.2 1.1 4.3 1.4 6.6 0.2 1.1 0.4 2.2 0.6 3.4l0.4 3.4c0.2 1.1 0.2 2.2 0.3 3.4 0.1 1.1 0.2 2.3 0.2 3.4 0.1 2.3 0.2 4.5 0.1 6.8-0.1 9.1-1.6 18.1-4.2 26.7-1.3 4.3-2.9 8.6-4.8 12.7s-4 8.1-6.4 11.9c-9.6 15.3-23.5 28-39.7 36.1-4.1 2-8.2 3.8-12.5 5.2-4.3 1.5-8.6 2.7-13.1 3.5-9 1.7-18.2 1.7-27.1 0.3-17.9-2.9-34.7-12.1-46.8-25.7-3-3.4-5.8-7-8.2-10.8s-4.5-7.9-6.2-12.1c-0.4-1.1-0.9-2.1-1.2-3.2l-1.1-3.2-0.9-3.3c-0.3-1.2-0.5-2.2-0.8-3.3-1-4.5-1.5-9-1.5-13.5 0-9.1 2-18.2 5.7-26.4 3.7-8.3 9.2-15.7 16-21.7s14.9-10.6 23.5-13.2l1.6-0.5 0.8-0.2 0.2-0.1c0.1 0 0.2-0.1 0.3-0.1l0.4-0.1 3.3-0.7c1.1-0.3 2.2-0.4 3.4-0.5 1.1-0.1 2.3-0.3 3.4-0.3 2.3 0 4.6-0.1 6.8 0.2 1.1 0.1 2.3 0.2 3.4 0.4l3.3 0.7c1.1 0.2 2.2 0.6 3.3 0.9l1.6 0.5c0.5 0.2 1.1 0.3 1.6 0.6l3.2 1.3 0.8 0.3 0.8 0.4 1.5 0.8c2.1 1 3.9 2.3 5.8 3.5 0.9 0.6 1.8 1.4 2.7 2.1l1.3 1.1 1.2 1.2 2.4 2.4c0.8 0.8 1.5 1.7 2.2 2.6l1.1 1.3 1 1.4 1.9 2.8 1.6 3c0.3 0.5 0.6 1 0.8 1.5l0.7 1.6 1.3 3.1 1 3.2 0.5 1.6c0.2 0.6 0.2 1.1 0.4 1.7 0.2 1.1 0.5 2.1 0.6 3.3 0.1 1.1 0.3 2.3 0.3 3.4v3.4c-0.2 4.5-1.1 9-2.7 13.3-1.6 4.2-3.9 8.2-6.8 11.7s-6.4 6.4-10.3 8.8l-1.5 0.9-1.5 0.7c-1 0.5-2 1-3.1 1.4s-2.1 0.8-3.2 1.1c-1 0.3-2.2 0.6-3.3 0.8-4.5 0.8-9.1 0.6-13.5-0.5s-8.6-3.1-12.2-5.8c-1-0.7-1.8-1.4-2.6-2.1-0.8-0.8-1.7-1.5-2.4-2.4-1.6-1.6-3-3.4-4.1-5.3-2.4-3.8-3.8-8.3-4.1-12.8s0.7-9.1 2.7-13.1 5.1-7.6 8.8-10.1c1.9-1.3 3.9-2.3 6-3 0.5-0.2 1.1-0.3 1.6-0.5s1.1-0.3 1.6-0.4c1.1-0.2 2.2-0.3 3.4-0.3 4.5 0 9 1.5 12.6 4.3 3.6 2.6 6.6 6.2 8 10.5 0.6 2.2 0.9 4.4 0.6 6.6l-0.1 0.8c0 0.3-0.1 0.5-0.2 0.8l-0.4 1.6c-0.4 1-0.7 2.1-1.4 3.1-2.1 4-6 6.8-10.3 8 4.3-1.2 8.1-4.1 10.1-8 0.6-0.9 0.9-2 1.3-3l0.4-1.6c0.1-0.3 0.1-0.5 0.2-0.8l0.1-0.8c0.3-2.2-0.1-4.4-0.7-6.5-0.4-1-0.7-2.1-1.3-3l-0.8-1.4c-0.3-0.4-0.7-0.9-1-1.3-0.4-0.4-0.6-0.9-1.1-1.3l-1.2-1.1c-0.7-0.8-1.7-1.4-2.6-2.1-3.5-2.7-7.9-4.1-12.3-4-1.1 0-2.2 0.1-3.2 0.4-0.6 0.1-1.1 0.2-1.6 0.4s-1.1 0.3-1.6 0.5c-2.1 0.7-4 1.7-5.8 3-3.6 2.5-6.6 5.9-8.5 9.8s-2.8 8.4-2.5 12.7c0.3 4.4 1.7 8.6 4.1 12.3 1.2 1.9 2.5 3.6 4 5.1 0.7 0.8 1.6 1.5 2.4 2.3 0.8 0.7 1.7 1.4 2.6 2 3.5 2.6 7.6 4.4 11.8 5.5 4.2 1 8.7 1.2 12.9 0.4 1.1-0.2 2.1-0.4 3.2-0.8 1-0.3 2-0.8 3.1-1.1 1-0.4 2-0.9 3-1.4l1.5-0.7c0.5-0.3 0.9-0.6 1.4-0.9 3.7-2.3 7.1-5.1 9.8-8.5 2.8-3.4 4.9-7.2 6.5-11.3 1.5-4.1 2.4-8.4 2.5-12.7l-0.1-3.3c-0.1-1.1-0.2-2.1-0.3-3.2s-0.4-2.2-0.6-3.2c-0.1-0.5-0.2-1.1-0.4-1.6l-0.5-1.6-1-3.1-1.3-3-0.7-1.5c-0.2-0.5-0.5-1-0.8-1.4l-1.6-2.8-1.9-2.7-0.9-1.3-1.1-1.2c-0.7-0.8-1.4-1.7-2.1-2.5l-2.4-2.3c-0.4-0.4-0.8-0.8-1.2-1.1l-1.3-1c-0.9-0.7-1.7-1.4-2.6-2-1.8-1.2-3.6-2.4-5.6-3.4l-1.4-0.8-0.7-0.4-0.8-0.3-3-1.2c-0.5-0.2-1-0.4-1.5-0.5l-1.6-0.5c-1-0.3-2.1-0.7-3.2-0.8l-3.2-0.6c-1.1-0.2-2.2-0.2-3.2-0.3-2.2-0.3-4.3-0.1-6.5-0.1-1.1 0.1-2.1 0.2-3.2 0.3s-2.1 0.2-3.2 0.5l-3.3 0.7-0.4 0.1h-0.1l-0.2 0.1-0.8 0.2-1.6 0.5c-8.3 2.6-16.1 7-22.6 12.8s-11.8 13-15.3 20.9-5.4 16.6-5.3 25.3c0 4.3 0.5 8.7 1.5 12.9l0.4 1.6 0.2 0.8c0 0.2 0.1 0.5 0.2 0.8l0.9 3.1 1.1 3.1c0.3 1 0.8 2 1.2 3 1.7 4 3.7 7.9 6 11.6s5 7.1 7.9 10.4c11.7 13 27.9 21.7 45.1 24.4 4.3 0.7 8.6 1 13 1 4.3 0 8.7-0.5 12.9-1.3 4.3-0.8 8.5-1.9 12.6-3.4 4.2-1.4 8.1-3.1 12.1-5.1 15.6-7.8 28.9-20.1 38.2-34.9 2.4-3.7 4.3-7.6 6.2-11.5 1.8-4 3.3-8.1 4.6-12.2 2.4-8.4 3.9-17.1 4-25.8 0.1-2.2 0-4.4-0.1-6.5 0-1.1-0.2-2.2-0.2-3.3l-0.3-3.3-0.4-3.2c-0.2-1.1-0.4-2.1-0.6-3.2-0.3-2.1-0.9-4.3-1.4-6.5-2.2-8.3-5.5-16.5-10.1-24-4.5-7.4-10.1-14.2-16.5-20.2-6.4-5.9-13.5-11.1-21.1-15.5-15.2-8.8-31.9-14.9-49-19-8.6-2.1-17.3-3.7-26-4.9s-17.6-2-26.3-2.2h-0.9l-0.6-0.7c-12.1-13.6-21.2-29.9-26.3-47.4-5.2-17.4-6.4-36-3.8-54 2.7-18 9.4-35.4 19.5-50.5 5-7.6 10.9-14.6 17.5-20.9 6.5-6.3 13.9-11.9 21.9-16.2 8-4.4 16.6-7.6 25.5-9.7 4.5-1 9-1.7 13.5-2.1 4.5-0.3 9.1-0.5 13.7-0.3 18.2 0.8 36.2 6.8 51.3 17 1.8 1.3 3.8 2.6 5.5 4l2.7 2.1 2.6 2.2c0.9 0.7 1.7 1.6 2.5 2.3 0.8 0.8 1.7 1.6 2.4 2.4l2.3 2.5 0.6 0.6 0.1 0.2 0.2 0.2 0.3 0.3 1.1 1.3c2.9 3.5 5.6 7.2 7.9 11.2s4.2 8.1 5.8 12.4c3.2 8.6 4.8 17.7 4.9 26.9 0.1 9.1-1.3 18.3-4.3 26.9s-7.4 16.8-13.1 23.9l-1.1 1.3-1.1 1.3c-0.8 0.9-1.5 1.7-2.3 2.5s-1.6 1.7-2.4 2.4l-2.5 2.3c-3.5 3.1-7.2 5.7-11.2 8-8 4.5-16.9 7.3-26 8.1s-18.4-0.4-27-3.5c-8.6-3-16.5-8-23.1-14.4l-1.2-1.2-1.1-1.2c-0.4-0.4-0.8-0.8-1.2-1.3l-1.1-1.3-2.1-2.7-1.9-2.9-0.9-1.4-0.8-1.5c-0.5-1-1.1-2-1.6-3.1l-1.3-3.2c-0.2-0.5-0.4-1.1-0.6-1.6l-0.5-1.7c-1.4-4.4-1.9-9-2.1-13.5v-3.4c0-0.6 0.1-1.1 0.1-1.7l0.2-1.7c0.2-2.3 0.8-4.5 1.2-6.8 0.3-1.1 0.7-2.2 1-3.3l0.5-1.6 0.7-1.6c0.4-1.1 0.9-2.1 1.3-3.2l1.6-3c0.3-0.5 0.5-1 0.8-1.5l1-1.4c0.7-0.9 1.3-1.9 1.9-2.8l2.2-2.7c0.4-0.4 0.7-0.9 1.1-1.3l1.2-1.2c6.3-6.6 15-10.9 24-12.2 9.1-1.3 18.5 0.7 26.4 5.4 2 1.1 3.8 2.5 5.6 4l2.5 2.3c0.8 0.9 1.6 1.7 2.3 2.6 2.9 3.6 4.9 7.8 6 12.2 2.3 8.9 0.7 18.5-3.8 26.4-2.3 3.9-5.5 7.3-9.4 9.7s-8.4 3.7-13 3.8-9.1-1-13.1-3.2c-2-1.1-3.8-2.4-5.5-4-1.6-1.5-3.1-3.4-4.2-5.3-2.2-4-3-8.7-2.4-13.2 0.7-4.5 2.8-8.7 6.1-11.8 3.2-3.2 7.7-5 12.2-4.8 5.3 0.2 9.8 2.2 12.7 5.6z"/>
		<path class="st23" d="m2028.7 876c-1.3-1.3-2.5-2.7-3.8-4-1.4-1.3-2.6-2.6-4-3.8s-2.8-2.5-4.3-3.6l-2.2-1.7c-0.7-0.6-1.5-1.1-2.3-1.6s-1.5-1.1-2.3-1.6l-2.3-1.5c-1.5-1-3.2-1.9-4.8-2.8s-3.3-1.7-4.9-2.5c-1.7-0.8-3.4-1.5-5.1-2.2-3.4-1.3-6.9-2.6-10.5-3.5-0.9-0.2-1.8-0.5-2.7-0.7l-2.7-0.6c-1.8-0.4-3.6-0.7-5.5-1-1.8-0.3-3.7-0.5-5.5-0.7-1.8-0.1-3.7-0.3-5.5-0.4-1.8 0-3.7-0.1-5.5-0.1l-2.8 0.1-2.8 0.2c-3.7 0.2-7.3 0.8-11 1.4-1.8 0.4-3.6 0.8-5.4 1.2l-2.7 0.7c-0.9 0.2-1.8 0.5-2.7 0.8-1.8 0.6-3.5 1.1-5.2 1.8l-2.6 1-2.5 1.1c-3.4 1.5-6.6 3.2-9.8 5-1.6 0.9-3.1 1.9-4.7 2.9-1.5 1.1-3 2.1-4.5 3.2-2.9 2.2-5.7 4.6-8.4 7.1-5.4 5-10.3 10.5-14.7 16.4l-1.4 1.9-1.1-2.1c-4.5-8.6-10.7-16.3-18.1-22.6s-15.9-11.2-25-14.3-18.8-4.5-28.4-4.1-19.1 2.7-27.9 6.6l-0.2 0.1s-0.1 0.1 0 0h-0.1l-0.1 0.1-0.4 0.2-0.8 0.4-1.7 0.8-3.3 1.6c-2.1 1.2-4.1 2.4-6.2 3.6l-0.8 0.5-0.7 0.5-1.5 1-3 2.1c-1 0.7-1.9 1.5-2.8 2.3l-2.8 2.3c-1 0.7-1.8 1.6-2.7 2.5l-2.6 2.5c-0.9 0.8-1.7 1.8-2.5 2.7l-2.4 2.7c-0.8 0.9-1.5 1.9-2.3 2.8l-2.2 2.9c-0.8 0.9-1.4 2-2 3l-2 3c-0.3 0.5-0.7 1-0.9 1.6l-0.9 1.6-1.8 3.2c-1.1 2.2-2 4.4-3.1 6.6-0.9 2.2-1.7 4.5-2.6 6.8-0.7 2.3-1.4 4.6-2.1 7-0.6 2.4-1 4.7-1.6 7.1l-1 7.2-0.5 7.3 0.1 7.3v1.4l-1.3 0.4c-10.4 3.2-20.2 8.6-28.5 15.8s-14.9 16.2-19.5 26.2l-1.6 3.8-1.4 3.9c-0.1 0.3-0.2 0.7-0.3 1l-0.3 1-0.6 2c-0.4 1.3-0.7 2.7-1 4-1.3 5.3-2.1 10.8-2.5 16.3-0.3 5.5-0.2 11.1 0.4 16.6s1.7 10.9 3.2 16.3c3.1 10.6 8.1 20.7 14.5 29.7 6.5 9 14.6 16.8 23.7 23.1 9.2 6.2 19.4 10.9 30.1 13.8s21.8 4.5 32.8 4.5h2.1l-1.3 1.6c-1.6 2-3.2 4.1-4.5 6.3-1.4 2.2-2.7 4.4-3.9 6.8-2.3 4.6-4.2 9.5-5.6 14.5-2.7 10-3.4 20.5-2.1 30.7 1.4 10.2 4.8 20.2 10.1 29 5.2 8.9 12.3 16.6 20.6 22.7l3.1 2.2 3.4 2 3.4 2 3.4 1.7 3.4 1.7 3.6 1.5 3.6 1.5 3.7 1.2 3.7 1.2 3.8 0.9c1.3 0.3 2.5 0.6 3.8 0.8l3.8 0.6c1.3 0.2 2.5 0.4 3.8 0.5l3.8 0.3 1.9 0.1 1 0.1h4.9c2.6 0.1 5.1-0.2 7.7-0.4l1.9-0.2c0.6-0.1 1.3-0.2 1.9-0.3l3.8-0.6 1.9-0.3 1.9-0.4 3.7-0.9c1.3-0.3 2.5-0.7 3.7-1.1l3.7-1.2c1.2-0.3 2.4-0.9 3.6-1.4l3.6-1.4c0.6-0.2 1.2-0.5 1.7-0.8l1.7-0.9 3.4-1.7 6.6-3.9c2.1-1.5 4.2-3 6.3-4.4l1.4-1 1.4 1c7.9 5.5 16.8 9.5 26.1 11.7 4.7 1.1 9.4 1.7 14.2 2 4.8 0.2 9.6 0 14.3-0.7l3.5-0.6c1.2-0.2 2.3-0.5 3.5-0.8 0.6-0.1 1.2-0.3 1.7-0.4l1.8-0.5c1.2-0.4 2.4-0.7 3.5-1.1 4.5-1.5 9-3.4 13.3-5.5 4.3-2.2 8.4-4.7 12.3-7.5s7.6-5.9 11.1-9.3c3.5-3.3 6.7-7 9.5-10.8 2.9-3.8 5.6-7.9 7.8-12.1 2.3-4.2 4.3-8.6 5.9-13.2 1.6-4.5 2.9-9.2 3.9-13.9 0.9-4.7 1.5-9.5 1.8-14.3 0.2-4.8 0-9.6-0.5-14.4s-1.4-9.5-2.6-14.2-2.8-9.2-4.8-13.6l-1.6-3.7 4 0.1c9.7 0.2 19.4-1.5 28.5-4.9s17.5-8.6 24.7-15.2c7.2-6.5 13.2-14.5 17.4-23.3 2.1-4.4 3.8-9 5.1-13.7l0.9-3.6c0.2-1.2 0.5-2.4 0.7-3.6l0.3-1.8 0.1-0.5v-0.4l0.1-0.9 0.3-3.7c0.1-1.2 0.3-2.5 0.3-3.7v-7.4l-0.3-3.7-0.3-3.7c-0.1-1.2-0.4-2.4-0.5-3.7l-0.6-3.7-0.1-0.9-0.2-0.9-0.4-1.8c-0.6-2.4-1.1-4.8-1.9-7.2-0.8-2.3-1.4-4.7-2.5-7-1.8-4.6-4-9.1-6.6-13.3l-2-3.2-1-1.6c-0.3-0.5-0.7-1-1.1-1.5l-2.2-3c-0.7-1-1.5-2-2.3-2.9l-2.4-2.8c-0.8-0.9-1.6-1.9-2.5-2.8l-2.6-2.6c-0.9-0.9-1.7-1.8-2.7-2.6l-2.8-2.4-1.4-1.2-1.5-1.2c-2-1.4-4-3-6.1-4.3s-4.2-2.6-6.4-3.9l-6.7-3.3-0.4-0.2 0.1-0.4 0.7-4.4 0.5-4.5c0.1-1.5 0.2-3 0.2-4.5v-4.5c-0.1-1.5-0.1-3-0.3-4.5s-0.3-3-0.5-4.5c-0.3-1.5-0.5-3-0.8-4.4-0.4-1.5-0.6-2.9-1.1-4.4-0.4-1.4-0.8-2.9-1.3-4.3l-1.5-4.2c-0.6-1.4-1.1-2.8-1.8-4.1s-1.3-2.7-2-4c-0.8-1.3-1.5-2.6-2.3-3.9-0.8-1.2-1.6-2.5-2.5-3.8-0.9-1.2-1.8-2.4-2.7-3.6l-2.3-4.2zm0.4-0.3l2.9 3.5c0.9 1.2 1.8 2.4 2.7 3.6s1.7 2.5 2.5 3.8 1.5 2.6 2.3 3.9c0.7 1.3 1.4 2.7 2.1 4 0.7 1.4 1.2 2.8 1.8 4.1 0.6 1.4 1 2.8 1.6 4.2 0.5 1.4 0.9 2.9 1.3 4.3 0.4 1.5 0.7 2.9 1.1 4.4 0.3 1.5 0.6 3 0.8 4.5l0.6 4.5 0.3 4.5c0.1 1.5 0 3 0.1 4.5 0 1.5-0.1 3-0.2 4.5l-0.4 4.5-0.7 4.5-0.3-0.6 6.8 3.3c2.2 1.2 4.4 2.5 6.6 3.8 2.1 1.3 4.2 2.8 6.3 4.3 0.5 0.3 1 0.7 1.5 1.1l1.5 1.2 2.9 2.4c1 0.8 1.9 1.7 2.8 2.6l2.7 2.6c0.9 0.8 1.8 1.8 2.6 2.8l2.5 2.8c0.9 0.9 1.6 1.9 2.4 2.9l2.3 3c0.4 0.5 0.8 1 1.1 1.5l1 1.6 2.1 3.2c2.7 4.3 5 8.8 7 13.5 1.1 2.3 1.8 4.7 2.7 7.1s1.5 4.9 2.1 7.3l0.5 1.8 0.2 0.9 0.2 0.9 0.7 3.8c0.2 1.3 0.5 2.5 0.6 3.8l0.4 3.8 0.4 3.8 0.1 3.9v3.9c0 1.3-0.1 2.5-0.2 3.8l-0.3 3.8-0.1 0.9v0.5l-0.1 0.5-0.3 1.9c-0.1 1.3-0.4 2.5-0.6 3.8s-0.5 2.5-0.8 3.8c-1.2 5-2.9 9.9-5 14.5-4.3 9.4-10.4 17.9-18 24.9-7.5 7.1-16.4 12.7-26.1 16.4-9.6 3.8-20 5.6-30.4 5.4l2.4-3.6c2.1 4.6 3.8 9.5 5.1 14.4s2.2 9.9 2.8 15c0.5 5.1 0.7 10.1 0.5 15.2s-0.8 10.1-1.8 15.1c-3.9 20-14.1 38.6-28.7 52.8-3.7 3.5-7.5 6.9-11.7 9.8s-8.5 5.6-13.1 7.9c-4.6 2.2-9.2 4.2-14.1 5.8-1.2 0.4-2.4 0.7-3.6 1.1l-1.8 0.5c-0.7 0.2-1.3 0.3-1.9 0.5-1.2 0.3-2.5 0.6-3.7 0.8l-3.8 0.6c-5.1 0.7-10.2 0.9-15.3 0.7s-10.2-0.9-15.1-2.2c-9.9-2.4-19.4-6.7-27.7-12.6l2.8-0.1c-2.2 1.5-4.4 3.1-6.6 4.6-2.3 1.4-4.6 2.8-7 4.1l-3.6 1.8-1.8 0.9c-0.6 0.3-1.2 0.6-1.8 0.8l-3.7 1.5c-1.3 0.5-2.5 1.1-3.8 1.4l-3.9 1.2c-1.3 0.4-2.6 0.8-3.9 1.1l-3.9 0.9-2 0.5-2 0.3-4 0.6c-0.7 0.1-1.3 0.2-2 0.3l-2 0.1c-2.7 0.2-5.4 0.5-8 0.4h-5l-1-0.1-2-0.2-4-0.3c-1.3-0.1-2.7-0.4-4-0.6l-4-0.6c-1.3-0.3-2.6-0.6-3.9-0.9l-3.9-0.9-3.8-1.2-3.8-1.3-3.7-1.5c-1.2-0.5-2.5-1-3.7-1.6l-3.6-1.9-3.6-1.9-3.4-2.1-3.4-2.1-3.3-2.4c-8.6-6.5-15.9-14.7-21.2-24s-8.8-19.7-10-30.3c-1.3-10.6-0.4-21.5 2.5-31.8 1.5-5.1 3.5-10.1 6-14.8 1.2-2.4 2.6-4.7 4.1-6.9 1.4-2.3 3.1-4.4 4.8-6.4l0.8 1.6c-11.3-0.2-22.5-1.7-33.3-4.8-10.8-3-21.2-7.8-30.5-14.1-9.3-6.4-17.4-14.4-24-23.5s-11.6-19.4-14.9-30.1c-1.6-5.4-2.8-10.9-3.5-16.5s-0.9-11.2-0.6-16.9c0.3-5.6 1-11.2 2.3-16.8 0.3-1.4 0.6-2.8 1-4.1l0.6-2 0.3-1c0.1-0.4 0.2-0.7 0.3-1l1.4-4 1.6-3.9c4.6-10.4 11.3-19.9 19.8-27.4 8.5-7.6 18.6-13.4 29.5-16.9l-1.2 1.8-0.2-7.6 0.4-7.6 0.9-7.5c0.5-2.5 1-5 1.5-7.4 0.7-2.4 1.3-4.9 2.1-7.3 0.9-2.4 1.7-4.8 2.6-7.1 1.1-2.3 2-4.6 3.2-6.9l1.8-3.3 0.9-1.7c0.3-0.6 0.6-1.1 1-1.6l2-3.2c0.7-1 1.3-2.2 2.1-3.2l2.3-3c0.8-1 1.5-2.1 2.3-3l2.5-2.9c0.9-0.9 1.6-1.9 2.6-2.8l2.7-2.6c0.9-0.9 1.8-1.8 2.8-2.6l2.9-2.4c1-0.8 1.9-1.7 3-2.4l3.1-2.2 1.5-1.1 0.8-0.5 0.8-0.5c2.2-1.3 4.4-2.7 6.6-3.9l3.3-1.7 1.7-0.8 0.8-0.4 0.4-0.2 0.3-0.1 0.2-0.1c9.3-4.1 19.4-6.4 29.6-6.8s20.4 1.2 30 4.7c9.6 3.4 18.5 8.7 26 15.4 7.6 6.7 13.8 14.9 18.4 23.9l-2.5-0.2c4.6-6 9.7-11.5 15.3-16.5 2.8-2.5 5.7-4.9 8.8-7.1 1.5-1.1 3.1-2.1 4.7-3.2 1.6-1 3.2-2 4.8-2.9 3.3-1.8 6.7-3.5 10.1-4.9l2.6-1.1 2.6-0.9c1.8-0.7 3.6-1.2 5.4-1.7 0.9-0.3 1.8-0.5 2.7-0.7l2.7-0.7c1.8-0.4 3.7-0.8 5.5-1.1 3.7-0.6 7.4-1.1 11.2-1.2l2.8-0.1h2.8c1.9 0 3.7 0.1 5.6 0.2s3.7 0.3 5.6 0.4c1.8 0.3 3.7 0.5 5.5 0.8 1.8 0.4 3.7 0.6 5.5 1.1l2.7 0.6c0.9 0.2 1.8 0.5 2.7 0.8 3.6 1 7.1 2.3 10.6 3.7 1.7 0.7 3.4 1.5 5.1 2.3 1.7 0.9 3.3 1.6 5 2.6 1.6 0.9 3.3 1.8 4.8 2.8l2.4 1.5c0.8 0.5 1.5 1.1 2.3 1.6s1.5 1.1 2.3 1.6l2.2 1.7c1.5 1.1 2.8 2.4 4.3 3.6 1.4 1.2 2.7 2.6 4.1 3.9 0.8 1.4 2 2.8 3.3 4.2z"/>
</svg>
