<?xml version="1.0" standalone="no"?>
<!DOCTYPE svg PUBLIC "-//W3C//DTD SVG 20010904//EN"
 "http://www.w3.org/TR/2001/REC-SVG-20010904/DTD/svg10.dtd">
<svg version="1.0" xmlns="http://www.w3.org/2000/svg"
 width="1280.000000pt" height="1189.000000pt" viewBox="0 0 1280.000000 1189.000000"
 preserveAspectRatio="xMidYMid meet">
<metadata>
Created by potrace 1.15, written by Peter Selinger 2001-2017
</metadata>
<g transform="translate(0.000000,1189.000000) scale(0.100000,-0.100000)"
fill="#000000" stroke="none">
<path d="M9604 11861 c-57 -33 -363 -319 -436 -408 -26 -31 -50 -69 -53 -84
-10 -44 -77 -140 -141 -203 -81 -80 -166 -139 -271 -188 -87 -41 -89 -42 -238
-49 -174 -8 -262 -32 -431 -117 -130 -66 -162 -92 -269 -225 -69 -85 -102
-118 -140 -137 -35 -19 -61 -43 -90 -85 -51 -75 -169 -152 -308 -200 -49 -17
-174 -110 -228 -168 -16 -18 -52 -66 -79 -109 l-51 -76 27 -53 c73 -144 94
-258 55 -293 -10 -9 -90 -37 -177 -61 -165 -46 -253 -77 -389 -140 -110 -51
-242 -101 -290 -109 -59 -11 -264 -79 -485 -161 -107 -39 -242 -84 -300 -100
-58 -15 -154 -45 -215 -67 -60 -22 -132 -46 -160 -55 -27 -8 -70 -25 -95 -36
-118 -57 -405 -320 -449 -411 -13 -26 -33 -51 -45 -56 -13 -4 -47 -37 -76 -72
-30 -34 -96 -106 -146 -159 -51 -53 -109 -122 -128 -152 -20 -31 -52 -68 -71
-82 -19 -15 -48 -49 -65 -76 -21 -34 -38 -50 -57 -54 -69 -14 -115 -30 -231
-81 -68 -30 -129 -54 -137 -54 -7 0 -15 -6 -18 -13 -3 -8 -29 -26 -59 -40 -29
-15 -98 -63 -153 -107 -55 -44 -105 -80 -111 -80 -7 0 -41 -26 -76 -57 -61
-56 -109 -89 -213 -148 -27 -16 -61 -41 -75 -56 -14 -15 -67 -50 -118 -78 -52
-28 -111 -66 -132 -85 -22 -19 -54 -42 -72 -52 -18 -9 -40 -22 -48 -30 -8 -7
-89 -52 -179 -99 -90 -48 -216 -118 -280 -157 -64 -39 -204 -118 -311 -175
-107 -58 -200 -109 -205 -114 -6 -4 -76 -36 -155 -69 -80 -34 -213 -95 -296
-135 -125 -61 -158 -81 -195 -123 -54 -59 -94 -139 -144 -282 -65 -188 -107
-231 -345 -355 -145 -75 -233 -146 -246 -199 -16 -66 -9 -77 512 -775 249
-335 497 -655 556 -719 21 -23 42 -52 47 -65 14 -35 265 -384 560 -776 374
-497 616 -823 733 -986 56 -77 131 -176 168 -220 37 -44 79 -100 94 -124 35
-56 363 -490 515 -682 321 -405 372 -470 427 -544 33 -44 75 -102 93 -128 58
-86 93 -86 195 -4 36 28 121 83 188 121 224 125 261 148 573 351 171 111 369
235 440 275 173 97 1205 704 1275 750 31 20 92 56 135 80 44 24 242 138 440
253 519 302 560 322 670 336 178 22 251 60 455 237 218 189 196 176 441 270
96 37 248 103 339 148 169 83 320 146 400 167 25 6 50 15 57 21 7 5 45 16 85
25 101 20 232 71 438 168 96 46 200 91 230 100 87 28 349 139 462 196 57 29
186 83 288 121 404 151 581 268 671 446 47 92 42 107 -75 247 -77 91 -106 142
-106 184 0 35 51 241 73 292 11 26 30 44 70 67 58 33 87 64 87 95 0 35 -32 80
-153 211 -67 73 -202 220 -300 328 -98 108 -264 281 -371 385 -106 103 -239
244 -297 313 -57 69 -221 242 -365 386 -209 208 -270 275 -304 334 -49 85 -93
136 -151 176 -28 19 -48 45 -65 82 -15 35 -53 84 -112 145 -48 51 -98 106
-110 123 -48 69 -46 166 5 232 51 68 143 112 343 164 112 29 202 66 215 89 14
22 126 87 222 129 54 23 123 58 154 77 31 19 105 52 165 73 214 75 250 98 310
192 24 37 54 74 66 82 24 15 395 164 463 186 122 38 284 143 475 306 258 221
472 365 720 485 80 39 158 83 173 97 34 32 67 92 67 123 0 21 -2 22 -87 16
-103 -7 -368 -59 -451 -89 -31 -11 -75 -22 -97 -24 l-40 -5 29 17 c15 8 49 32
75 51 79 61 150 89 445 173 179 51 246 92 231 140 -9 28 -57 26 -142 -4 -95
-34 -170 -46 -289 -46 -189 0 -328 -31 -388 -86 -15 -15 -41 -55 -57 -91 -20
-45 -37 -69 -60 -81 -53 -29 -85 -60 -153 -145 -35 -45 -87 -104 -115 -131
l-50 -49 -12 29 c-13 35 -6 280 11 336 6 21 21 43 33 49 12 7 24 13 25 15 2 1
-21 33 -52 70 -31 37 -56 73 -56 79 0 16 -51 62 -81 73 -32 13 -53 1 -45 -25
3 -10 31 -57 62 -103 39 -59 54 -90 49 -105 -28 -97 -35 -146 -45 -288 -19
-298 -29 -338 -84 -357 -18 -6 -44 -22 -57 -36 -13 -14 -40 -34 -59 -43 -44
-22 -187 -54 -220 -50 -24 4 -25 7 -25 69 1 77 24 440 31 489 3 18 16 44 29
57 21 21 28 22 52 13 42 -15 89 -65 141 -148 40 -65 47 -71 58 -56 22 30 27
165 14 375 -6 113 -13 216 -14 230 -1 21 4 25 32 28 18 2 36 10 39 18 8 22
-51 131 -108 199 -84 98 -101 123 -110 167 -11 49 -76 180 -126 256 -53 79
-99 66 -68 -21 9 -23 17 -46 18 -52 4 -19 -44 -5 -97 29 -83 53 -118 69 -161
75 -37 6 -46 14 -107 96 -99 134 -157 179 -203 161 -27 -10 -16 -50 34 -126
71 -108 302 -549 304 -579 4 -49 -29 -36 -118 48 -89 84 -299 229 -470 324
-195 107 -282 131 -340 93 -25 -16 -27 -22 -23 -67 3 -32 24 -85 62 -160 35
-69 53 -116 47 -122 -15 -15 -90 25 -166 90 -92 77 -118 93 -154 93 -23 0 -32
-7 -45 -35 -10 -20 -24 -35 -34 -35 -9 0 -39 18 -67 40 -128 103 -195 151
-259 188 -86 48 -93 65 -59 129 14 26 36 82 48 123 13 41 33 103 46 138 21 56
22 67 11 108 -23 85 12 131 286 383 115 106 188 190 194 226 5 32 -39 30 -98
-4z m-980 -1130 c116 -31 215 -83 303 -162 59 -53 90 -72 132 -85 117 -34 397
-195 589 -338 150 -112 193 -162 161 -181 -19 -13 -55 4 -140 66 -80 59 -190
119 -216 119 -45 0 43 -93 162 -172 39 -26 102 -75 140 -109 39 -33 122 -104
185 -157 63 -52 149 -127 191 -166 41 -39 108 -99 147 -134 40 -35 85 -83 102
-107 31 -45 50 -105 33 -105 -13 0 -57 51 -70 81 -6 15 -30 36 -55 48 -62 33
-169 115 -278 215 -125 114 -221 183 -269 191 -33 5 -44 14 -69 54 -87 140
-497 385 -537 321 -3 -6 5 -14 19 -20 47 -17 115 -91 147 -157 38 -79 156
-203 254 -265 74 -47 143 -115 169 -166 9 -17 16 -55 16 -83 l0 -53 -142 140
c-152 149 -230 213 -316 259 -30 16 -60 41 -68 57 -17 32 -74 78 -98 78 -30 0
-87 29 -148 75 -59 44 -88 56 -88 34 0 -6 22 -47 50 -91 55 -90 113 -140 240
-208 47 -25 105 -69 156 -117 l82 -78 16 -90 c20 -109 20 -135 3 -135 -14 0
-17 4 -66 112 -34 72 -67 105 -143 144 -27 14 -51 31 -54 38 -3 8 -31 31 -62
52 -31 20 -84 58 -118 84 -34 26 -83 55 -110 66 -27 10 -89 40 -139 65 -149
76 -168 74 -94 -9 23 -26 49 -67 58 -92 14 -39 30 -55 111 -113 185 -132 260
-214 260 -285 l0 -34 -61 54 c-111 98 -243 187 -383 259 -77 39 -165 89 -196
111 -79 55 -163 64 -144 15 3 -8 29 -27 57 -43 29 -15 93 -69 142 -119 97 -99
277 -226 349 -247 25 -7 55 -26 76 -49 19 -21 60 -52 90 -68 30 -16 58 -35 62
-43 4 -7 27 -58 52 -114 73 -159 58 -185 -47 -86 -155 146 -358 313 -477 392
-36 23 -76 53 -90 66 -54 49 -130 65 -144 29 -11 -30 -47 -13 -136 64 -103 89
-255 200 -315 230 -93 47 -334 150 -385 165 -91 27 -194 31 -308 11 -162 -29
-149 -7 59 99 221 112 431 256 611 419 233 210 283 248 371 279 69 25 255 19
371 -11z m2250 -180 c193 -188 270 -303 315 -471 26 -98 74 -387 67 -406 -16
-42 -67 6 -195 186 -116 163 -143 212 -171 310 -26 93 -31 106 -95 260 -123
294 -113 309 79 121z m-857 94 c60 -30 127 -100 166 -173 26 -50 48 -67 110
-86 14 -4 17 -18 17 -79 0 -89 17 -141 95 -296 31 -63 63 -134 70 -157 7 -23
26 -59 43 -81 36 -44 51 -96 31 -108 -8 -5 -19 1 -31 16 -42 53 -148 230 -166
275 -10 27 -79 139 -153 249 -74 110 -165 253 -203 318 -86 149 -82 173 21
122z m577 -460 c162 -97 266 -248 306 -443 26 -128 34 -272 20 -372 -22 -161
-42 -158 -93 16 -79 265 -111 354 -202 549 -98 212 -118 262 -109 276 8 14 16
11 78 -26z m-3222 -595 c89 -33 498 -315 703 -484 154 -128 186 -158 287 -279
57 -67 131 -152 165 -189 65 -69 151 -194 197 -286 15 -29 38 -97 52 -150 14
-53 34 -126 45 -162 19 -63 19 -65 1 -89 -23 -31 -218 -141 -249 -141 -13 0
-27 9 -34 21 -7 13 -14 110 -19 238 -5 125 -13 231 -21 251 -21 59 -72 128
-231 310 -416 477 -839 853 -1007 895 -25 7 -51 21 -59 33 -12 18 -11 23 8 42
26 26 73 24 162 -10z m1110 -226 c126 -87 169 -132 197 -207 18 -47 -8 -32
-125 71 -110 95 -184 174 -184 194 0 15 22 4 112 -58z m-1236 1 c72 -21 148
-74 317 -219 423 -364 635 -595 654 -710 9 -56 -11 -44 -57 34 -55 95 -105
124 -133 79 -16 -25 -1 -61 63 -155 55 -82 80 -138 66 -151 -3 -4 -35 22 -71
56 -76 73 -101 77 -98 16 1 -22 15 -69 32 -105 17 -36 31 -72 31 -81 0 -9 -16
-22 -39 -31 -33 -13 -42 -23 -50 -54 -6 -22 -29 -66 -51 -99 -22 -33 -40 -72
-40 -87 0 -17 -15 -44 -40 -73 -31 -36 -40 -55 -40 -83 0 -20 -11 -61 -25 -90
-14 -30 -25 -71 -25 -91 0 -30 -7 -43 -34 -67 -25 -22 -35 -42 -41 -75 -10
-70 -14 -76 -44 -82 -25 -5 -28 -11 -37 -64 -10 -61 -11 -63 -86 -78 -20 -4
-32 -16 -43 -40 -8 -21 -28 -43 -47 -53 -18 -9 -43 -28 -55 -42 -46 -50 -125
-162 -139 -196 -8 -19 -21 -34 -30 -34 -9 0 -29 -16 -46 -35 -24 -26 -41 -36
-77 -40 -73 -10 -77 -13 -106 -68 -41 -76 -192 -222 -315 -304 -137 -92 -246
-186 -315 -272 -30 -39 -76 -82 -101 -97 -44 -26 -184 -74 -215 -74 -9 0 -36
16 -61 36 -26 19 -59 39 -75 43 -15 4 -29 14 -31 22 -5 28 60 109 244 300 307
319 378 413 390 517 5 40 13 54 54 92 61 57 67 77 37 121 -34 50 -91 77 -197
93 -102 15 -127 29 -96 52 29 21 149 18 248 -6 94 -22 134 -25 143 -9 9 14
-69 86 -141 129 -56 33 -62 35 -149 34 -134 -2 -223 -39 -340 -142 -53 -47
-148 -99 -231 -126 -28 -9 -78 -33 -110 -52 -33 -20 -90 -51 -129 -69 -38 -17
-101 -52 -140 -77 -38 -25 -113 -68 -165 -96 -95 -51 -151 -89 -316 -212 -163
-121 -205 -162 -280 -270 -91 -130 -180 -265 -216 -325 -46 -76 -70 -72 -83
14 -4 25 -16 68 -27 94 -19 45 -20 54 -9 115 15 80 39 138 79 189 17 21 70
113 118 206 48 92 111 196 138 232 51 64 294 289 478 441 53 43 158 117 232
164 75 47 173 115 216 153 142 120 260 285 260 361 0 40 -16 97 -34 121 -13
18 -16 18 -41 5 -15 -8 -61 -62 -102 -120 -151 -210 -212 -275 -390 -412 -114
-87 -402 -330 -487 -408 -39 -36 -114 -95 -166 -130 -52 -36 -133 -104 -180
-151 -47 -47 -97 -94 -112 -103 -15 -10 -47 -48 -71 -84 -25 -37 -63 -89 -86
-117 -22 -27 -59 -92 -82 -145 -64 -147 -155 -321 -189 -362 -20 -25 -40 -38
-55 -38 -21 0 -27 8 -41 58 -9 31 -26 75 -36 96 -37 72 -21 132 110 421 27 61
67 162 87 225 52 159 104 256 188 348 38 42 95 109 125 147 92 117 289 305
387 370 50 33 140 100 200 149 71 57 139 102 191 126 133 62 208 149 202 234
-1 24 5 45 20 65 35 48 23 81 -28 81 -29 0 -55 -26 -83 -81 -12 -22 -30 -40
-50 -47 -45 -16 -148 -111 -190 -175 -52 -78 -89 -110 -214 -188 -231 -144
-397 -296 -528 -484 -38 -55 -98 -133 -134 -174 -92 -106 -124 -157 -170 -273
-99 -253 -108 -272 -120 -250 -39 73 27 350 135 563 25 50 75 125 117 176 41
48 94 120 120 158 89 137 319 373 492 505 104 80 143 118 186 187 45 69 100
123 156 152 21 10 44 30 52 43 17 34 10 78 -15 95 -20 13 -27 10 -95 -46 -191
-154 -539 -503 -657 -659 -33 -43 -82 -103 -109 -133 -77 -84 -137 -160 -186
-237 -25 -38 -67 -92 -93 -118 -41 -42 -49 -46 -51 -29 -6 32 74 293 116 380
56 117 112 185 351 430 118 121 279 288 358 371 120 128 150 155 195 172 28
12 180 60 337 107 362 110 423 129 538 176 52 21 110 42 131 45 20 4 68 21
106 37 134 57 279 107 469 163 105 30 284 84 398 120 199 63 309 91 354 93 11
1 43 -6 70 -14z m2744 -65 c51 -44 101 -85 111 -91 23 -12 25 -49 4 -49 -14 0
-42 23 -194 159 -37 34 -47 61 -22 61 5 0 50 -36 101 -80z m-340 -19 c70 -51
140 -124 140 -146 0 -35 -44 -9 -139 81 -136 129 -136 163 -1 65z m-303 -57
c118 -62 133 -77 133 -131 0 -28 -4 -43 -13 -43 -12 0 -138 96 -210 161 -39
34 -43 59 -12 59 8 0 54 -21 102 -46z m-469 -263 c20 -10 47 -30 59 -43 12
-12 53 -56 92 -97 48 -49 74 -86 81 -111 9 -33 61 -114 145 -224 27 -35 75
-128 75 -145 0 -32 -38 4 -151 147 -69 86 -166 202 -215 256 -135 150 -174
199 -174 218 0 24 40 23 88 -1z m1120 -10 c41 -21 135 -99 169 -140 24 -28 31
-71 12 -71 -7 0 -30 21 -53 46 -22 25 -64 61 -92 79 -52 33 -99 87 -87 99 9 8
9 8 51 -13z m403 9 c10 -6 19 -17 19 -25 0 -25 -21 -27 -45 -5 -35 33 -18 53
26 30z m-674 -74 c44 -33 68 -64 58 -74 -9 -9 -108 45 -135 73 -12 13 -19 29
-15 35 9 15 43 3 92 -34z m-341 -45 c97 -71 201 -205 279 -361 21 -41 46 -86
56 -99 21 -26 25 -66 8 -76 -15 -10 -56 31 -86 85 -81 142 -197 280 -261 307
-25 10 -40 27 -58 66 -48 103 -20 138 62 78z m778 -316 c6 -16 -18 -45 -39
-45 -13 0 -45 26 -45 36 0 7 42 23 61 23 9 1 19 -6 23 -14z m-316 -98 c24 -23
28 -47 10 -65 -18 -18 -56 -14 -68 7 -11 21 -14 74 -4 84 9 8 36 -3 62 -26z
m-333 -127 c21 -23 12 -39 -13 -24 -19 12 -29 44 -14 44 5 0 17 -9 27 -20z
m-1239 -332 c25 -23 52 -55 61 -72 14 -27 14 -31 -3 -44 -25 -18 -100 -9 -134
17 -15 10 -26 30 -28 47 -3 30 30 94 48 94 6 0 31 -19 56 -42z m28 -317 c13
-20 -36 -45 -97 -49 l-62 -3 25 21 c14 11 34 25 45 30 26 11 82 12 89 1z m171
-91 c7 -11 -52 -50 -77 -50 -28 0 -33 22 -8 42 24 19 75 24 85 8z m-4759 -50
c24 -10 26 -14 21 -53 -20 -145 -29 -189 -47 -252 -17 -54 -23 -114 -30 -260
-5 -104 -13 -210 -19 -235 -5 -25 -19 -121 -31 -215 -25 -208 -42 -303 -82
-465 -17 -69 -31 -151 -32 -183 -1 -55 1 -61 36 -92 53 -49 129 -69 242 -63
100 6 161 25 218 69 20 16 41 29 46 29 11 0 22 -48 22 -91 0 -34 13 -41 109
-60 56 -12 68 -11 139 10 103 30 183 66 327 147 l120 67 130 -2 c358 -6 476
-80 842 -528 72 -87 176 -211 232 -277 56 -65 148 -179 206 -255 134 -176 290
-367 419 -511 56 -63 151 -176 211 -250 60 -74 152 -184 205 -245 53 -60 127
-148 165 -195 38 -47 98 -116 133 -153 43 -45 62 -71 55 -78 -5 -5 -59 -14
-119 -19 -128 -10 -284 -41 -351 -69 -27 -11 -74 -25 -106 -30 -134 -24 -501
-199 -642 -307 -26 -19 -71 -49 -102 -65 -73 -40 -264 -177 -718 -518 -384
-288 -819 -597 -909 -647 -72 -40 -143 -38 -231 5 -72 36 -108 79 -119 143 -7
40 -68 136 -174 273 -165 214 -590 796 -625 857 -21 36 -65 97 -98 135 -33 37
-70 86 -81 108 -43 83 -217 313 -367 486 -86 99 -196 234 -246 299 -49 65
-131 163 -180 217 -147 159 -216 242 -294 351 -40 56 -87 113 -106 125 -18 12
-59 59 -90 105 -119 174 -521 657 -711 852 -143 148 -164 174 -164 205 0 34
36 59 183 129 76 36 190 96 255 134 64 38 236 131 382 207 436 227 581 313
755 451 55 44 233 167 395 273 162 107 365 240 450 296 174 115 189 123 245
141 50 16 96 17 131 4z m5004 -21 c-65 -31 -193 -64 -214 -56 -14 6 111 64
162 76 20 5 55 9 77 10 l40 0 -65 -30z m379 7 c15 -18 2 -27 -39 -28 -39 -1
-50 10 -26 28 25 18 50 18 65 0z m-849 -26 c0 -16 -47 -42 -90 -47 -50 -7 -53
9 -7 37 33 21 97 27 97 10z m680 -35 c0 -20 -175 -70 -206 -58 -16 6 -16 7 2
20 10 7 34 13 53 13 20 0 47 7 61 14 24 13 90 21 90 11z m-510 -35 c13 -9 13
-11 0 -20 -8 -5 -23 -10 -33 -10 -10 0 -30 -9 -45 -20 -17 -13 -35 -18 -45
-14 -22 8 -21 17 1 37 36 33 94 45 122 27z m267 -47 c5 -15 -36 -28 -49 -15
-6 6 -7 15 -3 22 9 14 47 9 52 -7z m448 -133 c0 -11 -17 -16 -71 -20 -39 -3
-77 -10 -85 -16 -20 -17 -101 -26 -130 -16 -22 9 -19 11 33 26 153 45 253 55
253 26z m215 -30 c24 -15 -4 -34 -47 -33 -21 1 -46 -5 -57 -13 -11 -8 -43 -14
-70 -14 l-50 0 21 21 c36 37 167 62 203 39z m-587 -57 c-13 -2 -33 -2 -45 0
-13 2 -3 4 22 4 25 0 35 -2 23 -4z m660 -69 c46 -23 74 -52 112 -110 24 -37
72 -82 162 -152 99 -76 151 -126 219 -209 107 -129 176 -204 424 -463 274
-287 355 -375 436 -475 81 -101 150 -170 207 -208 22 -14 50 -41 63 -61 14
-20 46 -47 72 -60 56 -29 86 -59 106 -108 9 -20 31 -51 50 -70 31 -30 35 -39
38 -98 l3 -65 -35 -17 c-19 -9 -118 -40 -220 -68 -206 -56 -554 -169 -910
-295 -364 -129 -557 -189 -785 -244 -398 -97 -664 -164 -676 -172 -7 -4 -9
-14 -6 -23 8 -21 88 -21 216 0 167 28 680 144 755 170 200 72 1293 439 1371
460 50 14 115 27 146 31 52 5 57 4 63 -15 9 -27 -6 -83 -32 -119 -11 -15 -26
-44 -35 -64 -24 -58 -106 -111 -210 -135 -75 -18 -208 -73 -322 -134 -49 -26
-106 -50 -125 -53 -71 -10 -324 -112 -604 -244 -213 -100 -260 -118 -395 -154
-196 -52 -340 -117 -499 -226 -52 -36 -154 -93 -226 -127 -220 -105 -324 -182
-536 -397 -199 -201 -225 -218 -275 -185 -27 18 -33 47 -12 64 6 6 30 13 52
17 50 9 66 23 125 110 26 39 72 97 101 130 29 33 83 101 119 151 78 105 140
162 265 245 235 156 587 284 918 333 121 18 168 34 362 124 77 35 169 74 205
87 36 12 191 74 345 138 154 63 321 132 370 152 50 20 135 52 190 71 111 38
146 64 129 92 -16 26 -89 26 -185 2 -106 -27 -658 -202 -889 -282 -96 -33
-227 -75 -290 -94 -63 -19 -119 -39 -124 -44 -19 -19 13 -33 88 -38 42 -2 76
-8 76 -13 0 -10 -48 -43 -85 -57 -16 -6 -91 -27 -165 -46 -75 -19 -183 -51
-240 -71 -58 -20 -134 -41 -170 -46 -36 -5 -95 -14 -131 -19 -70 -10 -271 -80
-361 -126 -29 -15 -81 -37 -117 -51 -87 -33 -197 -111 -301 -213 -79 -77 -88
-91 -109 -155 -26 -83 -110 -246 -130 -253 -11 -4 -12 1 -7 19 3 13 9 71 13
129 6 109 14 140 38 140 16 0 117 90 146 131 11 17 18 36 15 45 -5 13 -9 13
-35 -1 -16 -8 -50 -33 -76 -55 -71 -62 -79 -54 -45 46 42 122 138 229 310 349
102 70 177 113 250 141 34 14 32 14 -46 11 -65 -3 -93 -10 -147 -34 -102 -48
-184 -108 -282 -207 -103 -104 -181 -216 -253 -364 l-51 -102 -19 27 c-46 67
-46 71 -7 115 41 44 105 170 105 204 0 12 17 44 38 71 41 51 158 163 171 163
17 0 31 51 21 71 -24 43 -67 16 -169 -106 -41 -49 -105 -137 -142 -195 -90
-140 -107 -160 -132 -160 -38 0 -299 277 -380 402 -19 29 -67 86 -106 127 -39
41 -71 78 -71 83 0 11 -100 126 -299 343 -211 230 -438 490 -546 628 -44 56
-115 135 -158 177 -91 87 -120 129 -115 167 2 21 10 30 33 37 38 11 63 22 97
44 36 22 43 12 18 -30 -16 -28 -18 -41 -11 -61 26 -69 86 -46 102 38 12 67 67
179 114 235 21 25 49 68 63 96 l25 52 131 4 131 4 180 83 c332 152 547 276
600 345 49 64 98 44 189 -77 93 -124 226 -240 226 -198 0 19 -34 90 -81 167
-51 86 -62 131 -31 140 9 3 55 25 102 49 53 27 219 88 439 160 l354 117 251 9
c270 10 332 17 401 48 92 41 45 55 -149 45 -137 -6 -226 4 -226 25 0 5 15 18
34 29 19 11 40 33 48 49 16 33 73 63 190 97 99 30 119 31 161 10z m-573 -23
c0 -18 -31 -33 -132 -66 -144 -47 -362 -125 -498 -178 -63 -25 -117 -43 -120
-40 -7 6 51 53 67 53 6 0 63 20 126 45 64 25 124 45 136 45 11 0 26 7 35 15 8
9 59 34 113 56 147 62 273 94 273 70z m-2696 -140 c-9 -47 -21 -71 -39 -71
-19 0 -27 15 -28 57 -1 26 5 41 22 54 33 27 54 9 45 -40z m-136 -3 c2 -9 -14
-36 -35 -59 -21 -23 -68 -80 -104 -128 -71 -93 -107 -113 -101 -56 6 58 51
132 123 200 72 67 110 81 117 43z m182 -166 c0 -30 -192 -236 -213 -229 -17 5
-21 46 -8 89 10 32 23 44 104 93 89 53 117 64 117 47z m-557 -56 c3 -8 -10
-47 -30 -88 -19 -40 -51 -111 -70 -158 -31 -73 -86 -170 -98 -170 -2 0 -10 -3
-19 -6 -31 -12 -20 42 47 226 19 52 38 110 42 127 l7 33 -54 -35 c-29 -18 -63
-43 -75 -55 -26 -25 -66 -23 -71 3 -8 42 78 99 182 122 83 18 133 18 139 1z
m-373 -146 c0 -37 -46 -214 -66 -252 -17 -33 -29 -35 -44 -9 -19 36 -11 109
19 174 15 34 33 74 39 90 17 39 52 37 52 -3z m-165 -91 c9 -26 -6 -42 -36 -37
-29 4 -34 21 -14 42 22 22 42 20 50 -5z m647 -86 c-36 -70 -145 -238 -162
-248 -16 -10 -30 13 -30 50 0 51 35 110 105 176 36 35 76 80 88 99 l22 35 3
-27 c2 -15 -10 -52 -26 -85z m-314 -302 c4 -56 -3 -77 -22 -62 -19 16 -26 60
-15 89 14 36 34 21 37 -27z m-1721 -103 c32 -30 29 -38 -12 -38 -37 0 -52 17
-41 45 8 21 26 19 53 -7z m1843 -28 c15 -9 21 -82 8 -95 -12 -13 -45 5 -56 31
-16 33 -15 40 4 58 18 18 23 19 44 6z m300 -89 c14 -28 12 -67 -4 -80 -25 -21
-46 40 -30 83 8 21 21 20 34 -3z m-5014 -113 c21 -18 105 -112 188 -208 82
-96 186 -215 231 -265 167 -186 223 -256 336 -420 31 -45 96 -133 146 -196
145 -185 292 -384 402 -544 57 -82 119 -166 137 -187 18 -20 65 -85 105 -145
40 -59 114 -162 164 -228 129 -169 908 -1306 925 -1351 18 -45 -18 -27 -92 48
-98 101 -196 225 -323 413 -157 231 -428 617 -501 712 -34 45 -76 108 -93 140
-29 54 -92 143 -310 438 -48 66 -109 152 -134 192 -25 39 -78 106 -118 150
-39 43 -101 122 -136 176 -36 54 -88 117 -118 142 -36 31 -68 73 -100 130 -54
96 -125 185 -385 485 -309 357 -389 434 -410 400 -22 -36 2 -66 379 -480 73
-80 187 -217 253 -304 67 -88 138 -175 158 -195 21 -20 54 -63 75 -96 21 -33
68 -98 105 -145 37 -47 93 -125 124 -174 32 -49 106 -155 165 -235 59 -80 154
-216 212 -300 57 -85 129 -181 161 -213 35 -36 70 -85 92 -130 21 -44 60 -101
99 -144 36 -38 82 -101 102 -140 33 -62 196 -299 389 -567 85 -117 136 -191
194 -280 24 -36 78 -106 119 -154 42 -48 86 -105 100 -126 13 -21 69 -86 124
-145 54 -59 125 -145 157 -192 31 -46 80 -109 108 -140 97 -105 124 -161 89
-190 -31 -26 -97 23 -176 131 -19 25 -79 102 -134 170 -55 68 -153 196 -217
284 -64 88 -148 195 -188 238 -39 43 -75 88 -80 100 -4 12 -48 72 -96 132 -49
61 -111 142 -139 181 -27 40 -75 105 -106 145 -31 41 -116 162 -189 269 -73
107 -203 292 -289 410 -381 528 -461 640 -511 715 -101 153 -244 351 -325 451
-45 55 -98 125 -118 155 -88 132 -311 389 -338 389 -50 0 -21 -66 83 -192 222
-266 278 -336 374 -468 58 -80 161 -221 230 -315 69 -93 168 -233 220 -310 52
-77 113 -162 134 -190 22 -27 40 -57 40 -66 0 -9 20 -39 43 -65 24 -27 147
-200 272 -384 126 -184 297 -432 380 -550 84 -118 171 -246 193 -285 43 -74
80 -122 254 -331 59 -71 174 -212 256 -314 83 -102 196 -238 251 -303 102
-119 118 -147 107 -192 -19 -76 -96 4 -490 510 -111 143 -244 319 -296 390
-51 72 -130 175 -175 230 -97 119 -207 267 -260 350 -34 54 -241 343 -380 530
-28 39 -150 212 -270 385 -119 173 -239 342 -265 375 -26 33 -89 123 -140 200
-158 237 -468 631 -612 778 -32 33 -92 105 -131 161 -91 127 -148 186 -182
186 l-25 0 19 -38 c31 -60 168 -244 421 -562 129 -162 283 -358 343 -435 60
-77 130 -162 157 -190 26 -27 71 -86 100 -130 29 -44 106 -154 170 -245 64
-91 127 -183 140 -205 13 -22 58 -83 100 -135 42 -52 85 -111 95 -130 9 -19
43 -69 75 -110 31 -41 67 -95 80 -120 12 -25 51 -83 85 -130 34 -47 110 -159
170 -250 59 -91 129 -192 155 -225 26 -33 84 -115 128 -181 44 -67 102 -147
127 -179 26 -31 90 -116 142 -188 161 -221 356 -451 544 -643 65 -67 119 -126
119 -132 0 -25 -42 -141 -55 -152 -23 -19 -47 -5 -39 24 12 49 -54 142 -237
332 -65 67 -134 148 -155 180 -20 33 -56 88 -79 124 -23 36 -72 101 -108 143
-36 43 -85 114 -109 158 -23 44 -98 148 -165 232 -68 83 -147 186 -175 227
-29 41 -87 118 -129 170 -75 92 -225 308 -415 595 -51 77 -118 177 -149 221
-67 97 -200 244 -222 244 -20 0 -15 -12 64 -144 61 -101 91 -143 191 -269 19
-23 39 -56 46 -72 7 -17 35 -56 63 -87 27 -31 69 -94 94 -140 24 -45 70 -117
101 -160 31 -42 67 -96 78 -119 12 -23 46 -74 76 -113 30 -39 54 -78 54 -86
-1 -39 -288 307 -345 415 -50 96 -210 327 -316 456 -20 24 -51 67 -69 94 -19
28 -106 149 -195 270 -89 121 -170 233 -180 248 -41 64 3 31 145 -108 106
-104 154 -145 162 -137 14 14 -28 104 -77 162 -21 25 -68 91 -106 146 -37 56
-132 180 -211 275 -79 96 -225 275 -325 399 -100 124 -234 283 -298 354 -168
187 -206 246 -207 325 0 30 8 64 22 91 12 24 47 116 77 204 30 88 61 168 69
177 8 8 14 27 14 40 0 13 4 40 10 58 17 61 51 67 106 19z m5010 -247 c97 -72
314 -309 669 -731 462 -549 1153 -1339 1202 -1374 15 -11 43 -22 62 -26 l36
-6 0 -71 c0 -88 -12 -106 -52 -77 -16 11 -100 106 -188 211 -88 105 -214 251
-280 324 -399 444 -1505 1746 -1505 1773 0 13 18 5 56 -23z m-5465 -331 c24
-13 26 -76 3 -108 -25 -36 -55 -25 -82 30 -31 62 -23 88 24 88 20 0 44 -5 55
-10z m-158 -110 c14 -11 32 -20 40 -20 18 0 61 -50 147 -175 85 -122 156 -207
295 -355 64 -69 122 -136 128 -150 6 -14 37 -62 70 -108 117 -164 35 -110
-163 108 -139 152 -534 608 -569 657 -41 55 -3 86 52 43z m362 -161 c24 -22
71 -79 103 -127 33 -48 117 -157 187 -242 71 -85 141 -175 157 -200 15 -24 68
-90 117 -145 156 -176 261 -326 261 -371 0 -15 -2 -15 -22 -2 -12 8 -30 30
-40 49 -10 19 -40 59 -66 89 -27 30 -113 134 -191 230 -79 96 -214 256 -300
355 -220 252 -271 324 -271 380 0 35 13 32 65 -16z m10495 -433 c0 -12 -78
-49 -184 -86 -65 -23 -179 -68 -255 -101 -181 -80 -294 -119 -339 -118 -20 0
-30 3 -22 6 71 26 254 110 292 135 34 21 67 32 114 38 36 5 73 15 83 24 46 42
311 129 311 102z m0 -141 c0 -20 -38 -42 -86 -50 -52 -8 -65 7 -33 41 40 43
119 49 119 9z m-237 -79 c7 -17 -2 -56 -16 -73 -5 -7 -26 -13 -47 -13 -62 0
-196 -53 -267 -106 -18 -14 -58 -29 -90 -35 -82 -15 -259 -82 -385 -145 -59
-30 -115 -54 -124 -54 -10 0 -45 -28 -78 -62 -55 -57 -70 -66 -156 -97 -52
-18 -194 -77 -315 -131 -266 -118 -465 -201 -645 -269 -74 -28 -196 -75 -270
-105 -94 -39 -138 -52 -145 -45 -32 34 352 292 540 362 22 8 139 62 260 120
121 57 267 123 325 147 58 23 130 55 161 70 43 21 75 28 140 32 75 4 97 11
198 56 62 29 174 75 250 103 75 28 161 61 191 73 30 13 73 29 95 36 22 7 89
35 148 62 59 27 121 51 137 55 16 3 35 12 41 19 15 18 45 18 52 0z m-613 -114
c0 -36 -233 -143 -309 -142 -25 1 -26 1 -6 16 31 24 182 95 244 115 66 21 71
22 71 11z m1106 -47 c19 -14 19 -15 -4 -21 -12 -4 -75 -31 -140 -61 -214 -100
-305 -140 -552 -243 -290 -122 -329 -135 -336 -115 -11 27 19 57 84 87 37 16
162 67 277 113 116 46 260 105 320 133 61 27 128 55 150 62 22 7 60 23 85 36
52 28 88 30 116 9z m-4231 -825 c175 -26 322 -83 387 -151 21 -22 38 -44 38
-49 0 -6 -44 13 -97 40 -196 100 -376 103 -417 7 -12 -30 -20 -35 -82 -50 -79
-20 -72 -17 -339 -162 -369 -200 -594 -336 -741 -447 -55 -41 -144 -105 -199
-143 -166 -114 -492 -356 -838 -621 -147 -112 -676 -434 -738 -449 -36 -9 -41
10 -20 71 45 127 116 234 155 234 31 0 181 85 409 233 326 212 408 260 487
290 91 34 168 74 215 112 72 58 806 541 980 645 94 56 238 135 321 175 190 93
235 137 203 197 -9 17 -7 24 9 40 36 36 135 46 267 28z m148 -191 c36 -10 46
-22 28 -33 -9 -6 -161 10 -194 20 -68 21 92 34 166 13z m1576 -35 c-31 -38
-392 -201 -495 -224 -50 -11 -87 -5 -81 13 6 21 109 76 187 101 41 13 125 45
187 70 145 61 234 78 202 40z m-1899 -96 c-1 -44 -13 -58 -49 -58 -73 0 -244
-89 -571 -298 -310 -198 -400 -246 -400 -212 0 14 122 102 270 195 69 43 159
102 201 131 71 49 380 210 459 240 46 17 90 17 90 2z m10 -123 c0 -20 -106
-106 -192 -156 -448 -257 -736 -438 -913 -573 -44 -34 -101 -74 -127 -91 -54
-34 -78 -69 -60 -87 9 -9 25 -6 70 16 69 34 355 212 622 386 222 145 317 200
480 274 193 89 366 147 497 167 66 10 84 10 109 -2 36 -18 40 -35 15 -76 -36
-57 -55 -63 -233 -74 -344 -20 -449 -62 -821 -331 -84 -60 -231 -165 -327
-233 -96 -68 -222 -162 -280 -210 -58 -47 -157 -125 -220 -173 -113 -86 -581
-393 -782 -513 -57 -34 -134 -83 -173 -109 -38 -26 -137 -84 -220 -130 -82
-46 -181 -104 -220 -129 -100 -65 -266 -151 -292 -151 -31 0 -31 38 1 124 31
86 50 114 84 122 39 10 108 46 225 118 57 35 132 78 167 96 35 18 138 78 229
134 91 57 249 151 351 211 195 114 294 178 306 196 3 6 0 18 -9 26 -34 34
-125 -16 -682 -372 -260 -167 -537 -325 -567 -325 -12 0 -9 76 3 104 7 14 28
32 48 41 81 37 156 78 268 148 199 125 443 288 507 340 34 27 102 73 151 102
50 29 117 76 150 104 32 28 64 51 70 51 6 0 21 -7 34 -16 59 -41 218 21 376
147 174 139 545 392 775 529 85 51 174 106 197 122 24 16 102 61 175 99 73 39
144 80 158 90 30 22 50 24 50 4z m722 -155 c-3 -63 -20 -83 -67 -78 -47 5 -46
45 1 98 51 56 70 50 66 -20z m216 -162 c-45 -71 -169 -114 -359 -128 -136 -10
-170 -22 -258 -94 -69 -57 -237 -166 -254 -166 -6 0 -61 -32 -123 -71 -126
-79 -184 -96 -203 -62 -16 32 8 55 142 136 67 41 175 106 239 146 137 83 252
142 323 165 28 9 115 20 195 26 139 9 246 32 274 60 6 6 16 10 24 10 12 0 12
-3 0 -22z m-2005 -198 c-29 -27 -307 -227 -364 -262 -38 -24 -97 -64 -130 -90
-60 -46 -84 -54 -72 -22 7 20 163 144 179 144 7 0 56 40 109 89 100 92 175
141 235 151 38 7 57 2 43 -10z m-2312 -212 c18 -24 74 -86 124 -138 50 -52
113 -124 140 -160 26 -36 74 -94 105 -130 109 -126 129 -163 96 -176 -44 -17
-178 113 -316 306 -202 284 -257 380 -201 351 10 -6 34 -30 52 -53z m-485
-730 c55 -57 109 -116 119 -132 10 -16 72 -97 139 -180 67 -83 155 -195 195
-249 105 -141 300 -337 334 -337 43 0 133 39 210 90 112 74 491 301 602 361
210 111 234 120 265 89 24 -24 25 -32 3 -58 -16 -18 -625 -412 -683 -442 -14
-7 -88 -53 -165 -103 -170 -110 -232 -139 -281 -135 -34 3 -40 8 -67 58 -16
30 -50 84 -75 120 -179 253 -338 471 -412 565 -123 155 -198 262 -227 321 -13
29 -35 62 -49 75 -23 21 -33 59 -16 59 4 0 53 -46 108 -102z"/>
<path d="M3333 7064 c-9 -24 14 -89 63 -184 86 -163 134 -210 175 -169 25 25
18 63 -34 169 -66 134 -183 239 -204 184z"/>
<path d="M3085 6906 c-51 -16 -84 -33 -112 -59 -46 -42 -26 -105 101 -311 103
-168 109 -176 134 -176 95 0 197 133 178 233 -4 19 -24 61 -45 94 -21 33 -53
90 -71 127 -27 58 -38 71 -73 87 -49 22 -58 22 -112 5z m46 -96 c34 -19 20
-90 -18 -90 -23 0 -38 46 -25 75 13 28 16 29 43 15z m145 -205 c13 -20 14 -30
4 -59 -19 -60 -64 -56 -94 9 -23 47 -9 75 39 75 26 0 39 -6 51 -25z"/>
<path d="M2590 6599 c-7 -11 -14 -54 -17 -95 -3 -41 -10 -74 -15 -74 -4 0 -51
9 -104 21 -53 11 -102 18 -110 15 -49 -19 23 -93 156 -160 94 -47 111 -60 165
-125 33 -40 67 -77 77 -82 55 -30 67 61 18 147 -32 58 -63 147 -81 239 -14 72
-44 135 -64 135 -8 0 -19 -9 -25 -21z"/>
<path d="M2163 6223 c13 -84 161 -333 205 -347 27 -9 208 62 243 96 34 31 36
51 8 79 -24 24 -75 22 -113 -6 -11 -9 -36 -27 -54 -40 -18 -13 -40 -21 -48
-18 -8 3 -43 49 -78 102 -70 106 -128 171 -153 171 -12 0 -14 -7 -10 -37z"/>
<path d="M1843 6131 c-57 -26 -77 -61 -76 -128 3 -106 100 -256 196 -302 55
-27 144 -36 177 -19 46 25 55 61 36 147 -18 86 -69 200 -111 250 -57 67 -144
87 -222 52z m148 -151 c98 -98 100 -196 3 -160 -103 39 -170 210 -82 210 22 0
42 -13 79 -50z"/>
<path d="M1502 5928 c-21 -21 -13 -68 24 -134 46 -83 44 -118 -6 -122 -32 -3
-45 5 -105 58 -79 69 -108 75 -113 23 -4 -44 24 -93 112 -198 42 -49 84 -106
94 -125 22 -45 63 -70 86 -51 26 21 20 84 -10 120 -33 39 -28 62 18 84 49 24
91 15 119 -24 24 -34 62 -52 89 -44 48 15 29 70 -64 179 -37 43 -86 107 -108
142 -55 88 -106 122 -136 92z"/>
<path d="M3170 5793 c-25 -27 -72 -62 -105 -80 -66 -35 -175 -110 -318 -220
-191 -146 -318 -210 -445 -223 -57 -6 -79 -13 -100 -32 -15 -14 -45 -30 -68
-36 -44 -13 -164 -86 -164 -101 0 -5 -15 -14 -32 -21 -74 -29 -100 -87 -58
-125 11 -10 29 -43 40 -74 25 -68 71 -137 138 -211 l50 -55 118 0 c95 1 134 6
193 24 41 12 83 20 94 17 29 -7 52 8 148 98 47 45 135 115 195 156 60 41 127
91 149 111 22 19 68 54 102 77 89 60 126 114 88 128 -31 12 -65 -8 -166 -101
-133 -124 -227 -187 -313 -210 -103 -28 -157 -5 -221 96 -59 92 -54 160 13
178 21 6 76 33 121 61 45 28 107 62 137 76 30 14 58 34 64 43 15 28 73 51 129
51 100 0 199 57 215 123 5 20 17 33 40 42 46 19 86 69 87 108 3 98 -16 147
-59 147 -19 0 -40 -13 -72 -47z"/>
<path d="M4786 5713 c-11 -3 -97 -58 -190 -123 -94 -64 -207 -139 -251 -165
-103 -62 -115 -73 -115 -102 0 -57 88 -16 378 176 114 76 218 150 231 164 39
43 14 67 -53 50z"/>
<path d="M4970 5499 c-76 -61 -173 -124 -358 -234 -143 -85 -216 -150 -210
-188 7 -50 28 -38 333 184 61 44 160 111 220 149 61 38 118 76 128 85 27 24
18 49 -18 53 -24 2 -44 -8 -95 -49z"/>
<path d="M5173 5300 c-58 -26 -128 -75 -184 -128 -25 -24 -55 -49 -66 -55 -11
-7 -55 -32 -98 -57 -103 -60 -159 -102 -163 -123 -10 -50 132 13 229 101 35
32 100 78 144 101 157 85 236 146 220 171 -9 15 -35 12 -82 -10z"/>
<path d="M3680 5185 c0 -61 178 -318 335 -485 39 -41 96 -111 127 -155 31 -44
105 -138 165 -210 60 -71 141 -173 180 -225 38 -53 108 -138 154 -190 46 -52
122 -142 169 -200 134 -167 375 -454 394 -469 12 -11 20 -11 28 -3 29 29 -40
152 -168 297 -44 50 -118 142 -165 205 -48 63 -128 162 -179 220 -115 131
-461 556 -715 880 -225 286 -325 389 -325 335z"/>
<path d="M5334 5052 c-44 -25 -148 -96 -447 -307 -70 -49 -122 -109 -111 -126
16 -27 119 17 187 80 23 21 58 46 77 56 64 32 278 195 353 269 61 60 28 75
-59 28z"/>
<path d="M3328 4919 c-10 -5 -18 -17 -18 -24 0 -11 14 -15 54 -15 58 0 76 11
56 35 -14 17 -67 19 -92 4z"/>
<path d="M5570 4883 c-8 -3 -77 -53 -152 -109 -144 -108 -350 -249 -406 -278
-29 -15 -33 -22 -30 -49 3 -27 7 -32 33 -35 24 -2 47 11 120 69 119 94 276
205 353 249 158 89 180 111 147 144 -17 16 -38 19 -65 9z"/>
<path d="M3454 4671 c-90 -43 -236 -134 -328 -205 -44 -34 -124 -91 -176 -126
-106 -70 -150 -107 -150 -127 0 -21 14 -16 83 32 37 25 71 45 76 45 6 0 25 13
43 29 45 38 84 62 283 171 241 131 281 163 254 196 -15 18 -15 18 -85 -15z"/>
<path d="M2884 4651 c-40 -18 -164 -125 -164 -142 0 -36 204 72 230 121 17 32
-17 42 -66 21z"/>
<path d="M5708 4585 c-43 -23 -108 -65 -145 -92 -37 -27 -81 -55 -97 -62 -40
-17 -178 -126 -248 -196 -55 -55 -72 -85 -47 -85 17 0 194 119 286 192 45 36
129 94 185 127 130 78 184 122 175 144 -9 24 -22 20 -109 -28z"/>
<path d="M3662 4460 c-24 -11 -62 -35 -85 -55 -22 -19 -51 -35 -63 -35 -12 0
-50 -21 -84 -47 -114 -87 -154 -113 -255 -170 -168 -93 -205 -120 -205 -148 0
-43 38 -30 185 61 76 47 150 90 164 96 14 5 40 22 56 37 17 15 62 45 100 66
39 21 103 60 144 87 40 26 80 48 87 48 8 0 23 9 34 20 16 16 18 25 10 40 -13
25 -33 25 -88 0z"/>
<path d="M5973 4430 c-23 -10 -46 -43 -36 -54 3 -3 21 -6 38 -6 39 0 64 24 49
48 -13 20 -24 23 -51 12z"/>
<path d="M3881 4259 c-13 -5 -99 -61 -190 -125 -247 -171 -473 -320 -528 -348
-57 -28 -76 -48 -71 -73 9 -48 65 -23 334 149 99 63 223 140 276 171 110 64
214 147 230 183 8 17 8 27 -2 39 -14 17 -16 17 -49 4z"/>
<path d="M6121 4204 c-25 -31 -26 -38 -7 -53 16 -13 71 -4 87 15 6 7 9 23 7
36 -5 36 -59 37 -87 2z"/>
<path d="M5649 4185 c-20 -7 -65 -31 -101 -54 -35 -22 -81 -47 -101 -56 -31
-13 -37 -20 -37 -44 0 -62 52 -43 208 75 61 47 112 87 112 90 0 8 -46 2 -81
-11z"/>
<path d="M5951 4087 c-24 -12 -71 -48 -105 -79 l-61 -57 31 -1 c34 0 132 55
182 103 58 56 33 75 -47 34z"/>
<path d="M6244 3972 c-60 -40 -164 -142 -164 -162 0 -20 28 -22 62 -4 52 27
171 111 202 143 64 67 -7 83 -100 23z"/>
<path d="M3870 3886 c-112 -63 -303 -180 -345 -211 -16 -13 -71 -43 -121 -68
-96 -48 -120 -68 -110 -92 15 -39 65 -14 391 192 278 177 278 176 289 195 7
12 7 21 0 28 -6 6 -40 -8 -104 -44z"/>
<path d="M5624 3864 c-49 -24 -130 -112 -117 -125 30 -30 136 28 169 92 24 48
4 61 -52 33z"/>
<path d="M4164 3807 c-11 -7 -37 -30 -57 -53 -20 -22 -60 -53 -89 -69 -85 -46
-147 -88 -238 -160 -47 -37 -98 -72 -113 -77 -29 -10 -62 -61 -52 -78 3 -6 15
-10 27 -10 26 0 201 115 373 245 72 53 149 106 172 116 51 22 81 62 63 84 -15
18 -57 19 -86 2z"/>
<path d="M6469 3747 c-24 -12 -92 -59 -152 -105 -59 -45 -153 -112 -210 -148
-99 -64 -157 -110 -157 -125 0 -30 93 -8 161 38 24 16 70 44 101 61 32 17 81
49 109 71 29 22 83 56 122 77 103 57 145 118 98 144 -25 13 -20 14 -72 -13z"/>
<path d="M5855 3705 c-29 -29 -31 -68 -2 -73 22 -4 79 53 75 75 -5 29 -44 27
-73 -2z"/>
<path d="M4320 3595 c-24 -15 -91 -63 -150 -109 -58 -45 -152 -115 -208 -155
-57 -40 -126 -93 -153 -117 -27 -24 -67 -53 -89 -64 -47 -24 -54 -34 -34 -50
12 -11 20 -10 42 8 15 12 52 36 82 53 95 55 181 111 305 200 66 47 152 104
190 126 90 53 117 78 113 106 -4 32 -44 32 -98 2z"/>
<path d="M5677 3565 c-42 -29 -74 -80 -56 -91 18 -11 87 17 125 50 66 58 8 93
-69 41z"/>
<path d="M4419 3341 c-102 -76 -128 -104 -110 -116 20 -12 166 55 220 101 38
32 53 57 45 78 -12 31 -50 15 -155 -63z"/>
<path d="M4157 3114 c-20 -13 -37 -29 -37 -35 0 -12 52 14 70 36 22 26 6 26
-33 -1z"/>
<path d="M4527 3075 c-18 -19 -51 -41 -74 -49 -75 -26 -223 -131 -223 -158 0
-4 8 -8 18 -8 67 0 352 195 352 241 0 21 -44 6 -73 -26z"/>
<path d="M3990 3019 c-71 -32 -140 -109 -97 -109 20 0 110 56 136 84 35 38 16
50 -39 25z"/>
<path d="M4710 2918 c-37 -26 -58 -54 -47 -64 12 -12 82 14 106 40 43 45 -1
63 -59 24z"/>
<path d="M4336 2636 c-28 -16 -34 -25 -23 -29 18 -7 79 23 85 41 6 19 -19 14
-62 -12z"/>
<path d="M4479 2438 c-66 -34 -77 -51 -36 -56 25 -3 106 51 115 76 6 19 -9 15
-79 -20z"/>
<path d="M9040 6654 c-261 -56 -719 -243 -818 -334 -70 -64 -11 -99 68 -41
106 77 613 261 775 282 77 10 118 33 123 69 7 42 -34 49 -148 24z"/>
<path d="M9465 6488 c-16 -6 -52 -26 -80 -43 -62 -39 -152 -76 -276 -111 -115
-33 -174 -58 -217 -91 -21 -16 -64 -31 -120 -43 -88 -18 -205 -62 -271 -102
-43 -25 -81 -58 -81 -70 0 -42 324 64 391 128 18 17 60 34 140 55 150 39 358
112 407 143 22 14 65 36 97 49 66 28 128 74 120 88 -8 12 -72 10 -110 -3z"/>
<path d="M9445 6115 c-123 -52 -500 -189 -590 -214 -106 -30 -170 -62 -170
-87 0 -16 7 -19 50 -18 37 1 85 16 181 58 72 31 139 56 148 56 9 0 99 33 199
74 100 40 214 83 252 94 119 36 148 72 57 72 -31 -1 -75 -13 -127 -35z"/>
<path d="M7440 6111 c-25 -11 -94 -49 -154 -85 -60 -36 -117 -66 -127 -66 -46
0 -338 -181 -408 -253 -34 -36 -35 -57 -2 -57 11 0 59 26 107 58 192 125 403
244 539 302 80 35 160 94 149 111 -8 14 -55 9 -104 -10z"/>
<path d="M9870 5996 c-36 -13 -119 -47 -185 -75 -65 -29 -198 -78 -295 -110
-326 -109 -520 -200 -520 -244 0 -21 118 1 220 41 276 109 481 186 545 203 86
24 283 120 315 154 19 20 21 27 10 40 -16 19 -12 19 -90 -9z"/>
<path d="M7634 5926 c-134 -55 -520 -273 -661 -373 -34 -24 -74 -59 -89 -78
-15 -19 -44 -45 -66 -57 -94 -53 -194 -283 -123 -283 15 0 31 20 61 78 22 42
56 96 75 120 19 23 38 50 42 59 3 10 34 32 69 49 35 17 124 70 198 117 165
104 260 161 410 242 133 72 210 126 210 146 0 22 -38 16 -126 -20z"/>
<path d="M6446 5808 c-56 -86 -139 -319 -120 -338 19 -19 41 0 75 63 101 186
129 288 82 295 -14 2 -27 -5 -37 -20z"/>
<path d="M8175 5810 c-13 -21 119 -196 279 -370 48 -52 101 -115 118 -140 45
-66 137 -159 180 -181 36 -18 68 -25 68 -14 0 24 -112 165 -227 287 -56 60
-146 164 -199 231 -54 67 -113 139 -133 160 -34 36 -73 48 -86 27z"/>
<path d="M7820 5737 c-30 -13 -149 -79 -265 -147 -329 -193 -455 -282 -455
-321 0 -27 8 -24 80 22 35 22 75 45 88 50 14 5 41 22 61 38 45 36 246 148 411
231 69 34 135 71 148 83 26 24 29 52 6 61 -19 7 -9 10 -74 -17z"/>
<path d="M10070 5713 c-8 -3 -60 -25 -115 -48 -55 -24 -154 -62 -220 -86 -132
-48 -443 -197 -465 -224 -14 -16 -11 -17 30 -10 46 7 194 56 285 93 28 11 79
32 115 45 151 59 384 158 415 177 33 20 49 43 38 54 -8 7 -62 7 -83 -1z"/>
<path d="M7914 5481 c-190 -92 -755 -431 -817 -490 -61 -57 -141 -178 -163
-244 -16 -48 -16 -50 5 -70 29 -29 46 -16 75 54 30 74 108 189 162 239 24 22
69 52 101 65 31 14 116 65 188 114 176 119 237 156 427 256 168 89 205 115
194 134 -11 18 -24 14 -172 -58z"/>
<path d="M6452 5500 c-65 -64 -105 -208 -68 -239 15 -12 21 -10 47 15 39 38
99 158 99 200 0 23 -6 37 -19 44 -26 14 -25 14 -59 -20z"/>
<path d="M10295 5507 c-17 -7 -56 -27 -87 -45 -31 -18 -90 -41 -131 -51 -136
-35 -407 -156 -407 -182 0 -30 130 5 345 91 66 27 172 63 235 80 117 32 157
50 167 76 15 39 -55 57 -122 31z"/>
<path d="M6530 5308 c-23 -39 -33 -81 -28 -129 4 -49 27 -43 57 15 49 94 23
198 -29 114z"/>
<path d="M10465 5324 c-38 -8 -115 -31 -170 -50 -55 -19 -206 -71 -335 -115
-240 -82 -440 -168 -440 -190 0 -27 117 3 410 106 168 58 379 126 469 151 175
48 221 66 221 88 0 29 -47 32 -155 10z"/>
<path d="M8093 5266 c-215 -106 -458 -252 -485 -290 -24 -36 42 -34 84 2 18
16 54 36 79 45 25 10 86 43 135 73 49 31 127 77 174 102 145 77 182 107 151
126 -5 3 -67 -23 -138 -58z"/>
<path d="M6871 5254 c-12 -15 -21 -32 -21 -39 0 -7 -22 -29 -50 -49 -32 -23
-52 -45 -55 -63 -4 -16 -18 -53 -32 -84 -59 -130 -1 -174 62 -48 14 27 55 96
90 154 67 108 81 155 46 155 -11 0 -29 -12 -40 -26z"/>
<path d="M9522 5188 c-69 -23 -121 -63 -104 -80 20 -20 222 64 222 92 0 16
-50 11 -118 -12z"/>
<path d="M6965 5109 c-43 -69 -135 -276 -135 -301 0 -49 51 -12 71 51 14 46
75 158 103 192 49 58 58 119 17 119 -13 0 -31 -20 -56 -61z"/>
<path d="M8363 5100 c-75 -27 -279 -128 -413 -205 -63 -37 -158 -89 -211 -116
-164 -84 -308 -226 -382 -376 -19 -39 -45 -84 -57 -101 -27 -36 -24 -76 7 -80
16 -2 35 15 84 79 76 100 97 122 109 114 18 -11 10 -37 -21 -72 -41 -47 -114
-196 -106 -217 16 -40 65 -3 137 104 80 119 113 210 76 210 -24 0 -38 27 -31
60 4 16 30 56 58 87 60 65 272 228 325 249 69 28 437 216 470 241 33 25 42 44
20 42 -7 0 -36 -9 -65 -19z"/>
<path d="M7183 4867 c-21 -20 -53 -61 -72 -94 -19 -32 -49 -79 -67 -105 -18
-25 -35 -61 -39 -80 -13 -79 44 -76 93 4 18 29 62 100 98 158 35 58 63 114 62
125 -5 32 -34 29 -75 -8z"/>
<path d="M7434 4859 c-16 -17 -54 -48 -84 -68 -113 -76 -243 -287 -217 -355
14 -36 97 29 129 102 22 49 30 52 46 17 16 -34 52 -32 92 5 40 38 39 73 -5 80
-37 6 -42 28 -20 86 11 29 34 59 66 86 46 39 64 78 36 78 -7 0 -26 -14 -43
-31z"/>
<path d="M8380 4823 c-52 -17 -318 -155 -380 -196 -108 -72 -229 -167 -241
-189 -17 -31 17 -33 59 -4 120 85 199 132 385 231 115 61 223 122 240 137 l32
27 -40 0 c-22 0 -47 -3 -55 -6z"/>
<path d="M8543 4600 c-71 -25 -217 -94 -280 -133 -50 -30 -69 -57 -39 -57 23
0 271 88 339 120 137 64 121 120 -20 70z"/>
<path d="M7648 4309 c-96 -101 -200 -339 -149 -339 16 0 130 155 167 226 38
73 52 130 35 147 -8 8 -22 -1 -53 -34z"/>
<path d="M7768 4179 c-24 -14 -100 -122 -136 -195 -17 -34 -38 -64 -47 -67
-21 -9 -20 -63 2 -71 29 -11 113 87 165 194 69 139 72 172 16 139z"/>
<path d="M7786 3949 c-58 -50 -132 -219 -97 -219 23 0 138 167 156 228 9 32
-17 29 -59 -9z"/>
<path d="M830 5253 c0 -26 150 -203 171 -203 23 0 5 53 -35 102 -53 66 -136
127 -136 101z"/>
<path d="M9723 11548 c-64 -46 -70 -107 -7 -75 29 15 74 68 74 87 0 17 -34 11
-67 -12z"/>
<path d="M11903 11183 c-25 -10 -12 -65 38 -164 57 -114 103 -246 120 -347 14
-79 20 -88 48 -73 36 20 43 45 31 111 -24 131 -125 378 -184 448 -28 33 -32
34 -53 25z"/>
<path d="M11559 11154 c-18 -22 2 -92 51 -174 22 -36 42 -81 46 -100 3 -19 17
-57 30 -84 13 -28 24 -58 24 -68 0 -10 5 -18 10 -18 31 0 -11 225 -64 343 -28
63 -63 117 -75 117 -5 0 -14 -7 -22 -16z"/>
<path d="M9650 11136 c-122 -33 -309 -110 -350 -144 -19 -16 -45 -32 -58 -36
-19 -6 -33 -36 -16 -36 4 0 46 18 95 40 97 43 226 82 413 124 120 27 156 40
156 55 0 29 -129 27 -240 -3z"/>
<path d="M10950 11042 c0 -4 65 -76 144 -159 147 -154 199 -220 218 -273 11
-34 20 -37 38 -15 7 8 28 15 46 15 48 0 44 22 -14 78 -26 26 -73 84 -105 129
-42 60 -77 97 -133 139 -101 74 -194 116 -194 86z"/>
</g>
</svg>
