<?xml version="1.0" standalone="no"?>
<!DOCTYPE svg PUBLIC "-//W3C//DTD SVG 20010904//EN"
 "http://www.w3.org/TR/2001/REC-SVG-20010904/DTD/svg10.dtd">
<svg version="1.0" xmlns="http://www.w3.org/2000/svg"
 width="1280.000000pt" height="1168.000000pt" viewBox="0 0 1280.000000 1168.000000"
 preserveAspectRatio="xMidYMid meet">
<metadata>
Created by potrace 1.15, written by Peter Selinger 2001-2017
</metadata>
<g transform="translate(0.000000,1168.000000) scale(0.100000,-0.100000)"
fill="#000000" stroke="none">
<path d="M3193 11655 c-61 -31 -122 -94 -156 -162 -24 -47 -66 -170 -106 -308
-24 -82 -45 -115 -72 -115 -10 0 -19 -4 -19 -10 0 -28 145 12 215 60 99 68
155 173 124 229 -8 14 -27 30 -42 35 -23 9 -31 6 -54 -16 l-26 -26 34 1 c32 2
34 0 37 -35 4 -46 -18 -90 -72 -146 -60 -64 -160 -112 -122 -59 32 44 66 117
120 256 65 167 93 217 147 266 32 28 47 36 72 33 27 -3 32 -7 32 -30 0 -51 46
-65 58 -18 4 15 -2 30 -18 46 -32 32 -86 31 -152 -1z"/>
<path d="M9185 11581 c-73 -33 -127 -106 -185 -251 -29 -72 -60 -134 -69 -139
-9 -5 -13 -12 -10 -15 15 -15 78 46 119 115 39 66 50 77 83 86 119 33 64 -151
-65 -218 -75 -38 -148 -18 -164 46 -17 67 40 165 87 150 16 -5 20 -3 17 6 -6
17 -50 13 -90 -7 -84 -43 -89 -177 -8 -219 93 -48 254 27 319 150 24 46 27 93
7 120 -18 25 -70 24 -106 -4 -34 -25 -36 -22 -14 22 53 105 135 175 189 161
27 -7 30 -15 15 -44 -7 -14 -6 -23 6 -35 15 -15 18 -15 35 1 25 22 24 49 -1
74 -26 26 -109 27 -165 1z"/>
<path d="M3525 11559 c-62 -55 -115 -167 -94 -200 13 -21 31 3 35 46 5 55 74
165 104 165 20 0 9 -37 -30 -104 -42 -71 -50 -106 -25 -106 18 0 27 11 73 87
20 34 48 75 62 90 22 25 25 26 28 9 2 -10 -10 -38 -27 -62 -36 -50 -63 -109
-54 -118 19 -19 44 -2 74 52 68 122 71 129 59 151 -14 28 -41 26 -73 -3 l-25
-24 -6 24 c-9 36 -56 32 -101 -7z"/>
<path d="M8859 11560 l-30 -29 -9 24 c-13 34 -46 32 -80 -5 -27 -29 -29 -29
-35 -10 -11 36 -51 25 -82 -22 -23 -34 -29 -38 -32 -22 -12 69 -96 52 -137
-29 l-16 -31 -14 32 c-10 26 -19 32 -43 32 -44 0 -79 -36 -106 -112 -14 -38
-21 -68 -17 -68 4 0 16 25 27 55 20 61 44 89 72 83 37 -7 28 -48 -21 -95 -61
-58 -76 -123 -28 -123 43 0 79 47 128 168 35 85 104 127 104 62 0 -38 -35
-139 -54 -159 -13 -12 -17 -11 -27 13 -14 29 -29 19 -29 -21 0 -18 6 -23 24
-23 40 0 86 49 127 134 75 154 99 156 50 5 -18 -55 -31 -102 -28 -105 2 -2 16
0 31 5 14 6 32 8 39 5 28 -10 90 51 137 136 34 61 55 88 74 95 26 9 45 -3 46
-28 0 -10 -43 -50 -89 -85 -56 -42 -51 -113 7 -91 77 29 152 163 122 218 -17
33 -74 28 -111 -9z m-77 -45 c-5 -31 -63 -154 -79 -167 -10 -8 -17 -8 -25 0
-25 25 56 197 90 190 11 -2 16 -11 14 -23z m104 -97 c-27 -45 -46 -60 -46 -35
0 18 47 77 61 77 6 0 -1 -19 -15 -42z m-531 -107 c-17 -53 -35 -67 -35 -28 0
24 38 93 47 84 3 -3 -3 -28 -12 -56z"/>
<path d="M3797 11559 c-47 -25 -88 -86 -94 -143 -5 -38 -2 -46 16 -56 17 -8
30 -8 57 0 32 11 54 31 165 151 62 66 84 43 26 -27 -52 -61 -67 -87 -67 -112
0 -29 21 -37 60 -24 24 9 30 8 30 -4 0 -23 48 -17 61 9 18 34 98 126 121 138
11 6 26 8 35 5 12 -5 9 -16 -17 -61 -18 -31 -32 -71 -33 -93 -2 -36 -9 -46
-84 -110 -94 -81 -115 -94 -146 -90 -16 2 -22 -2 -22 -17 0 -14 8 -21 27 -23
22 -3 42 11 110 76 103 97 122 110 154 104 30 -6 30 -6 -25 -82 -42 -57 -46
-60 -86 -60 -48 0 -77 -22 -57 -42 9 -9 23 -9 51 -2 34 9 44 8 71 -9 68 -43
133 -40 208 11 58 38 92 88 92 132 0 45 -15 60 -60 60 -27 0 -43 -7 -63 -28
-30 -31 -37 -54 -9 -30 46 40 92 27 92 -25 0 -87 -113 -135 -217 -92 l-37 16
35 23 c20 14 67 62 107 108 103 122 163 175 206 183 60 12 95 -17 62 -50 -12
-13 -13 -21 -6 -36 13 -24 25 -24 50 1 35 35 20 70 -40 94 -91 36 -168 10
-267 -91 -39 -40 -75 -69 -78 -63 -3 5 -15 10 -26 10 -26 0 -24 10 14 60 53
71 67 94 67 116 0 29 -19 44 -56 44 -18 0 -36 5 -39 10 -16 26 -48 6 -109 -68
-96 -116 -169 -147 -84 -35 25 32 50 68 56 80 29 54 -28 71 -92 28 -24 -16
-36 -20 -36 -11 0 20 -34 46 -61 46 -13 -1 -41 -10 -62 -21z m78 -9 c13 -21
-97 -180 -125 -180 -33 0 6 104 59 158 33 32 55 40 66 22z"/>
<path d="M9595 11568 c-80 -44 -169 -180 -138 -211 11 -11 33 14 33 37 0 42
86 156 117 156 23 0 14 -25 -27 -81 -54 -74 -66 -97 -53 -110 15 -15 41 0 65
39 26 43 107 132 119 132 18 0 8 -28 -24 -66 -71 -83 -86 -124 -48 -124 13 0
33 19 56 54 20 30 43 60 51 67 22 18 36 58 29 80 -8 25 -46 24 -79 -2 -25 -19
-26 -20 -26 -2 0 39 -35 53 -75 31z"/>
<path d="M2905 11540 c-12 -4 -27 -15 -34 -24 -11 -14 -15 -14 -28 -1 -21 22
-39 19 -75 -14 -33 -29 -33 -31 -38 -135 -5 -104 -1 -117 26 -98 6 4 26 41 44
82 18 41 44 93 59 115 28 41 64 57 74 31 10 -27 -5 -55 -44 -80 -50 -34 -73
-69 -65 -101 20 -79 139 37 161 157 6 29 3 40 -14 57 -22 22 -34 24 -66 11z
m-97 -139 c-17 -36 -33 -68 -35 -71 -11 -10 5 137 17 160 l12 23 18 -23 c17
-22 16 -25 -12 -89z m112 4 c0 -12 -40 -84 -50 -90 -17 -11 -11 28 10 63 17
28 40 43 40 27z"/>
<path d="M9857 11530 c-46 -14 -93 -56 -117 -105 -65 -134 68 -134 199 -1 51
53 86 75 98 62 3 -3 -22 -35 -56 -72 -67 -74 -78 -109 -37 -120 13 -3 33 -1
44 5 27 15 30 14 28 -6 -3 -40 35 -23 95 42 69 73 115 103 132 86 7 -7 2 -21
-17 -46 -35 -45 -58 -102 -52 -123 4 -12 -9 -27 -42 -49 -26 -18 -71 -49 -101
-69 -36 -25 -66 -38 -90 -39 -29 -1 -36 -5 -36 -20 0 -27 36 -31 72 -8 15 10
64 46 108 80 77 61 105 72 134 54 11 -7 4 -21 -34 -65 -44 -52 -51 -56 -90
-56 -57 0 -75 -8 -75 -32 0 -19 4 -20 51 -15 45 6 55 3 86 -20 51 -39 118 -43
186 -9 62 30 90 57 110 106 35 85 -53 128 -125 63 -27 -24 -21 -34 10 -17 51
26 82 12 82 -39 0 -20 -11 -40 -34 -63 -31 -31 -40 -34 -90 -34 -38 0 -71 7
-98 21 l-42 21 34 19 c19 10 85 66 145 124 61 59 127 116 147 126 47 24 90 24
112 1 15 -18 15 -20 -4 -37 -15 -13 -17 -22 -9 -36 13 -26 35 -24 55 6 22 33
10 61 -36 85 -85 43 -187 16 -291 -79 -53 -47 -58 -50 -83 -38 -14 7 -26 15
-26 19 0 4 25 35 55 69 65 72 73 113 28 130 -14 5 -32 8 -39 5 -7 -3 -14 -1
-16 3 -2 5 -13 12 -26 15 -19 6 -35 -5 -100 -67 -76 -73 -118 -104 -129 -93
-3 3 16 31 43 61 64 73 79 98 71 118 -9 23 -55 21 -95 -3 -39 -24 -43 -24 -36
-6 7 18 -30 56 -53 55 -10 0 -31 -5 -46 -9z m63 -29 c0 -17 -65 -104 -98 -131
-40 -33 -62 -38 -62 -14 0 35 78 140 114 154 22 8 46 3 46 -9z"/>
<path d="M2645 11474 c-14 -15 -25 -32 -25 -38 0 -6 -7 0 -16 12 -20 29 -50
28 -70 -3 -14 -22 -18 -23 -31 -10 -17 18 -16 18 -48 3 -51 -23 -65 -90 -47
-221 6 -44 8 -47 25 -35 10 8 29 46 43 86 30 90 63 162 75 162 13 0 11 -20
-11 -116 -11 -48 -17 -91 -12 -96 13 -13 52 21 52 47 0 63 66 213 85 194 3 -4
-6 -51 -20 -104 -15 -54 -23 -101 -18 -105 15 -14 53 8 53 32 0 12 9 55 21 96
16 58 18 80 10 98 -14 31 -36 30 -66 -2z m-155 -68 c9 -12 7 -30 -12 -87 -21
-66 -24 -70 -29 -43 -10 46 -10 90 1 118 11 29 22 33 40 12z"/>
<path d="M8089 11410 c-82 -43 -129 -128 -145 -262 -5 -47 -10 -58 -25 -58
-10 0 -21 -5 -24 -10 -16 -25 -25 8 -25 90 0 67 -4 92 -16 104 -20 21 -44 20
-74 -1 -13 -9 -32 -18 -43 -18 -33 -3 -44 -29 -55 -135 -11 -115 -25 -165 -43
-154 -8 5 -10 31 -5 84 7 88 -3 130 -33 130 -24 0 -60 -44 -68 -82 -5 -27 -23
-50 -23 -29 0 5 -9 12 -20 16 -60 19 -128 -85 -116 -179 10 -91 64 -131 109
-82 31 33 49 94 53 183 8 143 44 172 44 35 0 -105 13 -133 53 -115 14 7 28 21
32 33 4 14 12 19 23 16 35 -11 46 10 49 90 4 91 17 146 39 165 22 18 34 -4 34
-68 0 -40 5 -58 25 -82 l26 -30 -26 -103 c-32 -128 -43 -155 -68 -173 -23 -16
-16 -48 10 -43 25 5 42 45 64 156 28 141 34 156 71 170 l31 11 -6 -82 c-6 -79
-8 -83 -42 -110 -22 -19 -35 -38 -35 -53 0 -34 24 -30 61 11 18 19 42 35 53
35 113 0 206 104 206 230 0 71 -19 100 -65 100 -42 0 -85 -47 -85 -92 l0 -31
23 34 c29 43 68 50 91 17 31 -43 15 -107 -38 -157 -23 -21 -126 -65 -134 -56
-2 2 3 23 11 47 8 23 20 93 27 153 19 181 36 234 86 274 15 12 38 21 51 21 20
0 23 -4 21 -26 -2 -16 4 -31 14 -37 34 -22 66 41 36 71 -18 18 -88 14 -129 -8z
m-604 -433 c8 -75 -5 -141 -27 -145 -37 -7 -55 172 -21 210 25 27 41 6 48 -65z"/>
<path d="M4720 11379 c-40 -17 -120 -70 -120 -81 0 -5 13 0 30 12 44 31 116
61 133 54 22 -8 28 -29 13 -49 -8 -12 -35 -21 -76 -27 -76 -10 -110 -29 -110
-63 0 -49 84 -44 176 11 79 47 137 66 169 54 14 -5 25 -14 25 -20 0 -16 -49
-59 -105 -91 -65 -38 -79 -38 -71 1 6 33 0 36 -26 16 -45 -34 4 -73 75 -62 21
4 73 24 115 45 155 79 178 62 41 -30 -91 -61 -101 -78 -43 -79 12 0 24 -6 27
-14 3 -8 23 -17 44 -20 41 -7 84 4 192 49 67 28 107 28 118 -2 4 -10 -2 -23
-15 -33 -17 -14 -35 -16 -89 -13 -58 5 -72 2 -93 -15 -20 -17 -23 -24 -14 -38
14 -24 60 -36 109 -29 54 8 136 54 155 87 14 26 14 29 -12 55 -23 22 -36 27
-78 26 -47 -1 -49 1 -44 21 8 34 -18 49 -76 44 -45 -5 -48 -3 -40 13 7 13 6
22 -6 33 -19 20 -31 20 -81 2 l-40 -14 1 36 c2 62 -55 76 -155 37 -12 -4 -14
1 -11 28 2 21 -2 38 -11 46 -21 17 -77 23 -107 10z m10 -113 c0 -6 -79 -56
-90 -56 -21 0 -9 21 23 40 28 17 67 27 67 16z m468 -113 c-4 -20 -90 -74 -148
-93 -31 -10 -43 -11 -52 -2 -17 17 13 46 85 82 69 34 120 40 115 13z m62 -138
c0 -6 -87 -45 -101 -45 -19 0 -8 20 19 34 26 15 82 22 82 11z"/>
<path d="M2145 11327 c-46 -26 -99 -106 -109 -164 -3 -21 -6 -62 -6 -90 0 -44
-3 -53 -18 -53 -10 0 -23 -5 -29 -11 -18 -18 -26 8 -27 91 -1 62 -5 82 -20 99
-23 26 -34 26 -66 4 -14 -10 -31 -18 -38 -19 -31 -5 -39 -26 -45 -121 -11
-172 -47 -220 -47 -63 0 99 -14 129 -51 110 -23 -13 -49 -61 -49 -91 0 -21 -1
-21 -18 -6 -28 25 -57 21 -86 -13 -44 -53 -48 -165 -9 -219 58 -77 122 7 123
161 0 79 12 128 30 128 6 0 10 -34 10 -86 0 -47 5 -94 10 -105 16 -29 48 -23
69 12 11 18 22 26 26 20 4 -8 12 -8 26 -1 17 9 19 22 19 106 0 68 5 104 16
126 16 30 17 31 30 13 8 -10 14 -34 14 -52 0 -39 20 -93 42 -111 13 -11 14
-19 2 -65 -7 -28 -20 -83 -28 -122 -10 -45 -23 -76 -37 -87 -22 -19 -20 -48 4
-48 31 0 40 25 68 207 11 77 22 97 57 108 21 6 22 5 22 -72 0 -77 0 -78 -35
-106 -35 -28 -45 -60 -23 -73 7 -5 24 7 43 29 23 27 40 37 61 37 17 0 50 10
74 23 63 31 100 104 100 194 0 55 -4 67 -25 88 -32 32 -50 31 -86 -4 -22 -23
-29 -38 -29 -68 l1 -38 14 32 c24 55 81 65 99 17 11 -28 6 -84 -9 -114 -16
-31 -80 -73 -127 -84 -32 -7 -32 -7 -18 30 6 14 15 92 20 172 12 168 21 210
57 252 31 38 80 40 75 4 -3 -25 22 -49 43 -40 18 7 20 57 3 74 -19 19 -79 14
-123 -11z m-556 -345 c15 -27 23 -133 13 -167 -20 -69 -60 -8 -61 93 -1 77 25
117 48 74z"/>
<path d="M10761 11224 c-17 -14 -43 -46 -57 -69 -14 -24 -31 -49 -39 -55 -19
-16 -19 -26 2 -34 10 -4 38 6 72 27 87 54 161 88 179 85 16 -3 9 -10 -127
-115 l-34 -26 24 -13 c21 -11 27 -10 44 5 37 33 131 91 163 100 54 16 45 -6
-20 -50 -69 -46 -108 -78 -108 -90 0 -20 42 -19 68 1 15 12 51 38 81 58 62 42
77 62 67 87 -5 14 -15 17 -56 13 -48 -5 -49 -4 -44 18 7 27 -24 47 -58 39 -17
-4 -25 0 -33 17 -16 36 -82 37 -124 2z m99 -18 c0 -18 -14 -32 -61 -60 -33
-20 -63 -36 -65 -36 -3 0 10 21 28 46 52 73 98 97 98 50z"/>
<path d="M11095 11086 c-17 -7 -57 -44 -90 -80 -47 -54 -56 -69 -44 -77 20
-13 28 -11 63 10 57 35 163 72 197 69 37 -3 45 -16 26 -42 -12 -16 -26 -19
-82 -17 -78 2 -118 -16 -113 -51 4 -27 47 -40 100 -31 56 8 141 62 153 97 8
25 6 31 -19 53 -21 17 -38 24 -58 21 -21 -4 -28 -1 -28 13 0 36 -58 56 -105
35z m75 -39 c0 -18 -13 -29 -67 -55 -36 -18 -68 -31 -70 -29 -2 2 19 27 46 55
54 56 91 68 91 29z m20 -123 c0 -8 -91 -46 -97 -41 -8 9 7 28 31 37 24 10 66
13 66 4z"/>
<path d="M7287 10962 c-9 -10 -20 -33 -23 -50 -5 -26 -9 -30 -20 -21 -23 19
-60 2 -75 -33 -21 -49 -17 -165 7 -213 10 -22 27 -41 37 -43 23 -5 22 22 -2
56 -39 54 -48 202 -12 202 12 0 27 -55 36 -132 7 -59 27 -90 46 -71 14 14 14
33 0 136 -12 91 -8 131 12 124 7 -2 15 -37 19 -80 7 -75 20 -117 37 -117 19 0
33 31 26 57 -3 15 -10 61 -15 102 -6 53 -13 79 -26 88 -23 17 -28 16 -47 -5z"/>
<path d="M5420 10922 c-30 -10 -106 -47 -167 -81 -68 -39 -119 -61 -129 -57
-10 4 -14 1 -12 -6 12 -35 110 -17 238 44 112 53 163 68 231 68 86 0 142 -52
84 -78 -28 -13 -32 -34 -10 -52 12 -10 21 -10 40 -2 38 18 34 69 -7 110 -66
63 -174 85 -268 54z"/>
<path d="M11394 10930 c-54 -11 -157 -63 -271 -138 -128 -85 -150 -95 -190
-89 -18 3 -33 2 -33 -3 0 -15 118 -68 178 -81 144 -30 290 38 268 125 -8 33
-45 51 -83 41 -28 -8 -28 -8 -4 -14 13 -4 29 -14 35 -24 9 -15 5 -23 -21 -47
-64 -57 -206 -75 -281 -36 l-26 14 45 7 c24 4 116 45 204 90 228 118 320 145
389 113 32 -14 44 -48 22 -60 -9 -5 -16 -20 -16 -33 0 -19 5 -25 23 -25 31 0
47 18 47 51 0 39 -68 95 -132 108 -56 12 -95 12 -154 1z"/>
<path d="M1411 10917 c-6 -8 -14 -28 -17 -46 -5 -23 -10 -29 -17 -22 -19 19
-46 12 -64 -16 -38 -58 -6 -263 41 -263 22 0 20 25 -3 58 -24 33 -44 130 -35
166 14 56 38 21 54 -77 13 -85 19 -99 39 -95 17 4 17 5 5 171 -4 58 -3 87 4
87 13 0 19 -19 28 -95 8 -75 19 -105 39 -105 16 0 31 42 21 59 -4 5 -10 42
-15 81 -12 92 -48 135 -80 97z"/>
<path d="M5123 10915 c-39 -17 -73 -68 -73 -111 0 -45 38 -94 95 -123 39 -20
68 -27 134 -30 46 -2 102 2 123 8 50 15 108 66 108 95 0 32 -42 67 -88 73 -45
6 -65 -11 -24 -22 119 -30 15 -135 -135 -135 -62 0 -120 25 -153 67 -29 37
-20 78 24 120 46 42 81 51 119 29 30 -17 44 -16 32 3 -10 16 -73 41 -104 41
-14 -1 -41 -7 -58 -15z"/>
<path d="M6893 10741 c-48 -35 -79 -95 -94 -180 -18 -101 6 -190 114 -421 56
-122 62 -146 42 -176 -11 -18 -12 -24 -3 -24 16 0 70 79 97 141 33 75 47 177
31 233 -18 66 -44 96 -84 96 -45 0 -66 -19 -72 -65 l-5 -40 21 28 c26 33 40
34 68 5 48 -53 53 -180 11 -278 l-23 -53 -12 71 c-6 39 -35 135 -64 214 -89
244 -99 350 -40 410 31 31 50 36 50 13 0 -24 36 -38 54 -20 17 17 12 43 -12
63 -23 18 -34 15 -79 -17z"/>
<path d="M5808 10638 c-59 -7 -90 -19 -120 -46 -22 -19 -23 -28 -1 -36 9 -4
25 1 37 12 30 27 54 38 112 50 56 12 94 7 94 -14 0 -13 -66 -36 -142 -50 -47
-8 -64 -26 -42 -45 13 -11 29 -10 97 4 92 19 153 22 162 7 8 -13 -37 -30 -78
-30 -76 0 -137 -34 -109 -62 13 -13 186 18 220 39 34 21 28 51 -14 69 -20 8
-43 13 -50 10 -16 -6 -19 10 -4 19 14 9 13 28 -3 49 -17 24 -85 34 -159 24z"/>
<path d="M1067 10613 c-39 -42 -67 -111 -67 -169 0 -62 22 -129 84 -251 25
-51 46 -105 46 -120 0 -22 2 -25 10 -13 5 8 10 34 10 57 0 37 -11 73 -80 258
-29 80 -34 154 -13 195 23 44 55 51 71 15 15 -32 46 -30 50 3 8 56 -65 72
-111 25z"/>
<path d="M11659 10616 c-59 -16 -113 -48 -117 -69 -5 -25 22 -21 52 6 43 40
175 73 190 48 10 -15 -17 -30 -105 -59 -55 -18 -84 -32 -84 -42 0 -23 32 -24
109 -2 97 28 134 33 142 21 9 -16 3 -19 -82 -40 -80 -20 -112 -38 -100 -58 10
-15 47 -14 89 4 20 8 46 15 58 15 30 0 86 29 93 47 10 25 -23 53 -63 53 -27 0
-32 3 -23 12 21 21 13 47 -18 63 -34 18 -78 18 -141 1z"/>
<path d="M5963 10427 c-42 -15 -73 -43 -73 -62 0 -25 44 -62 86 -74 22 -6 81
-11 132 -11 95 0 148 -14 121 -31 -8 -5 -41 -9 -75 -9 -84 0 -124 -15 -124
-46 0 -18 9 -29 35 -41 24 -12 31 -19 23 -25 -10 -5 -10 -12 -2 -25 10 -16 25
-18 133 -14 106 3 120 1 115 -12 -3 -9 -27 -25 -52 -37 -54 -25 -92 -57 -92
-78 0 -9 -6 -12 -16 -8 -24 9 -89 23 -173 36 -55 9 -81 19 -99 37 -25 25 -52
25 -52 -1 0 -29 47 -47 161 -60 133 -16 162 -27 189 -73 l20 -34 -28 -10 c-15
-6 -51 -9 -80 -6 -50 3 -57 8 -94 50 -27 32 -47 47 -64 47 -37 0 -29 -24 20
-65 31 -25 51 -52 67 -93 49 -125 124 -257 175 -310 45 -46 56 -53 84 -50 54
5 72 40 77 150 7 144 -25 211 -84 178 -34 -19 -44 -45 -14 -37 13 3 30 -2 43
-13 19 -15 23 -30 26 -98 4 -86 -14 -142 -45 -142 -31 0 -100 87 -157 199 -32
62 -55 115 -53 118 3 2 19 -3 36 -11 91 -47 192 16 260 162 14 29 28 52 32 52
5 0 10 -42 12 -92 l4 -93 -1 102 c-1 56 -4 105 -9 109 -4 4 -33 -17 -65 -48
-54 -52 -100 -88 -112 -88 -10 0 -43 70 -36 77 4 4 30 19 59 33 52 25 97 76
97 110 0 9 -6 24 -13 34 -12 16 -31 19 -133 21 -115 2 -154 9 -154 25 0 11 27
16 105 19 42 1 79 8 93 17 21 14 22 17 9 37 -16 25 -48 43 -89 52 -25 5 -27 8
-16 25 43 69 -107 146 -209 107z m162 -39 c36 -16 31 -34 -12 -49 -50 -17
-168 -18 -184 -1 -18 17 -3 29 61 46 68 18 102 19 135 4z"/>
<path d="M11829 10430 c-35 -10 -76 -38 -83 -56 -9 -25 13 -54 52 -71 29 -12
59 -14 142 -9 84 6 109 4 124 -7 19 -14 19 -15 -10 -20 -16 -3 -55 -9 -86 -12
-71 -8 -106 -32 -90 -62 6 -11 23 -24 38 -27 20 -5 23 -10 15 -20 -8 -10 -6
-17 7 -29 14 -13 25 -14 57 -7 51 12 166 12 184 1 24 -15 4 -38 -39 -45 -52
-8 -96 -30 -109 -54 -9 -16 -18 -17 -93 -9 -154 15 -169 18 -189 38 -22 22
-49 19 -49 -4 0 -32 32 -41 167 -47 128 -6 136 -8 154 -31 23 -30 14 -36 -74
-45 -64 -6 -67 -6 -102 25 -40 35 -48 37 -64 17 -10 -11 -7 -19 10 -35 13 -11
30 -23 40 -26 10 -3 20 -21 24 -43 16 -90 79 -139 188 -148 65 -6 119 12 140
47 16 25 -1 67 -33 84 -33 17 -90 20 -90 5 0 -5 11 -10 23 -10 27 0 57 -28 57
-53 0 -25 -49 -57 -87 -57 -61 0 -119 46 -150 120 l-10 25 203 3 c222 3 257
-3 289 -52 20 -30 13 -61 -11 -52 -19 7 -44 -10 -44 -30 0 -7 9 -18 21 -24 16
-9 26 -8 46 5 22 15 25 22 20 56 -7 57 -50 107 -115 137 -48 21 -69 25 -148
24 -78 -1 -93 2 -98 16 -3 9 -9 22 -12 29 -6 14 12 20 100 32 100 14 130 48
82 96 -13 13 -21 26 -18 29 3 3 -3 15 -13 26 -16 18 -26 19 -140 13 -90 -4
-124 -3 -130 6 -4 7 -5 14 -3 16 2 2 41 9 88 14 58 8 90 17 103 29 17 18 17
19 0 41 -13 16 -33 25 -65 28 -45 5 -46 6 -33 27 42 64 -82 128 -186 96z m135
-30 c40 -15 31 -36 -21 -54 -51 -18 -158 -22 -168 -6 -9 15 43 43 104 56 31 7
57 13 58 13 1 1 13 -3 27 -9z"/>
<path d="M1121 10404 c-21 -26 -29 -94 -12 -94 5 0 11 13 14 29 7 35 33 46 62
27 52 -34 79 -157 51 -231 -24 -60 -70 -99 -110 -91 -73 15 -136 129 -91 166
17 14 20 30 5 30 -6 0 -19 -15 -31 -32 -27 -44 -22 -118 12 -155 49 -52 110
-62 166 -25 60 38 101 209 73 298 -31 98 -95 133 -139 78z"/>
<path d="M6685 10364 c-16 -18 -25 -39 -25 -60 0 -26 -3 -32 -15 -27 -29 10
-55 -26 -55 -76 0 -52 13 -75 84 -151 37 -39 51 -49 57 -38 13 20 11 37 -15
114 -43 126 -45 204 -7 204 38 0 45 -25 31 -100 -12 -62 -11 -72 4 -95 55 -84
103 69 55 175 -38 85 -71 100 -114 54z m104 -160 c13 -52 7 -69 -15 -40 -15
21 -20 101 -5 92 5 -3 14 -27 20 -52z m-123 32 c5 -4 43 -141 40 -143 -5 -5
-82 99 -90 120 -9 26 2 39 27 31 12 -3 23 -7 23 -8z"/>
<path d="M830 10340 c-15 -15 -20 -33 -20 -72 0 -40 -3 -49 -12 -40 -34 34
-75 -11 -63 -68 5 -25 4 -26 -24 -22 -23 3 -30 0 -36 -17 -3 -12 -4 -30 -1
-41 3 -11 9 -29 12 -40 5 -19 3 -19 -21 -8 -25 11 -30 10 -52 -16 -25 -29 -26
-43 -6 -123 5 -21 3 -21 -27 -10 -29 11 -34 10 -51 -12 -10 -13 -19 -38 -19
-56 0 -32 56 -155 71 -155 4 0 -6 26 -22 58 -32 64 -36 94 -14 112 27 23 55
-14 55 -72 0 -70 22 -118 54 -118 49 0 48 75 -3 181 -38 82 -47 128 -27 154
14 19 15 19 34 2 27 -24 82 -130 82 -156 0 -24 -4 -25 -31 -11 -26 14 -26 -10
-1 -34 18 -15 20 -15 35 2 27 29 22 103 -12 180 -65 151 -45 178 30 42 26 -46
51 -86 57 -88 6 -2 14 9 18 25 4 15 14 33 21 38 25 19 27 85 4 150 -37 102
-43 127 -37 150 8 30 31 38 51 18 14 -13 15 -29 10 -87 -6 -63 -4 -74 13 -96
17 -20 24 -23 38 -14 41 25 41 112 -1 194 -35 70 -69 86 -105 50z m90 -112 c0
-2 7 -24 15 -50 14 -47 5 -75 -14 -41 -16 31 -24 93 -12 93 6 0 11 -1 11 -2z
m-100 -103 c17 -36 34 -82 37 -101 5 -32 4 -36 -13 -32 -32 6 -106 161 -89
188 15 24 36 5 65 -55z m-170 -387 c11 -18 20 -42 20 -53 0 -19 0 -19 -20 0
-19 19 -39 85 -26 85 3 0 15 -15 26 -32z"/>
<path d="M6533 10153 c-16 -6 -17 -37 -2 -66 12 -21 11 -21 -8 -4 -26 23 -36
22 -28 -3 5 -16 3 -19 -11 -13 -15 6 -17 0 -11 -53 3 -32 12 -130 19 -217 10
-135 14 -154 25 -135 14 25 18 154 5 160 -8 3 -43 210 -36 217 8 9 25 -49 33
-114 7 -61 9 -64 10 -24 0 26 -4 70 -9 99 -6 29 -8 55 -6 57 9 9 37 -97 47
-179 7 -48 15 -88 19 -88 4 0 12 11 18 25 9 20 8 42 -8 108 -10 45 -26 102
-35 126 -31 90 9 54 45 -39 12 -30 27 -68 34 -84 l12 -29 17 26 c17 26 16 28
-28 119 -41 83 -67 120 -84 117 -3 0 -12 -3 -18 -6z"/>
<path d="M442 9678 c-71 -76 -52 -204 47 -323 22 -27 39 -54 36 -60 -3 -5 -8
-18 -11 -27 -4 -10 -10 -18 -14 -18 -5 0 -35 27 -68 60 -46 47 -65 60 -89 60
-25 0 -33 -5 -41 -29 -6 -16 -7 -32 -4 -36 4 -4 -1 -11 -11 -16 -29 -17 -19
-45 43 -116 114 -130 123 -190 12 -80 -70 69 -94 80 -111 48 -11 -20 2 -86 19
-96 19 -11 10 -25 -15 -25 -32 0 -50 -36 -41 -83 18 -94 138 -185 186 -142 39
35 14 105 -73 205 -37 41 -57 74 -57 90 0 22 7 17 69 -44 52 -52 74 -67 92
-64 21 3 24 8 22 46 -1 25 2 40 8 37 5 -4 13 3 17 15 7 18 -2 32 -49 82 -59
62 -95 121 -84 138 10 16 17 12 69 -30 38 -32 56 -40 87 -40 22 0 39 -5 39
-11 0 -6 26 -52 57 -101 44 -70 57 -99 58 -132 1 -34 5 -41 21 -41 13 0 20 8
22 26 2 19 -18 57 -72 138 -42 62 -76 118 -76 124 0 7 6 20 14 29 11 16 18 12
66 -37 50 -51 53 -57 54 -107 1 -46 4 -53 21 -53 17 0 20 7 20 45 0 34 8 57
33 94 41 64 43 120 6 194 -43 87 -119 130 -164 94 -30 -24 -31 -69 -1 -111 28
-39 35 -36 19 7 -16 42 -2 66 41 70 25 3 38 -3 60 -27 49 -52 49 -134 2 -205
l-19 -29 -20 39 c-11 22 -61 86 -111 144 -129 149 -155 210 -111 261 19 22 21
23 30 7 13 -22 56 -24 64 -3 7 19 -27 55 -52 55 -10 0 -28 -10 -40 -22z m-125
-762 c64 -66 78 -96 44 -96 -26 0 -117 73 -136 110 -20 39 -19 50 7 50 14 0
45 -24 85 -64z"/>
<path d="M12320 9671 c0 -4 27 -13 60 -19 69 -15 109 -44 89 -68 -17 -21 -63
-17 -85 7 -41 46 -110 63 -134 34 -18 -22 43 -80 100 -95 106 -27 151 -44 171
-66 26 -28 19 -54 -14 -54 -36 0 -140 21 -161 32 -19 11 -19 11 2 28 29 24 28
30 -8 30 -25 0 -30 -4 -30 -25 0 -43 73 -95 155 -111 22 -4 60 -15 84 -26 72
-31 38 -39 -77 -19 -56 10 -104 15 -107 13 -2 -3 2 -17 10 -31 7 -14 16 -38
19 -53 8 -35 63 -73 144 -98 79 -25 99 -35 113 -62 9 -18 8 -24 -6 -34 -23
-17 -42 -9 -95 41 -53 50 -79 60 -105 41 -61 -44 111 -157 210 -139 53 11 49
88 -6 120 -34 20 -35 24 -9 41 29 18 25 37 -16 70 -28 23 -32 31 -20 35 38 15
9 65 -49 87 l-29 11 24 12 c53 26 35 83 -38 119 l-49 24 29 17 c15 9 28 25 28
35 0 29 -36 69 -73 81 -48 16 -127 29 -127 22z m53 -91 c10 -10 2 -11 -36 -7
-27 2 -54 10 -60 17 -10 10 -2 11 36 7 27 -2 54 -10 60 -17z m160 -330 c69
-21 98 -43 80 -61 -8 -8 -36 -5 -93 10 -86 22 -110 34 -110 57 0 20 46 18 123
-6z m-13 -160 c22 -11 40 -25 40 -30 0 -13 -92 22 -98 38 -5 17 13 15 58 -8z"/>
<path d="M12264 9046 c-28 -28 -34 -41 -34 -77 1 -124 137 -259 261 -259 73 0
97 36 64 99 -13 27 -42 47 -52 37 -3 -2 3 -16 13 -31 18 -27 17 -28 -5 -46
-28 -23 -44 -24 -102 -4 -60 21 -117 69 -140 119 -26 57 -24 83 10 117 24 24
38 29 76 29 62 0 104 -23 112 -61 4 -21 9 -27 16 -20 16 16 -22 88 -58 111
-20 13 -50 20 -80 20 -40 0 -52 -5 -81 -34z"/>
<path d="M12280 8987 c0 -36 85 -84 221 -123 144 -41 218 -85 240 -143 16 -40
3 -60 -35 -54 -39 6 -55 -17 -30 -42 38 -38 88 0 86 65 -4 84 -76 175 -166
209 -28 10 -98 28 -156 41 -58 12 -117 30 -132 41 -21 14 -28 16 -28 6z"/>
<path d="M167 8843 c-12 -12 -7 -58 9 -81 14 -21 14 -22 -6 -22 -12 0 -25 -10
-32 -24 -20 -46 52 -140 143 -186 47 -25 72 -26 67 -3 -2 9 -17 20 -34 25 -66
17 -174 112 -152 133 12 12 43 -5 103 -55 66 -56 85 -62 85 -26 0 17 -14 34
-49 60 -27 20 -66 55 -87 78 -32 35 -35 43 -21 46 11 2 42 -19 78 -52 61 -57
99 -71 99 -38 0 17 -100 113 -144 139 -23 14 -49 16 -59 6z"/>
<path d="M12557 8504 c-18 -19 -3 -32 42 -37 73 -9 171 -64 171 -97 0 -19 -35
-10 -103 25 -38 19 -77 35 -88 35 -39 0 -11 -49 38 -64 32 -10 143 -84 143
-96 0 -18 -28 -10 -87 25 -71 42 -108 49 -108 20 0 -14 15 -28 50 -46 28 -14
68 -36 90 -47 45 -25 66 -27 83 -10 18 18 15 33 -13 66 -25 29 -25 31 -6 37
28 9 36 41 16 71 -40 61 -201 144 -228 118z"/>
<path d="M25 8470 c-10 -11 -20 -42 -23 -70 -4 -40 1 -60 24 -107 53 -110 129
-167 358 -270 127 -57 166 -84 166 -117 0 -15 3 -17 12 -8 9 9 9 29 0 87 -19
121 -83 225 -163 266 -49 24 -84 24 -109 -1 -25 -25 -25 -58 0 -90 l20 -25 -2
35 c-3 32 0 35 26 38 44 5 82 -16 135 -74 42 -45 81 -122 81 -157 0 -5 -20 9
-44 30 -24 22 -108 74 -185 117 -221 122 -301 191 -301 262 0 38 14 49 53 45
35 -3 49 26 22 45 -26 19 -49 17 -70 -6z"/>
<path d="M12580 8220 c-11 -11 -20 -26 -20 -33 0 -32 64 -109 128 -157 60 -43
82 -66 82 -86 0 -12 -28 1 -87 41 -91 63 -145 57 -114 -12 10 -22 10 -28 -3
-35 -21 -12 -20 -47 2 -55 56 -21 162 -115 162 -144 0 -25 -10 -24 -67 6 -33
18 -60 25 -87 23 -38 -3 -43 1 -111 72 -86 91 -109 124 -102 149 3 12 -1 22
-10 25 -22 9 -33 -2 -33 -30 0 -19 26 -51 100 -124 92 -90 100 -101 94 -127
-4 -15 -8 -29 -8 -30 -1 -1 -32 18 -69 43 -64 42 -67 46 -67 83 0 37 -19 71
-40 71 -15 0 -19 -28 -8 -63 9 -30 8 -44 -11 -86 -29 -67 -27 -106 10 -169 51
-90 160 -141 202 -94 10 10 17 28 17 39 0 28 -42 87 -64 91 -18 4 -17 2 2 -23
38 -48 23 -85 -34 -85 -45 0 -91 41 -105 93 -11 42 -9 70 11 121 l11 30 37
-39 c20 -21 73 -65 117 -99 150 -114 185 -154 185 -214 0 -40 -19 -56 -41 -36
-20 18 -46 13 -55 -11 -9 -23 15 -45 47 -45 39 0 69 48 69 110 0 83 -55 166
-162 245 -21 16 -26 26 -21 48 7 37 27 34 94 -13 86 -60 150 -50 135 20 -3 17
-1 30 4 30 6 0 10 11 10 25 0 18 -14 35 -57 67 -76 55 -133 109 -133 125 0 20
14 16 61 -20 47 -36 102 -67 118 -67 6 0 15 9 21 20 8 15 7 29 -6 56 -10 20
-23 38 -31 41 -17 7 -17 23 0 23 8 0 22 9 32 20 34 38 -15 134 -87 168 -70 32
-95 35 -118 12z m80 -41 c69 -31 110 -66 110 -95 0 -31 -10 -30 -80 7 -65 34
-116 82 -106 98 10 15 25 13 76 -10z"/>
<path d="M97 8083 c-14 -13 -7 -90 9 -104 14 -11 14 -13 0 -21 -25 -14 -19
-62 10 -92 29 -28 63 -39 162 -53 56 -8 62 -7 62 9 0 11 -23 32 -61 55 -107
66 -159 111 -159 138 0 19 5 25 21 25 28 0 59 -18 59 -34 0 -7 14 -32 30 -55
27 -36 35 -42 63 -39 28 3 32 6 30 31 -3 42 -47 94 -103 122 -47 24 -109 33
-123 18z m169 -94 c50 -34 51 -62 1 -30 -31 19 -67 61 -53 61 4 0 27 -14 52
-31z m-54 -85 c32 -20 57 -38 55 -40 -2 -2 -28 0 -57 6 -79 15 -127 52 -82 63
9 3 19 5 21 6 2 0 30 -15 63 -35z"/>
<path d="M107 7813 c-15 -14 -6 -41 24 -69 30 -29 30 -29 7 -34 -32 -8 -37
-53 -8 -73 18 -12 19 -16 5 -27 -22 -19 -18 -46 13 -80 29 -33 93 -50 184 -50
76 0 60 25 -62 92 -58 32 -112 65 -120 73 -24 25 20 19 105 -15 83 -33 105
-37 105 -17 0 24 -16 35 -73 56 -63 22 -157 77 -157 92 0 16 25 10 107 -26 45
-19 86 -35 92 -35 19 0 13 50 -6 56 -10 3 -49 19 -88 35 -68 28 -114 36 -128
22z m143 -249 l65 -35 -61 5 c-62 5 -114 22 -114 37 0 8 30 29 40 28 3 0 34
-16 70 -35z"/>
<path d="M187 7352 c-37 -40 -7 -135 61 -193 39 -33 91 -56 180 -79 23 -6 40
-15 37 -20 -3 -5 -1 -19 6 -31 11 -22 11 -22 -47 -15 -33 3 -76 9 -97 12 -61
10 -93 -29 -65 -79 7 -12 11 -32 9 -44 -3 -27 2 -30 110 -59 105 -28 156 -51
142 -65 -7 -7 -31 -5 -71 5 -69 18 -128 21 -137 5 -15 -23 6 -56 52 -82 27
-15 40 -27 31 -27 -22 0 -41 -35 -33 -60 10 -30 71 -78 117 -91 45 -12 113 -5
135 13 21 17 15 52 -14 81 -33 31 -108 66 -143 67 -32 1 -110 36 -110 50 0 14
23 13 97 -6 78 -20 113 -13 113 20 0 14 -11 33 -25 44 -19 15 -22 21 -11 25
20 8 8 47 -13 47 -35 0 -177 42 -194 58 -31 27 -14 37 66 37 56 0 80 4 92 16
14 14 21 13 78 -13 126 -57 172 -85 185 -111 15 -31 24 -33 42 -12 20 24 -21
60 -104 91 -142 53 -173 70 -178 98 -5 24 -2 26 26 25 17 0 53 -6 79 -12 41
-10 51 -18 70 -52 14 -25 31 -41 45 -43 30 -5 29 22 -3 64 -20 26 -25 44 -25
89 0 66 -17 104 -63 139 -39 30 -108 56 -148 56 -97 0 -120 -93 -34 -135 50
-23 64 -18 28 11 -79 61 -6 129 88 81 52 -26 78 -67 86 -137 l6 -51 -39 20
c-21 11 -100 36 -175 55 -194 49 -256 86 -247 148 2 18 8 22 29 20 30 -3 54
20 45 43 -8 21 -59 19 -79 -3z m349 -727 c101 -31 98 -58 -6 -56 -69 1 -133
26 -138 54 -3 14 4 17 45 17 27 0 72 -7 99 -15z"/>
<path d="M12440 7251 c0 -11 23 -46 50 -77 69 -78 114 -148 99 -153 -6 -2 -42
27 -79 64 -47 46 -73 66 -84 62 -28 -11 -17 -34 47 -99 62 -61 105 -124 93
-136 -3 -3 -39 27 -80 66 -41 40 -78 72 -84 72 -5 0 -12 -9 -15 -20 -7 -29
134 -165 171 -165 33 0 40 30 17 74 -15 31 -15 31 9 31 35 0 48 27 30 62 -13
26 -13 28 5 28 39 0 42 65 4 110 -22 26 -152 100 -176 100 -4 0 -7 -9 -7 -19z
m109 -77 c84 -48 103 -77 57 -86 -24 -5 -25 -3 -99 89 -24 30 -14 29 42 -3z"/>
<path d="M12093 6908 c-27 -79 -24 -217 5 -283 43 -93 97 -129 152 -100 31 16
32 19 27 61 -2 24 -1 41 4 39 4 -3 36 -40 70 -83 99 -123 130 -208 93 -260
-15 -22 -17 -22 -41 -7 -31 21 -55 12 -51 -17 5 -34 51 -47 79 -22 72 64 63
217 -21 339 -17 25 -84 101 -149 168 -129 133 -146 157 -137 193 12 46 -13 24
-31 -28z m83 -157 c15 -20 42 -52 60 -71 29 -30 32 -40 26 -64 -17 -63 -69
-57 -116 14 -47 71 -67 164 -49 229 6 22 8 21 29 -23 13 -27 35 -64 50 -85z"/>
<path d="M12350 6936 c0 -14 11 -37 24 -53 50 -60 116 -168 116 -190 0 -13 -7
-26 -17 -30 -25 -10 -63 40 -63 83 0 44 -24 91 -50 99 -30 10 -40 -2 -40 -47
0 -54 23 -99 76 -148 58 -54 92 -53 113 3 6 15 7 36 2 49 -6 18 -4 25 13 33
14 7 22 22 24 46 4 48 -32 91 -109 129 -31 16 -60 34 -64 40 -11 18 -25 11
-25 -14z m153 -124 c33 -31 35 -52 3 -52 -16 0 -35 16 -65 55 -22 31 -41 58
-41 61 0 9 72 -37 103 -64z m-134 -28 c22 -28 36 -63 28 -70 -5 -5 -67 79 -67
90 0 14 20 4 39 -20z"/>
<path d="M430 6495 c-18 -21 -5 -44 36 -65 29 -15 30 -16 11 -31 -46 -35 14
-86 129 -110 68 -14 139 -3 139 21 0 10 -8 14 -25 12 -99 -14 -220 2 -220 30
0 17 32 21 110 12 86 -11 100 -9 100 11 0 21 -28 32 -100 38 -158 15 -195 53
-41 42 103 -8 125 -1 95 29 -8 9 -28 16 -43 16 -15 0 -61 3 -102 6 -63 6 -77
4 -89 -11z"/>
<path d="M12100 6271 c0 -11 9 -22 20 -26 44 -14 128 -140 115 -173 -5 -14
-12 -11 -38 18 -18 20 -47 57 -65 84 -32 46 -54 55 -60 24 -2 -8 22 -53 53
-98 51 -78 68 -120 45 -120 -5 0 -29 32 -55 70 -25 39 -52 73 -61 77 -26 10
-35 -18 -16 -48 91 -142 114 -165 147 -152 14 5 16 15 13 53 -4 44 -3 46 18
42 15 -3 26 3 34 18 22 41 -14 132 -82 206 -43 47 -68 56 -68 25z"/>
<path d="M616 6134 c-53 -53 35 -176 149 -209 43 -13 89 -16 208 -13 84 2 161
-1 172 -6 18 -9 19 -8 5 9 -31 37 -80 48 -250 55 -111 5 -177 12 -201 22 -64
28 -105 106 -52 101 25 -3 48 21 39 42 -7 20 -50 19 -70 -1z"/>
<path d="M851 6117 c-54 -27 -53 -84 2 -117 47 -29 68 -26 34 5 -34 32 -34 50
-1 72 33 22 116 21 170 -2 52 -22 83 -51 106 -103 16 -36 17 -46 6 -70 -16
-33 -71 -62 -118 -62 -39 0 -80 23 -80 46 0 8 -4 14 -10 14 -18 0 -11 -28 15
-59 88 -104 259 -27 224 102 -15 57 -107 148 -174 170 -57 20 -140 22 -174 4z"/>
<path d="M11969 6008 c-19 -35 -3 -109 40 -194 67 -129 47 -160 -24 -40 -22
37 -48 72 -58 78 -26 14 -47 -7 -47 -48 0 -25 -4 -32 -14 -28 -8 3 -19 -3 -26
-15 -9 -18 -7 -27 13 -54 14 -17 37 -55 51 -84 47 -94 25 -141 -31 -64 -28 40
-70 71 -95 71 -9 0 -28 41 -51 109 -38 113 -45 159 -26 178 15 15 3 33 -21 33
-32 0 -34 -41 -5 -121 14 -41 36 -102 47 -137 l22 -62 -21 -21 -21 -21 -40 68
c-40 66 -41 68 -26 103 17 40 11 81 -11 81 -17 0 -35 -39 -35 -75 0 -15 -11
-31 -29 -44 -79 -57 -96 -156 -45 -258 46 -92 120 -115 152 -49 12 24 12 34
-3 72 -19 49 -40 62 -23 14 8 -24 7 -35 -6 -55 -22 -33 -51 -32 -86 3 -55 55
-47 143 19 220 l28 33 11 -43 c6 -24 46 -104 89 -178 65 -114 78 -143 81 -190
3 -47 1 -58 -18 -75 -21 -19 -22 -19 -39 4 -20 26 -54 26 -59 0 -4 -24 25 -49
58 -49 22 0 36 9 57 37 24 31 29 48 31 113 4 73 3 78 -41 162 -35 67 -42 88
-31 92 8 3 14 12 14 21 0 27 19 16 48 -26 56 -84 84 -110 111 -107 14 2 30 13
37 25 6 13 18 31 27 41 24 26 22 32 -28 130 -79 152 -72 211 8 73 25 -43 54
-81 64 -85 23 -9 56 30 49 58 -3 12 -8 34 -12 50 -5 21 -4 27 5 22 43 -27 87
35 75 103 -9 49 -20 70 -62 114 -42 43 -84 50 -103 15z m74 -47 c59 -65 86
-138 57 -156 -23 -14 -120 131 -120 179 0 27 26 17 63 -23z"/>
<path d="M810 5808 c-27 -10 -36 -19 -38 -41 -4 -35 12 -55 63 -78 31 -14 36
-19 22 -24 -10 -4 -17 -18 -17 -32 0 -18 9 -28 40 -42 35 -15 38 -19 24 -32
-8 -9 -12 -23 -8 -32 6 -15 60 -37 94 -37 10 0 7 -5 -8 -16 -45 -31 -11 -95
57 -110 53 -12 56 -14 33 -30 -41 -28 -22 -83 35 -105 13 -5 54 -8 91 -8 l67
2 -73 7 c-73 8 -102 21 -102 46 0 7 10 18 21 25 18 9 33 5 91 -21 59 -28 74
-31 95 -21 34 16 27 50 -16 75 -22 13 -63 22 -125 27 -97 8 -141 22 -151 47
-10 27 14 37 98 40 97 3 121 -6 93 -37 -19 -21 -19 -21 12 -21 25 0 32 4 32
19 0 48 -100 91 -210 91 -27 0 -61 5 -77 11 -26 10 -27 12 -8 19 11 5 61 9
112 9 50 1 94 5 97 10 3 4 -3 16 -13 25 -11 10 -22 27 -25 40 -9 37 -75 66
-173 75 -49 4 -99 13 -111 20 -29 16 -25 43 9 55 21 7 33 4 57 -13 49 -35 94
-50 120 -40 35 13 27 45 -17 75 -47 31 -137 41 -191 22z m194 -49 c6 -5 3 -11
-6 -14 -20 -8 -100 13 -93 25 6 10 86 1 99 -11z m85 -134 c8 -8 11 -18 7 -22
-11 -12 -137 -16 -176 -6 -41 11 -52 39 -18 46 42 10 172 -3 187 -18z m191
-320 c-7 -14 -78 -11 -93 4 -9 10 0 11 43 9 32 -2 53 -7 50 -13z"/>
<path d="M11520 5245 c-20 -25 -23 -87 -5 -135 47 -128 52 -204 11 -198 -24 3
-86 115 -86 156 0 21 3 23 25 18 27 -7 34 11 13 32 -20 20 -37 14 -53 -18 -21
-41 -19 -74 15 -170 57 -159 32 -171 -40 -19 -39 82 -45 90 -57 73 -7 -10 -13
-23 -13 -29 0 -5 -9 -16 -20 -23 -30 -18 -27 -110 5 -196 29 -76 31 -108 10
-126 -13 -10 -19 -9 -35 5 -18 16 -20 26 -14 94 6 69 4 78 -14 95 -29 25 -49
15 -62 -34 -9 -33 -8 -52 5 -96 17 -59 67 -124 94 -124 31 0 54 37 54 85 0 42
1 44 28 38 33 -6 54 24 45 68 -5 27 -4 28 24 23 25 -6 30 -3 36 20 3 14 1 40
-5 57 -14 41 -14 46 1 31 7 -7 24 -12 40 -12 37 0 51 30 46 100 l-4 57 28 -16
c28 -15 30 -15 54 12 13 15 24 38 24 51 0 27 -36 136 -50 150 -14 14 -13 8 10
-52 24 -63 25 -95 5 -112 -13 -10 -19 -9 -36 6 -18 17 -20 26 -14 81 7 66 -2
95 -34 113 -14 7 -22 6 -31 -5z m38 -70 c20 -60 8 -77 -16 -25 -25 51 -28 74
-9 68 6 -3 18 -22 25 -43z m-210 -283 c11 -15 30 -57 43 -94 18 -52 21 -70 12
-79 -19 -19 -38 3 -67 77 -40 99 -32 159 12 96z m-99 -143 c13 -39 14 -69 2
-69 -10 0 -31 54 -31 81 0 30 17 22 29 -12z"/>
<path d="M1460 5209 c-64 -26 -80 -82 -34 -118 28 -22 104 -30 104 -11 0 6 -9
10 -21 10 -34 0 -59 19 -59 45 0 64 104 89 170 40 35 -26 63 -64 74 -101 6
-20 3 -20 -49 -16 -31 2 -114 -3 -186 -13 -149 -19 -205 -15 -243 20 -30 28
-34 55 -7 55 24 0 45 25 37 45 -9 24 -53 18 -71 -9 -14 -21 -14 -28 -2 -58 8
-19 30 -47 48 -62 59 -50 93 -59 210 -54 105 4 105 4 117 -21 7 -14 9 -28 5
-32 -5 -5 -39 -13 -78 -19 -38 -6 -80 -18 -92 -26 -29 -18 -30 -59 -3 -76 11
-7 20 -20 20 -29 0 -34 24 -40 133 -33 172 11 214 -14 58 -35 -83 -11 -111
-22 -111 -46 0 -22 38 -47 80 -52 39 -6 40 -6 23 -25 -16 -18 -16 -22 -2 -46
8 -15 30 -35 49 -45 69 -36 210 -2 218 52 8 55 -74 88 -193 77 -139 -13 -173
21 -39 40 43 6 87 14 97 19 28 12 17 48 -20 66 -24 12 -29 19 -20 28 8 8 8 15
-3 26 -12 11 -24 12 -55 5 -65 -15 -181 -12 -195 5 -14 17 3 26 77 45 25 6 51
22 65 39 l23 29 118 -13 c94 -9 124 -16 148 -34 32 -24 59 -22 59 3 0 28 -43
39 -180 47 -123 8 -136 11 -152 31 -9 13 -14 26 -10 30 4 3 38 11 76 17 69 10
69 10 104 -20 35 -31 77 -36 77 -9 0 8 -17 26 -38 39 -26 17 -40 35 -47 62
-14 50 -55 98 -105 120 -44 20 -134 24 -175 8z m355 -639 c0 -22 -50 -42 -121
-48 -43 -3 -69 -1 -79 8 -21 18 -19 26 13 38 44 17 63 20 127 19 46 -2 60 -6
60 -17z"/>
<path d="M11013 4899 c-101 -29 -157 -230 -99 -356 44 -94 122 -106 147 -22 7
21 9 45 5 55 -6 15 -10 12 -24 -17 -22 -45 -46 -48 -81 -10 -79 85 -56 277 37
309 82 28 182 -107 125 -170 -15 -17 -15 -18 0 -18 23 0 47 52 47 102 0 89
-75 150 -157 127z"/>
<path d="M11017 4843 c-4 -3 -7 -28 -7 -54 0 -50 28 -136 73 -224 13 -28 32
-82 42 -122 17 -69 17 -73 -1 -110 -21 -43 -49 -54 -59 -24 -6 21 -31 35 -46
25 -16 -10 -9 -53 10 -64 34 -18 58 -11 89 24 41 47 55 95 50 176 -3 60 -11
83 -72 204 -43 85 -66 144 -63 156 5 20 -3 26 -16 13z"/>
<path d="M1869 4496 c-3 -3 -36 -10 -74 -16 -39 -6 -80 -18 -92 -26 -45 -29
-19 -74 43 -74 26 0 26 -1 10 -19 -19 -21 -13 -47 15 -61 25 -14 159 -13 200
1 45 16 72 40 59 53 -7 7 -22 3 -47 -11 -50 -28 -145 -45 -179 -33 -48 18 -3
40 113 55 60 8 82 25 58 45 -13 11 -28 11 -78 2 -110 -21 -197 -17 -158 7 7 5
43 12 80 15 77 8 119 29 100 52 -11 13 -41 19 -50 10z"/>
<path d="M10820 4292 c0 -10 11 -29 25 -42 42 -40 81 -169 56 -185 -14 -8 -38
31 -61 101 -22 64 -41 91 -60 79 -16 -10 -12 -33 14 -100 30 -74 47 -143 36
-150 -12 -8 -26 15 -45 75 -21 68 -41 100 -60 100 -22 0 -18 -34 11 -109 38
-98 45 -111 72 -118 29 -7 42 9 42 54 0 28 3 32 27 30 19 -2 31 5 42 25 13 23
14 35 2 89 -7 35 -21 80 -31 100 -32 62 -70 90 -70 51z"/>
<path d="M2243 4185 c-83 -36 -77 -135 9 -135 l22 0 -22 16 c-29 20 -28 38 3
62 56 44 190 32 277 -25 l42 -28 -100 -6 c-54 -4 -157 -21 -229 -37 -214 -50
-299 -53 -344 -11 -27 25 -27 55 -1 62 21 5 28 41 10 52 -18 11 -51 -6 -61
-32 -19 -51 39 -115 129 -143 107 -33 173 -26 421 45 139 39 186 43 213 18 15
-13 18 -13 18 -2 0 16 -67 84 -117 118 -79 54 -204 75 -270 46z"/>
<path d="M10312 4068 c-16 -16 -15 -99 4 -215 l15 -96 -24 -25 -24 -24 -28 76
-27 75 21 34 c23 37 27 72 11 82 -16 10 -38 -13 -45 -46 -5 -21 -21 -39 -61
-64 -84 -54 -113 -141 -83 -249 14 -49 59 -96 93 -96 39 0 69 46 61 95 -9 56
-25 69 -25 19 0 -70 -49 -87 -94 -33 -48 56 -29 139 45 203 l44 37 7 -53 c4
-29 28 -114 53 -188 48 -143 56 -210 29 -248 -17 -25 -54 -30 -54 -7 0 17 -29
34 -47 28 -18 -6 -16 -48 2 -63 24 -20 64 -15 92 11 66 61 80 166 39 294 -18
58 -21 75 -10 75 7 0 17 8 23 17 13 25 35 4 50 -49 30 -99 72 -138 111 -103
11 10 20 24 20 32 0 7 6 13 14 13 7 0 19 7 26 15 9 11 6 32 -14 102 -26 87
-35 180 -17 168 5 -3 19 -36 31 -73 28 -84 45 -112 70 -112 26 0 43 42 38 92
-2 24 0 34 6 28 16 -16 52 -11 71 10 10 11 20 41 23 69 11 118 -82 230 -132
159 -19 -26 -21 -122 -5 -165 15 -41 28 -114 22 -130 -11 -28 -23 -10 -48 72
-30 97 -51 119 -85 85 -11 -11 -20 -29 -20 -40 0 -12 -5 -17 -13 -14 -8 3 -19
-2 -26 -10 -10 -12 -8 -28 12 -83 30 -82 40 -143 28 -162 -12 -18 -30 -5 -47
34 -19 45 -62 95 -83 95 -13 0 -18 9 -19 35 -1 19 -6 70 -11 113 -11 87 -6
131 17 149 12 10 13 15 2 28 -15 18 -22 19 -38 3z m389 -82 c33 -71 37 -141 9
-141 -22 0 -63 92 -68 153 -4 44 -2 52 12 52 11 0 28 -23 47 -64z"/>
<path d="M2226 3924 c-53 -19 -66 -32 -66 -64 0 -32 27 -60 58 -60 18 0 22 -6
22 -31 0 -25 6 -32 36 -45 46 -19 76 -12 161 38 85 51 81 47 60 63 -13 9 -30
10 -65 3 -83 -15 -211 -15 -221 1 -25 39 28 61 89 37 51 -20 104 -21 120 -1
44 54 -94 96 -194 59z m174 -23 c0 -13 -27 -21 -71 -21 -42 0 -53 16 -16 23
41 8 87 7 87 -2z m30 -86 c0 -8 -88 -56 -121 -65 -41 -12 -51 -5 -38 24 9 19
22 24 82 33 40 5 73 10 75 11 1 1 2 0 2 -3z"/>
<path d="M2454 3735 c-98 -27 -124 -40 -124 -63 0 -28 21 -42 64 -42 39 0 39
0 20 -21 -23 -26 -9 -53 30 -57 21 -3 26 -7 21 -22 -4 -12 2 -27 16 -41 34
-34 100 -23 188 33 60 39 69 48 56 58 -11 9 -30 10 -63 6 -93 -14 -212 -19
-212 -8 0 8 137 52 166 52 5 0 16 4 24 10 12 7 12 12 -4 29 -16 17 -21 18 -49
6 -44 -18 -180 -40 -201 -32 -30 12 -8 24 71 42 108 24 125 33 110 56 -14 22
-10 23 -113 -6z m191 -174 c-21 -20 -109 -61 -132 -61 -21 0 -23 3 -17 23 3
12 7 23 8 24 3 3 106 20 131 22 12 1 15 -3 10 -8z"/>
<path d="M2944 3476 c-36 -16 -74 -61 -74 -87 0 -43 81 -72 135 -49 17 7 16 9
-10 9 -37 1 -75 26 -75 49 2 67 122 97 189 48 27 -20 81 -85 81 -98 0 -2 -21
-3 -48 -4 -26 0 -116 -20 -201 -43 -104 -29 -164 -41 -184 -37 -69 14 -101 61
-54 81 29 13 30 49 1 53 -12 2 -29 -4 -38 -13 -26 -27 -20 -67 17 -103 67 -65
145 -77 277 -42 41 11 76 20 78 20 1 0 2 -7 2 -15 0 -9 7 -18 15 -21 26 -10
-2 -33 -64 -51 -66 -19 -98 -38 -106 -62 -8 -25 3 -49 25 -56 10 -3 20 -14 23
-25 8 -32 34 -34 131 -11 150 37 213 14 72 -25 -42 -12 -82 -27 -91 -34 -38
-32 1 -70 72 -70 29 0 34 -3 25 -12 -54 -54 75 -120 172 -88 46 15 96 56 96
79 0 49 -108 77 -203 53 -73 -19 -102 -22 -117 -13 -21 14 -10 20 67 40 81 21
113 37 113 56 0 22 -29 45 -57 45 -22 0 -24 2 -13 15 7 9 11 17 9 18 -2 1 -12
9 -21 16 -12 9 -22 10 -30 4 -7 -6 -45 -18 -84 -27 -129 -31 -174 -5 -74 43
32 15 63 39 75 57 19 29 23 31 100 33 44 1 87 3 95 3 48 3 91 -4 105 -18 18
-18 45 -12 45 10 0 37 -65 44 -227 24 l-95 -11 -19 24 c-21 28 -17 31 58 54
64 20 79 19 112 -6 31 -23 76 -22 76 1 0 8 -19 24 -43 35 -31 15 -48 32 -63
63 -12 24 -37 55 -57 70 -30 23 -47 27 -111 30 -49 1 -87 -3 -107 -12z m434
-594 c5 -16 -91 -60 -149 -68 -34 -5 -48 -2 -58 9 -10 13 -8 18 13 32 60 40
184 57 194 27z"/>
<path d="M9985 3357 c-3 -12 1 -62 10 -111 30 -172 12 -211 -31 -68 -31 101
-38 112 -60 91 -14 -14 -13 -22 6 -80 28 -80 39 -184 20 -177 -7 2 -24 42 -37
89 -30 103 -39 116 -64 93 -15 -13 -16 -21 -8 -37 6 -11 20 -49 30 -85 22 -78
43 -112 69 -112 25 0 31 11 33 60 1 22 5 40 9 40 4 0 8 -4 8 -10 0 -14 33 -13
48 2 7 7 12 23 12 36 0 18 4 22 19 17 31 -9 64 41 58 88 -5 36 -92 185 -109
186 -4 1 -10 -9 -13 -22z m54 -115 c17 -27 34 -63 37 -81 7 -32 6 -33 -17 -26
-31 10 -36 18 -44 74 -3 25 -8 54 -11 64 -9 29 3 19 35 -31z"/>
<path d="M9496 3199 c-68 -76 -99 -146 -103 -238 -5 -86 13 -135 58 -160 22
-12 29 -12 55 0 24 12 29 21 31 54 2 31 1 35 -6 19 -21 -48 -63 -37 -88 23
-29 70 -3 223 45 266 17 15 18 13 19 -51 0 -48 14 -114 47 -232 68 -240 73
-342 19 -377 -25 -17 -27 -16 -41 5 -17 25 -50 29 -59 7 -3 -9 3 -25 12 -35
48 -54 132 9 161 120 24 95 14 171 -51 363 -65 194 -73 238 -51 256 9 7 16 17
16 22 0 20 -21 6 -64 -42z"/>
<path d="M9751 3122 c-6 -11 -6 -33 -1 -58 34 -146 32 -234 -5 -234 -31 0 -38
38 -19 106 19 73 10 114 -26 114 -50 0 -68 -131 -27 -210 12 -24 30 -49 40
-54 25 -16 67 11 81 50 6 17 16 29 23 27 24 -8 53 35 53 80 0 33 -10 59 -47
119 -27 43 -51 77 -55 78 -4 0 -12 -8 -17 -18z m58 -126 c29 -50 41 -106 23
-106 -22 0 -40 31 -51 84 -18 96 -15 98 28 22z m-103 -21 c3 -19 3 -43 -1 -52
-7 -17 -8 -16 -15 2 -12 28 -12 97 0 90 5 -3 12 -21 16 -40z"/>
<path d="M3400 2805 c-19 -8 -54 -19 -78 -25 -84 -21 -92 -90 -11 -90 37 0 38
-1 27 -20 -10 -15 -10 -24 -2 -38 9 -14 26 -17 96 -17 70 0 92 5 134 26 27 14
50 33 52 42 5 24 -30 22 -53 -3 -36 -40 -195 -73 -195 -41 0 10 61 36 133 56
44 13 57 21 57 36 0 25 -32 25 -108 0 -87 -29 -142 -36 -142 -18 0 9 18 19 48
27 95 24 133 41 130 59 -4 21 -43 23 -88 6z"/>
<path d="M9240 2620 c0 -5 11 -25 24 -45 40 -58 60 -182 31 -188 -15 -3 -35
45 -46 112 -11 60 -29 88 -49 76 -13 -8 -13 -56 0 -89 16 -44 30 -150 21 -159
-12 -12 -27 18 -36 73 -4 25 -13 60 -21 78 -13 32 -38 43 -47 20 -6 -17 40
-197 54 -214 28 -34 69 -4 69 50 0 24 2 25 25 14 21 -9 29 -9 41 4 47 47 8
278 -47 278 -11 0 -19 -4 -19 -10z"/>
<path d="M3830 2578 c-25 -13 -52 -35 -60 -50 -13 -25 -13 -29 6 -55 23 -31
73 -50 101 -39 15 6 13 10 -15 21 -113 49 43 151 176 115 24 -6 61 -27 83 -47
31 -28 39 -42 39 -70 0 -44 -40 -86 -99 -104 -38 -11 -44 -10 -71 9 -37 28
-50 11 -13 -17 59 -47 141 -41 192 15 30 33 33 41 28 81 -14 125 -233 209
-367 141z"/>
<path d="M3570 2495 c-20 -24 -15 -64 11 -91 32 -34 69 -53 129 -64 66 -13
125 0 264 57 60 25 125 45 144 45 54 0 21 21 -40 25 -54 4 -121 -12 -243 -57
-82 -31 -186 -38 -220 -16 -24 16 -35 56 -16 56 17 0 40 30 35 45 -8 19 -48
19 -64 0z"/>
<path d="M8700 2441 c-5 -11 -10 -83 -10 -163 0 -135 -1 -144 -21 -156 -12 -7
-23 -12 -25 -10 -5 5 -34 120 -34 135 0 8 12 31 26 53 27 40 29 75 4 75 -8 0
-24 -18 -37 -40 -16 -29 -38 -48 -80 -70 -73 -38 -103 -90 -103 -176 0 -66 12
-104 42 -136 54 -57 128 -1 112 83 -8 42 -19 44 -20 4 -4 -103 -114 -66 -114
38 0 52 25 97 74 130 56 38 62 37 58 -10 -2 -24 10 -104 27 -181 37 -165 39
-224 10 -261 -26 -32 -56 -34 -61 -3 -2 16 -10 22 -28 22 -31 0 -39 -29 -14
-56 61 -67 174 50 174 181 0 30 -7 82 -14 115 -9 36 -11 61 -5 63 5 2 16 11
25 19 22 22 32 7 50 -68 8 -35 22 -74 30 -86 19 -30 57 -29 82 2 11 13 21 22
24 20 3 -3 13 4 22 14 17 18 17 24 1 100 -17 86 -17 162 1 168 7 2 16 -26 24
-73 9 -50 21 -86 35 -102 l22 -25 20 20 c12 12 24 38 27 59 7 37 9 39 43 39
31 0 40 5 56 33 27 46 25 119 -4 179 -20 41 -28 48 -53 48 -20 0 -35 -9 -49
-27 -22 -29 -21 -27 -14 -223 3 -89 -16 -82 -34 12 -16 82 -31 113 -54 113
-17 0 -45 -33 -45 -55 0 -13 -3 -15 -13 -6 -11 8 -18 7 -30 -7 -14 -15 -14
-23 -1 -72 23 -88 29 -158 14 -175 -17 -21 -26 -12 -45 45 -10 30 -30 61 -51
79 l-34 30 0 109 c0 112 11 166 36 176 19 7 6 36 -17 36 -10 0 -23 -9 -29 -19z
m396 -131 c20 -74 14 -123 -14 -118 -33 6 -71 186 -45 212 14 14 43 -31 59
-94z"/>
<path d="M3893 2266 c-59 -28 -79 -56 -63 -86 15 -27 42 -40 86 -40 30 0 35
-3 26 -12 -32 -32 -1 -68 57 -68 28 0 30 -2 19 -19 -9 -15 -9 -23 2 -36 11
-14 25 -16 63 -11 47 5 49 5 33 -13 -39 -44 0 -86 80 -86 30 0 54 -2 54 -4 0
-3 -8 -13 -17 -23 -16 -17 -16 -22 -3 -45 22 -39 62 -46 148 -27 93 20 88 28
-7 12 -64 -11 -73 -10 -88 5 -16 16 -16 18 5 39 20 21 25 21 67 10 59 -16 97
-15 119 1 30 22 16 50 -34 66 -39 13 -52 12 -110 -2 -164 -43 -247 4 -109 60
85 35 148 26 107 -15 -9 -9 -8 -12 4 -12 52 0 62 28 22 59 -32 25 -99 28 -170
6 -55 -17 -144 -21 -128 -6 5 6 50 25 101 43 51 18 93 38 94 43 1 6 -8 14 -20
20 -12 5 -24 18 -27 27 -5 18 -61 38 -104 38 -14 0 -58 -9 -99 -20 -76 -20
-116 -18 -125 6 -10 26 24 47 66 40 21 -3 55 -9 77 -12 32 -5 43 -2 61 16 l22
22 -21 21 c-32 33 -122 34 -188 3z m153 -21 c-18 -14 -96 -22 -96 -10 0 10 45
24 80 24 33 0 34 -1 16 -14z m139 -100 c0 -26 -163 -76 -200 -61 -17 6 -17 8
-3 23 39 38 203 69 203 38z m265 -250 c-8 -10 -29 -15 -59 -14 l-46 1 30 13
c17 8 43 14 59 15 24 0 27 -2 16 -15z"/>
<path d="M4690 1869 c-14 -6 -37 -22 -52 -36 -70 -67 4 -145 110 -117 12 4 22
10 22 15 0 5 -10 7 -23 4 -56 -14 -102 34 -77 80 25 47 103 59 168 26 33 -17
112 -91 112 -106 0 -3 -22 -5 -50 -5 -33 0 -100 -17 -202 -51 -164 -55 -218
-60 -258 -24 -26 24 -25 51 1 58 15 4 20 12 17 29 -4 28 -39 36 -62 13 -60
-61 63 -165 195 -165 27 0 83 11 125 24 l77 25 18 -22 c10 -12 18 -25 19 -28
0 -12 -24 -26 -65 -39 -71 -22 -105 -48 -105 -81 0 -20 8 -34 28 -46 15 -10
33 -26 40 -35 17 -23 44 -23 123 1 83 25 132 33 153 25 29 -11 17 -22 -49 -39
-74 -21 -125 -48 -125 -69 0 -24 42 -46 88 -46 39 0 43 -2 37 -20 -16 -51 36
-90 119 -90 87 0 185 67 160 109 -16 25 -75 51 -117 51 -21 0 -73 -9 -117 -21
-76 -19 -127 -19 -115 2 3 5 44 20 91 35 49 15 88 32 91 41 9 22 -9 46 -43 58
-18 6 -28 16 -26 25 3 20 -36 44 -51 32 -21 -18 -157 -53 -190 -50 -47 4 -40
29 14 55 46 21 89 64 89 88 0 10 37 15 136 20 128 7 137 6 164 -13 20 -15 30
-18 39 -9 15 15 14 23 -5 41 -20 20 -80 21 -212 1 -104 -16 -124 -13 -151 18
-9 12 -2 18 41 35 85 34 102 36 139 13 40 -24 89 -28 89 -7 0 17 -11 25 -62
46 -24 10 -48 32 -70 64 -45 68 -100 96 -187 95 -36 0 -77 -5 -91 -10z m508
-612 c7 -36 -169 -95 -203 -67 -19 16 -12 26 37 51 75 38 160 47 166 16z"/>
<path d="M8351 1817 c-28 -35 -39 -85 -38 -183 1 -81 -3 -107 -17 -128 -33
-51 -62 -11 -72 102 -6 64 -5 72 11 79 11 4 20 2 23 -5 7 -22 22 -12 22 13 0
31 -24 43 -47 24 -38 -32 -52 -90 -50 -201 3 -156 -19 -164 -42 -15 -19 122
-19 122 -42 101 -10 -9 -19 -23 -19 -31 0 -8 -4 -12 -9 -9 -5 3 -19 -2 -31
-12 -32 -26 -49 -103 -43 -198 6 -92 -5 -127 -40 -122 -30 4 -33 39 -8 98 25
58 27 103 5 121 -21 17 -43 3 -67 -42 -23 -43 -19 -164 7 -203 33 -51 116 -16
116 48 0 35 14 50 30 31 17 -20 26 -19 50 5 13 13 20 33 20 57 0 36 0 36 21
17 30 -27 52 -8 65 57 7 36 12 48 17 36 4 -11 17 -17 36 -17 40 0 67 37 76
101 7 48 8 49 22 30 19 -28 54 -26 84 5 20 22 24 38 28 106 2 52 -1 84 -8 91
-9 9 -11 -4 -6 -53 4 -45 2 -73 -7 -90 -19 -35 -45 -37 -60 -5 -9 21 -8 32 7
63 28 58 35 91 25 118 -10 26 -41 32 -59 11z m25 -42 c8 -32 -4 -97 -17 -90
-12 8 -12 115 1 115 5 0 12 -11 16 -25z m-296 -261 c16 -40 17 -171 3 -185
-21 -21 -34 3 -46 83 -11 81 -5 128 18 128 9 0 20 -12 25 -26z m-148 -106 c2
-41 -3 -83 -13 -92 -5 -6 -9 14 -9 52 0 35 4 62 10 62 6 0 11 -10 12 -22z"/>
<path d="M7695 1573 c-129 -68 -209 -296 -137 -392 21 -29 74 -40 98 -20 24
19 46 68 42 92 -3 20 -5 19 -20 -9 -46 -84 -108 -33 -108 88 0 78 23 131 78
181 32 28 51 37 77 37 92 0 136 -144 62 -202 -17 -13 -18 -18 -6 -18 17 0 60
42 78 77 6 12 11 38 11 58 0 97 -90 153 -175 108z"/>
<path d="M7715 1508 c-23 -57 -27 -102 -15 -184 24 -166 28 -220 19 -268 -15
-80 -72 -124 -94 -73 -13 30 -49 29 -53 -1 -8 -54 49 -68 110 -27 23 16 47 47
67 86 40 80 41 156 5 329 -19 94 -23 129 -15 142 14 22 14 28 0 28 -5 0 -16
-15 -24 -32z"/>
<path d="M5207 1170 c-79 -28 -117 -53 -117 -75 0 -23 32 -39 71 -38 35 2 37
0 27 -16 -15 -25 -4 -49 29 -62 72 -29 286 46 258 91 -10 17 -25 12 -61 -20
-49 -42 -173 -76 -189 -51 -9 15 34 40 107 62 76 23 96 40 73 59 -17 14 -36
11 -116 -19 -84 -30 -139 -38 -139 -18 0 10 19 21 58 32 88 24 124 43 120 63
-5 25 -34 23 -121 -8z"/>
<path d="M7370 1002 c0 -10 9 -35 20 -57 33 -65 25 -214 -10 -179 -5 5 -14 50
-20 99 -12 99 -22 118 -46 93 -14 -14 -15 -28 -5 -120 11 -101 8 -138 -10
-138 -10 0 -16 25 -23 106 -6 73 -14 94 -32 94 -15 0 -38 -36 -30 -49 3 -5 10
-45 15 -90 10 -88 21 -111 56 -111 23 0 45 34 45 72 0 17 3 18 14 8 24 -19 59
-8 76 25 20 42 19 179 -3 228 -16 38 -47 51 -47 19z"/>
<path d="M5781 950 c-65 -16 -108 -61 -97 -103 9 -39 33 -57 74 -57 l37 1 -27
15 c-32 17 -36 45 -11 69 26 27 64 37 139 37 57 0 84 -5 133 -27 59 -27 83
-49 41 -38 -35 9 -139 -17 -295 -74 -232 -84 -322 -96 -376 -47 -24 22 -24 29
1 54 24 24 16 50 -16 50 -23 0 -44 -25 -44 -54 0 -20 47 -74 80 -91 16 -8 59
-19 97 -25 96 -15 176 3 371 85 177 74 229 86 256 60 24 -24 33 -10 10 16 -76
86 -273 154 -373 129z"/>
<path d="M6794 862 c-25 -16 -36 -61 -48 -189 -12 -124 -15 -137 -37 -154 -13
-10 -27 -19 -31 -19 -3 0 -9 30 -13 68 -4 37 -8 72 -9 77 -2 6 12 27 30 48 20
21 34 48 34 63 0 38 -29 27 -62 -23 -22 -32 -40 -45 -78 -58 -65 -21 -125 -85
-115 -123 5 -21 25 -172 25 -194 0 -10 30 -38 41 -38 6 0 21 11 34 25 21 20
25 33 24 77 l-1 53 -12 -35 c-15 -47 -24 -60 -42 -60 -18 0 -39 49 -49 114 -6
44 -4 51 22 78 22 24 91 68 105 68 2 0 3 -51 4 -112 0 -62 3 -151 5 -198 3
-75 0 -92 -22 -140 -31 -66 -71 -115 -110 -135 -32 -17 -45 -6 -29 26 18 32 5
51 -32 47 -29 -3 -33 -7 -36 -33 -1 -17 6 -44 18 -63 l20 -33 41 23 c53 29
172 155 200 210 20 38 21 53 16 146 -3 58 -3 102 0 98 4 -3 17 1 29 9 21 14
24 13 32 -3 5 -9 12 -40 15 -67 12 -104 58 -145 104 -91 13 15 27 25 32 22 4
-3 16 3 26 14 15 16 16 32 10 122 -7 102 2 158 25 158 5 0 10 -19 11 -42 1
-110 26 -176 61 -163 21 8 48 65 48 99 0 26 1 26 24 11 76 -50 147 108 100
225 -23 56 -57 64 -95 23 -34 -39 -50 -112 -43 -195 6 -63 -8 -124 -25 -114
-4 3 -12 43 -16 88 -4 45 -11 91 -17 101 -14 27 -50 17 -68 -18 -21 -42 -20
-41 -29 -27 -6 10 -13 9 -30 -5 -19 -16 -20 -22 -11 -53 11 -38 14 -169 4
-194 -7 -19 -33 -21 -39 -3 -2 6 -9 32 -15 56 -7 24 -25 57 -41 73 l-29 30 10
91 c13 121 28 174 55 195 17 14 21 22 13 35 -10 19 -17 21 -34 9z m372 -117
c16 -50 17 -130 4 -156 -17 -30 -38 -22 -49 19 -12 41 -15 141 -5 167 11 28
38 12 50 -30z"/>
<path d="M5806 675 c-88 -31 -116 -77 -75 -121 15 -16 34 -24 56 -24 21 0 32
-4 28 -10 -12 -19 5 -48 35 -60 45 -19 88 -5 159 50 36 28 68 50 73 50 14 0 9
15 -10 27 -15 9 -39 6 -113 -13 -127 -32 -199 -32 -199 2 0 7 11 21 25 30 20
13 31 14 56 5 18 -6 54 -11 80 -11 39 0 51 4 59 21 15 27 -1 45 -49 59 -48 13
-78 12 -125 -5z m144 -25 c0 -9 -61 -30 -87 -30 -27 0 -21 20 9 29 44 12 78
13 78 1z m50 -85 c0 -3 -28 -23 -62 -45 -62 -40 -98 -50 -98 -27 0 27 22 43
82 59 74 19 78 20 78 13z"/>
<path d="M6115 521 c-3 -5 -29 -17 -58 -27 -121 -39 -158 -73 -115 -107 17
-14 33 -18 61 -14 37 5 38 5 22 -13 -26 -28 -4 -60 40 -60 27 0 33 -3 28 -15
-8 -24 23 -52 73 -64 65 -16 102 2 153 78 38 55 40 61 23 70 -11 6 -24 6 -35
0 -22 -13 -184 -49 -221 -49 -49 0 -14 25 84 60 50 18 90 36 90 40 0 4 -9 15
-20 25 -18 16 -22 16 -43 2 -34 -22 -153 -57 -194 -57 -54 0 -27 22 65 55 98
35 108 42 86 66 -19 21 -30 24 -39 10z m131 -216 c-40 -35 -104 -61 -118 -47
-4 4 -5 17 -2 28 4 16 20 25 67 36 90 23 96 21 53 -17z"/>
</g>
</svg>
