<?xml version="1.0" encoding="UTF-8"?>
<svg viewBox="0 0 137.84116 113.62164" xmlns="http://www.w3.org/2000/svg" xmlns:xlink="http://www.w3.org/1999/xlink">
 <defs>
  <linearGradient id="d">
   <stop stop-color="#2ca02c" offset="0"/>
   <stop stop-color="#2c962c" offset="1"/>
  </linearGradient>
  <linearGradient id="c">
   <stop stop-color="#d44500" offset="0"/>
   <stop stop-color="#d44b00" offset="1"/>
  </linearGradient>
  <linearGradient id="b">
   <stop stop-color="#04a" offset="0"/>
   <stop stop-color="#002e9d" offset="1"/>
  </linearGradient>
  <linearGradient id="a">
   <stop stop-color="#008033" offset="0"/>
   <stop stop-color="#006d33" offset="1"/>
  </linearGradient>
  <linearGradient id="n" x1="533.61" x2="575.25" gradientUnits="userSpaceOnUse">
   <stop stop-color="#4d4d4d" offset="0"/>
   <stop stop-color="#4d4d4d" stop-opacity="0" offset="1"/>
  </linearGradient>
  <linearGradient id="m" x1="533.64" x2="538.72" gradientUnits="userSpaceOnUse">
   <stop stop-color="#00aad4" offset="0"/>
   <stop stop-color="#0096d4" offset="1"/>
  </linearGradient>
  <linearGradient id="l" x1="519.64" x2="524.72" gradientUnits="userSpaceOnUse" xlink:href="#d"/>
  <linearGradient id="k" x1="533.64" x2="538.72" gradientUnits="userSpaceOnUse" xlink:href="#d"/>
  <linearGradient id="j" x1="519.64" x2="524.72" gradientUnits="userSpaceOnUse" xlink:href="#c"/>
  <linearGradient id="i" x1="533.38" x2="538.46" gradientUnits="userSpaceOnUse" xlink:href="#c"/>
  <linearGradient id="h" x1="519.64" x2="524.72" gradientUnits="userSpaceOnUse" xlink:href="#b"/>
  <linearGradient id="g" x1="533.64" x2="538.72" gradientUnits="userSpaceOnUse" xlink:href="#b"/>
  <linearGradient id="f" x1="519.64" x2="524.72" gradientUnits="userSpaceOnUse" xlink:href="#a"/>
  <linearGradient id="e" x1="536.58" x2="541.66" gradientUnits="userSpaceOnUse" xlink:href="#a"/>
 </defs>
 <g transform="matrix(.9938 0 0 .9938 -443.73 -843.36)">
  <path d="m519.64 962.36 5.0803-3v-70l-5.0803 3z" fill="#00aad4"/>
  <path d="m520 892.36h13.606v70h-13.606z" fill="#0cf"/>
  <path d="m533.61 962.39 1.7112-3.0829 39.929 1e-5 -1.7112 3.0829z" fill="url(#n)" opacity=".3"/>
  <path transform="translate(0 252.36)" d="m533.64 710 5.0803-3v-70l-5.0803 3z" fill="url(#m)"/>
  <path d="m520.99 892.36 4.1082-2.5853h12.895l-4.3007 2.5853z" fill="#fff"/>
  <path d="m527.6875,889.7684-1.7188,1.0938h.2188l1.7188-1.0938h-.2188zm1.0313,0-1,.625h.2188l1-.625h-.2188zm4.8438,0-.5.3125h.2188l.5-.3125h-.2188zm1.7188,0-1.8125,1.1563h.2188l1.8125-1.1563h-.2188z" fill="#666"/>
 </g>
 <g transform="matrix(.9938 0 0 .9938 -427.18 -843.36)">
  <path d="m519.64 962.36 5.0803-3v-70l-5.0803 3z" fill="url(#l)"/>
  <path d="m520 892.36h13.606v70h-13.606z" fill="#37c837"/>
  <path transform="translate(0 252.36)" d="m533.64 710 5.0803-3v-70l-5.0803 3z" fill="url(#k)"/>
  <path d="m520.99 892.36 4.1082-2.5853h12.895l-4.3007 2.5853z" fill="#fff"/>
  <path d="m527.6875,889.7684-1.7188,1.0938h.2188l1.7188-1.0938h-.2188zm1.0313,0-1,.625h.2188l1-.625h-.2188zm4.8438,0-.5.3125h.2188l.5-.3125h-.2188zm1.7188,0-1.8125,1.1563h.2188l1.8125-1.1563h-.2188z" fill="#666"/>
 </g>
 <g transform="matrix(.65455 -.19206 .27981 .95359 -483.07 -704.28)">
  <path d="m519.64 962.36 5.0803-3v-70l-5.0803 3z" fill="url(#j)"/>
  <path d="m520 892.36h13.606v70h-13.606z" fill="#d45500"/>
  <path d="m520.99 892.36 4.1082-2.5853h12.895l-4.3007 2.5853z" fill="#fff"/>
  <path d="m527.6875,889.7684-1.7188,1.0938h.2188l1.7188-1.0938h-.2188zm1.0313,0-1,.625h.2188l1-.625h-.2188zm4.8438,0-.5.3125h.2188l.5-.3125h-.2188zm1.7188,0-1.8125,1.1563h.2188l1.8125-1.1563h-.2188z" fill="#666"/>
  <path d="m533.38 962.46 5.0803-3v-70l-5.0803 3z" fill="url(#i)"/>
 </g>
 <g transform="matrix(0 -.9938 .9938 0 -883.85 629.67)">
  <path d="m519.64 962.36 5.0803-3v-70l-5.0803 3z" fill="url(#h)"/>
  <path d="m520 892.36h13.606v70h-13.606z" fill="#0055d4"/>
  <path transform="translate(0 252.36)" d="m533.64 710 5.0803-3v-70l-5.0803 3z" fill="url(#g)"/>
  <path d="m520.99 892.36 4.1082-2.5853h12.895l-4.3007 2.5853z" fill="#fff"/>
  <path d="m527.6875,889.7684-1.7188,1.0938h.2188l1.7188-1.0938h-.2188zm1.0313,0-1,.625h.2188l1-.625h-.2188zm4.8438,0-.5.3125h.2188l.5-.3125h-.2188zm1.7188,0-1.8125,1.1563h.2188l1.8125-1.1563h-.2188z" fill="#666"/>
 </g>
 <g transform="matrix(0 -.9938 .9938 0 -883.85 615.06)">
  <path d="m519.64 962.36 5.0803-3v-70l-5.0803 3z" fill="url(#f)"/>
  <path d="m520 892.36h16.583v70h-16.583z" fill="#0a4"/>
  <path d="m520.99 892.36 5.0212-2.5853h15.761l-5.2565 2.5853z" fill="#fff"/>
  <path d="m536.58 962.36 5.0803-3v-70l-5.0803 3z" fill="url(#e)"/>
  <path d="m527.6875,889.7684-1.7188,1.0938h.2188l1.7188-1.0938h-.2188zm1.0313,0-1,.625h.2188l1-.625h-.2188zm4.8438,0-.5.3125h.2188l.5-.3125h-.2188zm1.7188,0-1.8125,1.1563h.2188l1.8125-1.1563h-.2188z" fill="#666"/>
 </g>
</svg>
