<?xml version="1.0" standalone="no"?>
<!DOCTYPE svg PUBLIC "-//W3C//DTD SVG 20010904//EN"
 "http://www.w3.org/TR/2001/REC-SVG-20010904/DTD/svg10.dtd">
<svg version="1.0" xmlns="http://www.w3.org/2000/svg"
 width="1280.000000pt" height="640.000000pt" viewBox="0 0 1280.000000 640.000000"
 preserveAspectRatio="xMidYMid meet">
<metadata>
Created by potrace 1.15, written by Peter Selinger 2001-2017
</metadata>
<g transform="translate(0.000000,640.000000) scale(0.100000,-0.100000)"
fill="#000000" stroke="none">
<path d="M7965 5094 c-38 -7 -135 -27 -215 -43 -88 -19 -175 -31 -221 -31 -69
0 -82 -3 -133 -34 -74 -45 -173 -64 -258 -50 -57 10 -62 9 -98 -17 -76 -55
-123 -172 -139 -342 -8 -80 -7 -105 3 -117 7 -8 16 -23 19 -32 4 -10 13 -18
21 -18 7 0 50 -18 95 -41 89 -44 186 -127 247 -210 20 -27 43 -49 52 -49 10 0
35 -12 57 -25 22 -14 53 -25 68 -25 19 0 37 -10 55 -32 18 -21 70 -52 152 -91
146 -69 183 -95 209 -145 35 -68 -7 -92 -162 -92 -66 0 -97 -5 -125 -19 -93
-47 -212 -70 -517 -101 -141 -14 -249 -38 -476 -104 -101 -29 -263 -70 -359
-90 -96 -21 -245 -53 -330 -71 -188 -42 -321 -65 -367 -65 -19 0 -96 -18 -171
-39 -276 -80 -445 -119 -654 -151 -172 -26 -250 -45 -503 -123 -115 -36 -228
-70 -250 -77 -22 -6 -96 -15 -165 -20 -103 -7 -167 -19 -365 -70 -212 -55
-254 -63 -360 -67 -112 -4 -124 -7 -187 -39 -79 -41 -192 -70 -307 -80 -80 -6
-86 -9 -122 -45 -52 -52 -110 -66 -309 -74 -142 -6 -173 -10 -222 -31 -87 -36
-584 -114 -733 -114 -37 0 -68 -9 -120 -35 -38 -19 -106 -43 -150 -54 -193
-49 -338 -81 -421 -91 -312 -39 -367 -61 -432 -169 -19 -31 -19 -37 -6 -62 37
-73 165 -80 209 -12 18 26 12 43 -13 43 -24 0 -82 37 -82 53 0 9 26 18 77 26
42 7 212 46 377 87 440 109 468 115 612 123 130 7 131 7 200 48 63 38 82 44
209 64 231 36 609 38 699 3 14 -5 16 0 14 37 l-3 43 60 17 c33 9 110 35 170
59 216 83 218 84 365 85 99 1 143 6 165 17 93 48 324 107 700 178 149 28 317
63 375 76 152 36 180 41 449 79 285 41 352 57 523 124 160 63 204 75 355 100
67 12 200 40 295 65 95 24 200 46 232 49 l59 6 -106 -55 c-120 -61 -203 -85
-477 -140 -219 -43 -316 -72 -389 -116 -112 -68 -77 -66 224 12 122 32 186 43
270 47 106 6 113 7 174 44 120 72 295 132 475 164 l90 15 37 -36 c45 -44 49
-44 239 14 74 23 174 46 221 51 83 9 117 6 235 -25 31 -8 176 30 348 93 173
63 304 99 387 109 l58 6 15 -36 c19 -45 37 -46 96 -5 76 51 139 80 191 86 27
3 49 2 49 -2 0 -4 -9 -18 -20 -32 -24 -30 -26 -56 -6 -72 11 -10 28 -7 79 13
35 14 82 26 105 26 23 0 42 4 42 8 0 14 -33 39 -73 56 -34 14 -57 40 -45 51 8
8 356 82 473 101 76 12 159 17 270 17 185 -2 232 -10 227 -39 -8 -40 -30 -51
-112 -56 -84 -5 -120 -23 -120 -59 0 -29 32 -39 104 -32 51 5 66 9 66 22 1 25
30 58 85 93 27 18 51 42 53 53 6 32 16 37 102 51 45 7 88 18 96 25 22 18 17
48 -11 59 -29 11 -45 6 -99 -29 -39 -26 -43 -26 -225 -26 -149 -1 -194 -4
-229 -18 -41 -16 -42 -16 -56 6 -8 12 -18 34 -21 49 -9 35 -21 44 -71 52 -47
8 -60 -2 -84 -68 -17 -46 -13 -45 -215 -91 -137 -32 -347 -99 -484 -156 -51
-21 -101 -39 -110 -39 -10 0 -35 13 -57 30 -66 50 -112 42 -384 -62 -294 -113
-398 -132 -574 -104 -107 16 -128 14 -311 -30 -58 -14 -130 -24 -171 -24 -71
0 -182 27 -167 40 15 13 311 80 703 160 554 112 700 150 1050 278 30 11 114
28 185 37 265 34 699 133 998 228 l108 35 65 -33 65 -33 77 44 c142 82 276
108 360 70 38 -17 43 -17 84 -2 24 9 92 28 153 42 143 33 198 51 241 80 l34
23 0 -30 c0 -83 20 -120 120 -224 126 -130 128 -133 82 -157 -70 -35 -102 -17
-66 38 21 31 12 41 -21 26 -48 -22 -115 -11 -115 20 0 4 12 18 26 31 29 27 18
45 -15 27 -25 -13 -52 -13 -71 0 -13 9 -10 14 15 35 39 32 27 53 -41 78 -101
36 -233 8 -242 -51 -4 -27 30 -37 101 -28 39 5 57 3 72 -8 17 -14 18 -17 5
-26 -8 -5 -26 -10 -41 -10 -45 0 -68 -43 -29 -55 11 -3 47 1 81 10 34 8 64 13
66 11 3 -3 0 -21 -7 -41 -7 -20 -9 -39 -6 -42 4 -4 37 -10 74 -15 45 -5 94
-21 150 -48 l84 -40 29 29 c16 16 29 37 29 45 0 21 6 20 39 -3 15 -11 46 -27
69 -36 50 -20 101 -74 80 -85 -18 -10 -129 -35 -288 -65 -74 -14 -162 -35
-195 -47 -46 -17 -85 -22 -165 -23 -101 -2 -112 -4 -290 -65 -180 -62 -188
-64 -295 -66 -102 -2 -115 -4 -180 -35 -62 -29 -80 -33 -159 -34 l-88 0 -42
-41 c-30 -30 -52 -43 -84 -48 l-43 -6 8 -48 c14 -85 10 -243 -9 -284 l-17 -37
-43 39 c-49 45 -54 47 -60 22 -4 -12 -21 -23 -49 -30 -42 -11 -45 -10 -66 16
-29 35 -28 40 3 69 20 18 24 27 15 36 -8 8 -25 6 -64 -7 -77 -26 -91 -21 -95
35 l-3 45 35 -4 c25 -3 48 3 79 21 86 51 168 43 87 -8 -22 -14 -40 -31 -40
-39 0 -17 129 -51 159 -41 22 7 41 58 41 110 0 37 -18 105 -28 105 -20 0 -289
-54 -382 -77 -130 -32 -214 -63 -307 -114 -40 -21 -74 -39 -76 -39 -3 0 -7 10
-10 22 -6 20 -10 21 -91 14 -129 -9 -355 -57 -736 -156 -496 -128 -708 -168
-912 -172 -111 -2 -115 -3 -198 -44 -47 -23 -116 -52 -155 -64 -81 -24 -212
-36 -270 -23 -35 8 -60 2 -200 -43 -630 -206 -1094 -311 -1610 -365 -113 -12
-121 -14 -144 -42 -36 -42 -79 -57 -168 -57 -87 0 -149 -15 -238 -55 -64 -29
-63 -29 -249 -9 -54 6 -64 4 -130 -30 -59 -30 -91 -39 -189 -51 -124 -16 -188
-39 -227 -81 -13 -13 -21 -24 -19 -24 23 0 213 27 384 55 206 34 408 65 422
65 11 0 -13 -21 -38 -34 -40 -20 -35 -36 13 -36 53 0 80 18 113 74 23 40 58
66 89 66 6 0 20 -17 29 -38 14 -32 90 -102 110 -102 15 0 29 66 24 110 -6 50
-6 50 31 69 96 48 412 125 412 100 0 -13 -88 -48 -162 -65 -94 -21 -171 -55
-191 -85 -9 -12 -15 -24 -13 -26 2 -3 46 7 97 21 171 46 543 96 634 84 l30 -4
-39 -17 c-30 -13 -37 -20 -28 -29 9 -9 21 -9 49 0 30 9 40 9 51 -2 11 -11 0
-17 -70 -35 -46 -13 -218 -62 -383 -111 -588 -174 -816 -225 -1104 -246 -92
-7 -94 -8 -113 -40 -25 -42 -43 -48 -68 -22 -16 17 -32 21 -90 22 -79 1 -90
-12 -45 -54 14 -13 23 -30 21 -37 -16 -42 435 29 832 130 l173 44 64 -53 c92
-75 95 -75 168 -15 110 91 180 113 211 66 16 -25 59 -35 70 -16 10 16 100 32
260 46 185 17 245 32 307 77 l44 33 -44 3 c-51 4 -126 -8 -276 -42 -126 -29
-222 -33 -265 -11 -17 9 -30 19 -30 24 0 4 46 11 103 14 161 10 523 65 605 92
86 30 133 32 155 7 15 -16 15 -20 -3 -49 -15 -25 -34 -36 -99 -58 -94 -31
-133 -57 -113 -76 6 -7 12 -24 12 -37 0 -22 3 -24 31 -18 17 3 106 36 198 72
161 64 298 104 353 104 32 0 47 -35 29 -68 -6 -12 -11 -28 -11 -38 0 -15 8
-16 73 -10 39 3 106 15 147 26 123 32 147 24 93 -32 -23 -24 -25 -30 -13 -38
34 -21 149 -5 314 44 62 18 111 26 166 26 l78 0 -14 -40 c-16 -45 -10 -85 12
-94 8 -3 37 3 65 14 82 33 88 29 64 -45 -3 -11 0 -28 7 -37 12 -15 19 -16 73
-4 33 7 143 41 245 77 173 59 191 63 275 64 81 0 95 -3 142 -29 29 -16 59 -39
68 -52 l15 -23 75 35 c83 40 176 55 215 34 20 -11 22 -17 16 -60 -9 -65 -1
-80 39 -80 19 0 37 5 40 10 6 10 55 15 55 6 0 -3 -4 -16 -10 -30 -18 -48 -11
-51 148 -52 156 0 182 -4 452 -77 69 -19 146 -37 172 -41 45 -7 48 -6 54 20
11 43 -7 77 -51 99 -34 17 -62 20 -179 21 -114 1 -140 4 -148 17 -12 23 -62
36 -179 46 -112 10 -141 20 -159 59 -10 23 -15 24 -63 19 -29 -3 -65 -8 -82
-12 -47 -9 -60 6 -41 43 30 58 28 59 -111 65 -83 3 -183 16 -282 36 -110 22
-183 31 -253 31 -90 0 -107 -3 -211 -42 -146 -54 -193 -58 -276 -24 -36 14
-70 26 -77 26 -9 0 -11 10 -8 33 8 54 -3 60 -88 48 -45 -7 -185 -11 -354 -10
-227 2 -289 0 -332 -13 l-52 -15 -13 25 c-6 14 -25 35 -40 46 -26 19 -41 21
-153 20 -68 -1 -147 -4 -174 -8 -32 -4 -50 -3 -50 4 0 5 9 10 20 10 10 0 56
16 101 36 81 36 83 36 176 29 68 -5 98 -4 108 5 22 18 18 28 -12 32 -17 2 -29
10 -31 20 -3 15 6 16 85 11 58 -3 121 0 185 11 135 22 148 21 148 -8 0 -70 30
-116 55 -83 5 7 23 20 39 28 32 15 51 47 23 36 -26 -10 -79 13 -75 32 5 24 69
26 122 3 84 -38 100 -37 130 3 59 77 180 126 310 126 44 -1 95 -4 111 -9 29
-8 29 -9 9 -20 -11 -6 -75 -18 -142 -26 -109 -13 -206 -43 -175 -53 7 -2 73 3
147 11 207 24 294 20 280 -13 -4 -9 -9 -27 -11 -41 l-5 -26 79 1 c70 0 84 -3
122 -28 l42 -28 37 23 c89 55 173 84 402 138 237 56 234 55 102 56 -82 0 -161
9 -262 27 -178 33 -256 34 -329 4 -30 -12 -56 -26 -58 -32 -1 -5 12 -18 30
-29 l32 -18 -45 -14 c-58 -18 -109 -19 -92 -2 17 17 15 36 -6 66 -53 76 -25
92 167 99 75 2 160 11 189 19 52 15 54 14 83 -11 24 -19 42 -25 79 -25 70 0
81 6 68 36 -12 27 0 48 31 57 13 3 21 -2 25 -16 4 -17 10 -19 45 -13 138 21
125 22 117 -7 -3 -15 -9 -38 -12 -51 l-6 -24 59 14 c140 33 371 63 597 80 50
3 110 12 135 20 77 23 133 17 151 -15 8 -16 3 -17 -44 -13 -60 5 -112 -9 -150
-39 -42 -33 -33 -44 32 -41 33 2 79 -2 103 -9 l44 -13 -71 -7 c-42 -5 -114
-24 -175 -47 -118 -45 -223 -62 -232 -38 -3 8 -29 30 -56 49 -50 33 -51 34
-31 52 11 10 17 21 15 25 -6 10 -56 19 -72 13 -12 -5 -63 -82 -63 -96 0 -3 21
-7 46 -9 32 -2 51 -9 58 -21 15 -24 -6 -37 -65 -37 -96 0 -199 -33 -176 -56
15 -15 98 -15 182 0 311 56 344 60 409 49 67 -11 136 -39 136 -54 0 -6 -16
-19 -36 -31 -25 -15 -34 -26 -32 -41 5 -34 73 -47 293 -57 232 -12 292 -21
358 -55 67 -34 131 -32 346 11 l34 7 -23 -31 c-14 -18 -25 -50 -27 -79 l-5
-49 135 -17 c121 -16 139 -16 171 -3 32 13 56 46 56 77 0 5 -60 9 -140 9 -116
0 -140 2 -140 15 0 8 25 42 55 76 30 34 55 69 55 79 0 15 -7 15 -82 -8 -110
-33 -294 -34 -523 -3 -88 12 -217 24 -287 28 -108 5 -128 9 -128 22 0 9 -11
40 -25 69 -36 78 -34 86 20 80 31 -4 75 -24 141 -63 110 -66 102 -65 276 -9
149 47 242 45 286 -9 11 -12 22 -11 80 10 75 27 102 47 102 75 0 29 -40 22
-88 -17 -42 -33 -72 -37 -72 -10 0 25 75 76 145 98 94 29 298 31 393 3 34 -10
65 -22 67 -26 8 -13 -223 -43 -286 -36 l-61 6 26 -31 c34 -41 33 -65 -5 -88
l-32 -20 34 -5 c19 -3 79 -13 134 -22 55 -9 150 -18 212 -21 128 -7 192 8 255
58 20 16 44 29 53 29 8 0 28 -18 43 -39 37 -53 60 -65 193 -101 125 -34 157
-51 245 -133 87 -80 106 -88 166 -69 45 15 52 15 96 -2 94 -37 178 -56 243
-56 36 0 172 18 300 39 129 21 259 42 289 46 72 10 86 18 111 68 20 38 22 40
30 20 11 -29 39 -36 102 -24 52 9 80 19 290 95 54 20 122 39 152 42 l55 7 0
42 c0 56 -33 104 -92 133 -100 50 -254 19 -315 -65 -23 -32 -33 -37 -58 -35
-16 2 -63 -6 -103 -19 -48 -15 -76 -19 -82 -13 -17 17 -32 127 -23 164 15 56
33 49 33 -13 0 -58 15 -82 47 -75 16 3 18 12 15 70 -4 69 3 108 19 108 5 0 9
-42 9 -94 l0 -93 25 5 c27 5 34 23 33 81 -1 22 5 38 17 47 26 19 39 17 30 -3
-17 -39 -16 -60 4 -83 13 -17 23 -22 30 -15 19 20 91 163 105 210 15 47 15 48
-15 92 -35 51 -107 110 -166 137 -39 17 -43 17 -76 1 -47 -22 -68 -15 -262 85
-82 43 -163 81 -178 84 l-28 7 16 -30 c36 -71 98 -106 279 -156 173 -48 186
-52 215 -71 32 -20 81 -65 81 -74 0 -11 -177 -95 -270 -128 -178 -65 -363
-108 -570 -135 -185 -25 -257 -29 -265 -17 -11 18 -120 84 -134 81 -8 -1 -52
3 -98 9 l-83 12 -35 67 c-49 92 -58 100 -165 160 -125 71 -196 119 -245 168
-29 29 -57 45 -100 57 -81 24 -132 51 -264 141 -115 78 -237 145 -266 145 -9
0 -35 21 -58 46 -23 25 -73 64 -112 86 -121 70 -172 108 -198 146 l-24 37 86
0 c77 0 92 3 140 30 29 16 64 44 78 62 21 27 33 33 81 38 122 13 209 28 281
47 l76 19 100 -105 c110 -116 142 -136 211 -136 46 0 47 1 30 19 -10 10 -64
45 -122 76 -105 58 -128 75 -100 75 18 0 21 16 6 25 -5 3 -15 15 -20 26 -10
18 -9 19 15 13 16 -4 32 -1 43 8 33 29 50 28 99 -8 106 -76 168 -115 205 -126
26 -8 45 -22 60 -45 42 -68 148 -137 282 -184 53 -18 85 -38 135 -84 53 -47
100 -76 226 -138 155 -75 365 -160 374 -151 13 13 -58 62 -174 120 -133 68
-195 114 -195 146 0 15 -9 18 -60 18 -66 0 -81 17 -35 38 37 17 58 15 160 -13
49 -14 102 -25 117 -25 25 0 28 4 28 34 0 39 -9 48 -70 72 -58 22 -70 33 -49
44 11 7 15 18 11 36 -4 24 -2 26 14 19 42 -17 86 -22 120 -15 40 9 55 20 37
27 -21 8 -58 41 -53 47 13 12 128 36 175 36 53 0 145 -26 145 -40 0 -5 -8 -11
-17 -14 -17 -5 -180 -36 -189 -36 -2 0 -4 -4 -4 -10 0 -6 28 -10 65 -10 49 0
67 -4 71 -15 10 -25 -15 -44 -64 -50 -71 -9 -92 -15 -92 -24 0 -4 13 -8 29 -8
32 0 61 -18 61 -38 0 -7 -17 -15 -38 -18 -21 -4 -46 -13 -57 -21 -19 -15 -19
-15 10 -16 42 0 164 35 180 51 10 12 53 111 69 163 6 18 7 18 34 0 36 -24 108
-23 239 5 115 24 165 26 208 7 29 -12 27 -13 -99 -59 -71 -26 -145 -47 -167
-47 -21 0 -39 -4 -39 -10 0 -18 73 -22 188 -10 189 19 332 23 380 11 23 -7 40
-16 38 -20 -9 -14 -114 -40 -267 -66 -168 -28 -234 -47 -269 -76 l-25 -21 25
6 c122 26 252 27 345 4 l40 -10 -25 -13 c-14 -7 -82 -25 -150 -39 -115 -24
-230 -67 -230 -85 0 -10 283 34 385 59 88 22 211 78 239 109 17 18 17 19 -1
24 -10 3 -48 8 -85 12 -105 10 -100 25 12 40 74 9 147 50 174 98 13 23 27 56
31 74 l6 31 -63 -19 c-65 -21 -338 -40 -338 -25 0 5 10 21 21 38 18 25 20 33
10 55 -12 25 -13 26 -94 19 -45 -3 -99 -9 -120 -12 -37 -6 -37 -6 -26 19 8 18
8 30 0 46 -11 19 -20 21 -114 21 -56 0 -131 -5 -166 -11 -46 -7 -67 -7 -75 1
-17 17 -11 92 10 136 19 38 21 39 94 50 191 29 314 148 314 304 -1 100 -30
153 -108 192 -93 47 -175 102 -383 259 -177 134 -308 219 -338 219 -8 0 -43
-16 -79 -35 -88 -47 -98 -46 -119 14 -45 128 -121 190 -233 191 -87 0 -163
-26 -377 -131 l-187 -90 0 -42 c0 -23 7 -66 14 -94 8 -29 11 -53 8 -53 -4 0
-68 -7 -142 -15 -283 -32 -465 -69 -667 -136 l-122 -40 -39 25 c-21 13 -66 46
-98 73 -115 96 -197 142 -274 157 -26 4 -52 23 -95 67 -95 97 -218 196 -437
352 -206 146 -343 253 -387 301 -22 23 -31 26 -90 25 -36 -1 -97 -7 -136 -15z
m217 -125 c31 -22 64 -39 72 -39 25 0 27 -18 4 -34 -33 -24 -76 -19 -146 14
-35 17 -66 30 -68 30 -10 0 25 -56 48 -77 62 -58 190 -84 254 -52 29 15 32 14
95 -24 85 -51 145 -98 303 -236 188 -164 274 -225 415 -293 128 -61 176 -91
185 -114 6 -17 -70 -92 -102 -100 -17 -5 -33 3 -66 34 -46 42 -120 84 -170 96
-27 7 -28 6 -16 -10 8 -9 39 -30 68 -47 l54 -30 -23 -18 c-47 -37 -178 -78
-388 -123 -118 -26 -217 -49 -220 -51 -2 -3 -12 8 -22 25 -15 23 -33 34 -91
51 -104 31 -124 43 -211 128 -70 67 -83 76 -125 81 -43 5 -49 9 -79 55 -17 28
-43 63 -58 79 -24 26 -31 28 -71 22 -43 -5 -44 -5 -33 15 16 31 -3 69 -35 69
-14 0 -28 -4 -31 -10 -8 -13 -45 -13 -45 -1 0 5 8 23 17 40 10 16 15 32 13 35
-5 4 -36 -1 -117 -19 -15 -4 -20 -10 -16 -25 7 -25 -6 -25 -51 -2 -31 15 -36
22 -36 54 0 51 -34 87 -151 163 -105 68 -145 115 -156 179 -6 41 -7 41 40 21
52 -22 74 -19 153 19 105 50 112 52 106 21 -3 -16 2 -33 13 -45 9 -10 15 -27
13 -37 -3 -17 -10 -20 -97 -43 -53 -14 -44 -28 25 -41 26 -5 58 -18 69 -29 18
-17 27 -19 49 -10 28 10 28 11 24 92 -3 72 -1 83 15 86 9 2 31 -10 48 -28 28
-27 31 -36 26 -71 l-5 -40 76 3 77 3 3 33 c4 37 2 36 38 17 18 -9 56 -15 99
-15 83 0 130 -12 161 -41 l22 -21 12 22 c9 17 8 26 -5 46 -19 29 -116 94 -140
94 -9 0 -31 -16 -49 -35 -39 -41 -56 -44 -56 -10 0 19 9 31 31 43 63 35 65 38
52 71 -11 30 -10 31 14 31 14 0 39 11 55 25 36 31 50 28 130 -26z m-422 -9 c0
-5 -10 -10 -22 -10 -12 0 -41 -9 -65 -21 -48 -23 -76 -22 -81 3 -2 12 7 20 30
27 45 13 138 13 138 1z m3264 -335 c48 -10 100 -68 120 -132 6 -20 2 -24 -41
-36 -26 -8 -47 -18 -46 -23 2 -5 28 -10 58 -12 55 -3 55 -3 55 -36 0 -22 -8
-40 -26 -57 -24 -23 -33 -24 -176 -27 -143 -3 -150 -3 -143 15 26 62 4 120
-62 166 l-43 31 32 33 c38 39 99 70 159 82 42 8 58 7 113 -4z m467 -203 c15
-9 45 -36 69 -59 l42 -42 -46 15 c-63 22 -110 55 -114 82 -4 27 13 28 49 4z
m-852 -29 c-23 -61 2 -123 65 -163 36 -22 37 -22 74 -4 73 35 260 27 246 -11
-6 -14 -51 -33 -131 -54 -23 -6 -45 -16 -48 -21 -10 -16 59 -22 119 -11 71 13
124 44 132 78 7 25 8 25 73 20 36 -4 77 -9 91 -12 23 -5 26 -1 49 66 21 67 22
74 7 85 -15 11 -15 12 0 18 31 12 77 6 114 -15 35 -20 80 -81 80 -109 0 -19
-48 -3 -94 31 -45 33 -76 38 -76 11 0 -31 30 -62 90 -92 47 -24 61 -27 67 -16
15 24 62 48 131 66 74 20 96 13 86 -25 -4 -17 0 -24 15 -28 39 -10 13 -55 -37
-65 -18 -4 -32 -11 -30 -17 3 -11 37 -11 81 0 24 7 27 5 27 -18 0 -22 -6 -27
-36 -33 -64 -12 -130 2 -221 46 -97 47 -143 63 -143 50 0 -15 78 -78 187 -151
119 -80 192 -144 224 -196 24 -38 22 -89 -11 -248 -11 -49 -20 -105 -22 -124
l-3 -35 -110 0 c-71 0 -118 4 -132 12 -32 18 -66 -2 -131 -76 -51 -59 -100
-88 -139 -80 -13 2 -7 14 28 58 83 103 95 132 69 181 -9 16 -6 24 20 45 35 30
39 67 14 120 -33 70 -151 146 -198 128 -11 -4 -23 3 -36 19 -26 33 -108 82
-240 143 -253 117 -347 202 -378 339 -8 37 -6 44 18 74 28 32 71 51 102 43 13
-3 15 -9 7 -29z m-2946 -46 c18 -8 60 -37 95 -65 35 -28 73 -57 85 -66 l22
-15 -26 0 c-15 -1 -53 17 -89 42 -34 23 -84 56 -111 73 -64 41 -48 61 24 31z
m-143 -47 c22 -11 48 -20 60 -20 23 0 24 -1 8 -35 -10 -23 -8 -28 25 -59 43
-39 52 -82 15 -71 -13 4 -60 29 -104 56 -45 27 -87 49 -93 49 -18 0 -13 17 12
33 19 13 20 18 10 35 -22 37 7 42 67 12z m270 -139 c0 -4 28 -21 63 -35 60
-26 107 -60 107 -78 0 -4 -8 -4 -17 1 -10 6 -48 24 -84 40 -43 20 -69 39 -77
56 -7 15 -8 25 -2 25 6 0 10 -4 10 -9z m-280 -42 c53 -54 40 -76 -20 -34 -23
16 -43 32 -46 37 -5 8 13 38 22 38 2 0 22 -19 44 -41z m456 27 c15 -11 16 -17
7 -27 -16 -16 -43 -4 -43 21 0 24 9 25 36 6z m3774 -91 c0 -12 -79 -44 -85
-35 -4 6 9 17 27 25 34 14 58 19 58 10z m266 -198 c7 -19 -25 -89 -39 -84 -7
2 -18 17 -26 33 -8 16 -19 32 -25 37 -17 11 13 27 52 27 18 0 35 -6 38 -13z
m-142 -63 c9 -3 16 -15 16 -25 0 -15 -7 -19 -35 -19 -31 0 -35 3 -35 25 0 26
19 32 54 19z m-943 -177 c-18 -18 -13 -25 19 -32 36 -8 37 -12 7 -47 l-24 -27
-20 27 c-16 21 -24 24 -33 15 -10 -9 -9 -20 4 -53 9 -23 14 -46 11 -51 -4 -5
-35 -9 -69 -9 -69 0 -92 -14 -83 -50 6 -24 -1 -25 -27 -5 -26 20 -96 19 -147
-2 -40 -16 -42 -15 -55 2 -17 22 -18 44 -4 81 l11 27 32 -30 c62 -59 88 -62
130 -15 18 20 18 21 -3 32 l-22 12 28 19 c16 10 41 19 57 19 21 0 27 5 27 21
0 13 -8 23 -20 26 -16 4 -18 8 -9 19 7 9 33 14 73 14 42 0 70 6 91 19 30 18
48 10 26 -12z m160 -107 c16 0 1 -17 -20 -23 -10 -2 -25 -1 -32 4 -12 8 -11
11 1 19 8 5 21 8 28 5 8 -3 18 -5 23 -5z m123 -137 c-22 -16 -26 -16 -49 1
-11 8 -16 19 -12 30 6 15 9 15 42 -1 33 -16 35 -18 19 -30z m-276 -103 c24
-11 70 -45 103 -77 l61 -57 -29 -8 c-70 -19 -192 20 -267 87 l-38 34 33 20
c42 26 82 26 137 1z m-1675 -272 c33 -16 30 -32 -7 -36 -33 -4 -51 10 -43 32
8 19 15 20 50 4z m252 -91 c38 -26 36 -37 -6 -37 -16 0 -29 7 -33 18 -3 9 -9
23 -12 30 -9 19 14 14 51 -11z m-1115 -42 c0 -3 -7 -21 -14 -40 -21 -49 -56
-49 -56 -2 0 19 3 37 7 40 8 8 63 9 63 2z m-522 -22 c-2 -13 -15 -19 -46 -21
-46 -3 -55 9 -19 26 36 17 69 15 65 -5z m-703 -21 c0 -6 -16 -21 -35 -34 -30
-21 -35 -30 -34 -61 1 -24 -3 -37 -11 -37 -14 0 -60 50 -67 72 -4 10 -8 10
-22 -1 -19 -16 -31 -9 -23 12 3 8 36 22 74 32 37 10 75 22 83 26 18 10 35 6
35 -9z m2595 -47 c16 -8 55 -33 86 -55 32 -22 65 -40 75 -40 38 0 28 -20 -15
-32 -50 -13 -66 -36 -40 -55 26 -19 38 -17 124 22 89 40 101 42 124 16 9 -10
46 -31 82 -46 52 -22 62 -30 53 -41 -19 -23 -54 -16 -103 22 -52 39 -68 39
-42 -1 19 -29 63 -58 164 -109 39 -20 86 -49 105 -66 43 -37 62 -38 79 -2 7
15 17 26 21 25 4 -2 21 -3 37 -3 24 0 33 -6 41 -27 5 -16 17 -34 26 -41 13 -9
14 -15 5 -24 -9 -9 -21 -7 -52 7 -51 23 -64 11 -26 -22 27 -23 36 -25 83 -19
53 6 54 6 126 -49 84 -63 231 -135 332 -163 l70 -20 -2 -38 c-1 -22 -4 -69 -8
-105 l-6 -66 -52 -7 c-29 -3 -65 -9 -82 -12 -30 -7 -30 -7 -11 14 18 21 18 22
-8 32 -15 5 -56 10 -92 10 l-65 0 7 38 c4 20 14 42 23 49 14 10 14 12 1 17
-448 159 -725 294 -907 444 -38 30 -44 32 -50 16 -4 -11 2 -33 15 -58 27 -48
20 -56 -55 -56 -44 0 -55 4 -72 26 -30 39 -26 52 16 56 48 4 51 19 12 59 -31
31 -32 32 -46 13 -8 -10 -17 -31 -20 -46 -3 -16 -8 -28 -12 -28 -3 0 -24 12
-46 27 -27 19 -52 27 -77 26 -36 0 -38 1 -38 32 0 18 -5 46 -11 63 -13 38 2
72 32 72 11 0 43 -22 71 -50 54 -54 66 -58 102 -35 21 14 23 20 15 62 -11 59
-50 125 -84 143 -25 13 -25 15 -9 27 24 17 68 16 104 -2z m-2035 -50 c0 -18
-8 -20 -62 -23 -56 -3 -63 -1 -63 16 0 29 10 33 70 30 47 -3 55 -6 55 -23z
m1636 -46 c23 -23 22 -54 -2 -54 -21 0 -82 53 -74 65 11 17 54 11 76 -11z
m-2791 -12 c0 -41 -23 -59 -80 -65 -64 -6 -64 7 -1 56 51 39 81 42 81 9z m375
-155 c-3 -8 -5 -22 -5 -33 0 -32 -30 -21 -46 16 -8 19 -19 35 -25 35 -8 0 -8
4 1 14 10 13 16 13 46 -2 20 -10 32 -22 29 -30z m-761 -10 c8 -50 27 -66 68
-58 l31 6 -19 -21 c-34 -38 -89 -59 -155 -59 -57 0 -64 3 -96 35 -41 41 -38
53 7 30 17 -9 41 -15 53 -13 18 2 23 11 25 46 3 38 7 45 33 54 16 5 29 14 29
20 0 25 18 -6 24 -40z m571 6 c41 -27 40 -39 -3 -52 -60 -17 -113 35 -64 63
24 14 28 14 67 -11z m3602 -14 c10 -26 -8 -30 -28 -5 -10 13 -19 27 -19 32 0
14 40 -10 47 -27z m-1391 -44 l6 -39 26 17 c34 22 121 21 236 -4 l90 -20 -51
-22 c-29 -12 -87 -30 -130 -41 -132 -32 -163 -41 -163 -51 0 -16 75 -11 200
11 112 19 188 19 220 -1 13 -8 11 -12 -7 -25 -13 -9 -36 -36 -53 -60 l-30 -44
-36 24 c-38 26 -67 31 -221 40 -91 4 -103 3 -103 -11 0 -14 8 -16 51 -11 28 4
60 2 70 -3 15 -9 16 -15 7 -41 -16 -47 -61 -69 -142 -69 -53 0 -66 3 -59 13 6
6 13 22 16 35 7 28 -6 28 -74 2 -59 -24 -84 -19 -93 15 -9 36 2 53 49 71 57
21 82 48 65 69 -11 13 -15 13 -41 0 -15 -8 -38 -15 -51 -15 -21 0 -19 4 17 34
35 29 38 36 26 50 -16 19 -18 18 37 45 47 24 53 41 20 64 -22 15 -21 16 25 10
32 -4 47 -2 47 6 0 9 5 9 20 1 12 -7 22 -25 26 -50z m101 44 c9 -23 -13 -40
-32 -24 -12 10 -13 16 -4 26 15 18 28 18 36 -2z m-2618 -40 c19 -43 -20 -74
-49 -39 -10 12 -9 20 4 40 21 32 30 31 45 -1z m1589 -60 l23 -7 -23 -24 c-13
-14 -36 -31 -51 -40 -29 -15 -122 -22 -134 -9 -14 13 46 59 94 72 57 15 61 16
91 8z m-2883 -91 c-9 -15 -32 -53 -51 -83 -19 -30 -34 -64 -34 -76 0 -20 -10
-24 -112 -43 -62 -12 -138 -21 -168 -21 l-56 0 4 35 c6 52 48 89 124 109 162
43 179 49 208 83 18 21 39 33 54 33 14 0 28 6 33 13 16 25 14 -22 -2 -50z
m295 23 c0 -11 -21 -41 -33 -47 -13 -6 -217 -23 -217 -18 0 13 73 53 120 65
65 18 130 18 130 0z m4095 -36 c19 -7 19 -8 -5 -18 -17 -6 -32 -6 -45 1 -19
10 -19 10 0 18 25 9 26 9 50 -1z m-2151 -137 c36 -8 37 -9 20 -24 -33 -30
-164 -64 -164 -43 0 3 10 23 23 45 24 43 21 43 121 22z m4436 -24 c0 -11 9
-32 20 -46 29 -37 23 -149 -10 -186 -25 -28 -100 78 -100 141 0 36 -14 42 -29
13 -7 -12 -7 -31 0 -56 13 -46 -1 -85 -30 -85 -27 0 -41 29 -41 87 0 26 -4 54
-9 62 -18 28 91 90 157 91 36 0 42 -3 42 -21z m-1823 -35 c37 -9 93 -19 123
-23 l55 -6 -37 -18 c-50 -24 -159 -22 -269 4 -49 11 -89 24 -89 28 0 31 115
39 217 15z m-2842 -19 c22 -1 39 -6 38 -11 -4 -13 -193 -17 -193 -5 0 20 35
31 75 24 22 -3 58 -7 80 -8z m-3057 -307 c-4 -29 -42 -48 -97 -48 l-44 0 19
21 c23 26 70 48 102 49 19 0 23 -5 20 -22z"/>
<path d="M8310 4732 c0 -13 39 -46 101 -85 64 -40 68 -45 79 -93 13 -55 -23
-41 -112 45 -54 51 -64 43 -18 -14 54 -68 35 -85 -39 -35 -72 49 -94 37 -41
-23 36 -42 38 -57 7 -57 -30 0 -50 22 -75 81 -21 49 -40 63 -63 48 -11 -7 -10
-11 9 -24 12 -9 22 -27 22 -39 0 -52 -52 -58 -146 -16 -34 15 -60 21 -78 16
-31 -8 -34 -22 -6 -29 14 -3 20 -14 20 -31 l0 -27 64 7 c54 5 76 2 145 -21 58
-19 92 -25 116 -21 33 7 34 6 37 -30 4 -50 28 -64 67 -41 38 22 74 22 152 -2
110 -34 138 -31 98 8 -34 34 -36 51 -10 76 20 17 20 18 -9 41 -16 14 -32 39
-35 57 -4 17 -16 55 -27 84 -19 51 -19 51 -57 46 -44 -6 -83 11 -125 56 -27
28 -76 43 -76 23z m184 -271 c10 -16 -28 -51 -61 -57 -29 -6 -33 -4 -33 14 0
36 77 71 94 43z"/>
<path d="M7593 4654 c-12 -31 45 -54 71 -29 22 22 20 32 -6 39 -38 10 -58 7
-65 -10z"/>
<path d="M7840 4612 l-35 -17 53 -3 c51 -3 82 8 82 29 0 15 -63 9 -100 -9z"/>
<path d="M7710 4592 c0 -5 6 -15 14 -21 16 -13 49 -4 43 13 -4 14 -57 21 -57
8z"/>
<path d="M8050 4387 c-35 -18 -33 -51 3 -55 35 -4 57 13 57 44 0 27 -20 31
-60 11z"/>
<path d="M11127 4038 c-25 -62 -44 -115 -42 -117 6 -5 146 39 185 59 42 22 80
60 59 60 -8 0 -32 -11 -54 -25 -42 -26 -80 -32 -90 -15 -4 6 3 35 16 65 18 45
20 57 9 70 -7 8 -18 15 -25 15 -7 0 -33 -51 -58 -112z"/>
<path d="M11410 3931 c-56 -22 -130 -68 -130 -81 0 -14 15 -12 57 5 68 28 73
24 73 -58 0 -49 5 -80 16 -95 20 -30 36 -28 23 2 -25 55 17 104 109 127 46 13
51 25 25 69 -30 52 -92 63 -173 31z m111 -41 c28 -16 24 -40 -7 -40 -34 0 -63
28 -43 41 18 11 26 11 50 -1z"/>
<path d="M11590 3674 c-59 -27 -120 -70 -120 -83 0 -11 83 4 137 25 47 17 63
37 56 65 -7 24 -7 24 -73 -7z"/>
<path d="M9986 2504 c-9 -23 0 -32 41 -43 32 -9 73 -1 73 14 0 8 -78 45 -94
45 -7 0 -17 -7 -20 -16z"/>
<path d="M10130 2480 c-24 -46 31 -118 109 -141 46 -14 95 0 112 32 8 15 3 22
-28 39 -21 11 -63 36 -93 55 -63 40 -85 43 -100 15z"/>
<path d="M10317 2314 c-4 -4 -7 -23 -7 -41 0 -30 3 -34 23 -31 18 2 22 9 22
38 0 33 -20 51 -38 34z"/>
<path d="M10430 2281 c0 -45 17 -81 39 -81 37 0 41 51 6 85 -32 33 -45 31 -45
-4z"/>
<path d="M10739 2132 c-20 -17 -21 -22 -10 -36 17 -21 80 -21 109 0 31 21 28
31 -14 38 -19 4 -41 9 -48 12 -7 3 -23 -4 -37 -14z"/>
<path d="M10935 2065 c-4 -11 -10 -30 -15 -42 -5 -11 -6 -24 -3 -27 12 -11 84
-6 118 8 50 21 46 40 -8 33 -46 -7 -58 -2 -75 28 l-11 20 -6 -20z"/>
<path d="M9959 3991 c-13 -11 -21 -22 -18 -25 13 -13 90 7 100 25 9 17 6 19
-25 19 -18 0 -44 -9 -57 -19z"/>
<path d="M9314 3926 c-41 -18 -74 -62 -74 -97 0 -27 3 -29 39 -29 38 0 68 19
43 28 -18 6 -14 21 13 54 24 28 33 58 18 58 -5 -1 -22 -7 -39 -14z"/>
<path d="M9668 3673 c-18 -20 -34 -83 -21 -83 4 0 22 9 38 20 38 25 66 25 116
-1 54 -27 67 -20 34 19 -50 60 -134 82 -167 45z"/>
<path d="M8762 3518 c2 -17 13 -25 40 -32 42 -10 129 3 129 19 0 12 -81 33
-134 34 -34 1 -38 -1 -35 -21z"/>
<path d="M9979 3386 c-24 -21 -25 -25 -14 -53 24 -57 94 -95 135 -73 l22 12
-23 12 c-15 7 -28 27 -36 56 -11 39 -35 71 -52 70 -3 0 -18 -11 -32 -24z"/>
<path d="M8530 3369 c-10 -14 -31 -23 -61 -26 -41 -5 -49 -10 -68 -43 -28 -51
-27 -53 14 -26 19 13 56 27 82 31 82 11 93 16 93 37 0 18 -25 47 -40 47 -3 0
-12 -9 -20 -20z"/>
<path d="M9808 3348 c-2 -18 -13 -24 -58 -33 -78 -14 -76 -33 7 -70 57 -24 85
-46 169 -132 91 -92 106 -103 137 -103 31 0 36 -3 39 -27 3 -27 5 -28 76 -33
62 -4 77 -9 93 -29 10 -13 19 -29 19 -37 0 -10 15 -12 68 -7 52 4 75 2 99 -11
32 -16 74 -65 86 -98 8 -23 42 -23 81 1 29 18 55 25 84 22 10 -1 10 -6 2 -22
-10 -17 -6 -25 31 -59 37 -34 41 -42 37 -72 l-6 -33 45 0 c55 -1 73 -21 73
-83 0 -25 4 -41 10 -37 5 3 26 -1 46 -10 51 -21 68 -19 103 14 57 53 36 82
-39 55 -40 -14 -51 -15 -64 -5 -23 19 -20 44 9 71 28 26 33 58 10 66 -8 3 -37
-2 -65 -11 -28 -9 -54 -14 -57 -11 -4 3 0 24 7 46 7 22 11 43 7 46 -3 3 -25 8
-49 11 -47 6 -68 24 -68 60 0 21 -5 23 -44 23 -25 0 -56 -4 -69 -9 -22 -9 -26
-7 -31 14 -4 17 -22 32 -54 47 -26 13 -51 33 -57 46 -13 29 -24 28 -86 -5 -50
-27 -51 -28 -62 -8 -7 10 -25 32 -40 48 -27 28 -30 29 -91 22 -74 -7 -77 -3
-68 84 l5 51 -46 0 c-57 0 -84 11 -167 69 l-65 46 33 3 c27 3 32 7 32 28 0 36
-16 62 -50 79 -42 22 -68 19 -72 -7z"/>
<path d="M8217 3263 c-4 -3 -7 -14 -7 -24 0 -22 31 -15 56 12 16 18 16 19 -13
19 -16 0 -33 -3 -36 -7z"/>
<path d="M7555 3144 c-95 -55 -293 -76 -334 -35 -16 16 -21 16 -42 5 -13 -7
-62 -20 -109 -29 -239 -47 -256 -53 -299 -99 l-24 -26 52 0 c37 0 86 13 169
44 149 56 178 60 282 41 133 -24 167 -21 230 20 62 39 88 42 166 19 44 -12 57
-13 76 -3 22 13 22 13 -16 20 -26 4 -46 16 -63 38 -29 36 -35 37 -88 5z"/>
<path d="M11630 2975 c-8 -2 -51 -9 -95 -16 -130 -20 -120 -28 34 -29 80 0
161 -5 183 -12 40 -12 88 -58 88 -84 0 -8 4 -14 9 -14 16 0 78 47 119 91 l41
44 -27 8 c-28 8 -326 19 -352 12z"/>
<path d="M4765 2895 c-22 -8 -41 -15 -42 -15 -9 0 -31 -60 -23 -60 32 0 245
51 281 68 l44 20 -110 1 c-72 0 -124 -5 -150 -14z"/>
<path d="M4575 2818 c-80 -38 -88 -43 -93 -55 -2 -8 6 -13 21 -13 59 0 141 48
130 76 -6 17 -7 17 -58 -8z"/>
<path d="M12300 2763 c-171 -9 -354 -41 -239 -41 25 0 98 -8 161 -18 130 -19
179 -14 214 21 46 46 38 48 -136 38z"/>
<path d="M11118 2455 c-48 -23 -102 -48 -120 -55 -30 -11 -31 -13 -13 -20 11
-5 38 -9 60 -9 47 -1 82 -22 96 -57 8 -22 11 -24 31 -12 16 9 75 13 199 13
l175 0 37 28 c20 15 37 31 37 36 0 4 -27 3 -60 -3 -33 -5 -63 -7 -66 -3 -4 4
-2 18 4 32 15 33 9 33 -158 -9 -150 -38 -161 -36 -135 28 16 38 20 76 8 75 -5
0 -47 -20 -95 -44z"/>
<path d="M11930 2398 c-163 -47 -262 -91 -297 -131 -17 -20 -17 -20 2 -13 11
4 70 18 132 31 62 13 123 29 135 36 33 17 78 61 78 76 0 15 -2 15 -50 1z"/>
<path d="M8202 2258 c7 -19 40 -21 63 -4 19 14 17 15 -23 16 -31 0 -42 -4 -40
-12z"/>
<path d="M1975 2115 c-127 -36 -132 -37 -155 -25 -21 11 -21 11 -6 -19 22 -42
21 -50 -21 -93 -20 -21 -32 -38 -27 -38 18 0 148 46 189 68 67 34 120 104 89
116 -9 3 -16 6 -17 5 -1 0 -24 -7 -52 -14z"/>
<path d="M819 1980 l-24 -19 48 -1 c40 0 47 3 47 20 0 27 -40 27 -71 0z"/>
<path d="M362 1973 c-10 -4 -8 -9 7 -20 12 -8 21 -24 21 -37 0 -12 6 -31 14
-41 12 -16 17 -17 44 -6 30 12 79 57 71 65 -6 5 -128 46 -137 45 -4 0 -13 -3
-20 -6z"/>
<path d="M1592 1968 c-16 -16 -15 -38 1 -38 17 0 57 29 57 41 0 13 -44 11 -58
-3z"/>
<path d="M1055 1952 c-61 -3 -399 -44 -404 -47 -2 -2 8 -15 21 -28 27 -27 106
-48 153 -41 111 18 199 50 255 94 30 23 27 26 -25 22z"/>
<path d="M3196 1864 c-10 -27 -7 -34 18 -34 31 0 50 22 34 38 -17 17 -45 15
-52 -4z"/>
<path d="M2215 1790 c-10 -32 -63 -65 -176 -109 -118 -47 -174 -92 -185 -150
-7 -32 -6 -33 16 -21 13 7 51 38 85 70 71 66 96 75 159 56 l46 -14 32 67 c30
60 36 66 66 69 43 4 57 -8 71 -63 6 -25 16 -45 22 -45 6 0 44 12 84 26 85 30
136 74 115 99 -19 23 -40 18 -98 -22 l-53 -36 -37 35 c-46 44 -72 58 -111 58
-21 0 -32 -6 -36 -20z"/>
<path d="M10454 1700 c-22 -5 -79 -24 -126 -43 l-87 -35 -3 26 c-3 30 -39 53
-70 44 -15 -3 -18 -10 -14 -28 6 -24 6 -24 -89 -24 -76 0 -97 -3 -101 -15 -10
-25 6 -66 37 -98 29 -28 33 -29 92 -24 42 4 101 21 183 55 143 59 209 75 287
71 31 -2 57 -1 57 3 0 11 -61 68 -73 68 -7 0 -21 2 -32 4 -11 2 -38 1 -61 -4z"/>
<path d="M2540 1671 c0 -11 5 -32 10 -47 9 -23 14 -26 42 -20 17 3 40 14 50
23 18 16 17 18 -24 40 -54 28 -78 29 -78 4z"/>
<path d="M1498 1654 c-44 -23 -33 -34 36 -34 70 0 94 18 50 39 -33 14 -53 13
-86 -5z"/>
<path d="M1375 1569 c-56 -44 -113 -69 -157 -69 -26 0 -38 -5 -38 -14 0 -20
21 -34 70 -45 50 -11 67 -2 158 86 38 36 43 45 32 58 -17 20 -18 19 -65 -16z"/>
<path d="M1614 1536 c-12 -32 1 -51 42 -59 48 -11 114 12 114 39 0 10 -3 15
-6 11 -3 -3 -27 1 -52 9 -60 18 -91 18 -98 0z"/>
<path d="M640 1469 c-254 -8 -368 -26 -273 -44 21 -3 61 -19 88 -35 l51 -28
23 24 c25 26 38 28 187 24 68 -1 99 2 122 14 34 17 63 57 40 54 -7 -1 -114 -5
-238 -9z"/>
<path d="M1010 1431 c0 -56 10 -62 65 -41 36 14 29 37 -22 67 l-43 25 0 -51z"/>
<path d="M179 1435 c-8 -8 -46 -24 -84 -34 -74 -21 -95 -39 -95 -83 0 -36 19
-36 88 -2 57 28 112 84 112 114 0 24 -1 24 -21 5z"/>
</g>
</svg>
