<?xml version="1.0" standalone="no"?>
<!DOCTYPE svg PUBLIC "-//W3C//DTD SVG 20010904//EN"
 "http://www.w3.org/TR/2001/REC-SVG-20010904/DTD/svg10.dtd">
<svg version="1.0" xmlns="http://www.w3.org/2000/svg"
 width="1280.000000pt" height="1149.000000pt" viewBox="0 0 1280.000000 1149.000000"
 preserveAspectRatio="xMidYMid meet">
<metadata>
Created by potrace 1.15, written by Peter Selinger 2001-2017
</metadata>
<g transform="translate(0.000000,1149.000000) scale(0.100000,-0.100000)"
fill="#000000" stroke="none">
<path d="M3504 11481 c-86 -22 -176 -95 -217 -176 -25 -50 -38 -140 -27 -195
22 -117 78 -193 178 -242 59 -29 76 -33 147 -33 66 0 90 5 135 26 72 34 126
89 162 167 27 56 30 70 26 145 -5 133 -70 231 -187 285 -58 27 -161 38 -217
23z m66 -161 l0 -150 -150 0 -149 0 5 33 c22 119 99 211 207 248 92 32 87 40
87 -131z m149 118 c87 -42 155 -133 168 -223 l6 -45 -152 0 -151 0 0 151 0
152 43 -7 c23 -4 62 -16 86 -28z m-149 -438 c0 -168 5 -159 -78 -135 -99 30
-186 126 -210 232 -5 23 -7 44 -4 48 3 3 70 5 149 5 l143 0 0 -150z m317 105
c-17 -122 -127 -231 -254 -251 l-43 -7 0 152 0 151 151 0 152 0 -6 -45z"/>
<path d="M3428 11304 c-17 -36 0 -59 43 -59 30 0 34 3 37 28 7 57 -57 81 -80
31z"/>
<path d="M3675 11310 c-27 -30 -7 -70 34 -70 45 0 66 44 35 74 -21 22 -47 20
-69 -4z"/>
<path d="M3432 11078 c-28 -28 -7 -78 33 -78 27 0 45 18 45 45 0 27 -18 45
-45 45 -12 0 -26 -5 -33 -12z"/>
<path d="M3672 11078 c-28 -28 -7 -78 33 -78 27 0 45 18 45 45 0 27 -18 45
-45 45 -12 0 -26 -5 -33 -12z"/>
<path d="M8517 11462 c8 -5 -8 -18 -43 -36 -186 -98 -233 -351 -93 -509 22
-25 55 -55 73 -66 55 -34 55 -24 0 13 -93 63 -144 157 -144 269 0 124 60 226
168 285 80 44 134 46 214 10 99 -46 172 -144 185 -248 5 -47 5 -47 -27 -53
-18 -4 -97 -2 -175 4 -139 11 -227 7 -209 -11 15 -15 125 -40 176 -40 l48 0 0
-104 c0 -57 -3 -111 -6 -120 -4 -10 -18 -16 -39 -16 -35 0 -54 -14 -33 -24 16
-7 -63 2 -89 10 -15 5 -16 4 -3 -6 26 -19 -49 -1 -107 26 -72 34 -138 110
-163 188 -12 35 -18 46 -15 26 14 -90 91 -185 185 -229 47 -22 72 -26 165 -28
67 -2 102 0 90 6 -14 6 -3 8 37 8 35 0 62 5 71 14 7 8 29 25 48 38 65 44 130
154 128 215 0 11 -7 -3 -14 -31 -18 -67 -52 -121 -106 -167 -48 -41 -77 -51
-114 -42 -25 6 -25 7 -25 120 l0 113 50 7 c27 4 67 13 89 21 40 14 40 14 45
-13 2 -15 3 9 2 54 -4 127 -63 224 -170 280 -35 18 -51 31 -43 36 7 4 -28 8
-78 8 -49 0 -85 -4 -78 -8z"/>
<path d="M8412 11434 c-66 -33 -145 -119 -166 -181 -9 -26 -19 -72 -21 -103
-5 -53 -4 -52 9 15 18 92 36 134 81 184 43 48 90 79 148 97 23 7 33 13 21 13
-11 1 -43 -11 -72 -25z"/>
<path d="M8737 11440 c62 -22 101 -48 139 -93 33 -39 73 -123 75 -157 1 -17 3
-20 6 -7 9 35 -28 117 -78 171 -50 55 -135 106 -173 106 -12 -1 3 -9 31 -20z"/>
<path d="M8681 11299 c-11 -70 -11 -92 -1 -125 l13 -39 15 35 c19 45 19 135 0
180 l-14 34 -13 -85z m16 -111 c-2 -13 -4 -3 -4 22 0 25 2 35 4 23 2 -13 2
-33 0 -45z"/>
<path d="M4395 11330 c-21 -22 -36 -40 -33 -40 4 0 -14 -22 -41 -48 -77 -77
-76 -160 2 -237 23 -22 40 -45 39 -52 -2 -7 11 -19 28 -28 18 -9 30 -23 30
-35 0 -27 -7 -25 -67 15 -86 58 -132 134 -133 221 0 31 7 50 30 79 17 21 30
40 30 42 0 9 -37 -17 -61 -44 -39 -42 -49 -66 -49 -121 0 -66 19 -115 74 -196
25 -37 46 -72 46 -77 0 -6 16 3 37 20 29 24 40 28 55 20 18 -9 17 -12 -14 -32
-35 -24 -47 -52 -29 -70 13 -13 42 9 35 28 -5 12 23 35 41 35 4 0 5 -24 3 -52
-3 -51 -2 -53 22 -53 24 0 25 2 22 53 -2 28 -1 52 3 52 19 0 45 -23 45 -39 0
-24 29 -36 36 -16 9 23 -2 43 -37 64 -29 18 -30 20 -12 30 16 8 27 4 56 -20
32 -27 36 -28 41 -11 4 11 24 43 46 72 56 75 73 126 68 202 -4 72 -26 111 -79
142 l-34 20 33 -44 c25 -35 32 -54 32 -89 -1 -82 -51 -163 -137 -220 -54 -36
-63 -38 -63 -13 0 10 14 26 31 36 17 10 28 24 25 31 -3 8 10 23 29 36 98 68
99 200 2 270 -22 16 -36 29 -31 29 4 0 -10 18 -31 40 -21 22 -42 40 -45 40 -3
0 -24 -18 -45 -40z m5 -157 c12 -74 -1 -163 -25 -163 -18 0 -63 55 -71 86 -10
40 5 92 37 124 17 16 34 28 39 25 4 -3 13 -35 20 -72z m164 18 c27 -47 23 -96
-12 -139 -39 -49 -58 -52 -66 -11 -9 48 -7 129 5 172 10 37 11 38 32 24 12 -8
30 -28 41 -46z"/>
<path d="M9466 11352 c-2 -4 -7 -31 -11 -60 -6 -48 -9 -52 -28 -46 -12 3 -26
10 -31 15 -6 5 -17 9 -25 9 -11 0 -6 -9 14 -26 17 -14 24 -23 18 -19 -19 9
-16 -6 5 -21 15 -12 7 -13 -55 -14 -40 0 -73 -4 -73 -8 0 -14 48 -32 85 -32
19 0 35 -3 35 -8 0 -18 -90 1 -115 24 -21 20 -37 24 -86 24 -35 0 -59 -4 -59
-11 0 -21 21 -49 48 -63 15 -9 22 -15 15 -16 -20 0 -73 51 -73 71 0 16 -7 19
-55 18 -31 -1 -57 -5 -60 -8 -2 -4 5 -21 16 -38 22 -35 81 -67 110 -60 10 3
17 1 14 -4 -4 -5 45 -8 114 -6 106 2 118 0 106 -13 -7 -8 -19 -29 -25 -45 -7
-17 -14 -24 -17 -17 -7 17 -33 15 -33 -3 0 -9 10 -15 26 -15 19 0 28 8 39 33
8 19 22 40 31 48 15 13 16 12 9 -10 -9 -29 7 -41 55 -41 42 0 56 8 62 35 3 16
8 12 26 -22 17 -33 28 -43 47 -43 16 0 25 6 25 15 0 18 -27 20 -33 3 -2 -7
-14 6 -26 30 l-21 42 77 1 c43 1 84 1 92 0 7 -2 11 2 8 6 -3 5 4 10 16 10 18
2 19 0 7 -8 -23 -16 58 -1 99 19 33 15 74 68 65 84 -13 20 -40 6 -49 -24 -7
-24 -22 -40 -52 -56 -24 -13 -43 -21 -43 -18 0 3 17 14 39 25 59 30 72 81 21
81 -19 0 -30 -5 -30 -14 0 -16 -38 -66 -50 -66 -5 0 2 11 15 25 43 42 34 55
-38 55 -51 0 -68 -4 -82 -20 -10 -11 -23 -20 -29 -20 -6 0 -3 5 7 11 33 20 16
29 -53 29 l-71 0 2 48 c1 26 4 51 7 56 13 23 7 55 -10 59 -10 3 -20 2 -22 -1z
m-363 -236 l22 -18 -24 14 c-14 8 -31 25 -39 39 -14 23 -13 23 2 4 9 -11 27
-28 39 -39z m329 5 c3 -31 1 -37 -9 -29 -14 11 -18 50 -6 61 10 11 11 9 15
-32z m72 -14 c-6 -18 -4 -20 7 -10 12 10 15 8 15 -7 0 -10 -4 -16 -9 -13 -4 3
-18 -3 -29 -14 -14 -11 -18 -13 -12 -3 11 18 11 20 13 68 1 30 3 34 12 19 6
-9 7 -27 3 -40z m74 36 c-10 -2 -28 -2 -40 0 -13 2 -5 4 17 4 22 1 32 -1 23
-4z"/>
<path d="M2420 11332 c0 -4 5 -13 12 -20 9 -9 9 -12 -1 -12 -7 0 -9 -5 -5 -11
4 -7 9 -30 12 -53 7 -68 41 -133 93 -180 46 -41 119 -76 161 -76 15 0 18 -8
18 -54 l0 -54 -65 -12 c-36 -7 -68 -16 -71 -21 -3 -5 61 -9 145 -9 83 0 151 4
151 9 0 5 -29 14 -65 21 l-65 12 0 53 c0 52 0 52 35 58 123 20 235 145 235
262 0 17 5 36 12 43 9 9 9 12 -2 12 -11 0 -11 3 -2 12 19 19 14 28 -18 28 -32
0 -37 -9 -18 -28 9 -9 9 -12 0 -12 -9 0 -10 -5 -4 -16 13 -23 -4 -100 -33
-150 -28 -48 -72 -86 -128 -109 -55 -23 -77 -20 -77 10 0 20 7 26 40 35 74 20
149 110 150 180 0 15 5 31 12 38 9 9 8 12 -7 12 -17 0 -17 1 0 20 18 20 17 20
-20 20 -37 0 -38 0 -20 -20 16 -18 16 -20 1 -20 -13 0 -14 -3 -5 -18 29 -46
-23 -142 -95 -176 -48 -22 -56 -20 -56 14 0 21 5 30 16 30 28 0 84 65 84 97 0
16 5 34 12 41 9 9 9 12 -2 12 -11 0 -11 3 -2 12 19 19 14 28 -18 28 -32 0 -37
-9 -18 -28 9 -9 9 -12 -1 -12 -10 0 -10 -4 -3 -12 16 -20 2 -66 -26 -88 -39
-31 -45 -25 -40 40 2 35 0 60 -5 60 -6 0 -2 9 8 20 18 20 17 20 -20 20 -37 0
-38 0 -20 -20 17 -19 17 -20 0 -20 -15 0 -16 -3 -7 -12 7 -7 12 -34 12 -60 0
-58 -16 -63 -54 -17 -28 33 -33 58 -14 77 9 9 9 12 0 12 -10 0 -10 5 -2 20 10
18 8 20 -20 20 -30 0 -40 -13 -19 -26 8 -5 8 -9 -1 -14 -8 -5 -9 -13 -4 -21 5
-8 10 -23 11 -34 5 -31 36 -68 71 -85 24 -11 32 -22 32 -42 0 -33 -10 -35 -66
-7 -63 30 -116 130 -92 173 6 11 5 16 -4 16 -9 0 -9 3 0 12 19 19 14 28 -18
28 -33 0 -39 -14 -12 -29 16 -10 16 -10 -2 -11 -16 0 -17 -3 -8 -12 7 -7 12
-25 12 -40 0 -71 62 -147 142 -176 38 -13 48 -21 48 -39 0 -30 -29 -30 -96 1
-63 29 -120 95 -139 160 -18 60 -19 78 -3 94 9 9 8 12 -7 12 -19 1 -19 1 -2
11 26 15 20 29 -13 29 -16 0 -30 -4 -30 -8z"/>
<path d="M10275 11223 c-16 -43 -29 -80 -31 -82 -2 -2 -37 15 -79 38 -41 23
-75 40 -75 38 0 -2 11 -37 25 -77 14 -40 25 -77 25 -81 0 -4 -34 -13 -75 -20
-42 -6 -77 -15 -80 -19 -2 -3 25 -23 61 -44 35 -21 66 -41 69 -45 2 -4 -21
-38 -51 -74 -31 -37 -54 -67 -52 -67 2 0 41 7 88 15 47 8 86 15 88 15 1 0 2
-39 2 -87 l1 -88 59 65 58 65 39 -44 c21 -25 45 -54 54 -65 16 -20 17 -16 24
67 l7 87 32 -5 c17 -3 53 -9 81 -14 27 -5 51 -8 52 -7 2 1 -23 33 -53 70 -31
37 -55 68 -53 70 2 1 34 20 72 41 37 22 67 42 67 46 0 4 -36 12 -80 19 -44 7
-80 16 -80 19 0 4 11 41 25 81 14 40 25 75 25 77 0 3 -34 -14 -75 -37 l-75
-41 -19 43 c-10 24 -23 60 -30 81 -7 20 -14 37 -15 37 -2 0 -16 -35 -31 -77z
m65 -130 c0 -18 10 -16 55 12 22 13 43 25 47 25 5 0 -1 -22 -11 -49 -10 -28
-16 -52 -13 -55 3 -3 27 -9 54 -12 26 -4 48 -9 48 -13 0 -4 -20 -17 -45 -31
-25 -14 -45 -26 -45 -28 0 -2 17 -24 37 -49 l37 -45 -40 7 c-21 4 -46 9 -55
11 -13 4 -18 -6 -24 -53 l-7 -57 -34 41 -35 42 -39 -42 -39 -42 -1 58 c0 51
-2 58 -17 54 -40 -11 -93 -17 -93 -11 0 3 14 22 30 41 17 18 30 37 30 41 0 4
-20 18 -44 32 -25 13 -43 27 -41 31 3 3 27 9 55 13 27 4 50 8 50 9 0 1 -9 26
-20 55 -11 28 -17 52 -14 52 3 0 26 -12 50 -26 25 -15 46 -25 48 -23 2 2 11
26 22 53 l18 50 18 -40 c10 -21 18 -45 18 -51z"/>
<path d="M9365 11229 c-4 -6 -5 -12 -2 -15 2 -3 7 2 10 11 7 17 1 20 -8 4z"/>
<path d="M7772 11192 c162 -20 215 -199 88 -294 -14 -10 -54 -23 -90 -29 -104
-16 -160 -74 -160 -164 0 -48 19 -82 71 -129 43 -38 44 -38 111 -34 121 9 230
85 281 196 34 73 31 198 -6 273 -55 112 -158 180 -282 185 -68 3 -69 2 -13 -4z
m28 -456 c6 -8 10 -25 8 -38 -2 -19 -9 -23 -38 -23 -29 0 -36 4 -38 23 -4 28
14 52 38 52 10 0 23 -7 30 -14z"/>
<path d="M7660 11180 c-18 -12 -2 -12 25 0 13 6 15 9 5 9 -8 0 -22 -4 -30 -9z"/>
<path d="M7579 11137 c-46 -34 -109 -110 -109 -130 0 -7 10 4 21 23 30 51 58
79 108 111 25 16 40 29 34 29 -6 0 -31 -15 -54 -33z"/>
<path d="M8962 11135 c0 -16 2 -22 5 -12 2 9 2 23 0 30 -3 6 -5 -1 -5 -18z"/>
<path d="M1862 11108 c-6 -6 -12 -18 -12 -26 0 -7 -4 -10 -10 -7 -20 12 -50
-15 -50 -45 0 -22 -5 -30 -18 -30 -39 0 -42 -18 -42 -209 0 -159 3 -192 19
-226 35 -78 104 -114 193 -102 54 7 88 33 115 88 19 39 22 63 24 199 l3 155
-28 3 c-15 2 -34 -2 -42 -9 -12 -10 -14 -1 -14 63 0 79 -9 98 -46 98 -17 0
-23 7 -26 28 -2 20 -9 28 -28 30 -14 2 -31 -3 -38 -10z m58 -153 l6 -150 2
116 c2 97 5 118 18 123 36 14 44 -11 45 -143 1 -100 3 -116 9 -78 10 55 24 77
51 77 18 0 19 -10 19 -147 0 -163 -12 -210 -64 -250 -60 -48 -163 -37 -215 22
-43 50 -51 90 -51 276 0 134 3 169 15 179 27 22 35 0 35 -96 0 -56 4 -94 10
-94 6 0 10 52 10 136 0 124 2 135 18 132 15 -3 17 -18 20 -126 4 -174 22 -157
22 21 0 79 3 147 7 151 4 4 14 5 23 4 12 -3 16 -29 20 -153z"/>
<path d="M1874 10735 c10 -39 -3 -50 -29 -25 -19 18 -24 19 -34 6 -13 -16 -7
-36 11 -36 7 0 6 6 -2 15 -7 8 -8 15 -2 15 5 0 15 -7 22 -15 9 -11 9 -15 1
-15 -7 0 -9 -4 -6 -10 8 -12 -5 -13 -25 -1 -8 6 -19 7 -24 4 -5 -4 6 -13 25
-20 l34 -13 -32 3 c-18 2 -33 0 -33 -5 0 -4 15 -8 33 -9 l32 -1 -32 -9 c-18
-5 -33 -12 -33 -16 0 -3 15 -3 33 0 28 5 29 5 10 -5 -13 -6 -23 -15 -23 -20 0
-11 14 -10 27 3 8 8 17 8 33 -1 17 -9 20 -17 15 -41 -4 -17 -2 -29 4 -29 5 0
12 15 14 33 l4 32 1 -32 c1 -18 6 -33 10 -33 5 0 7 15 5 33 -3 24 -2 29 6 17
6 -8 11 -23 11 -33 0 -10 5 -15 10 -12 7 4 7 12 0 25 -13 24 -13 33 0 25 6 -3
10 -1 10 6 0 8 4 8 15 -1 8 -7 15 -17 15 -22 0 -6 -8 -4 -17 3 -15 12 -16 12
-10 -4 4 -10 7 -21 7 -24 0 -4 9 2 20 12 l20 18 -21 23 c-19 20 -20 24 -6 30
9 3 24 1 34 -6 15 -10 14 -10 -9 -5 -33 7 -36 0 -7 -16 17 -9 23 -8 30 2 14
22 11 27 -18 37 l-28 10 28 1 c15 1 27 5 27 10 0 4 -12 7 -27 5 l-28 -4 28 12
c35 15 35 31 0 17 -22 -8 -30 -7 -40 7 -7 10 -13 22 -13 27 0 4 -5 5 -12 1 -7
-5 -9 -2 -6 7 3 8 9 22 13 32 4 9 3 17 -2 17 -6 0 -15 -15 -21 -32 l-11 -33 3
33 c1 17 -1 32 -5 32 -4 0 -10 -15 -12 -32 l-4 -33 -1 33 c-1 17 -7 32 -13 32
-7 0 -9 -10 -5 -25z"/>
<path d="M1840 10742 c0 -5 7 -17 16 -28 14 -17 15 -17 10 -1 -3 10 -6 23 -6
28 0 5 -4 9 -10 9 -5 0 -10 -4 -10 -8z"/>
<path d="M1956 10734 c-9 -24 -7 -27 9 -14 18 15 20 -1 3 -19 -11 -11 -9 -11
10 -2 27 14 28 23 3 38 -16 10 -20 9 -25 -3z"/>
<path d="M1985 10690 c-21 -23 -8 -27 20 -7 11 8 14 16 8 20 -6 4 -18 -2 -28
-13z"/>
<path d="M1827 10566 c-11 -8 -14 -17 -8 -20 5 -4 15 3 21 14 13 23 11 24 -13
6z"/>
<path d="M1851 10551 c-6 -11 -7 -22 -2 -25 5 -3 11 4 14 16 8 30 1 35 -12 9z"/>
<path d="M7741 11056 c-16 -19 -11 -46 12 -60 25 -16 52 4 52 40 0 24 -5 30
-26 32 -14 2 -31 -4 -38 -12z"/>
<path d="M8866 11035 c-12 -47 -66 -125 -109 -156 -22 -16 -35 -29 -28 -29 40
0 161 165 149 202 -3 7 -8 -1 -12 -17z"/>
<path d="M5158 11003 c6 -2 18 -2 25 0 6 3 1 5 -13 5 -14 0 -19 -2 -12 -5z"/>
<path d="M5300 10989 c82 -43 110 -131 70 -213 -26 -54 -58 -75 -128 -88 -116
-21 -162 -63 -170 -153 -5 -61 13 -103 58 -136 16 -12 27 -26 23 -32 -3 -5 29
-8 83 -5 105 4 156 25 223 90 67 65 95 136 95 233 0 65 -4 90 -25 135 -45 96
-142 173 -236 187 l-38 5 45 -23z m-46 -432 c38 -27 -2 -95 -41 -71 -25 16
-29 55 -7 71 10 7 21 13 24 13 3 0 14 -6 24 -13z"/>
<path d="M9384 10986 c-8 -24 4 -34 46 -37 83 -5 116 6 106 37 -5 16 -16 19
-76 19 -60 0 -71 -3 -76 -19z m109 -8 c-23 -5 -56 -5 -74 -1 -26 7 -17 9 42 9
67 0 70 0 32 -8z"/>
<path d="M5045 10957 c-26 -18 -60 -48 -74 -67 -20 -28 -16 -25 20 12 26 25
64 55 85 67 22 11 34 20 28 21 -7 0 -33 -15 -59 -33z"/>
<path d="M7456 10975 c-3 -9 -6 -22 -5 -28 0 -7 5 -1 10 12 5 13 8 26 5 28 -2
2 -6 -3 -10 -12z"/>
<path d="M11057 10905 c-15 -14 -35 -25 -43 -25 -8 0 -29 -8 -47 -17 -18 -9
-50 -19 -72 -22 -38 -6 -40 -8 -46 -46 -3 -22 -13 -54 -22 -72 -9 -18 -17 -39
-17 -47 0 -8 -12 -28 -26 -46 -26 -30 -26 -31 -7 -48 11 -9 28 -41 37 -69 10
-29 22 -55 27 -58 5 -4 9 -24 9 -46 0 -36 2 -39 29 -39 16 0 52 -11 79 -25 28
-14 57 -25 65 -25 8 0 26 -10 41 -21 l27 -21 23 21 c12 11 29 21 37 21 9 0 38
11 65 25 27 14 61 25 77 25 23 0 27 4 27 28 0 15 11 49 25 76 14 27 25 56 25
65 0 8 10 25 21 37 l21 23 -21 27 c-11 15 -21 33 -21 41 0 8 -11 37 -25 65
-14 27 -25 63 -25 79 0 26 -3 29 -33 29 -18 0 -50 9 -72 20 -22 11 -46 20 -55
20 -9 0 -27 11 -40 25 -29 30 -28 30 -63 0z m53 -60 c7 -8 20 -15 29 -15 9 0
33 -9 54 -20 20 -11 46 -20 57 -20 15 0 20 -7 20 -24 0 -14 4 -27 9 -31 5 -3
17 -27 27 -53 10 -26 23 -54 31 -63 11 -14 11 -18 -2 -29 -8 -7 -15 -20 -15
-30 0 -9 -11 -39 -25 -66 -14 -27 -25 -55 -25 -61 0 -7 -6 -13 -12 -13 -7 0
-35 -11 -62 -25 -27 -14 -57 -25 -66 -25 -10 0 -23 -7 -30 -15 -11 -13 -15
-13 -29 -2 -9 8 -37 21 -63 31 -26 10 -50 22 -53 27 -4 5 -17 9 -31 9 -16 0
-24 6 -24 18 0 10 -9 35 -20 57 -11 22 -20 46 -20 54 0 8 -7 23 -17 33 -15 17
-15 19 0 36 10 10 17 24 17 31 0 6 8 28 17 49 9 20 19 48 23 62 3 16 14 27 30
30 14 4 42 14 62 23 21 9 44 17 51 17 8 0 20 7 27 15 7 8 16 15 20 15 4 0 13
-7 20 -15z"/>
<path d="M11016 10795 c-63 -22 -65 -31 -20 -76 55 -55 74 -47 74 32 0 32 -3
59 -7 59 -5 -1 -25 -7 -47 -15z"/>
<path d="M11107 10803 c-4 -3 -7 -30 -7 -59 0 -45 3 -54 21 -59 16 -5 30 2 60
31 21 21 39 41 39 45 0 5 -91 49 -103 49 -2 0 -7 -3 -10 -7z"/>
<path d="M10907 10703 c-8 -16 -17 -40 -21 -55 l-6 -28 59 0 c78 0 86 18 34
72 -20 21 -41 38 -45 38 -4 0 -14 -12 -21 -27z"/>
<path d="M11199 10693 c-51 -55 -43 -73 32 -73 55 0 59 2 59 23 0 24 -35 87
-48 87 -4 0 -24 -17 -43 -37z"/>
<path d="M11047 10642 c-31 -34 -16 -83 30 -97 32 -9 77 36 68 68 -14 46 -68
62 -98 29z"/>
<path d="M10880 10579 c0 -16 42 -109 49 -109 4 0 24 18 45 39 29 30 36 44 31
60 -5 18 -14 21 -66 21 -35 0 -59 -4 -59 -11z"/>
<path d="M11171 10572 c-8 -15 -2 -27 34 -62 l43 -42 16 25 c10 14 20 41 23
61 l6 36 -56 0 c-44 0 -58 -4 -66 -18z"/>
<path d="M10996 10491 c-20 -20 -36 -40 -36 -44 0 -13 64 -47 88 -47 20 0 22
4 22 59 0 77 -21 86 -74 32z"/>
<path d="M11118 10519 c-14 -8 -18 -23 -18 -64 0 -49 2 -55 20 -55 25 0 85 24
93 37 4 5 -13 28 -36 51 -34 33 -45 39 -59 31z"/>
<path d="M7443 10870 c0 -30 2 -43 4 -27 2 15 2 39 0 55 -2 15 -4 2 -4 -28z"/>
<path d="M5202 10878 c-34 -34 6 -90 48 -68 35 19 20 80 -20 80 -9 0 -21 -5
-28 -12z"/>
<path d="M4935 10839 c-4 -6 -5 -12 -2 -15 2 -3 7 2 10 11 7 17 1 20 -8 4z"/>
<path d="M4916 10795 c-3 -9 -6 -22 -5 -28 0 -7 5 -1 10 12 5 13 8 26 5 28 -2
2 -6 -3 -10 -12z"/>
<path d="M7451 10790 c0 -8 4 -22 9 -30 12 -18 12 -2 0 25 -6 13 -9 15 -9 5z"/>
<path d="M4903 10685 c0 -38 2 -53 4 -32 2 20 2 52 0 70 -2 17 -4 1 -4 -38z"/>
<path d="M7470 10734 c0 -40 143 -174 184 -174 6 0 -9 12 -34 26 -59 33 -87
59 -121 113 -16 25 -29 41 -29 35z"/>
<path d="M7028 10665 c-21 -20 -38 -39 -38 -44 0 -6 -14 -19 -30 -31 -38 -27
-70 -88 -70 -135 0 -48 34 -113 71 -133 17 -10 29 -25 29 -38 0 -12 10 -25 25
-32 15 -7 25 -20 25 -32 0 -25 -2 -25 -48 4 -128 82 -179 217 -117 309 29 42
26 46 -17 15 -35 -25 -67 -89 -68 -135 0 -50 28 -121 76 -191 24 -35 44 -71
44 -78 0 -21 14 -17 40 11 23 25 54 33 64 17 2 -4 -11 -20 -30 -35 -33 -27
-43 -50 -25 -61 16 -10 41 5 41 25 0 10 9 23 20 29 26 14 37 -11 21 -47 -14
-31 2 -55 33 -51 19 3 21 9 18 56 -3 52 -3 53 17 42 12 -6 21 -17 21 -24 0
-21 29 -41 41 -29 17 17 1 51 -31 70 -29 17 -31 33 -4 33 9 0 31 -12 50 -26
25 -19 34 -22 34 -12 0 8 15 35 34 59 100 132 113 249 37 329 -46 49 -72 53
-37 7 33 -43 41 -83 26 -137 -16 -61 -63 -123 -124 -165 -59 -40 -66 -42 -66
-15 0 12 12 26 30 35 17 9 28 20 25 25 -3 5 14 29 39 52 84 81 82 177 -5 251
-21 19 -39 37 -39 41 0 6 -69 77 -74 76 -1 0 -18 -16 -38 -35z m-7 -137 c13
-48 7 -174 -9 -190 -6 -6 -21 2 -46 26 -31 31 -36 43 -36 82 0 49 20 97 47
113 28 16 32 14 44 -31z m153 13 c41 -43 46 -100 12 -151 -14 -21 -34 -44 -45
-49 -17 -9 -20 -5 -30 34 -6 24 -11 55 -11 69 0 46 22 126 34 126 7 0 25 -13
40 -29z"/>
<path d="M1064 10590 c-103 -41 -179 -134 -205 -252 -30 -140 50 -291 190
-357 47 -22 69 -26 141 -26 86 1 141 19 205 69 27 21 16 20 -36 -4 -137 -62
-321 27 -365 175 -34 120 7 238 109 309 53 37 63 40 139 44 76 3 88 1 141 -26
l59 -30 -27 28 c-15 15 -49 40 -77 55 -70 38 -198 45 -274 15z"/>
<path d="M4911 10600 c0 -8 4 -22 9 -30 12 -18 12 -2 0 25 -6 13 -9 15 -9 5z"/>
<path d="M7678 10553 c7 -3 16 -2 19 1 4 3 -2 6 -13 5 -11 0 -14 -3 -6 -6z"/>
<path d="M4930 10545 c1 -38 136 -166 174 -165 6 0 2 6 -9 11 -59 33 -101 69
-131 114 -19 27 -34 45 -34 40z"/>
<path d="M5805 10440 c4 -7 -2 -9 -18 -5 -38 10 -139 -39 -186 -90 -72 -78
-86 -116 -86 -230 0 -89 3 -106 27 -150 42 -81 160 -175 218 -174 8 0 -8 9
-36 20 -67 26 -132 83 -169 150 -28 50 -30 62 -30 154 0 110 8 134 71 212 35
43 140 103 178 103 16 -1 12 -6 -17 -21 -101 -53 -168 -163 -173 -283 l-3 -71
8 70 c12 97 43 165 102 220 95 89 191 109 287 61 102 -52 162 -130 182 -237
l9 -54 -4 52 c-7 96 -82 199 -175 243 -34 16 -46 26 -38 32 7 4 -24 8 -70 8
-55 0 -81 -4 -77 -10z"/>
<path d="M6018 10421 c92 -32 171 -111 203 -203 10 -29 18 -44 19 -33 0 35
-46 119 -89 162 -45 45 -132 93 -165 93 -12 -1 3 -9 32 -19z"/>
<path d="M11660 10310 l0 -90 -90 0 -90 0 0 -75 0 -75 90 0 90 0 0 -205 0
-206 78 3 77 3 3 203 2 202 90 0 90 0 0 75 0 75 -90 0 -90 0 0 90 0 90 -80 0
-80 0 0 -90z"/>
<path d="M1430 10341 c-11 -41 -11 -41 -58 -41 l-47 0 38 -25 c20 -14 37 -27
37 -29 0 -2 -7 -22 -15 -45 -15 -44 -14 -45 37 -8 l26 19 37 -28 c33 -25 37
-26 32 -9 -20 68 -20 72 13 97 l32 23 -43 5 c-37 4 -44 9 -53 37 -17 48 -24
49 -36 4z"/>
<path d="M5965 10304 c-11 -81 -10 -146 3 -170 10 -18 11 -17 23 11 18 43 17
154 -2 189 l-16 29 -8 -59z m25 -116 c0 -9 -4 -20 -10 -23 -6 -4 -10 9 -10 32
0 28 3 34 10 23 5 -8 10 -23 10 -32z"/>
<path d="M6239 10099 c-8 -84 -44 -162 -99 -216 -49 -48 -90 -68 -123 -59 -23
5 -24 11 -31 111 -4 58 -4 110 -1 115 4 6 17 10 30 10 13 0 51 9 84 19 l61 19
0 -32 c0 -50 -55 -150 -107 -196 -25 -22 -42 -40 -37 -40 6 0 31 21 56 48 55
55 98 141 98 195 0 38 0 38 -33 32 -19 -4 -96 -1 -172 5 -137 11 -236 7 -219
-10 15 -15 126 -40 176 -40 l48 0 0 -120 0 -120 -39 0 c-42 0 -63 -15 -34 -24
10 -3 -3 -3 -29 -1 -117 11 -231 111 -269 235 -5 16 -8 19 -8 7 -3 -60 99
-188 177 -223 35 -15 40 -20 25 -25 -31 -13 170 -9 217 4 133 35 248 194 238
329 -3 37 -4 34 -9 -23z m-266 -306 c-7 -2 -19 -2 -25 0 -7 3 -2 5 12 5 14 0
19 -2 13 -5z"/>
<path d="M6563 10146 c-156 -51 -254 -212 -223 -369 15 -78 40 -127 91 -178
88 -88 225 -117 349 -75 76 27 159 110 189 191 45 119 14 261 -76 351 -78 78
-226 114 -330 80z m87 -156 l0 -150 -150 0 -151 0 7 38 c24 135 149 256 272
261 22 1 22 0 22 -149z m125 129 c100 -37 195 -161 195 -254 l0 -25 -150 0
-150 0 0 150 0 150 25 0 c13 0 49 -9 80 -21z m-125 -449 c0 -82 -3 -150 -7
-150 -34 0 -130 39 -169 69 -51 39 -107 132 -118 199 l-5 32 149 0 150 0 0
-150z m320 127 c0 -116 -127 -247 -262 -272 l-38 -7 0 151 0 151 150 0 150 0
0 -23z"/>
<path d="M6512 9988 c-7 -7 -12 -21 -12 -33 0 -12 5 -26 12 -33 7 -7 21 -12
33 -12 12 0 26 5 33 12 7 7 12 21 12 33 0 12 -5 26 -12 33 -7 7 -21 12 -33 12
-12 0 -26 -5 -33 -12z"/>
<path d="M6749 9979 c-16 -31 3 -69 35 -69 27 0 56 23 56 45 0 42 -71 61 -91
24z"/>
<path d="M6512 9748 c-21 -21 -14 -57 12 -70 45 -20 74 8 62 57 -5 19 -13 25
-34 25 -15 0 -33 -5 -40 -12z"/>
<path d="M6752 9748 c-21 -21 -14 -57 14 -70 31 -14 57 -1 62 31 7 42 -46 69
-76 39z"/>
<path d="M736 9885 l-26 -34 31 -22 31 -22 30 30 29 30 -34 26 -35 26 -26 -34z"/>
<path d="M650 9857 c0 -33 27 -83 59 -110 43 -36 125 -37 191 -3 53 26 58 41
27 78 l-22 27 -44 -29 c-81 -55 -149 -46 -191 23 -14 22 -20 26 -20 14z"/>
<path d="M480 9759 c-24 -11 -46 -22 -48 -23 -5 -5 37 -86 44 -86 3 0 20 10
37 22 54 39 137 25 137 -23 0 -27 -39 -49 -88 -49 l-44 0 7 -32 c12 -56 23
-69 50 -62 38 9 70 -3 84 -32 36 -81 -67 -148 -167 -109 -49 20 -79 57 -103
129 -18 51 -18 51 -18 15 -4 -164 149 -293 275 -233 68 32 94 99 69 179 -8 28
-15 51 -15 53 0 1 18 2 40 2 44 0 63 15 104 80 12 19 34 41 49 50 27 14 29 14
53 -13 18 -22 24 -39 24 -78 0 -64 -20 -102 -64 -123 -52 -24 -84 -20 -117 15
l-29 31 0 -26 c0 -45 31 -106 61 -121 39 -21 71 -19 110 8 95 62 108 250 24
334 -28 28 -40 33 -82 33 -61 0 -72 -8 -126 -90 -43 -66 -72 -83 -107 -61 -12
9 -10 14 12 38 56 59 56 129 1 173 -34 27 -113 26 -173 -1z"/>
<path d="M12141 9621 c-12 -8 -12 -18 2 -68 10 -33 17 -73 17 -89 0 -33 5 -30
-190 -109 -82 -33 -98 -56 -61 -90 20 -18 22 -17 78 17 75 46 124 71 129 65 8
-8 -83 -121 -149 -187 -76 -74 -85 -95 -34 -78 19 6 71 51 130 111 l98 100 -3
-104 c-3 -95 -5 -104 -23 -107 -36 -7 -35 -17 11 -66 63 -69 68 -59 74 127 l5
152 89 -83 c77 -72 93 -82 125 -82 56 0 70 14 35 35 -151 92 -229 164 -205
188 7 7 49 32 94 57 86 48 103 72 72 104 -23 23 -30 21 -67 -20 -39 -43 -128
-105 -140 -98 -4 3 -8 41 -8 84 0 121 -29 173 -79 141z"/>
<path d="M6355 9568 c-4 -18 -9 -42 -12 -53 -5 -18 -4 -19 13 -6 15 12 14 10
-2 -8 -20 -22 -23 -22 -52 -7 -36 18 -42 19 -42 7 0 -5 9 -11 20 -14 11 -3 20
-11 20 -17 0 -10 -4 -9 -15 0 -22 18 -46 -3 -26 -22 10 -11 11 -10 6 5 -4 10
-2 17 4 17 6 0 11 -4 11 -10 0 -5 7 -10 15 -10 8 0 15 -4 15 -10 0 -6 -28 -10
-65 -10 -91 0 -89 -23 3 -41 l47 -8 -48 3 c-32 2 -56 11 -70 25 -20 18 -35 20
-145 20 -122 0 -123 0 -116 -22 3 -12 14 -30 23 -41 35 -40 72 -50 203 -54
l127 -4 -12 -27 c-14 -33 -37 -60 -37 -43 0 7 -7 12 -16 12 -23 0 -11 -24 13
-28 15 -2 27 8 45 41 14 24 24 53 23 65 -2 27 -1 27 29 -3 14 -14 21 -25 16
-25 -5 0 -12 5 -15 10 -11 18 -20 10 -20 -17 -1 -34 10 -43 50 -43 53 0 76 10
70 31 -11 33 11 21 28 -16 18 -39 38 -51 64 -41 13 5 14 9 4 19 -9 9 -14 9
-21 -2 -6 -11 -13 -7 -29 20 -12 19 -21 37 -21 42 0 4 34 7 76 7 57 0 73 3 68
13 -5 7 0 6 11 -3 17 -13 18 -13 10 0 -6 12 -5 13 6 3 16 -16 33 -17 23 -1 -5
7 -3 8 7 2 42 -26 135 24 153 82 6 21 4 22 -122 23 -117 1 -131 -1 -147 -19
-10 -11 -23 -20 -29 -20 -6 0 1 8 14 18 25 17 25 17 -50 22 l-75 5 0 47 c0 27
3 48 7 48 11 0 5 54 -7 62 -18 13 -23 9 -30 -24z m-391 -174 c3 -8 2 -12 -4
-9 -6 3 -10 10 -10 16 0 14 7 11 14 -7z m356 -24 l-8 -35 -1 31 c-1 17 2 34 6
37 11 12 12 3 3 -33z m332 -1 c-18 -16 -42 -29 -55 -28 -17 1 -15 3 10 10 18
5 40 20 50 33 10 13 20 22 23 19 3 -2 -10 -18 -28 -34z m-591 5 c23 -25 23
-26 2 -13 -13 7 -25 19 -27 26 -8 19 -2 16 25 -13z m339 -8 c0 -13 -8 -30 -17
-37 -16 -13 -17 -12 -5 3 8 10 10 26 6 44 -5 19 -4 25 5 20 6 -4 11 -18 11
-30z m340 9 c-7 -9 -23 -21 -34 -27 -14 -7 -11 -2 9 18 31 31 48 36 25 9z
m-272 8 c-10 -2 -28 -2 -40 0 -13 2 -5 4 17 4 22 1 32 -1 23 -4z m-464 -28
c11 -8 16 -15 10 -15 -5 0 -18 7 -28 15 -11 8 -16 15 -10 15 5 0 18 -7 28 -15z
m420 -33 c2 -4 -4 -8 -14 -8 -10 0 -16 4 -14 8 3 4 9 8 14 8 5 0 11 -4 14 -8z"/>
<path d="M6291 9235 c12 -12 117 -11 130 2 5 5 -20 9 -66 8 -48 0 -71 -3 -64
-10z"/>
<path d="M6274 9218 c-12 -19 21 -29 88 -26 68 4 85 9 74 26 -4 6 -21 6 -47 1
-25 -6 -54 -6 -75 0 -22 6 -36 6 -40 -1z"/>
<path d="M316 9102 c-3 -5 1 -28 8 -53 7 -24 16 -61 19 -82 l6 -39 -62 -28
c-34 -16 -93 -41 -131 -57 -85 -34 -100 -54 -68 -85 23 -23 23 -23 55 -4 18
11 61 35 96 54 l64 35 -23 -40 c-12 -23 -63 -84 -112 -137 -50 -53 -88 -99
-85 -102 13 -13 114 55 158 106 26 30 59 69 73 85 l26 30 -3 -110 c-2 -108 -2
-110 -24 -107 -13 2 -23 -2 -23 -9 0 -18 69 -99 85 -99 20 0 30 77 28 208 l-3
113 38 -29 c20 -17 53 -47 72 -67 53 -56 92 -76 129 -69 17 4 34 10 36 14 3 4
-27 27 -66 50 -81 48 -173 132 -167 152 3 7 39 31 82 54 97 52 111 65 102 98
-9 35 -49 35 -72 0 -21 -32 -131 -107 -144 -99 -6 3 -10 43 -10 88 0 95 -14
131 -52 135 -14 2 -29 -1 -32 -6z"/>
<path d="M12477 8762 l-27 -28 30 -29 30 -29 25 24 c14 13 25 29 25 35 0 11
-41 55 -51 55 -3 0 -17 -13 -32 -28z"/>
<path d="M12394 8708 c15 -76 64 -113 147 -112 43 1 68 7 103 28 25 15 46 30
46 34 0 4 -11 20 -24 37 l-24 29 -43 -28 c-24 -16 -62 -31 -86 -34 -40 -4 -46
-1 -84 37 l-42 41 7 -32z"/>
<path d="M12235 8644 c-62 -23 -69 -34 -49 -77 10 -21 21 -37 26 -37 4 0 22 9
40 20 39 23 96 26 124 6 18 -14 18 -17 4 -43 -14 -24 -23 -29 -71 -33 l-55 -5
14 -48 c14 -49 14 -49 49 -42 52 9 83 -14 83 -64 0 -54 -43 -91 -106 -91 -79
0 -134 44 -166 132 l-19 53 4 -57 c8 -122 86 -208 194 -215 102 -7 160 52 150
151 -2 28 -8 59 -12 69 -6 14 -2 17 19 17 41 0 84 27 102 63 41 81 100 103
129 47 18 -35 19 -106 1 -138 -18 -34 -66 -62 -106 -62 -40 0 -50 5 -73 40
l-17 24 0 -32 c0 -77 46 -132 111 -132 73 0 138 87 139 185 0 114 -51 193
-131 202 -38 4 -50 1 -77 -22 -18 -15 -44 -47 -58 -71 -35 -60 -58 -75 -95
-62 l-29 10 35 39 c29 32 35 47 35 82 -1 91 -86 131 -195 91z"/>
<path d="M180 8210 l0 -90 -90 0 -90 0 0 -80 0 -80 90 0 90 0 0 -200 0 -200
80 0 80 0 0 200 0 200 90 0 90 0 0 80 0 80 -90 0 -90 0 0 90 0 90 -80 0 -80 0
0 -90z"/>
<path d="M12335 7921 c-183 -48 -292 -257 -225 -433 28 -75 96 -150 168 -185
49 -24 69 -28 142 -28 73 0 93 4 141 28 78 38 97 62 30 36 -77 -29 -146 -25
-219 12 -101 50 -155 135 -155 244 0 103 49 188 142 243 34 20 61 26 120 30
69 3 81 1 134 -26 l59 -30 -29 30 c-48 51 -117 80 -202 84 -42 2 -89 0 -106
-5z"/>
<path d="M12664 7663 c-9 -36 -11 -38 -53 -41 l-44 -3 33 -28 c31 -26 33 -29
22 -61 -18 -50 -15 -53 23 -24 l35 26 36 -27 37 -28 -6 24 c-3 13 -8 34 -12
46 -6 17 1 26 31 47 l39 26 -47 0 c-46 0 -47 1 -59 40 -7 22 -15 40 -19 40 -3
0 -11 -17 -16 -37z"/>
<path d="M330 7375 c-13 -14 -31 -25 -40 -25 -9 0 -39 -11 -66 -25 -27 -14
-61 -25 -76 -25 -25 0 -28 -4 -28 -33 0 -18 -6 -41 -14 -52 -7 -11 -19 -38
-26 -60 -7 -22 -22 -50 -33 -62 l-20 -23 21 -23 c12 -13 22 -30 22 -38 0 -8
12 -36 25 -64 14 -27 25 -62 25 -77 0 -23 4 -28 25 -28 14 0 48 -11 75 -25 27
-14 56 -25 64 -25 8 0 27 -11 43 -24 l28 -24 28 24 c16 13 35 24 43 24 8 0 37
11 64 25 27 14 61 25 75 25 22 0 25 4 25 34 0 19 4 37 9 41 5 3 17 29 26 58
10 28 27 62 38 74 20 22 20 23 2 43 -25 27 -67 127 -72 173 -4 32 -9 37 -32
37 -14 0 -48 11 -75 25 -27 14 -56 25 -65 25 -8 0 -27 11 -41 25 l-26 25 -24
-25z m72 -75 c8 0 36 -11 62 -25 26 -14 54 -25 62 -25 7 0 14 -7 14 -15 0 -14
24 -74 56 -138 9 -19 10 -34 4 -45 -10 -19 -55 -128 -64 -154 -3 -10 -12 -18
-21 -18 -9 0 -33 -9 -55 -20 -22 -11 -48 -20 -58 -20 -11 0 -25 -7 -32 -15
-12 -14 -15 -14 -30 0 -9 8 -24 15 -34 15 -9 0 -34 9 -56 20 -22 11 -46 20
-55 20 -9 0 -18 8 -21 18 -3 9 -14 35 -25 58 -10 23 -19 45 -19 50 0 5 -7 22
-15 37 -10 19 -11 34 -5 45 21 40 60 135 60 148 0 8 7 14 14 14 8 0 36 11 62
25 26 14 55 25 64 25 10 0 23 7 30 15 12 14 15 14 30 0 9 -8 23 -15 32 -15z"/>
<path d="M268 7256 c-16 -8 -33 -18 -39 -22 -7 -4 5 -23 32 -50 34 -35 46 -41
61 -33 14 8 18 22 18 64 0 50 -2 55 -22 55 -13 0 -35 -7 -50 -14z"/>
<path d="M370 7217 c0 -44 4 -58 18 -66 15 -8 27 -2 61 33 l42 43 -26 17 c-15
10 -42 20 -61 23 l-34 6 0 -56z"/>
<path d="M170 7158 c-32 -70 -29 -78 35 -78 45 0 56 4 66 21 9 18 6 26 -27 60
-21 21 -42 39 -47 39 -4 0 -17 -19 -27 -42z"/>
<path d="M466 7161 c-33 -34 -36 -42 -27 -60 10 -17 21 -21 66 -21 46 0 55 3
55 18 -1 23 -37 102 -47 102 -5 0 -26 -18 -47 -39z"/>
<path d="M322 7114 c-42 -29 -18 -104 35 -104 49 0 72 76 31 104 -12 9 -27 16
-33 16 -6 0 -21 -7 -33 -16z"/>
<path d="M150 7035 c0 -20 38 -95 48 -95 4 0 25 17 45 38 52 54 44 72 -34 72
-46 0 -59 -3 -59 -15z"/>
<path d="M436 7033 c-5 -11 5 -29 31 -55 20 -21 41 -38 46 -38 9 0 46 78 47
98 0 8 -18 12 -59 12 -46 0 -60 -4 -65 -17z"/>
<path d="M256 6951 l-39 -40 34 -20 c19 -12 39 -21 46 -21 6 0 18 -3 27 -6 14
-5 16 3 16 54 0 45 -4 61 -16 66 -25 10 -28 8 -68 -33z"/>
<path d="M383 6983 c-9 -3 -13 -26 -13 -65 0 -51 2 -59 16 -54 9 3 21 6 27 6
7 0 27 9 46 21 l34 20 -39 40 c-37 38 -47 42 -71 32z"/>
<path d="M12228 7079 c-10 -5 -18 -19 -18 -29 0 -13 -5 -18 -15 -14 -23 9 -45
-15 -45 -47 0 -23 -5 -28 -27 -31 l-28 -3 -3 -197 c-2 -181 -1 -201 17 -237
53 -102 180 -133 263 -63 55 47 67 90 69 256 1 115 -2 150 -12 157 -21 13 -36
11 -53 -7 -15 -14 -16 -9 -16 60 0 81 -15 112 -51 101 -15 -5 -19 -1 -19 19 0
15 -8 30 -19 36 -23 12 -22 12 -43 -1z m52 -164 l5 -150 5 120 c5 115 6 120
28 123 22 3 22 3 22 -127 0 -81 4 -131 10 -131 6 0 10 13 10 30 0 44 20 80 45
80 21 0 21 -3 20 -153 -2 -139 -4 -157 -24 -194 -30 -53 -66 -73 -134 -73 -68
0 -113 28 -145 90 -21 43 -22 55 -20 230 3 177 4 185 23 185 18 0 20 -8 25
-100 l5 -100 5 135 c5 131 6 135 28 138 22 3 22 2 22 -122 0 -77 4 -126 10
-126 6 0 10 57 10 151 0 150 0 150 23 147 21 -3 22 -7 27 -153z"/>
<path d="M12231 6693 c13 -35 -2 -49 -26 -23 -10 11 -23 20 -28 20 -6 0 0 -12
14 -27 l24 -27 -27 17 c-16 10 -29 13 -33 7 -3 -6 -2 -10 2 -10 5 0 18 -7 29
-15 18 -14 17 -14 -9 -5 -35 12 -37 12 -37 0 0 -5 8 -10 18 -10 9 0 24 -5 32
-11 11 -8 7 -9 -17 -4 -21 4 -33 3 -33 -4 0 -6 11 -11 25 -11 35 0 50 -32 25
-55 -11 -10 -17 -22 -14 -27 3 -4 14 2 24 14 11 13 19 17 20 10 0 -7 5 -10 10
-7 13 8 13 -1 0 -26 -7 -11 -7 -19 -1 -19 5 0 14 12 20 28 l11 27 -3 -32 c-2
-20 1 -33 8 -33 7 0 10 13 8 33 l-3 32 11 -27 c12 -30 16 -33 39 -18 12 7 12
12 2 22 -9 9 -12 8 -12 -7 0 -17 -2 -18 -10 -5 -13 20 -13 33 0 25 6 -3 10 0
10 7 1 7 9 3 20 -10 10 -12 21 -18 24 -14 3 5 -3 17 -14 27 -26 23 -15 38 21
30 17 -4 29 -2 29 4 0 5 -12 12 -27 14 l-28 4 28 2 c15 0 27 6 27 12 0 7 -10
9 -26 5 -17 -5 -23 -3 -19 4 3 5 15 10 26 10 10 0 19 5 19 10 0 12 -2 12 -37
0 -26 -9 -27 -9 -9 5 11 8 24 15 29 15 4 0 5 4 2 10 -4 6 -17 3 -33 -7 l-27
-17 24 27 c29 32 17 36 -16 6 -19 -19 -23 -20 -29 -6 -3 8 -1 25 6 36 6 12 7
21 1 21 -5 0 -14 -12 -19 -27 l-10 -28 -2 30 -2 30 -7 -30 -7 -30 -7 28 c-4
15 -12 27 -17 27 -6 0 -6 -10 1 -27z"/>
<path d="M12200 6704 c0 -5 7 -19 15 -30 8 -10 15 -14 15 -8 0 5 -7 19 -15 30
-8 10 -15 14 -15 8z"/>
<path d="M12310 6690 c-6 -12 -9 -24 -7 -27 3 -2 11 5 17 17 6 12 9 24 7 27
-3 2 -11 -5 -17 -17z"/>
<path d="M12140 6570 c0 -13 20 -13 40 0 12 8 9 10 -12 10 -16 0 -28 -4 -28
-10z"/>
<path d="M12166 6551 c-11 -4 -15 -10 -10 -13 5 -4 18 0 29 8 20 15 12 17 -19
5z"/>
<path d="M12345 6546 c11 -8 24 -12 29 -8 5 3 1 9 -10 13 -31 12 -39 10 -19
-5z"/>
<path d="M12207 6513 c-4 -3 -7 -11 -7 -17 0 -6 5 -5 12 2 6 6 9 14 7 17 -3 3
-9 2 -12 -2z"/>
<path d="M610 6545 c-6 -16 -21 -54 -32 -82 l-19 -53 -75 41 c-41 22 -74 36
-74 30 0 -6 11 -41 25 -77 14 -37 23 -70 19 -73 -3 -3 -42 -13 -87 -21 l-82
-15 78 -46 78 -46 -57 -68 -58 -68 44 6 c25 3 63 9 86 13 l41 6 6 -47 c4 -26
7 -66 7 -87 l0 -40 57 67 56 66 41 -47 c23 -27 49 -57 58 -68 17 -20 17 -18
18 67 0 99 -7 94 99 77 35 -6 65 -9 68 -7 2 3 -19 32 -47 65 -27 33 -50 62
-50 65 0 3 33 24 73 48 l72 43 -60 13 c-33 7 -70 15 -82 18 -29 7 -29 12 2 96
13 38 22 69 18 69 -3 0 -34 -16 -69 -35 -34 -19 -67 -35 -72 -35 -6 0 -24 35
-40 78 l-30 77 -12 -30z m35 -145 l17 -50 44 26 c25 15 47 24 50 22 2 -3 -3
-24 -11 -48 -17 -49 -14 -60 23 -61 15 -1 38 -4 52 -8 23 -6 22 -8 -23 -34
-47 -28 -56 -40 -37 -52 5 -3 19 -20 31 -37 l22 -31 -56 7 -57 7 0 -58 0 -58
-38 44 -37 43 -38 -41 -37 -41 0 50 c0 59 -7 64 -72 51 l-47 -8 19 27 c10 15
26 33 35 40 23 19 19 25 -30 51 -25 13 -45 27 -45 31 0 4 23 10 50 14 55 7 57
11 35 73 -8 22 -11 41 -8 41 3 0 26 -11 50 -25 l43 -26 10 26 c5 14 13 37 16
50 9 38 21 30 39 -25z"/>
<path d="M11643 6198 c2 -7 14 -13 27 -13 13 0 25 6 28 13 2 8 -7 12 -28 12
-21 0 -30 -4 -27 -12z"/>
<path d="M11732 6194 c9 -9 24 -14 32 -11 27 11 17 27 -16 27 -30 0 -31 -1
-16 -16z"/>
<path d="M11813 6198 c2 -7 14 -13 27 -13 13 0 25 6 28 13 2 8 -7 12 -28 12
-21 0 -30 -4 -27 -12z"/>
<path d="M11922 6198 c7 -19 45 -21 51 -4 5 12 -1 16 -24 16 -20 0 -29 -4 -27
-12z"/>
<path d="M12027 6194 c6 -17 44 -15 51 4 2 8 -7 12 -27 12 -23 0 -29 -4 -24
-16z"/>
<path d="M12113 6198 c2 -7 14 -13 27 -13 13 0 25 6 28 13 2 8 -7 12 -28 12
-21 0 -30 -4 -27 -12z"/>
<path d="M12193 6198 c2 -7 14 -13 27 -13 13 0 25 6 28 13 2 8 -7 12 -28 12
-21 0 -30 -4 -27 -12z"/>
<path d="M11647 6158 c6 -7 13 -34 15 -60 6 -53 37 -119 76 -162 31 -32 136
-86 170 -86 20 0 22 -5 22 -54 l0 -54 -65 -12 c-36 -7 -65 -16 -65 -21 0 -5
68 -9 151 -9 84 0 148 4 145 9 -3 5 -35 14 -71 21 l-65 12 0 54 c0 46 3 54 18
54 42 0 115 35 161 76 52 47 86 112 93 180 3 23 8 46 12 53 5 7 -4 11 -25 11
-26 0 -30 -3 -21 -12 16 -16 15 -34 -4 -97 -19 -66 -73 -127 -139 -157 -66
-31 -95 -31 -95 -1 0 18 10 26 49 40 81 28 141 103 141 175 0 15 5 33 12 40 9
9 5 12 -20 12 -28 0 -31 -3 -24 -16 24 -43 -29 -143 -92 -173 -56 -28 -66 -27
-66 9 0 20 5 30 15 30 23 0 82 58 89 88 4 15 9 35 12 45 4 14 -1 17 -27 17
-26 0 -30 -3 -21 -12 19 -19 14 -44 -14 -77 -38 -46 -54 -41 -54 17 0 26 5 53
12 60 9 9 5 12 -17 12 l-30 0 3 -60 c4 -65 -2 -71 -40 -40 -28 22 -42 68 -26
88 8 9 3 12 -23 12 -26 0 -30 -3 -21 -12 7 -7 12 -25 12 -41 0 -32 56 -97 84
-97 11 0 16 -9 16 -30 0 -34 -7 -36 -53 -16 -70 29 -127 132 -98 178 10 16 8
18 -25 18 -28 0 -34 -3 -27 -12 6 -7 14 -31 18 -53 3 -21 13 -51 20 -66 21
-40 80 -87 125 -99 33 -9 40 -15 40 -35 0 -30 -22 -33 -77 -10 -56 23 -100 61
-128 109 -29 50 -46 127 -33 150 7 13 3 16 -23 16 -24 0 -29 -3 -22 -12z"/>
<path d="M1014 5638 c-4 -24 -9 -46 -10 -50 -1 -5 -2 -13 -3 -18 0 -6 -13 -4
-31 5 -43 22 -59 18 -30 -8 14 -12 20 -18 13 -13 -9 6 -13 3 -13 -8 0 -9 7
-16 15 -16 8 0 15 -4 15 -10 0 -6 -73 -10 -200 -10 -225 0 -232 -3 -164 -65
37 -34 101 -54 125 -39 8 4 9 3 5 -4 -4 -7 -3 -12 3 -12 5 0 12 6 14 13 4 9 6
8 6 -2 1 -11 4 -11 18 0 13 11 15 11 9 1 -5 -9 -3 -13 5 -11 8 1 42 1 77 0
l63 -1 -17 -32 c-22 -43 -21 -43 -38 -29 -17 15 -34 -5 -18 -21 10 -10 52 -2
52 10 0 12 41 75 45 70 3 -2 1 -18 -4 -35 -7 -25 -6 -33 6 -37 19 -8 97 -8
117 0 21 8 10 25 -12 18 -15 -5 -15 -4 1 6 12 8 16 18 11 32 -10 33 14 11 34
-30 20 -43 62 -58 62 -23 0 12 -4 21 -10 21 -5 0 -10 -5 -10 -11 0 -21 -22 -3
-36 29 l-13 32 49 0 c28 0 53 0 56 -1 4 0 11 5 15 13 7 10 9 10 9 1 0 -7 5
-13 11 -13 5 0 7 6 3 13 -5 7 0 6 11 -3 11 -9 16 -10 11 -2 -4 6 -2 12 3 12 6
0 11 -5 11 -10 0 -10 26 -7 85 11 39 12 82 48 90 77 l6 22 -129 0 c-116 0
-131 -2 -147 -20 -10 -11 -25 -20 -34 -19 -14 0 -14 1 -1 6 50 19 41 28 -31
33 l-74 5 0 45 c0 32 -4 44 -13 42 -8 -1 -11 2 -7 7 3 6 12 8 20 5 12 -5 14 1
12 27 -4 53 -33 51 -43 -3z m-148 -153 c16 -8 22 -15 13 -15 -8 0 -24 7 -35
15 -25 19 -14 19 22 0z m118 -25 c-4 -19 -1 -37 7 -47 13 -16 12 -17 -3 -4
-18 13 -25 61 -11 74 11 12 13 8 7 -23z m-241 -29 c-2 -3 -16 8 -31 24 l-27
28 31 -24 c17 -13 30 -26 27 -28z m317 17 c0 -26 3 -30 11 -18 9 13 10 13 6
-2 -3 -9 -1 -19 6 -22 7 -2 4 -5 -5 -5 -10 -1 -18 4 -18 11 0 6 -3 8 -7 4 -5
-4 -8 -13 -8 -18 0 -6 -7 -13 -15 -15 -13 -4 -13 -3 0 6 13 10 13 11 0 11 -12
1 -11 3 3 11 14 8 17 18 12 40 -4 18 -3 29 4 29 6 0 11 -15 11 -32z m340 12
c-6 -11 -13 -20 -16 -20 -2 0 0 9 6 20 6 11 13 20 16 20 2 0 0 -9 -6 -20z
m-755 -10 c16 -17 16 -20 3 -15 -9 4 -19 13 -22 21 -7 19 -2 18 19 -6z m670 0
c-10 -11 -22 -20 -28 -20 -5 0 1 9 14 20 31 25 37 25 14 0z m41 -25 c-11 -8
-27 -15 -35 -15 -9 1 -2 7 14 15 39 18 44 18 21 0z m-473 -2 c5 -9 -78 -11
-86 -3 -3 3 14 6 38 8 24 1 46 -1 48 -5z m84 -12 c10 -16 9 -18 -6 -14 -10 2
-18 11 -18 19 0 19 10 18 24 -5z m290 13 c-3 -3 -12 -4 -19 -1 -8 3 -5 6 6 6
11 1 17 -2 13 -5z m-224 -101 c-7 -2 -21 -2 -30 0 -10 3 -4 5 12 5 17 0 24 -2
18 -5z"/>
<path d="M11469 5520 c-97 -16 -189 -84 -237 -175 -24 -45 -27 -61 -27 -150 0
-92 2 -104 30 -154 127 -229 455 -229 580 0 24 45 30 69 33 141 4 77 2 92 -22
145 -64 138 -209 217 -357 193z m42 -164 c0 -80 -2 -146 -5 -146 -3 0 -70 0
-147 0 l-142 0 6 45 c16 113 124 223 240 244 23 4 43 7 45 5 2 -1 3 -68 3
-148z m157 115 c80 -41 161 -157 162 -231 l0 -35 -147 3 -148 3 2 147 c1 81 3
148 3 148 1 7 98 -20 128 -35z m-155 -435 l2 -148 -41 5 c-125 14 -254 150
-254 269 l0 29 146 -3 145 -3 2 -149z m317 126 c0 -122 -147 -272 -266 -272
-23 0 -23 2 -26 146 -2 80 -1 148 1 150 2 2 69 4 148 4 l143 0 0 -28z"/>
<path d="M11382 5354 c-27 -18 -28 -45 -4 -67 25 -23 48 -21 66 5 20 29 20 34
-4 58 -24 24 -29 24 -58 4z"/>
<path d="M11628 5358 c-24 -20 -28 -44 -12 -67 19 -26 45 -27 67 -3 23 25 21
48 -5 66 -27 19 -30 19 -50 4z"/>
<path d="M11376 5114 c-22 -22 -20 -50 5 -68 43 -30 93 20 63 63 -18 25 -46
27 -68 5z"/>
<path d="M11615 5114 c-34 -35 6 -91 53 -73 15 6 22 17 22 37 0 49 -42 69 -75
36z"/>
<path d="M933 5297 c-9 -14 6 -20 60 -25 50 -4 116 12 103 25 -9 9 -157 9
-163 0z"/>
<path d="M1359 5074 c-201 -61 -296 -291 -198 -475 18 -33 47 -73 66 -89 40
-35 125 -80 150 -80 10 0 -7 11 -38 24 -90 37 -142 86 -182 173 -31 68 -31
188 1 259 41 92 142 170 242 188 33 6 32 5 -14 -18 -27 -13 -66 -42 -88 -63
-47 -44 -98 -145 -97 -188 1 -25 3 -23 10 13 26 133 158 253 279 255 111 1
237 -102 276 -226 7 -23 13 -33 13 -22 2 66 -97 193 -178 230 -29 13 -38 21
-29 27 22 14 -165 7 -213 -8z"/>
<path d="M1632 5062 c71 -30 114 -59 149 -103 90 -114 92 -289 4 -404 -31 -42
-106 -95 -133 -95 -50 0 -52 5 -52 126 0 112 0 114 23 114 23 0 107 21 141 35
17 8 18 5 12 -31 -14 -72 -47 -132 -101 -184 -61 -57 -59 -68 3 -15 60 52 103
146 107 232 2 37 1 56 -1 42 -7 -37 -30 -40 -214 -27 -97 6 -168 7 -190 1
l-35 -9 50 -18 c28 -9 81 -20 118 -23 37 -3 70 -10 73 -14 3 -5 2 -58 -2 -119
l-7 -110 -28 0 c-15 0 -35 -3 -45 -7 -16 -6 -16 -7 2 -14 16 -6 15 -8 -8 -8
-46 -1 -134 38 -183 81 -49 43 -104 140 -106 188 -1 17 -3 19 -6 7 -16 -61 91
-213 177 -252 28 -13 37 -21 28 -27 -20 -12 162 -9 212 5 184 49 287 260 218
444 -34 92 -132 179 -223 198 -19 4 -13 -1 17 -13z m-45 -628 c-3 -3 -12 -4
-19 -1 -8 3 -5 6 6 6 11 1 17 -2 13 -5z"/>
<path d="M1582 4973 c0 -16 -3 -57 -7 -93 -5 -43 -3 -75 5 -95 l12 -30 13 35
c18 47 18 133 1 175 -18 42 -23 44 -24 8z m15 -155 c-2 -13 -4 -5 -4 17 -1 22
1 32 4 23 2 -10 2 -28 0 -40z"/>
<path d="M10998 4784 c-21 -19 -38 -40 -38 -47 -1 -6 -15 -21 -32 -32 -41 -26
-68 -79 -68 -133 0 -54 19 -92 66 -130 20 -17 33 -35 30 -40 -4 -6 7 -19 24
-28 20 -12 30 -26 30 -42 l0 -23 -32 18 c-18 10 -56 41 -84 68 -87 86 -106
187 -49 261 30 39 25 43 -16 13 -64 -45 -86 -145 -52 -231 9 -24 36 -71 59
-104 23 -34 44 -68 46 -75 4 -10 14 -6 36 14 22 21 36 27 52 22 20 -6 19 -8
-16 -39 -27 -23 -36 -37 -31 -50 10 -25 40 -16 47 14 3 14 14 26 24 28 16 3
17 -2 14 -45 -3 -44 -1 -48 21 -51 36 -5 45 11 30 52 -7 19 -10 38 -7 42 13
12 48 -8 48 -27 0 -22 26 -37 41 -22 15 15 0 42 -38 68 -33 22 -34 23 -13 30
15 5 31 -1 55 -19 38 -29 45 -31 45 -13 0 7 20 42 45 78 56 78 80 153 70 217
-5 37 -16 56 -51 91 -49 49 -71 50 -30 1 45 -54 30 -166 -31 -236 -29 -32
-113 -94 -129 -94 -25 0 -15 30 16 48 16 9 30 24 30 33 0 8 14 25 31 38 91 67
92 206 3 264 -19 12 -34 27 -34 32 0 6 -17 27 -37 47 l-38 37 -37 -35z m-9
-144 c6 -28 11 -65 11 -83 0 -41 -18 -107 -29 -107 -13 0 -68 66 -76 90 -11
35 4 86 34 119 16 17 34 31 39 31 6 0 15 -23 21 -50z m151 20 c37 -39 46 -90
24 -135 -20 -43 -63 -80 -77 -66 -27 27 -15 231 14 231 6 0 24 -13 39 -30z"/>
<path d="M1191 4754 c0 -11 3 -14 6 -6 3 7 2 16 -1 19 -3 4 -6 -2 -5 -13z"/>
<path d="M1958 4393 c6 -2 18 -2 25 0 6 3 1 5 -13 5 -14 0 -19 -2 -12 -5z"/>
<path d="M2097 4380 c101 -45 122 -179 40 -258 -26 -26 -48 -35 -105 -46 -40
-8 -83 -21 -97 -30 -90 -59 -86 -209 6 -265 20 -12 26 -21 17 -24 -7 -3 23 -6
67 -6 68 -1 89 3 140 28 70 33 137 100 167 169 32 73 30 190 -6 264 -34 71
-115 147 -182 171 -67 24 -101 22 -47 -3z m-42 -436 c20 -20 16 -53 -7 -68
-40 -24 -80 44 -42 71 23 17 29 16 49 -3z"/>
<path d="M1870 4364 c-25 -14 -56 -35 -69 -47 -27 -25 -81 -106 -81 -121 0 -6
13 12 30 40 34 61 76 98 145 130 28 13 43 24 35 24 -8 0 -35 -12 -60 -26z"/>
<path d="M2002 4268 c-18 -18 -14 -56 7 -68 26 -14 50 -3 57 26 11 42 -34 72
-64 42z"/>
<path d="M1711 4164 c0 -11 3 -14 6 -6 3 7 2 16 -1 19 -3 4 -6 -2 -5 -13z"/>
<path d="M1703 4075 c0 -38 2 -53 4 -32 2 20 2 52 0 70 -2 17 -4 1 -4 -38z"/>
<path d="M10400 4131 c-49 -15 -95 -44 -138 -85 -41 -39 -89 -113 -79 -122 2
-3 10 10 18 28 20 49 86 116 144 146 67 35 194 39 237 7 99 -74 85 -226 -26
-276 -23 -10 -57 -19 -77 -19 -75 0 -149 -79 -149 -159 0 -55 24 -97 76 -137
32 -25 46 -29 99 -28 115 2 217 66 276 176 31 57 34 71 34 148 0 73 -4 93 -28
142 -35 71 -110 140 -183 167 -56 21 -154 27 -204 12z m120 -456 c15 -18 10
-45 -12 -59 -33 -20 -69 20 -54 60 7 18 50 18 66 -1z"/>
<path d="M10466 4007 c-38 -27 2 -95 42 -71 24 16 28 55 6 71 -10 7 -21 13
-24 13 -3 0 -14 -6 -24 -13z"/>
<path d="M1710 3992 c0 -25 31 -86 66 -129 35 -42 125 -103 153 -103 8 0 -14
14 -47 31 -71 35 -124 93 -152 166 -11 26 -19 42 -20 35z"/>
<path d="M10171 3894 c0 -11 3 -14 6 -6 3 7 2 16 -1 19 -3 4 -6 -2 -5 -13z"/>
<path d="M10163 3810 c0 -36 2 -50 4 -32 2 17 2 47 0 65 -2 17 -4 3 -4 -33z"/>
<path d="M2568 3730 c-21 -21 -38 -42 -38 -46 0 -5 -16 -22 -36 -38 -41 -33
-64 -79 -64 -131 0 -46 20 -84 64 -123 20 -17 36 -38 36 -46 0 -7 11 -21 25
-30 14 -9 25 -25 25 -36 0 -19 -2 -20 -27 -6 -42 21 -122 95 -139 127 -22 43
-33 117 -23 152 5 17 18 41 30 54 32 33 19 37 -20 6 -40 -31 -71 -94 -71 -143
0 -46 37 -132 83 -196 20 -28 37 -56 37 -63 0 -18 16 -13 48 14 18 15 37 23
46 19 22 -8 20 -21 -4 -29 -29 -9 -56 -53 -42 -67 15 -15 42 -2 42 21 0 19 35
39 47 28 3 -3 0 -22 -7 -42 -10 -32 -10 -39 4 -53 13 -13 20 -14 34 -6 13 9
16 22 14 59 -3 41 -2 47 13 41 9 -3 19 -6 21 -6 2 0 4 -9 4 -20 0 -24 26 -38
42 -22 14 14 -13 58 -42 67 -24 8 -26 21 -4 29 9 3 30 -6 51 -22 25 -19 38
-23 41 -14 2 7 19 34 38 60 73 99 99 192 75 265 -7 20 -30 52 -52 72 -44 39
-67 40 -30 1 78 -83 19 -247 -118 -324 -41 -23 -41 -23 -41 -2 0 11 12 28 28
38 15 9 26 24 25 32 -1 8 12 24 29 35 97 61 95 205 -4 271 -15 10 -28 24 -28
29 0 6 -17 27 -37 47 l-38 35 -37 -37z m-7 -144 c13 -59 8 -161 -8 -177 -7 -7
-17 -7 -31 2 -32 20 -52 64 -52 113 0 36 6 52 31 81 17 19 35 35 39 35 5 0 14
-24 21 -54z m148 24 c32 -32 47 -84 36 -120 -8 -24 -63 -90 -76 -90 -11 0 -29
66 -29 107 0 45 20 133 30 133 5 0 22 -14 39 -30z"/>
<path d="M10175 3715 c9 -42 47 -104 86 -140 27 -24 25 -21 -9 19 -23 26 -51
71 -62 100 -12 28 -18 38 -15 21z"/>
<path d="M10337 3519 c7 -7 15 -10 18 -7 3 3 -2 9 -12 12 -14 6 -15 5 -6 -5z"/>
<path d="M9846 3502 c-3 -5 -17 -7 -31 -4 -39 7 -147 -51 -194 -104 -60 -69
-84 -141 -79 -239 7 -127 70 -224 183 -283 43 -22 66 -27 158 -30 159 -6 241
23 316 115 57 69 75 119 75 213 1 74 -3 93 -27 142 -36 73 -120 151 -187 173
-28 9 -57 14 -65 11 -8 -3 -15 -2 -15 3 0 11 -127 14 -134 3z m-52 -33 c-104
-51 -175 -162 -180 -283 l-3 -71 8 71 c5 39 18 91 29 117 46 104 161 187 259
187 62 0 139 -36 192 -89 49 -49 71 -89 88 -161 l13 -55 -5 48 c-9 88 -71 177
-159 228 -67 38 -31 39 49 1 68 -33 127 -92 159 -161 16 -36 21 -65 21 -131 0
-79 -3 -90 -36 -150 -36 -66 -109 -134 -157 -146 -33 -9 -40 4 -11 23 72 50
126 138 138 227 l7 54 -23 -11 c-17 -8 -68 -8 -181 0 -86 6 -175 8 -197 4
l-40 -8 30 -12 c29 -12 85 -24 168 -36 l37 -6 0 -114 c0 -113 0 -115 -22 -115
-13 0 -34 -3 -48 -7 l-25 -7 25 -7 c22 -6 21 -7 -11 -8 -115 -3 -238 94 -285
227 -7 21 -13 29 -14 19 -1 -60 93 -181 173 -222 l52 -27 -40 7 c-87 15 -179
85 -223 169 -23 45 -27 63 -27 146 0 110 19 161 86 230 44 45 128 90 169 90
21 0 19 -3 -16 -21z m380 -411 c-12 -36 -34 -69 -73 -110 -32 -32 -62 -58 -68
-58 -11 0 -28 203 -18 220 3 5 21 10 38 10 18 1 55 9 82 18 l50 17 3 -23 c2
-12 -4 -46 -14 -74z m-161 -205 c-7 -2 -19 -2 -25 0 -7 3 -2 5 12 5 14 0 19
-2 13 -5z"/>
<path d="M10000 3393 c0 -17 -5 -53 -11 -80 -12 -50 1 -133 21 -133 14 0 32
109 25 154 -3 22 -12 52 -20 66 l-14 25 -1 -32z m11 -166 c-8 -8 -11 0 -10 29
1 39 1 39 11 11 7 -21 7 -32 -1 -40z"/>
<path d="M3165 3139 c-110 -14 -226 -108 -261 -212 -39 -114 -15 -240 63 -327
65 -73 128 -102 228 -108 104 -5 175 20 243 86 63 62 94 127 100 211 15 214
-159 378 -373 350z m35 -169 l0 -151 -147 3 -148 3 3 35 c12 127 143 255 265
259 l27 1 0 -150z m152 120 c88 -45 152 -133 165 -225 l6 -46 -149 3 -149 3
-3 149 -3 149 45 -5 c25 -3 64 -15 88 -28z m-152 -436 l0 -147 -47 7 c-115 15
-224 128 -247 254 l-5 32 149 0 150 0 0 -146z m316 105 c-8 -51 -37 -108 -77
-153 -37 -43 -140 -96 -186 -96 l-33 0 0 145 0 145 151 0 152 0 -7 -41z"/>
<path d="M3072 2974 c-31 -21 -29 -61 4 -76 32 -15 58 -1 62 34 3 23 -19 58
-36 58 -4 0 -18 -7 -30 -16z"/>
<path d="M3310 2970 c-11 -11 -20 -26 -20 -33 0 -18 32 -47 52 -47 17 0 48 31
48 48 0 15 -36 52 -50 52 -5 0 -19 -9 -30 -20z"/>
<path d="M3068 2739 c-24 -13 -23 -52 2 -74 30 -27 70 -7 70 34 0 42 -36 62
-72 40z"/>
<path d="M3308 2739 c-34 -19 -12 -89 27 -89 41 0 61 71 26 90 -24 12 -31 12
-53 -1z"/>
<path d="M9295 2715 c-4 -30 -11 -58 -16 -61 -5 -2 -22 2 -38 11 -35 18 -41
18 -41 5 0 -5 6 -10 14 -10 7 0 19 -7 26 -15 14 -17 0 -21 -17 -4 -8 8 -13 7
-18 -2 -5 -8 -4 -10 3 -5 7 4 12 1 12 -8 0 -10 6 -13 15 -10 8 4 15 1 15 -5 0
-7 -24 -11 -65 -11 -65 0 -81 -10 -47 -29 9 -6 12 -11 5 -11 -6 0 -18 9 -26
20 -12 18 -25 19 -141 18 -124 -1 -126 -1 -120 -22 9 -29 33 -55 69 -74 21
-11 67 -17 158 -20 70 -2 127 -6 127 -9 0 -5 -31 -66 -37 -73 -2 -2 -8 2 -13
10 -7 12 -12 12 -21 3 -10 -10 -9 -14 4 -19 26 -10 46 2 64 41 18 37 39 48 30
16 -6 -23 10 -31 61 -31 45 0 67 13 59 34 -13 33 15 15 29 -19 16 -39 34 -51
61 -41 13 5 14 9 4 19 -9 9 -14 9 -20 -2 -7 -11 -10 -11 -17 0 -17 27 -34 62
-32 65 2 1 59 4 128 6 132 4 167 15 210 60 26 28 26 58 1 58 -11 0 -22 -6 -24
-12 -4 -10 -6 -10 -6 0 -1 6 -14 12 -30 12 -16 0 -32 -6 -34 -12 -4 -10 -6
-10 -6 0 -1 8 -22 12 -69 12 -56 0 -69 -3 -80 -20 -7 -11 -18 -20 -25 -20 -6
0 -4 5 6 11 33 19 17 28 -55 31 -42 2 -72 7 -71 13 0 6 4 40 7 77 5 63 -1 78
-29 78 -2 0 -7 -25 -10 -55z m-352 -190 c12 -8 17 -15 11 -15 -15 0 -64 49
-64 64 0 6 7 1 15 -11 9 -12 26 -29 38 -38z m80 4 c18 -10 27 -19 20 -19 -16
0 -73 49 -73 63 0 7 5 4 11 -6 6 -10 25 -27 42 -38z m241 16 c-4 -15 -1 -32 7
-43 13 -15 12 -16 -3 -3 -18 13 -24 51 -11 64 12 12 13 7 7 -18z m85 -36 c6 9
10 7 14 -8 3 -12 1 -19 -4 -15 -6 3 -16 1 -24 -6 -11 -9 -13 -7 -10 7 2 10 5
34 6 53 l2 35 4 -39 c3 -25 7 -35 12 -27z m265 46 c-4 -9 -16 -21 -28 -27 -19
-10 -18 -8 4 15 29 31 31 32 24 12z m-391 -2 c-13 -2 -33 -2 -45 0 -13 2 -3 4
22 4 25 0 35 -2 23 -4z m195 0 c-10 -2 -28 -2 -40 0 -13 2 -5 4 17 4 22 1 32
-1 23 -4z m266 -6 c-5 -13 -56 -47 -71 -47 -4 0 6 9 23 19 18 11 35 24 38 30
10 15 16 14 10 -2z m-429 -57 l20 -25 -22 19 c-13 11 -23 24 -23 29 0 6 1 8 3
6 1 -2 11 -15 22 -29z"/>
<path d="M3540 2472 c0 -4 5 -13 12 -20 9 -9 9 -12 -1 -12 -7 0 -9 -5 -6 -11
4 -5 9 -29 12 -52 12 -108 97 -212 196 -242 28 -8 57 -15 64 -15 9 0 13 -16
13 -53 l0 -53 -65 -13 c-36 -7 -68 -17 -71 -22 -3 -5 60 -9 145 -9 83 0 151 4
151 9 0 5 -29 14 -65 21 l-65 12 0 53 0 53 37 7 c45 8 100 35 141 70 41 34 92
138 92 186 0 21 5 41 11 45 8 4 7 9 -2 14 -10 7 -10 11 0 24 12 14 10 16 -18
16 -33 0 -39 -8 -19 -28 9 -9 9 -12 0 -12 -9 0 -10 -5 -4 -16 13 -23 -4 -100
-33 -150 -28 -48 -72 -86 -128 -109 -55 -23 -77 -20 -77 10 0 20 7 26 40 35
83 22 146 110 153 213 2 18 6 38 10 45 6 9 -2 12 -29 12 -33 0 -35 -2 -23 -17
11 -13 11 -17 1 -21 -10 -3 -10 -7 -1 -18 31 -38 -21 -138 -91 -174 -52 -27
-60 -25 -60 10 0 19 5 30 14 30 28 0 86 65 86 97 0 16 5 34 12 41 9 9 9 12 -2
12 -11 0 -11 3 -2 12 19 19 14 28 -18 28 -32 0 -37 -9 -18 -28 9 -9 9 -12 0
-12 -9 0 -10 -5 -3 -18 12 -23 -10 -77 -39 -92 -12 -6 -23 -10 -25 -8 -4 4 -8
80 -5 88 1 3 3 20 5 38 2 30 0 32 -27 32 -27 0 -29 -2 -17 -16 10 -13 10 -17
0 -24 -9 -5 -10 -10 -2 -14 6 -4 11 -29 11 -57 0 -59 -16 -64 -54 -18 -27 32
-34 63 -15 75 8 4 7 9 -2 14 -10 7 -10 11 0 24 12 14 10 16 -17 16 -27 0 -29
-2 -27 -32 2 -18 4 -33 5 -33 1 0 3 -13 5 -29 5 -34 49 -84 82 -92 18 -5 23
-13 23 -36 0 -28 -2 -30 -27 -23 -43 10 -90 46 -112 86 -22 38 -30 87 -17 107
4 7 2 12 -5 12 -10 0 -10 3 -1 12 19 19 14 28 -18 28 -32 0 -37 -9 -18 -28 9
-9 9 -12 -1 -12 -9 0 -10 -4 -4 -12 6 -7 13 -32 16 -56 9 -75 70 -141 151
-163 29 -8 36 -15 36 -34 0 -32 -28 -33 -95 -1 -66 30 -120 91 -139 157 -19
63 -20 81 -4 97 9 9 9 12 0 12 -10 0 -10 5 -2 20 10 18 8 20 -20 20 -16 0 -30
-4 -30 -8z"/>
<path d="M9221 2393 c-9 -20 -7 -23 29 -33 36 -10 112 -2 127 13 15 16 -10 23
-46 14 -25 -7 -50 -7 -72 -1 -31 9 -28 10 28 9 34 0 66 5 72 10 7 7 -13 10
-59 10 -62 0 -70 -2 -79 -22z"/>
<path d="M8650 2275 c-6 -16 -21 -54 -32 -82 -11 -29 -21 -53 -23 -53 -2 0
-34 18 -72 40 -37 21 -69 36 -71 32 -1 -4 9 -41 23 -82 14 -40 24 -74 22 -76
-1 -1 -40 -8 -87 -16 l-85 -14 48 -30 c27 -16 62 -37 78 -47 l30 -17 -56 -66
c-31 -37 -55 -68 -53 -70 2 -1 21 1 43 5 22 5 59 12 83 15 l42 6 1 -42 c0 -24
4 -62 7 -85 l7 -43 49 60 c28 33 53 60 57 60 4 0 32 -28 63 -62 l55 -63 1 88
c0 100 -7 94 103 73 37 -7 67 -10 67 -7 0 4 -22 33 -50 66 -27 33 -50 63 -50
66 0 3 31 23 70 45 38 21 70 42 70 45 0 4 -36 12 -80 20 -46 7 -80 17 -80 24
0 6 11 44 24 83 14 40 23 72 20 72 -2 0 -37 -18 -76 -40 -39 -22 -72 -39 -74
-37 -2 1 -16 38 -33 82 l-29 80 -12 -30z m34 -145 l18 -50 46 25 c25 14 47 23
50 20 3 -2 -3 -25 -13 -50 -9 -26 -16 -48 -14 -50 2 -1 29 -7 59 -12 l55 -9
-47 -28 c-27 -15 -48 -31 -48 -35 0 -4 13 -22 30 -41 16 -19 29 -38 30 -41 0
-4 -19 -3 -42 2 -69 13 -68 14 -68 -48 l-1 -58 -38 43 -38 44 -35 -42 -36 -41
-7 56 c-5 46 -10 55 -23 51 -9 -2 -35 -7 -56 -11 l-40 -7 38 47 c21 25 37 47
35 49 -2 2 -23 13 -46 26 -24 13 -43 27 -43 31 0 3 23 9 50 13 28 4 50 10 50
15 0 5 -7 28 -15 51 -8 24 -14 45 -12 47 2 2 25 -8 50 -23 l47 -26 10 27 c5
14 13 37 16 50 9 37 18 31 38 -25z"/>
<path d="M4442 1968 c-7 -7 -12 -18 -12 -25 0 -7 -8 -13 -18 -13 -26 0 -42
-20 -42 -52 0 -20 -4 -26 -15 -22 -8 4 -22 1 -30 -6 -12 -10 -15 -47 -15 -203
0 -173 2 -195 21 -234 52 -107 183 -134 270 -56 51 46 58 77 61 256 3 144 2
148 -19 153 -11 3 -31 1 -42 -6 -20 -10 -21 -9 -21 63 0 81 -12 104 -50 92
-16 -5 -20 -2 -20 17 0 28 -17 48 -40 48 -9 0 -21 -5 -28 -12z m60 -162 l2
-141 5 115 c6 115 6 115 31 115 l25 0 5 -130 c3 -71 7 -118 8 -104 4 55 23 89
48 89 l24 0 0 -136 c0 -158 -10 -200 -57 -246 -32 -31 -39 -33 -101 -33 -79 0
-118 22 -148 82 -17 33 -19 62 -19 228 0 189 0 190 23 193 22 3 22 1 22 -97 0
-155 19 -124 22 37 3 114 6 137 18 137 12 0 16 -21 18 -120 4 -180 22 -170 22
12 0 112 3 153 13 156 30 11 37 -15 39 -157z"/>
<path d="M4480 1590 c-3 -32 -3 -32 -7 -7 -2 15 -9 27 -15 27 -6 0 -8 -11 -4
-27 5 -26 5 -27 -6 -5 -6 12 -15 22 -20 22 -12 0 -10 -8 10 -37 9 -15 12 -24
6 -20 -7 4 -15 0 -18 -9 -4 -11 -13 -14 -30 -10 -14 3 -27 2 -31 -3 -3 -5 9
-12 27 -14 l33 -4 -32 -1 c-18 -1 -33 -7 -33 -13 0 -7 11 -8 29 -4 24 5 29 3
27 -11 -1 -9 -12 -22 -25 -28 -12 -7 -19 -15 -15 -18 3 -4 18 1 33 10 26 16
26 16 9 -4 -27 -31 -21 -41 8 -13 21 19 24 20 18 5 -5 -14 -4 -17 4 -12 14 9
15 -3 2 -24 -8 -13 -10 -12 -10 5 0 15 -3 16 -12 7 -10 -10 -10 -15 2 -22 26
-16 39 -11 43 18 l4 27 2 -27 c0 -16 5 -28 10 -28 4 0 7 12 5 28 l-4 27 12
-27 c15 -35 31 -37 18 -2 -15 37 -11 43 6 11 9 -16 18 -27 21 -24 2 3 -1 15
-7 28 -10 19 -10 24 4 34 8 7 12 15 9 19 -4 4 5 2 20 -3 35 -13 37 -13 37 -1
0 6 -9 10 -19 10 -11 0 -23 5 -26 10 -4 7 2 9 19 4 16 -4 26 -2 26 5 0 6 -11
11 -25 11 -35 0 -50 32 -25 55 27 25 16 33 -12 9 l-22 -19 17 28 c10 15 13 27
8 27 -6 0 -17 -12 -25 -27 -17 -32 -20 -26 -6 11 5 14 6 26 1 26 -5 0 -12 -12
-17 -27 l-8 -28 -6 35 -7 35 -3 -35z"/>
<path d="M4397 1583 c-4 -3 -1 -13 6 -21 10 -13 9 -15 -5 -9 -10 3 -18 2 -18
-2 0 -5 7 -12 16 -15 22 -8 26 -8 20 3 -4 5 -2 11 3 13 5 1 4 11 -3 20 -7 10
-16 15 -19 11z"/>
<path d="M4566 1545 c-11 -8 -15 -15 -9 -15 19 0 43 12 43 21 0 13 -12 11 -34
-6z"/>
<path d="M4570 1520 c-12 -8 -9 -10 13 -10 15 0 27 5 27 10 0 13 -20 13 -40 0z"/>
<path d="M4364 1461 c3 -5 15 -7 26 -4 28 7 25 13 -6 13 -14 0 -23 -4 -20 -9z"/>
<path d="M4570 1435 c15 -18 -1 -20 -18 -3 -8 8 -12 8 -12 1 0 -6 7 -16 15
-23 13 -11 18 -10 29 6 11 14 11 21 3 26 -20 13 -30 9 -17 -7z"/>
<path d="M7990 1716 c-22 -21 -139 -68 -182 -73 -36 -5 -38 -7 -38 -43 0 -22
-4 -42 -10 -45 -5 -3 -17 -30 -25 -59 -9 -30 -24 -61 -35 -71 -19 -17 -19 -18
5 -47 14 -16 25 -36 25 -44 0 -8 8 -29 17 -47 9 -18 19 -50 22 -72 6 -38 8
-40 46 -46 22 -3 54 -13 72 -22 18 -9 39 -17 47 -17 8 0 28 -12 45 -26 l31
-26 31 26 c17 14 37 26 45 26 8 0 32 9 54 20 22 11 53 20 70 20 27 0 30 3 30
29 0 16 11 52 25 79 14 28 25 56 25 64 0 8 9 23 20 33 11 10 20 23 20 30 0 7
-9 20 -20 30 -11 10 -20 26 -20 35 0 9 -11 39 -25 66 -14 27 -25 61 -25 77 0
23 -4 27 -27 27 -16 0 -50 11 -77 25 -27 14 -57 25 -66 25 -9 0 -25 9 -35 20
-21 24 -26 24 -45 6z m46 -71 c16 -8 36 -15 44 -15 8 0 29 -9 45 -20 17 -11
38 -20 48 -20 9 0 17 -7 17 -14 0 -8 11 -36 25 -62 14 -26 25 -55 25 -64 0
-10 7 -23 15 -30 13 -11 13 -15 2 -29 -8 -9 -21 -37 -31 -63 -10 -26 -22 -50
-27 -53 -5 -4 -9 -17 -9 -31 0 -16 -6 -24 -18 -24 -10 0 -35 -9 -57 -20 -22
-11 -46 -20 -54 -20 -8 0 -23 -7 -33 -17 -17 -15 -19 -15 -36 0 -10 10 -26 17
-36 17 -9 0 -31 7 -49 17 -17 9 -42 19 -55 22 -24 7 -35 28 -64 121 -7 19 -18
43 -26 53 -13 15 -13 19 1 35 10 10 17 25 17 33 0 8 9 31 20 52 11 20 20 46
20 57 0 12 7 20 18 20 9 0 39 11 66 25 27 14 57 25 67 25 10 0 21 5 24 10 8
13 7 13 41 -5z"/>
<path d="M7924 1596 c-49 -21 -50 -34 -9 -76 54 -55 75 -46 75 31 0 66 -7 70
-66 45z"/>
<path d="M8020 1557 c0 -44 4 -58 18 -66 15 -8 27 -2 61 33 l42 43 -26 17
c-15 10 -42 20 -61 23 l-34 6 0 -56z"/>
<path d="M7821 1491 c-11 -27 -21 -54 -21 -60 0 -7 24 -11 59 -11 52 0 61 3
66 21 5 16 -2 30 -31 60 -21 21 -41 39 -45 39 -4 0 -16 -22 -28 -49z"/>
<path d="M8122 1497 c-54 -56 -45 -77 33 -77 49 0 55 2 55 20 0 25 -24 85 -37
93 -5 4 -28 -13 -51 -36z"/>
<path d="M7990 1463 c-40 -14 -53 -69 -22 -96 25 -23 58 -21 82 3 26 26 25 46
-5 75 -25 26 -29 27 -55 18z"/>
<path d="M7806 1363 c9 -37 32 -83 42 -83 4 0 25 17 45 38 52 54 44 72 -34 72
l-59 0 6 -27z"/>
<path d="M8087 1371 c-3 -13 7 -31 32 -55 20 -20 40 -36 44 -36 13 0 47 64 47
88 0 20 -4 22 -59 22 -49 0 -59 -3 -64 -19z"/>
<path d="M7917 1292 c-20 -21 -37 -41 -37 -45 0 -9 48 -32 83 -41 l27 -6 0 59
c0 54 -8 71 -34 71 -1 0 -19 -17 -39 -38z"/>
<path d="M8033 1323 c-14 -5 -19 -123 -5 -123 19 0 79 22 96 35 19 15 19 16
-19 55 -38 39 -47 43 -72 33z"/>
<path d="M5053 1410 c-98 -21 -186 -92 -232 -189 -37 -80 -37 -192 0 -271 46
-96 123 -159 228 -186 79 -20 162 -7 241 38 58 33 62 46 7 23 -94 -39 -238 -7
-304 69 -58 65 -68 93 -68 186 0 102 19 146 91 209 87 76 204 90 309 35 l50
-26 -28 30 c-63 66 -195 103 -294 82z"/>
<path d="M7260 1140 l0 -90 -90 0 -90 0 0 -80 0 -80 90 0 90 0 0 -200 0 -200
80 0 80 0 0 200 0 200 90 0 90 0 0 80 0 80 -90 0 -90 0 0 90 0 90 -80 0 -80 0
0 -90z"/>
<path d="M5370 1153 c-13 -42 -14 -43 -59 -43 l-46 -1 36 -32 c37 -32 37 -32
24 -69 -14 -39 -7 -50 15 -23 21 25 49 27 79 6 40 -29 42 -27 26 19 l-14 39
37 30 37 30 -45 1 c-45 0 -46 1 -62 43 l-15 42 -13 -42z"/>
<path d="M5862 837 c-29 -30 -28 -39 7 -64 l28 -22 29 30 29 31 -28 24 c-35
30 -38 30 -65 1z"/>
<path d="M5776 795 c9 -43 35 -85 67 -109 37 -27 117 -27 173 2 61 31 67 42
37 76 -21 24 -28 28 -42 18 -40 -29 -92 -52 -116 -52 -38 0 -80 25 -104 62
l-22 33 7 -30z"/>
<path d="M5602 706 l-53 -26 22 -40 c13 -22 25 -40 28 -40 3 0 20 9 36 20 34
22 104 27 123 8 7 -7 12 -20 12 -29 0 -32 -29 -49 -81 -49 -49 0 -49 0 -43
-27 16 -66 19 -68 69 -68 35 0 51 -6 61 -20 36 -49 -2 -121 -68 -132 -93 -14
-165 34 -193 132 -20 68 -30 71 -20 8 16 -115 56 -181 129 -214 141 -64 269
48 212 185 l-14 34 39 5 c47 6 64 18 96 72 31 49 50 65 78 65 43 0 74 -68 60
-130 -21 -94 -149 -136 -189 -62 l-15 27 -1 -43 c-1 -140 155 -167 222 -40 18
34 22 58 22 113 -2 124 -62 201 -152 192 -51 -5 -73 -23 -113 -94 -37 -64 -58
-78 -94 -61 l-25 11 24 26 c55 60 61 114 18 162 -40 45 -114 51 -190 15z"/>
<path d="M6601 651 c-11 -7 -11 -16 -2 -42 17 -52 29 -126 22 -136 -3 -5 -58
-31 -121 -56 -63 -26 -122 -51 -130 -56 -22 -12 -23 -35 -2 -61 l19 -23 75 45
c41 25 85 49 98 53 l22 7 -18 -32 c-11 -18 -61 -77 -113 -132 -51 -54 -91
-101 -87 -105 17 -17 94 38 172 121 l84 91 -2 -105 c-3 -100 -4 -105 -25 -108
-13 -2 -23 -9 -23 -16 0 -17 87 -100 93 -89 16 26 27 153 21 236 l-7 92 82
-75 c107 -98 118 -105 164 -96 20 4 37 10 37 14 0 4 -33 27 -74 51 -41 24 -96
65 -122 92 -45 46 -47 50 -31 66 9 9 52 35 94 57 81 42 100 69 73 102 -20 23
-43 16 -74 -22 -29 -37 -110 -94 -133 -94 -10 0 -13 22 -13 85 0 119 -28 168
-79 136z"/>
</g>
</svg>
