<?xml version="1.0" encoding="UTF-8"?>
<svg viewBox="0 0 1214.8 648.2" xmlns="http://www.w3.org/2000/svg">
 <g transform="matrix(1.0265 0 0 1 233.77 -45.501)">
  <path d="m169.39 196.33c0-53.532-17.221-96.928-38.464-96.928s-38.464 43.396-38.464 96.928"/>
  <path d="m226.32 196.33c0-50.983-17.221-92.312-38.464-92.312s-38.464 41.33-38.464 92.312"/>
  <path d="m281.71 196.33c0-54.382-17.221-98.467-38.464-98.467s-38.464 44.085-38.464 98.467"/>
  <path d="m335.56 196.33c0-49.283-17.221-89.235-38.464-89.235s-38.464 39.952-38.464 89.235"/>
  <path d="m389.41 196.33c0-51.832-17.221-93.851-38.464-93.851s-38.464 42.018-38.464 93.851"/>
  <path d="m150.93 82.476c0 16.994-12.054 30.771-26.924 30.771s-26.924-13.776-26.924-30.771c0-16.994 12.054-30.771 26.924-30.771 12.186 0 22.853 9.3542 26.007 22.807"/>
  <path d="m206.32 87.86c0 14.87-10.332 26.924-23.078 26.924s-23.078-12.054-23.078-26.924 10.332-26.924 23.078-26.924c10.445 0 19.588 8.185 22.292 19.956"/>
  <path d="m270.14 83.096c-4.3114 15.999-17.783 26.28-30.09 22.963-12.307-3.3164-18.788-18.974-14.477-34.973 4.3114-15.999 17.783-26.28 30.09-22.963 10.086 2.7179 16.54 13.903 15.738 27.271"/>
  <path d="m332.25 86.125c2.3509 16.402-5.9713 31.164-18.588 32.972-12.617 1.8084-24.75-10.022-27.101-26.424-2.3509-16.402 5.9713-31.164 18.588-32.972 10.34-1.482 20.684 6.2489 25.221 18.849"/>
  <path d="m389.41 84.783c0 16.569-10.332 30.002-23.078 30.002s-23.078-13.432-23.078-30.002c0-16.569 10.332-30.002 23.078-30.002 10.445 0 19.588 9.1204 22.292 22.237"/>
  <path d="m386.83 95.374c-7.6038 14.722-22.948 21.914-34.272 16.065-11.324-5.8491-14.34-22.525-6.7366-37.247 7.6038-14.722 22.948-21.914 34.272-16.065 9.2805 4.7934 13.218 17.092 9.6014 29.987"/>
 </g>
 <g transform="matrix(1.0145 -.15606 .15204 .98837 -143.42 15.7)" fill="#007f00">
  <path d="m229 200.55c0-53.532-17.221-96.928-38.464-96.928s-38.464 43.396-38.464 96.928"/>
  <path d="m285.92 200.55c0-50.983-17.221-92.312-38.464-92.312s-38.464 41.33-38.464 92.312"/>
  <path d="m341.31 200.55c0-54.382-17.221-98.467-38.464-98.467s-38.464 44.085-38.464 98.467"/>
  <path d="m395.16 200.55c0-49.283-17.221-89.235-38.464-89.235s-38.464 39.952-38.464 89.235"/>
  <path d="m449.01 200.55c0-51.832-17.221-93.851-38.464-93.851s-38.464 42.018-38.464 93.851"/>
  <path d="m210.53 86.695c0 16.994-12.054 30.771-26.924 30.771s-26.924-13.776-26.924-30.771c0-16.994 12.054-30.771 26.924-30.771 12.186 0 22.853 9.3542 26.007 22.807"/>
  <path d="m265.92 92.08c0 14.87-10.332 26.924-23.078 26.924s-23.078-12.054-23.078-26.924 10.332-26.924 23.078-26.924c10.445 0 19.588 8.185 22.292 19.956"/>
  <path d="m329.74 87.315c-4.3114 15.999-17.783 26.28-30.09 22.963-12.307-3.3164-18.788-18.974-14.477-34.973 4.3114-15.999 17.783-26.28 30.09-22.963 10.086 2.7179 16.54 13.903 15.738 27.271"/>
  <path d="m391.85 90.344c2.3509 16.402-5.9713 31.164-18.588 32.972-12.617 1.8084-24.75-10.022-27.101-26.424-2.3508-16.402 5.9713-31.164 18.588-32.972 10.34-1.482 20.684 6.2489 25.221 18.849"/>
  <path d="m449.01 89.002c0 16.569-10.332 30.002-23.078 30.002s-23.078-13.432-23.078-30.002c0-16.569 10.332-30.002 23.078-30.002 10.445 0 19.588 9.1204 22.292 22.236"/>
  <path d="m446.43 99.593c-7.6038 14.722-22.948 21.914-34.272 16.065-11.324-5.8491-14.34-22.525-6.7367-37.247 7.6038-14.722 22.948-21.914 34.272-16.065 9.2805 4.7934 13.218 17.092 9.6014 29.987"/>
 </g>
 <g transform="matrix(1.0265 0 0 1 527.76 -37.808)" fill="#333">
  <path d="m169.39 196.33c0-53.532-17.221-96.928-38.464-96.928s-38.464 43.396-38.464 96.928"/>
  <path d="m226.32 196.33c0-50.983-17.221-92.312-38.464-92.312s-38.464 41.33-38.464 92.312"/>
  <path d="m281.71 196.33c0-54.382-17.221-98.467-38.464-98.467s-38.464 44.085-38.464 98.467"/>
  <path d="m335.56 196.33c0-49.283-17.221-89.235-38.464-89.235s-38.464 39.952-38.464 89.235"/>
  <path d="m389.41 196.33c0-51.832-17.221-93.851-38.464-93.851s-38.464 42.018-38.464 93.851"/>
  <path d="m150.93 82.476c0 16.994-12.054 30.771-26.924 30.771s-26.924-13.776-26.924-30.771c0-16.994 12.054-30.771 26.924-30.771 12.186 0 22.853 9.3542 26.007 22.807"/>
  <path d="m206.32 87.86c0 14.87-10.332 26.924-23.078 26.924s-23.078-12.054-23.078-26.924 10.332-26.924 23.078-26.924c10.445 0 19.588 8.185 22.292 19.956"/>
  <path d="m270.14 83.096c-4.3114 15.999-17.783 26.28-30.09 22.963-12.307-3.3164-18.788-18.974-14.477-34.973 4.3114-15.999 17.783-26.28 30.09-22.963 10.086 2.7179 16.54 13.903 15.738 27.271"/>
  <path d="m332.25 86.125c2.3509 16.402-5.9713 31.164-18.588 32.972-12.617 1.8084-24.75-10.022-27.101-26.424-2.3509-16.402 5.9713-31.164 18.588-32.972 10.34-1.482 20.684 6.2489 25.221 18.849"/>
  <path d="m389.41 84.783c0 16.569-10.332 30.002-23.078 30.002s-23.078-13.432-23.078-30.002c0-16.569 10.332-30.002 23.078-30.002 10.445 0 19.588 9.1204 22.292 22.237"/>
  <path d="m386.83 95.374c-7.6038 14.722-22.948 21.914-34.272 16.065-11.324-5.8491-14.34-22.525-6.7366-37.247 7.6038-14.722 22.948-21.914 34.272-16.065 9.2805 4.7934 13.218 17.092 9.6014 29.987"/>
 </g>
 <g transform="matrix(1.0197 .11771 -.11467 .9934 867.99 -35.457)" fill="#1a1a1a">
  <path d="m124.49 199.32c0-53.532-17.221-96.928-38.464-96.928s-38.464 43.396-38.464 96.928"/>
  <path d="m181.41 199.32c0-50.983-17.221-92.312-38.464-92.312s-38.464 41.33-38.464 92.312"/>
  <path d="m236.8 199.32c0-54.382-17.221-98.466-38.464-98.466s-38.464 44.085-38.464 98.466"/>
  <path d="m290.65 199.32c0-49.283-17.221-89.235-38.464-89.235s-38.464 39.952-38.464 89.235"/>
  <path d="m344.5 199.32c0-51.832-17.221-93.851-38.464-93.851s-38.464 42.019-38.464 93.851"/>
  <path d="m106.02 85.473c0 16.994-12.054 30.771-26.924 30.771s-26.924-13.776-26.924-30.771c0-16.994 12.054-30.771 26.924-30.771 12.186 0 22.853 9.3542 26.007 22.807"/>
  <path d="m161.41 90.858c0 14.87-10.332 26.924-23.078 26.924s-23.078-12.054-23.078-26.924 10.332-26.924 23.078-26.924c10.445 0 19.588 8.185 22.292 19.956"/>
  <path d="m225.23 86.093c-4.3114 15.999-17.783 26.28-30.09 22.963-12.307-3.3164-18.788-18.974-14.477-34.973 4.3114-15.999 17.783-26.28 30.09-22.963 10.086 2.7179 16.54 13.903 15.738 27.271"/>
  <path d="m287.34 89.122c2.3509 16.402-5.9713 31.164-18.588 32.972-12.617 1.8084-24.75-10.022-27.101-26.424-2.3509-16.402 5.9713-31.164 18.588-32.972 10.34-1.482 20.684 6.2489 25.221 18.849"/>
  <path d="m344.5 87.78c0 16.569-10.332 30.002-23.078 30.002s-23.078-13.432-23.078-30.002c0-16.569 10.332-30.002 23.078-30.002 10.445 0 19.588 9.1204 22.292 22.236"/>
  <path d="m341.92 98.371c-7.6038 14.722-22.948 21.914-34.272 16.065-11.324-5.8491-14.34-22.525-6.7366-37.247 7.6038-14.722 22.948-21.914 34.272-16.065 9.2805 4.7934 13.218 17.092 9.6014 29.987"/>
 </g>
 <g transform="matrix(1.0265 0 0 1 270.05 20.656)" fill="#04a304">
  <path d="m169.39 196.33c0-53.532-17.221-96.928-38.464-96.928s-38.464 43.396-38.464 96.928"/>
  <path d="m226.32 196.33c0-50.983-17.221-92.312-38.464-92.312s-38.464 41.33-38.464 92.312"/>
  <path d="m281.71 196.33c0-54.382-17.221-98.467-38.464-98.467s-38.464 44.085-38.464 98.467"/>
  <path d="m335.56 196.33c0-49.283-17.221-89.235-38.464-89.235s-38.464 39.952-38.464 89.235"/>
  <path d="m389.41 196.33c0-51.832-17.221-93.851-38.464-93.851s-38.464 42.018-38.464 93.851"/>
  <path d="m150.93 82.476c0 16.994-12.054 30.771-26.924 30.771s-26.924-13.776-26.924-30.771c0-16.994 12.054-30.771 26.924-30.771 12.186 0 22.853 9.3542 26.007 22.807"/>
  <path d="m206.32 87.86c0 14.87-10.332 26.924-23.078 26.924s-23.078-12.054-23.078-26.924 10.332-26.924 23.078-26.924c10.445 0 19.588 8.185 22.292 19.956"/>
  <path d="m270.14 83.096c-4.3114 15.999-17.783 26.28-30.09 22.963-12.307-3.3164-18.788-18.974-14.477-34.973 4.3114-15.999 17.783-26.28 30.09-22.963 10.086 2.7179 16.54 13.903 15.738 27.271"/>
  <path d="m332.25 86.125c2.3509 16.402-5.9713 31.164-18.588 32.972-12.617 1.8084-24.75-10.022-27.101-26.424-2.3509-16.402 5.9713-31.164 18.588-32.972 10.34-1.482 20.684 6.2489 25.221 18.849"/>
  <path d="m389.41 84.783c0 16.569-10.332 30.002-23.078 30.002s-23.078-13.432-23.078-30.002c0-16.569 10.332-30.002 23.078-30.002 10.445 0 19.588 9.1204 22.292 22.237"/>
  <path d="m386.83 95.374c-7.6038 14.722-22.948 21.914-34.272 16.065-11.324-5.8491-14.34-22.525-6.7366-37.247 7.6038-14.722 22.948-21.914 34.272-16.065 9.2805 4.7934 13.218 17.092 9.6014 29.987"/>
 </g>
 <g transform="matrix(-1.0265 0 0 1 453.34 14.502)" fill="#62bf05">
  <path d="m175.24 196.33c0-53.532-17.221-96.928-38.464-96.928s-38.464 43.396-38.464 96.928"/>
  <path d="m232.17 196.33c0-50.983-17.221-92.312-38.464-92.312s-38.464 41.33-38.464 92.312"/>
  <path d="m287.55 196.33c0-54.382-17.221-98.467-38.464-98.467s-38.464 44.085-38.464 98.467"/>
  <path d="m341.4 196.33c0-49.283-17.221-89.235-38.464-89.235s-38.464 39.952-38.464 89.235"/>
  <path d="m395.25 196.33c0-51.832-17.221-93.851-38.464-93.851s-38.464 42.018-38.464 93.851"/>
  <path d="m156.78 82.476c0 16.994-12.054 30.771-26.924 30.771s-26.924-13.776-26.924-30.771c0-16.994 12.054-30.771 26.924-30.771 12.186 0 22.853 9.3542 26.007 22.807"/>
  <path d="m212.16 87.86c0 14.87-10.332 26.924-23.078 26.924s-23.078-12.054-23.078-26.924 10.332-26.924 23.078-26.924c10.445 0 19.588 8.185 22.292 19.956"/>
  <path d="m275.99 83.096c-4.3114 15.999-17.783 26.28-30.09 22.963-12.307-3.3165-18.788-18.974-14.477-34.973 4.3114-15.999 17.783-26.28 30.09-22.963 10.086 2.7179 16.54 13.903 15.738 27.271"/>
  <path d="m338.09 86.125c2.3509 16.402-5.9713 31.164-18.588 32.972-12.617 1.8084-24.75-10.022-27.101-26.424-2.3509-16.402 5.9713-31.164 18.588-32.972 10.34-1.482 20.684 6.2489 25.221 18.849"/>
  <path d="m395.25 84.783c0 16.569-10.332 30.002-23.078 30.002s-23.078-13.432-23.078-30.002c0-16.569 10.332-30.002 23.078-30.002 10.445 0 19.588 9.1204 22.292 22.237"/>
  <path d="m392.68 95.374c-7.6038 14.722-22.948 21.914-34.272 16.065-11.324-5.8491-14.34-22.525-6.7367-37.247 7.6038-14.722 22.948-21.914 34.272-16.065 9.2804 4.7934 13.218 17.092 9.6014 29.987"/>
 </g>
 <g transform="matrix(-1.0265 0 0 1 1078.7 28.349)" fill="#b3b3b3">
  <path d="m175.24 196.33c0-53.532-17.221-96.928-38.464-96.928s-38.464 43.396-38.464 96.928"/>
  <path d="m232.17 196.33c0-50.983-17.221-92.312-38.464-92.312s-38.464 41.33-38.464 92.312"/>
  <path d="m287.55 196.33c0-54.382-17.221-98.467-38.464-98.467s-38.464 44.085-38.464 98.467"/>
  <path d="m341.4 196.33c0-49.283-17.221-89.235-38.464-89.235s-38.464 39.952-38.464 89.235"/>
  <path d="m395.25 196.33c0-51.832-17.221-93.851-38.464-93.851s-38.464 42.018-38.464 93.851"/>
  <path d="m156.78 82.476c0 16.994-12.054 30.771-26.924 30.771s-26.924-13.776-26.924-30.771c0-16.994 12.054-30.771 26.924-30.771 12.186 0 22.853 9.3542 26.007 22.807"/>
  <path d="m212.16 87.86c0 14.87-10.332 26.924-23.078 26.924s-23.078-12.054-23.078-26.924 10.332-26.924 23.078-26.924c10.445 0 19.588 8.185 22.292 19.956"/>
  <path d="m275.99 83.096c-4.3114 15.999-17.783 26.28-30.09 22.963-12.307-3.3165-18.788-18.974-14.477-34.973 4.3114-15.999 17.783-26.28 30.09-22.963 10.086 2.7179 16.54 13.903 15.738 27.271"/>
  <path d="m338.09 86.125c2.3509 16.402-5.9713 31.164-18.588 32.972-12.617 1.8084-24.75-10.022-27.101-26.424-2.3509-16.402 5.9713-31.164 18.588-32.972 10.34-1.482 20.684 6.2489 25.221 18.849"/>
  <path d="m395.25 84.783c0 16.569-10.332 30.002-23.078 30.002s-23.078-13.432-23.078-30.002c0-16.569 10.332-30.002 23.078-30.002 10.445 0 19.588 9.1204 22.292 22.237"/>
  <path d="m392.68 95.374c-7.6038 14.722-22.948 21.914-34.272 16.065-11.324-5.8491-14.34-22.525-6.7367-37.247 7.6038-14.722 22.948-21.914 34.272-16.065 9.2804 4.7934 13.218 17.092 9.6014 29.987"/>
 </g>
 <g transform="matrix(1.0166 .14231 -.13864 .99034 862.07 16.505)" fill="#0a5625">
  <path d="m115.1 200.63c0-53.532-17.221-96.928-38.464-96.928s-38.464 43.396-38.464 96.928"/>
  <path d="m172.03 200.63c0-50.983-17.221-92.312-38.464-92.312s-38.464 41.33-38.464 92.312"/>
  <path d="m227.42 200.63c0-54.382-17.221-98.467-38.464-98.467s-38.464 44.085-38.464 98.467"/>
  <path d="m281.27 200.63c0-49.283-17.221-89.235-38.464-89.235s-38.464 39.952-38.464 89.235"/>
  <path d="m335.12 200.63c0-51.832-17.221-93.851-38.464-93.851s-38.464 42.018-38.464 93.851"/>
  <path d="m96.642 86.775c0 16.994-12.054 30.771-26.924 30.771s-26.924-13.776-26.924-30.771c0-16.994 12.054-30.771 26.924-30.771 12.186 0 22.853 9.3543 26.007 22.807"/>
  <path d="m152.03 92.16c0 14.87-10.332 26.924-23.078 26.924s-23.078-12.054-23.078-26.924 10.332-26.924 23.078-26.924c10.445 0 19.588 8.185 22.292 19.956"/>
  <path d="m215.85 87.395c-4.3114 15.999-17.783 26.28-30.09 22.963-12.307-3.3164-18.788-18.974-14.477-34.973 4.3114-15.999 17.783-26.28 30.09-22.963 10.086 2.7179 16.54 13.903 15.738 27.271"/>
  <path d="m277.96 90.424c2.3509 16.402-5.9713 31.164-18.588 32.972-12.617 1.8084-24.75-10.022-27.101-26.424-2.3509-16.402 5.9713-31.164 18.588-32.972 10.34-1.482 20.684 6.249 25.221 18.849"/>
  <path d="m335.12 89.083c0 16.569-10.332 30.002-23.078 30.002s-23.078-13.432-23.078-30.002c0-16.569 10.332-30.002 23.078-30.002 10.445 0 19.588 9.1204 22.292 22.236"/>
  <path d="m332.54 99.674c-7.6038 14.722-22.948 21.914-34.272 16.065-11.324-5.8491-14.34-22.525-6.7366-37.247 7.6038-14.722 22.948-21.914 34.272-16.065 9.2805 4.7934 13.218 17.092 9.6014 29.987"/>
 </g>
 <g fill="#666">
  <g transform="matrix(1.0265 0 0 1 170.56 68.351)">
   <path d="m169.39 196.33c0-53.532-17.221-96.928-38.464-96.928s-38.464 43.396-38.464 96.928"/>
   <path d="m226.32 196.33c0-50.983-17.221-92.312-38.464-92.312s-38.464 41.33-38.464 92.312"/>
   <path d="m281.71 196.33c0-54.382-17.221-98.467-38.464-98.467s-38.464 44.085-38.464 98.467"/>
   <path d="m335.56 196.33c0-49.283-17.221-89.235-38.464-89.235s-38.464 39.952-38.464 89.235"/>
   <path d="m389.41 196.33c0-51.832-17.221-93.851-38.464-93.851s-38.464 42.018-38.464 93.851"/>
   <path d="m150.93 82.476c0 16.994-12.054 30.771-26.924 30.771s-26.924-13.776-26.924-30.771c0-16.994 12.054-30.771 26.924-30.771 12.186 0 22.853 9.3542 26.007 22.807"/>
   <path d="m206.32 87.86c0 14.87-10.332 26.924-23.078 26.924s-23.078-12.054-23.078-26.924 10.332-26.924 23.078-26.924c10.445 0 19.588 8.185 22.292 19.956"/>
   <path d="m270.14 83.096c-4.3114 15.999-17.783 26.28-30.09 22.963-12.307-3.3164-18.788-18.974-14.477-34.973 4.3114-15.999 17.783-26.28 30.09-22.963 10.086 2.7179 16.54 13.903 15.738 27.271"/>
   <path d="m332.25 86.125c2.3509 16.402-5.9713 31.164-18.588 32.972-12.617 1.8084-24.75-10.022-27.101-26.424-2.3509-16.402 5.9713-31.164 18.588-32.972 10.34-1.482 20.684 6.2489 25.221 18.849"/>
   <path d="m389.41 84.783c0 16.569-10.332 30.002-23.078 30.002s-23.078-13.432-23.078-30.002c0-16.569 10.332-30.002 23.078-30.002 10.445 0 19.588 9.1204 22.292 22.237"/>
   <path d="m386.83 95.374c-7.6038 14.722-22.948 21.914-34.272 16.065-11.324-5.8491-14.34-22.525-6.7366-37.247 7.6038-14.722 22.948-21.914 34.272-16.065 9.2805 4.7934 13.218 17.092 9.6014 29.987"/>
  </g>
  <g transform="matrix(1.0265 0 0 1 439.04 69.89)">
   <path d="m169.39 196.33c0-53.532-17.221-96.928-38.464-96.928s-38.464 43.396-38.464 96.928"/>
   <path d="m226.32 196.33c0-50.983-17.221-92.312-38.464-92.312s-38.464 41.33-38.464 92.312"/>
   <path d="m281.71 196.33c0-54.382-17.221-98.467-38.464-98.467s-38.464 44.085-38.464 98.467"/>
   <path d="m335.56 196.33c0-49.283-17.221-89.235-38.464-89.235s-38.464 39.952-38.464 89.235"/>
   <path d="m389.41 196.33c0-51.832-17.221-93.851-38.464-93.851s-38.464 42.018-38.464 93.851"/>
   <path d="m150.93 82.476c0 16.994-12.054 30.771-26.924 30.771s-26.924-13.776-26.924-30.771c0-16.994 12.054-30.771 26.924-30.771 12.186 0 22.853 9.3542 26.007 22.807"/>
   <path d="m206.32 87.86c0 14.87-10.332 26.924-23.078 26.924s-23.078-12.054-23.078-26.924 10.332-26.924 23.078-26.924c10.445 0 19.588 8.185 22.292 19.956"/>
   <path d="m270.14 83.096c-4.3114 15.999-17.783 26.28-30.09 22.963-12.307-3.3164-18.788-18.974-14.477-34.973 4.3114-15.999 17.783-26.28 30.09-22.963 10.086 2.7179 16.54 13.903 15.738 27.271"/>
   <path d="m332.25 86.125c2.3509 16.402-5.9713 31.164-18.588 32.972-12.617 1.8084-24.75-10.022-27.101-26.424-2.3509-16.402 5.9713-31.164 18.588-32.972 10.34-1.482 20.684 6.2489 25.221 18.849"/>
   <path d="m389.41 84.783c0 16.569-10.332 30.002-23.078 30.002s-23.078-13.432-23.078-30.002c0-16.569 10.332-30.002 23.078-30.002 10.445 0 19.588 9.1204 22.292 22.237"/>
   <path d="m386.83 95.374c-7.6038 14.722-22.948 21.914-34.272 16.065-11.324-5.8491-14.34-22.525-6.7366-37.247 7.6038-14.722 22.948-21.914 34.272-16.065 9.2805 4.7934 13.218 17.092 9.6014 29.987"/>
  </g>
  <g transform="matrix(1.0265 0 0 1 726.32 79.121)">
   <path d="m169.39 196.33c0-53.532-17.221-96.928-38.464-96.928s-38.464 43.396-38.464 96.928"/>
   <path d="m226.32 196.33c0-50.983-17.221-92.312-38.464-92.312s-38.464 41.33-38.464 92.312"/>
   <path d="m281.71 196.33c0-54.382-17.221-98.467-38.464-98.467s-38.464 44.085-38.464 98.467"/>
   <path d="m335.56 196.33c0-49.283-17.221-89.235-38.464-89.235s-38.464 39.952-38.464 89.235"/>
   <path d="m389.41 196.33c0-51.832-17.221-93.851-38.464-93.851s-38.464 42.018-38.464 93.851"/>
   <path d="m150.93 82.476c0 16.994-12.054 30.771-26.924 30.771s-26.924-13.776-26.924-30.771c0-16.994 12.054-30.771 26.924-30.771 12.186 0 22.853 9.3542 26.007 22.807"/>
   <path d="m206.32 87.86c0 14.87-10.332 26.924-23.078 26.924s-23.078-12.054-23.078-26.924 10.332-26.924 23.078-26.924c10.445 0 19.588 8.185 22.292 19.956"/>
   <path d="m270.14 83.096c-4.3114 15.999-17.783 26.28-30.09 22.963-12.307-3.3164-18.788-18.974-14.477-34.973 4.3114-15.999 17.783-26.28 30.09-22.963 10.086 2.7179 16.54 13.903 15.738 27.271"/>
   <path d="m332.25 86.125c2.3509 16.402-5.9713 31.164-18.588 32.972-12.617 1.8084-24.75-10.022-27.101-26.424-2.3509-16.402 5.9713-31.164 18.588-32.972 10.34-1.482 20.684 6.2489 25.221 18.849"/>
   <path d="m389.41 84.783c0 16.569-10.332 30.002-23.078 30.002s-23.078-13.432-23.078-30.002c0-16.569 10.332-30.002 23.078-30.002 10.445 0 19.588 9.1204 22.292 22.237"/>
   <path d="m386.83 95.374c-7.6038 14.722-22.948 21.914-34.272 16.065-11.324-5.8491-14.34-22.525-6.7366-37.247 7.6038-14.722 22.948-21.914 34.272-16.065 9.2805 4.7934 13.218 17.092 9.6014 29.987"/>
  </g>
  <g transform="matrix(-1.0265 0 0 1 404.38 56.043)">
   <path d="m175.24 196.33c0-53.532-17.221-96.928-38.464-96.928s-38.464 43.396-38.464 96.928"/>
   <path d="m232.17 196.33c0-50.983-17.221-92.312-38.464-92.312s-38.464 41.33-38.464 92.312"/>
   <path d="m287.55 196.33c0-54.382-17.221-98.467-38.464-98.467s-38.464 44.085-38.464 98.467"/>
   <path d="m341.4 196.33c0-49.283-17.221-89.235-38.464-89.235s-38.464 39.952-38.464 89.235"/>
   <path d="m395.25 196.33c0-51.832-17.221-93.851-38.464-93.851s-38.464 42.018-38.464 93.851"/>
   <path d="m156.78 82.476c0 16.994-12.054 30.771-26.924 30.771s-26.924-13.776-26.924-30.771c0-16.994 12.054-30.771 26.924-30.771 12.186 0 22.853 9.3542 26.007 22.807"/>
   <path d="m212.16 87.86c0 14.87-10.332 26.924-23.078 26.924s-23.078-12.054-23.078-26.924 10.332-26.924 23.078-26.924c10.445 0 19.588 8.185 22.292 19.956"/>
   <path d="m275.99 83.096c-4.3114 15.999-17.783 26.28-30.09 22.963-12.307-3.3165-18.788-18.974-14.477-34.973 4.3114-15.999 17.783-26.28 30.09-22.963 10.086 2.7179 16.54 13.903 15.738 27.271"/>
   <path d="m338.09 86.125c2.3509 16.402-5.9713 31.164-18.588 32.972-12.617 1.8084-24.75-10.022-27.101-26.424-2.3509-16.402 5.9713-31.164 18.588-32.972 10.34-1.482 20.684 6.2489 25.221 18.849"/>
   <path d="m395.25 84.783c0 16.569-10.332 30.002-23.078 30.002s-23.078-13.432-23.078-30.002c0-16.569 10.332-30.002 23.078-30.002 10.445 0 19.588 9.1204 22.292 22.237"/>
   <path d="m392.68 95.374c-7.6038 14.722-22.948 21.914-34.272 16.065-11.324-5.8491-14.34-22.525-6.7367-37.247 7.6038-14.722 22.948-21.914 34.272-16.065 9.2804 4.7934 13.218 17.092 9.6014 29.987"/>
  </g>
 </g>
 <g transform="matrix(-1.0265 0 0 1 669.69 108.35)" fill="#7f7f7f">
  <path d="m175.24 196.33c0-53.532-17.221-96.928-38.464-96.928s-38.464 43.396-38.464 96.928"/>
  <path d="m232.17 196.33c0-50.983-17.221-92.312-38.464-92.312s-38.464 41.33-38.464 92.312"/>
  <path d="m287.55 196.33c0-54.382-17.221-98.467-38.464-98.467s-38.464 44.085-38.464 98.467"/>
  <path d="m341.4 196.33c0-49.283-17.221-89.235-38.464-89.235s-38.464 39.952-38.464 89.235"/>
  <path d="m395.25 196.33c0-51.832-17.221-93.851-38.464-93.851s-38.464 42.018-38.464 93.851"/>
  <path d="m156.78 82.476c0 16.994-12.054 30.771-26.924 30.771s-26.924-13.776-26.924-30.771c0-16.994 12.054-30.771 26.924-30.771 12.186 0 22.853 9.3542 26.007 22.807"/>
  <path d="m212.16 87.86c0 14.87-10.332 26.924-23.078 26.924s-23.078-12.054-23.078-26.924 10.332-26.924 23.078-26.924c10.445 0 19.588 8.185 22.292 19.956"/>
  <path d="m275.99 83.096c-4.3114 15.999-17.783 26.28-30.09 22.963-12.307-3.3165-18.788-18.974-14.477-34.973 4.3114-15.999 17.783-26.28 30.09-22.963 10.086 2.7179 16.54 13.903 15.738 27.271"/>
  <path d="m338.09 86.125c2.3509 16.402-5.9713 31.164-18.588 32.972-12.617 1.8084-24.75-10.022-27.101-26.424-2.3509-16.402 5.9713-31.164 18.588-32.972 10.34-1.482 20.684 6.2489 25.221 18.849"/>
  <path d="m395.25 84.783c0 16.569-10.332 30.002-23.078 30.002s-23.078-13.432-23.078-30.002c0-16.569 10.332-30.002 23.078-30.002 10.445 0 19.588 9.1204 22.292 22.237"/>
  <path d="m392.68 95.374c-7.6038 14.722-22.948 21.914-34.272 16.065-11.324-5.8491-14.34-22.525-6.7367-37.247 7.6038-14.722 22.948-21.914 34.272-16.065 9.2804 4.7934 13.218 17.092 9.6014 29.987"/>
 </g>
 <g transform="matrix(-1.0265 0 0 1 927.11 108.35)" fill="#808080">
  <path d="m175.24 196.33c0-53.532-17.221-96.928-38.464-96.928s-38.464 43.396-38.464 96.928"/>
  <path d="m232.17 196.33c0-50.983-17.221-92.312-38.464-92.312s-38.464 41.33-38.464 92.312"/>
  <path d="m287.55 196.33c0-54.382-17.221-98.467-38.464-98.467s-38.464 44.085-38.464 98.467"/>
  <path d="m341.4 196.33c0-49.283-17.221-89.235-38.464-89.235s-38.464 39.952-38.464 89.235"/>
  <path d="m395.25 196.33c0-51.832-17.221-93.851-38.464-93.851s-38.464 42.018-38.464 93.851"/>
  <path d="m156.78 82.476c0 16.994-12.054 30.771-26.924 30.771s-26.924-13.776-26.924-30.771c0-16.994 12.054-30.771 26.924-30.771 12.186 0 22.853 9.3542 26.007 22.807"/>
  <path d="m212.16 87.86c0 14.87-10.332 26.924-23.078 26.924s-23.078-12.054-23.078-26.924 10.332-26.924 23.078-26.924c10.445 0 19.588 8.185 22.292 19.956"/>
  <path d="m275.99 83.096c-4.3114 15.999-17.783 26.28-30.09 22.963-12.307-3.3165-18.788-18.974-14.477-34.973 4.3114-15.999 17.783-26.28 30.09-22.963 10.086 2.7179 16.54 13.903 15.738 27.271"/>
  <path d="m338.09 86.125c2.3509 16.402-5.9713 31.164-18.588 32.972-12.617 1.8084-24.75-10.022-27.101-26.424-2.3509-16.402 5.9713-31.164 18.588-32.972 10.34-1.482 20.684 6.2489 25.221 18.849"/>
  <path d="m395.25 84.783c0 16.569-10.332 30.002-23.078 30.002s-23.078-13.432-23.078-30.002c0-16.569 10.332-30.002 23.078-30.002 10.445 0 19.588 9.1204 22.292 22.237"/>
  <path d="m392.68 95.374c-7.6038 14.722-22.948 21.914-34.272 16.065-11.324-5.8491-14.34-22.525-6.7367-37.247 7.6038-14.722 22.948-21.914 34.272-16.065 9.2804 4.7934 13.218 17.092 9.6014 29.987"/>
 </g>
 <g transform="matrix(-1.0072 -.1977 -.19261 .98128 1308.1 163.46)" fill="#42a342">
  <path d="m250.65 204.44c0-53.532-17.221-96.928-38.464-96.928s-38.464 43.396-38.464 96.928"/>
  <path d="m307.57 204.44c0-50.983-17.221-92.312-38.464-92.312s-38.464 41.33-38.464 92.312"/>
  <path d="m362.96 204.44c0-54.382-17.221-98.467-38.464-98.467s-38.464 44.085-38.464 98.467"/>
  <path d="m416.81 204.44c0-49.283-17.221-89.235-38.464-89.235s-38.464 39.952-38.464 89.235"/>
  <path d="m470.66 204.44c0-51.832-17.221-93.851-38.464-93.851s-38.464 42.018-38.464 93.851"/>
  <path d="m232.18 90.584c0 16.994-12.054 30.771-26.924 30.771s-26.924-13.777-26.924-30.771 12.054-30.771 26.924-30.771c12.186 0 22.853 9.3543 26.007 22.807"/>
  <path d="m287.57 95.968c0 14.87-10.332 26.924-23.078 26.924s-23.078-12.054-23.078-26.924 10.332-26.924 23.078-26.924c10.445 0 19.588 8.185 22.292 19.956"/>
  <path d="m351.4 91.204c-4.3114 15.999-17.783 26.28-30.09 22.963-12.307-3.3165-18.788-18.974-14.477-34.973 4.3114-15.999 17.783-26.28 30.09-22.963 10.086 2.7179 16.54 13.903 15.738 27.271"/>
  <path d="m413.5 94.233c2.3509 16.402-5.9712 31.164-18.588 32.972-12.617 1.8084-24.75-10.022-27.101-26.424-2.3508-16.402 5.9713-31.164 18.588-32.972 10.34-1.482 20.684 6.249 25.221 18.849"/>
  <path d="m470.66 92.891c0 16.569-10.332 30.002-23.078 30.002s-23.078-13.432-23.078-30.002c0-16.569 10.332-30.002 23.078-30.002 10.445 0 19.588 9.1204 22.292 22.236"/>
  <path d="m468.08 103.48c-7.6038 14.722-22.948 21.914-34.272 16.065-11.324-5.8491-14.34-22.525-6.7366-37.247 7.6038-14.722 22.948-21.914 34.272-16.065 9.2805 4.7934 13.218 17.092 9.6014 29.987"/>
 </g>
 <g transform="matrix(1.0265 0 0 1 -77.384 108.35)" fill="#1a1a1a">
  <path d="m169.39 196.33c0-53.532-17.221-96.928-38.464-96.928s-38.464 43.396-38.464 96.928"/>
  <path d="m226.32 196.33c0-50.983-17.221-92.312-38.464-92.312s-38.464 41.33-38.464 92.312"/>
  <path d="m281.71 196.33c0-54.382-17.221-98.467-38.464-98.467s-38.464 44.085-38.464 98.467"/>
  <path d="m335.56 196.33c0-49.283-17.221-89.235-38.464-89.235s-38.464 39.952-38.464 89.235"/>
  <path d="m389.41 196.33c0-51.832-17.221-93.851-38.464-93.851s-38.464 42.018-38.464 93.851"/>
  <path d="m150.93 82.476c0 16.994-12.054 30.771-26.924 30.771s-26.924-13.776-26.924-30.771c0-16.994 12.054-30.771 26.924-30.771 12.186 0 22.853 9.3542 26.007 22.807"/>
  <path d="m206.32 87.86c0 14.87-10.332 26.924-23.078 26.924s-23.078-12.054-23.078-26.924 10.332-26.924 23.078-26.924c10.445 0 19.588 8.185 22.292 19.956"/>
  <path d="m270.14 83.096c-4.3114 15.999-17.783 26.28-30.09 22.963-12.307-3.3164-18.788-18.974-14.477-34.973 4.3114-15.999 17.783-26.28 30.09-22.963 10.086 2.7179 16.54 13.903 15.738 27.271"/>
  <path d="m332.25 86.125c2.3509 16.402-5.9713 31.164-18.588 32.972-12.617 1.8084-24.75-10.022-27.101-26.424-2.3509-16.402 5.9713-31.164 18.588-32.972 10.34-1.482 20.684 6.2489 25.221 18.849"/>
  <path d="m389.41 84.783c0 16.569-10.332 30.002-23.078 30.002s-23.078-13.432-23.078-30.002c0-16.569 10.332-30.002 23.078-30.002 10.445 0 19.588 9.1204 22.292 22.237"/>
  <path d="m386.83 95.374c-7.6038 14.722-22.948 21.914-34.272 16.065-11.324-5.8491-14.34-22.525-6.7366-37.247 7.6038-14.722 22.948-21.914 34.272-16.065 9.2805 4.7934 13.218 17.092 9.6014 29.987"/>
 </g>
 <path d="m484.83 318.53a38.916 96.928 0 1 1 -77.832 0"/>
 <path d="m539.31 318.14a38.916 92.312 0 1 1 -77.832 0" fill="#00d400"/>
 <path d="m598.46 318.53a38.916 98.467 0 1 1 -77.832 0"/>
 <path d="m652.94 318.53a38.916 89.235 0 1 1 -77.832 0"/>
 <path d="m707.43 318.53a38.916 93.851 0 1 1 -77.832 0"/>
 <path d="m466.15 204.68a27.241 30.771 0 1 1 -0.92822 -7.9641"/>
 <path d="m586.76 205.3a22.545 28.968 0 1 1 1.276 -7.7021"/>
 <path d="m649.59 208.32a23.113 29.698 0 1 1 -1.9022 -7.5749"/>
 <path d="m707.43 206.98a23.35 30.002 0 1 1 -0.79565 -7.765"/>
 <path d="m704.82 217.57a20.746 26.656 0 1 1 2.8984 -7.26"/>
 <g transform="matrix(-1.0118 0 0 1 445.84 160.66)" fill="#808080">
  <path d="m175.28 196.33c0-53.532-17.221-96.928-38.464-96.928s-38.464 43.396-38.464 96.928"/>
  <path d="m232.21 196.33c0-50.983-17.221-92.312-38.464-92.312s-38.464 41.33-38.464 92.312"/>
  <path d="m287.6 196.33c0-54.382-17.221-98.467-38.464-98.467s-38.464 44.085-38.464 98.467"/>
  <path d="m341.44 196.33c0-49.283-17.221-89.235-38.464-89.235s-38.464 39.952-38.464 89.235"/>
  <path d="m395.29 196.33c0-51.832-17.221-93.851-38.464-93.851s-38.464 42.018-38.464 93.851"/>
  <path d="m156.82 82.476c0 16.994-12.054 30.771-26.924 30.771s-26.924-13.776-26.924-30.771c0-16.994 12.054-30.771 26.924-30.771 12.186 0 22.853 9.3542 26.007 22.807"/>
  <path d="m212.21 87.86c0 14.87-10.332 26.924-23.078 26.924s-23.078-12.054-23.078-26.924 10.332-26.924 23.078-26.924c10.445 0 19.588 8.185 22.292 19.956"/>
  <path d="m276.03 83.096c-4.3114 15.999-17.783 26.28-30.09 22.963-12.307-3.3165-18.788-18.974-14.477-34.973 4.3114-15.999 17.783-26.28 30.09-22.963 10.086 2.7179 16.54 13.903 15.738 27.271"/>
  <path d="m338.13 86.125c2.3509 16.402-5.9713 31.164-18.588 32.972-12.617 1.8084-24.75-10.022-27.101-26.424-2.3509-16.402 5.9713-31.164 18.588-32.972 10.34-1.482 20.684 6.2489 25.221 18.849"/>
  <path d="m395.29 84.783c0 16.569-10.332 30.002-23.078 30.002s-23.078-13.432-23.078-30.002c0-16.569 10.332-30.002 23.078-30.002 10.445 0 19.588 9.1204 22.292 22.237"/>
  <path d="m392.72 95.374c-7.6038 14.722-22.948 21.914-34.272 16.065-11.324-5.8491-14.34-22.525-6.7367-37.247 7.6038-14.722 22.948-21.914 34.272-16.065 9.2805 4.7934 13.218 17.092 9.6014 29.987"/>
 </g>
 <g transform="matrix(1.0118 0 0 1 3.7107 132.97)">
  <path d="m169.35 196.33c0-53.532-17.221-96.928-38.464-96.928s-38.464 43.396-38.464 96.928"/>
  <path d="m226.28 196.33c0-50.983-17.221-92.312-38.464-92.312s-38.464 41.33-38.464 92.312"/>
  <path d="m281.66 196.33c0-54.382-17.221-98.467-38.464-98.467s-38.464 44.085-38.464 98.467"/>
  <path d="m335.51 196.33c0-49.283-17.221-89.235-38.464-89.235s-38.464 39.952-38.464 89.235"/>
  <path d="m389.36 196.33c0-51.832-17.221-93.851-38.464-93.851s-38.464 42.018-38.464 93.851"/>
  <path d="m150.89 82.476c0 16.994-12.054 30.771-26.924 30.771s-26.924-13.776-26.924-30.771c0-16.994 12.054-30.771 26.924-30.771 12.186 0 22.853 9.3542 26.007 22.807"/>
  <path d="m206.28 87.86c0 14.87-10.332 26.924-23.078 26.924s-23.078-12.054-23.078-26.924 10.332-26.924 23.078-26.924c10.445 0 19.588 8.185 22.292 19.956"/>
  <path d="m270.1 83.096c-4.3114 15.999-17.783 26.28-30.09 22.963-12.307-3.3164-18.788-18.974-14.477-34.973 4.3114-15.999 17.783-26.28 30.09-22.963 10.086 2.7179 16.54 13.903 15.738 27.271"/>
  <path d="m332.2 86.125c2.3509 16.402-5.9713 31.164-18.588 32.972-12.617 1.8084-24.75-10.022-27.101-26.424-2.3509-16.402 5.9713-31.164 18.588-32.972 10.34-1.482 20.684 6.2489 25.221 18.849"/>
  <path d="m389.36 84.783c0 16.569-10.332 30.002-23.078 30.002s-23.078-13.432-23.078-30.002c0-16.569 10.332-30.002 23.078-30.002 10.445 0 19.588 9.1204 22.292 22.237"/>
  <path d="m386.79 95.374c-7.6038 14.722-22.948 21.914-34.272 16.065-11.324-5.8491-14.34-22.525-6.7366-37.247 7.6038-14.722 22.948-21.914 34.272-16.065 9.2805 4.7934 13.218 17.092 9.6014 29.987"/>
 </g>
 <g transform="matrix(1.0118 0 0 1 612.36 132.97)">
  <path d="m169.35 196.33c0-53.532-17.221-96.928-38.464-96.928s-38.464 43.396-38.464 96.928"/>
  <path d="m226.28 196.33c0-50.983-17.221-92.312-38.464-92.312s-38.464 41.33-38.464 92.312"/>
  <path d="m281.66 196.33c0-54.382-17.221-98.467-38.464-98.467s-38.464 44.085-38.464 98.467"/>
  <path d="m335.51 196.33c0-49.283-17.221-89.235-38.464-89.235s-38.464 39.952-38.464 89.235"/>
  <path d="m389.36 196.33c0-51.832-17.221-93.851-38.464-93.851s-38.464 42.018-38.464 93.851"/>
  <path d="m150.89 82.476c0 16.994-12.054 30.771-26.924 30.771s-26.924-13.776-26.924-30.771c0-16.994 12.054-30.771 26.924-30.771 12.186 0 22.853 9.3542 26.007 22.807"/>
  <path d="m206.28 87.86c0 14.87-10.332 26.924-23.078 26.924s-23.078-12.054-23.078-26.924 10.332-26.924 23.078-26.924c10.445 0 19.588 8.185 22.292 19.956"/>
  <path d="m270.1 83.096c-4.3114 15.999-17.783 26.28-30.09 22.963-12.307-3.3164-18.788-18.974-14.477-34.973 4.3114-15.999 17.783-26.28 30.09-22.963 10.086 2.7179 16.54 13.903 15.738 27.271"/>
  <path d="m332.2 86.125c2.3509 16.402-5.9713 31.164-18.588 32.972-12.617 1.8084-24.75-10.022-27.101-26.424-2.3509-16.402 5.9713-31.164 18.588-32.972 10.34-1.482 20.684 6.2489 25.221 18.849"/>
  <path d="m389.36 84.783c0 16.569-10.332 30.002-23.078 30.002s-23.078-13.432-23.078-30.002c0-16.569 10.332-30.002 23.078-30.002 10.445 0 19.588 9.1204 22.292 22.237"/>
  <path d="m386.79 95.374c-7.6038 14.722-22.948 21.914-34.272 16.065-11.324-5.8491-14.34-22.525-6.7366-37.247 7.6038-14.722 22.948-21.914 34.272-16.065 9.2805 4.7934 13.218 17.092 9.6014 29.987"/>
 </g>
 <g transform="matrix(1.0118 0 0 1 347.73 177.59)" fill="#333">
  <path d="m169.35 196.33c0-53.532-17.221-96.928-38.464-96.928s-38.464 43.396-38.464 96.928"/>
  <path d="m226.28 196.33c0-50.983-17.221-92.312-38.464-92.312s-38.464 41.33-38.464 92.312"/>
  <path d="m281.66 196.33c0-54.382-17.221-98.467-38.464-98.467s-38.464 44.085-38.464 98.467"/>
  <path d="m335.51 196.33c0-49.283-17.221-89.235-38.464-89.235s-38.464 39.952-38.464 89.235"/>
  <path d="m389.36 196.33c0-51.832-17.221-93.851-38.464-93.851s-38.464 42.018-38.464 93.851"/>
  <path d="m150.89 82.476c0 16.994-12.054 30.771-26.924 30.771s-26.924-13.776-26.924-30.771c0-16.994 12.054-30.771 26.924-30.771 12.186 0 22.853 9.3542 26.007 22.807"/>
  <path d="m206.28 87.86c0 14.87-10.332 26.924-23.078 26.924s-23.078-12.054-23.078-26.924 10.332-26.924 23.078-26.924c10.445 0 19.588 8.185 22.292 19.956"/>
  <path d="m270.1 83.096c-4.3114 15.999-17.783 26.28-30.09 22.963-12.307-3.3164-18.788-18.974-14.477-34.973 4.3114-15.999 17.783-26.28 30.09-22.963 10.086 2.7179 16.54 13.903 15.738 27.271"/>
  <path d="m332.2 86.125c2.3509 16.402-5.9713 31.164-18.588 32.972-12.617 1.8084-24.75-10.022-27.101-26.424-2.3509-16.402 5.9713-31.164 18.588-32.972 10.34-1.482 20.684 6.2489 25.221 18.849"/>
  <path d="m389.36 84.783c0 16.569-10.332 30.002-23.078 30.002s-23.078-13.432-23.078-30.002c0-16.569 10.332-30.002 23.078-30.002 10.445 0 19.588 9.1204 22.292 22.237"/>
  <path d="m386.79 95.374c-7.6038 14.722-22.948 21.914-34.272 16.065-11.324-5.8491-14.34-22.525-6.7366-37.247 7.6038-14.722 22.948-21.914 34.272-16.065 9.2805 4.7934 13.218 17.092 9.6014 29.987"/>
 </g>
 <g transform="matrix(-1.0118 0 0 1 528.38 171.43)" fill="#007f00">
  <path d="m175.28 196.33c0-53.532-17.221-96.928-38.464-96.928s-38.464 43.396-38.464 96.928"/>
  <path d="m232.21 196.33c0-50.983-17.221-92.312-38.464-92.312s-38.464 41.33-38.464 92.312"/>
  <path d="m287.6 196.33c0-54.382-17.221-98.467-38.464-98.467s-38.464 44.085-38.464 98.467"/>
  <path d="m341.44 196.33c0-49.283-17.221-89.235-38.464-89.235s-38.464 39.952-38.464 89.235"/>
  <path d="m395.29 196.33c0-51.832-17.221-93.851-38.464-93.851s-38.464 42.018-38.464 93.851"/>
  <path d="m156.82 82.476c0 16.994-12.054 30.771-26.924 30.771s-26.924-13.776-26.924-30.771c0-16.994 12.054-30.771 26.924-30.771 12.186 0 22.853 9.3542 26.007 22.807"/>
  <path d="m212.21 87.86c0 14.87-10.332 26.924-23.078 26.924s-23.078-12.054-23.078-26.924 10.332-26.924 23.078-26.924c10.445 0 19.588 8.185 22.292 19.956"/>
  <path d="m276.03 83.096c-4.3114 15.999-17.783 26.28-30.09 22.963-12.307-3.3165-18.788-18.974-14.477-34.973 4.3114-15.999 17.783-26.28 30.09-22.963 10.086 2.7179 16.54 13.903 15.738 27.271"/>
  <path d="m338.13 86.125c2.3509 16.402-5.9713 31.164-18.588 32.972-12.617 1.8084-24.75-10.022-27.101-26.424-2.3509-16.402 5.9713-31.164 18.588-32.972 10.34-1.482 20.684 6.2489 25.221 18.849"/>
  <path d="m395.29 84.783c0 16.569-10.332 30.002-23.078 30.002s-23.078-13.432-23.078-30.002c0-16.569 10.332-30.002 23.078-30.002 10.445 0 19.588 9.1204 22.292 22.237"/>
  <path d="m392.72 95.374c-7.6038 14.722-22.948 21.914-34.272 16.065-11.324-5.8491-14.34-22.525-6.7367-37.247 7.6038-14.722 22.948-21.914 34.272-16.065 9.2805 4.7934 13.218 17.092 9.6014 29.987"/>
 </g>
 <g transform="matrix(-1.0118 0 0 1 1144.8 185.28)" fill="#298929">
  <path d="m175.28 196.33c0-53.532-17.221-96.928-38.464-96.928s-38.464 43.396-38.464 96.928"/>
  <path d="m232.21 196.33c0-50.983-17.221-92.312-38.464-92.312s-38.464 41.33-38.464 92.312"/>
  <path d="m287.6 196.33c0-54.382-17.221-98.467-38.464-98.467s-38.464 44.085-38.464 98.467"/>
  <path d="m341.44 196.33c0-49.283-17.221-89.235-38.464-89.235s-38.464 39.952-38.464 89.235"/>
  <path d="m395.29 196.33c0-51.832-17.221-93.851-38.464-93.851s-38.464 42.018-38.464 93.851"/>
  <path d="m156.82 82.476c0 16.994-12.054 30.771-26.924 30.771s-26.924-13.776-26.924-30.771c0-16.994 12.054-30.771 26.924-30.771 12.186 0 22.853 9.3542 26.007 22.807"/>
  <path d="m212.21 87.86c0 14.87-10.332 26.924-23.078 26.924s-23.078-12.054-23.078-26.924 10.332-26.924 23.078-26.924c10.445 0 19.588 8.185 22.292 19.956"/>
  <path d="m276.03 83.096c-4.3114 15.999-17.783 26.28-30.09 22.963-12.307-3.3165-18.788-18.974-14.477-34.973 4.3114-15.999 17.783-26.28 30.09-22.963 10.086 2.7179 16.54 13.903 15.738 27.271"/>
  <path d="m338.13 86.125c2.3509 16.402-5.9713 31.164-18.588 32.972-12.617 1.8084-24.75-10.022-27.101-26.424-2.3509-16.402 5.9713-31.164 18.588-32.972 10.34-1.482 20.684 6.2489 25.221 18.849"/>
  <path d="m395.29 84.783c0 16.569-10.332 30.002-23.078 30.002s-23.078-13.432-23.078-30.002c0-16.569 10.332-30.002 23.078-30.002 10.445 0 19.588 9.1204 22.292 22.237"/>
  <path d="m392.72 95.374c-7.6038 14.722-22.948 21.914-34.272 16.065-11.324-5.8491-14.34-22.525-6.7367-37.247 7.6038-14.722 22.948-21.914 34.272-16.065 9.2805 4.7934 13.218 17.092 9.6014 29.987"/>
 </g>
 <g transform="matrix(1.0118 0 0 1 249.66 225.28)" fill="#666">
  <path d="m169.35 196.33c0-53.532-17.221-96.928-38.464-96.928s-38.464 43.396-38.464 96.928"/>
  <path d="m226.28 196.33c0-50.983-17.221-92.312-38.464-92.312s-38.464 41.33-38.464 92.312"/>
  <path d="m281.66 196.33c0-54.382-17.221-98.467-38.464-98.467s-38.464 44.085-38.464 98.467"/>
  <path d="m335.51 196.33c0-49.283-17.221-89.235-38.464-89.235s-38.464 39.952-38.464 89.235"/>
  <path d="m389.36 196.33c0-51.832-17.221-93.851-38.464-93.851s-38.464 42.018-38.464 93.851"/>
  <path d="m150.89 82.476c0 16.994-12.054 30.771-26.924 30.771s-26.924-13.776-26.924-30.771c0-16.994 12.054-30.771 26.924-30.771 12.186 0 22.853 9.3542 26.007 22.807"/>
  <path d="m206.28 87.86c0 14.87-10.332 26.924-23.078 26.924s-23.078-12.054-23.078-26.924 10.332-26.924 23.078-26.924c10.445 0 19.588 8.185 22.292 19.956"/>
  <path d="m270.1 83.096c-4.3114 15.999-17.783 26.28-30.09 22.963-12.307-3.3164-18.788-18.974-14.477-34.973 4.3114-15.999 17.783-26.28 30.09-22.963 10.086 2.7179 16.54 13.903 15.738 27.271"/>
  <path d="m332.2 86.125c2.3509 16.402-5.9713 31.164-18.588 32.972-12.617 1.8084-24.75-10.022-27.101-26.424-2.3509-16.402 5.9713-31.164 18.588-32.972 10.34-1.482 20.684 6.2489 25.221 18.849"/>
  <path d="m389.36 84.783c0 16.569-10.332 30.002-23.078 30.002s-23.078-13.432-23.078-30.002c0-16.569 10.332-30.002 23.078-30.002 10.445 0 19.588 9.1204 22.292 22.237"/>
  <path d="m386.79 95.374c-7.6038 14.722-22.948 21.914-34.272 16.065-11.324-5.8491-14.34-22.525-6.7366-37.247 7.6038-14.722 22.948-21.914 34.272-16.065 9.2805 4.7934 13.218 17.092 9.6014 29.987"/>
 </g>
 <g transform="matrix(1.0118 0 0 1 514.29 226.82)" fill="#1c6332">
  <path d="m169.35 196.33c0-53.532-17.221-96.928-38.464-96.928s-38.464 43.396-38.464 96.928"/>
  <path d="m226.28 196.33c0-50.983-17.221-92.312-38.464-92.312s-38.464 41.33-38.464 92.312"/>
  <path d="m281.66 196.33c0-54.382-17.221-98.467-38.464-98.467s-38.464 44.085-38.464 98.467"/>
  <path d="m335.51 196.33c0-49.283-17.221-89.235-38.464-89.235s-38.464 39.952-38.464 89.235"/>
  <path d="m389.36 196.33c0-51.832-17.221-93.851-38.464-93.851s-38.464 42.018-38.464 93.851"/>
  <path d="m150.89 82.476c0 16.994-12.054 30.771-26.924 30.771s-26.924-13.776-26.924-30.771c0-16.994 12.054-30.771 26.924-30.771 12.186 0 22.853 9.3542 26.007 22.807"/>
  <path d="m206.28 87.86c0 14.87-10.332 26.924-23.078 26.924s-23.078-12.054-23.078-26.924 10.332-26.924 23.078-26.924c10.445 0 19.588 8.185 22.292 19.956"/>
  <path d="m270.1 83.096c-4.3114 15.999-17.783 26.28-30.09 22.963-12.307-3.3164-18.788-18.974-14.477-34.973 4.3114-15.999 17.783-26.28 30.09-22.963 10.086 2.7179 16.54 13.903 15.738 27.271"/>
  <path d="m332.2 86.125c2.3509 16.402-5.9713 31.164-18.588 32.972-12.617 1.8084-24.75-10.022-27.101-26.424-2.3509-16.402 5.9713-31.164 18.588-32.972 10.34-1.482 20.684 6.2489 25.221 18.849"/>
  <path d="m389.36 84.783c0 16.569-10.332 30.002-23.078 30.002s-23.078-13.432-23.078-30.002c0-16.569 10.332-30.002 23.078-30.002 10.445 0 19.588 9.1204 22.292 22.237"/>
  <path d="m386.79 95.374c-7.6038 14.722-22.948 21.914-34.272 16.065-11.324-5.8491-14.34-22.525-6.7366-37.247 7.6038-14.722 22.948-21.914 34.272-16.065 9.2805 4.7934 13.218 17.092 9.6014 29.987"/>
 </g>
 <g transform="matrix(1.0118 0 0 1 674.62 234.51)" fill="#666">
  <path d="m169.35 196.33c0-53.532-17.221-96.928-38.464-96.928s-38.464 43.396-38.464 96.928"/>
  <path d="m226.28 196.33c0-50.983-17.221-92.312-38.464-92.312s-38.464 41.33-38.464 92.312"/>
  <path d="m281.66 196.33c0-54.382-17.221-98.467-38.464-98.467s-38.464 44.085-38.464 98.467"/>
  <path d="m335.51 196.33c0-49.283-17.221-89.235-38.464-89.235s-38.464 39.952-38.464 89.235"/>
  <path d="m389.36 196.33c0-51.832-17.221-93.851-38.464-93.851s-38.464 42.018-38.464 93.851"/>
  <path d="m150.89 82.476c0 16.994-12.054 30.771-26.924 30.771s-26.924-13.776-26.924-30.771c0-16.994 12.054-30.771 26.924-30.771 12.186 0 22.853 9.3542 26.007 22.807"/>
  <path d="m206.28 87.86c0 14.87-10.332 26.924-23.078 26.924s-23.078-12.054-23.078-26.924 10.332-26.924 23.078-26.924c10.445 0 19.588 8.185 22.292 19.956"/>
  <path d="m270.1 83.096c-4.3114 15.999-17.783 26.28-30.09 22.963-12.307-3.3164-18.788-18.974-14.477-34.973 4.3114-15.999 17.783-26.28 30.09-22.963 10.086 2.7179 16.54 13.903 15.738 27.271"/>
  <path d="m332.2 86.125c2.3509 16.402-5.9713 31.164-18.588 32.972-12.617 1.8084-24.75-10.022-27.101-26.424-2.3509-16.402 5.9713-31.164 18.588-32.972 10.34-1.482 20.684 6.2489 25.221 18.849"/>
  <path d="m389.36 84.783c0 16.569-10.332 30.002-23.078 30.002s-23.078-13.432-23.078-30.002c0-16.569 10.332-30.002 23.078-30.002 10.445 0 19.588 9.1204 22.292 22.237"/>
  <path d="m386.79 95.374c-7.6038 14.722-22.948 21.914-34.272 16.065-11.324-5.8491-14.34-22.525-6.7366-37.247 7.6038-14.722 22.948-21.914 34.272-16.065 9.2805 4.7934 13.218 17.092 9.6014 29.987"/>
 </g>
 <g transform="matrix(-1.0118 0 0 1 470.9 208.36)" fill="#3c5920">
  <path d="m175.28 196.33c0-53.532-17.221-96.928-38.464-96.928s-38.464 43.396-38.464 96.928"/>
  <path d="m232.21 196.33c0-50.983-17.221-92.312-38.464-92.312s-38.464 41.33-38.464 92.312"/>
  <path d="m287.6 196.33c0-54.382-17.221-98.467-38.464-98.467s-38.464 44.085-38.464 98.467"/>
  <path d="m341.44 196.33c0-49.283-17.221-89.235-38.464-89.235s-38.464 39.952-38.464 89.235"/>
  <path d="m395.29 196.33c0-51.832-17.221-93.851-38.464-93.851s-38.464 42.018-38.464 93.851"/>
  <path d="m156.82 82.476c0 16.994-12.054 30.771-26.924 30.771s-26.924-13.776-26.924-30.771c0-16.994 12.054-30.771 26.924-30.771 12.186 0 22.853 9.3542 26.007 22.807"/>
  <path d="m212.21 87.86c0 14.87-10.332 26.924-23.078 26.924s-23.078-12.054-23.078-26.924 10.332-26.924 23.078-26.924c10.445 0 19.588 8.185 22.292 19.956"/>
  <path d="m276.03 83.096c-4.3114 15.999-17.783 26.28-30.09 22.963-12.307-3.3165-18.788-18.974-14.477-34.973 4.3114-15.999 17.783-26.28 30.09-22.963 10.086 2.7179 16.54 13.903 15.738 27.271"/>
  <path d="m338.13 86.125c2.3509 16.402-5.9713 31.164-18.588 32.972-12.617 1.8084-24.75-10.022-27.101-26.424-2.3509-16.402 5.9713-31.164 18.588-32.972 10.34-1.482 20.684 6.2489 25.221 18.849"/>
  <path d="m395.29 84.783c0 16.569-10.332 30.002-23.078 30.002s-23.078-13.432-23.078-30.002c0-16.569 10.332-30.002 23.078-30.002 10.445 0 19.588 9.1204 22.292 22.237"/>
  <path d="m392.72 95.374c-7.6038 14.722-22.948 21.914-34.272 16.065-11.324-5.8491-14.34-22.525-6.7367-37.247 7.6038-14.722 22.948-21.914 34.272-16.065 9.2805 4.7934 13.218 17.092 9.6014 29.987"/>
 </g>
 <g transform="matrix(-1.0118 0 0 1 761.64 260.67)" fill="#109949">
  <path d="m175.28 196.33c0-53.532-17.221-96.928-38.464-96.928s-38.464 43.396-38.464 96.928"/>
  <path d="m232.21 196.33c0-50.983-17.221-92.312-38.464-92.312s-38.464 41.33-38.464 92.312"/>
  <path d="m287.6 196.33c0-54.382-17.221-98.467-38.464-98.467s-38.464 44.085-38.464 98.467"/>
  <path d="m341.44 196.33c0-49.283-17.221-89.235-38.464-89.235s-38.464 39.952-38.464 89.235"/>
  <path d="m395.29 196.33c0-51.832-17.221-93.851-38.464-93.851s-38.464 42.018-38.464 93.851"/>
  <path d="m156.82 82.476c0 16.994-12.054 30.771-26.924 30.771s-26.924-13.776-26.924-30.771c0-16.994 12.054-30.771 26.924-30.771 12.186 0 22.853 9.3542 26.007 22.807"/>
  <path d="m212.21 87.86c0 14.87-10.332 26.924-23.078 26.924s-23.078-12.054-23.078-26.924 10.332-26.924 23.078-26.924c10.445 0 19.588 8.185 22.292 19.956"/>
  <path d="m276.03 83.096c-4.3114 15.999-17.783 26.28-30.09 22.963-12.307-3.3165-18.788-18.974-14.477-34.973 4.3114-15.999 17.783-26.28 30.09-22.963 10.086 2.7179 16.54 13.903 15.738 27.271"/>
  <path d="m338.13 86.125c2.3509 16.402-5.9713 31.164-18.588 32.972-12.617 1.8084-24.75-10.022-27.101-26.424-2.3509-16.402 5.9713-31.164 18.588-32.972 10.34-1.482 20.684 6.2489 25.221 18.849"/>
  <path d="m395.29 84.783c0 16.569-10.332 30.002-23.078 30.002s-23.078-13.432-23.078-30.002c0-16.569 10.332-30.002 23.078-30.002 10.445 0 19.588 9.1204 22.292 22.237"/>
  <path d="m392.72 95.374c-7.6038 14.722-22.948 21.914-34.272 16.065-11.324-5.8491-14.34-22.525-6.7367-37.247 7.6038-14.722 22.948-21.914 34.272-16.065 9.2805 4.7934 13.218 17.092 9.6014 29.987"/>
 </g>
 <g fill="#808080">
  <g transform="matrix(-1.0118 0 0 1 1125.1 262.24)">
   <path d="m175.28 196.33c0-53.532-17.221-96.928-38.464-96.928s-38.464 43.396-38.464 96.928"/>
   <path d="m232.21 196.33c0-50.983-17.221-92.312-38.464-92.312s-38.464 41.33-38.464 92.312"/>
   <path d="m287.6 196.33c0-54.382-17.221-98.467-38.464-98.467s-38.464 44.085-38.464 98.467"/>
   <path d="m341.44 196.33c0-49.283-17.221-89.235-38.464-89.235s-38.464 39.952-38.464 89.235"/>
   <path d="m395.29 196.33c0-51.832-17.221-93.851-38.464-93.851s-38.464 42.018-38.464 93.851"/>
   <path d="m156.82 82.476c0 16.994-12.054 30.771-26.924 30.771s-26.924-13.776-26.924-30.771c0-16.994 12.054-30.771 26.924-30.771 12.186 0 22.853 9.3542 26.007 22.807"/>
   <path d="m212.21 87.86c0 14.87-10.332 26.924-23.078 26.924s-23.078-12.054-23.078-26.924 10.332-26.924 23.078-26.924c10.445 0 19.588 8.185 22.292 19.956"/>
   <path d="m276.03 83.096c-4.3114 15.999-17.783 26.28-30.09 22.963-12.307-3.3165-18.788-18.974-14.477-34.973 4.3114-15.999 17.783-26.28 30.09-22.963 10.086 2.7179 16.54 13.903 15.738 27.271"/>
   <path d="m338.13 86.125c2.3509 16.402-5.9713 31.164-18.588 32.972-12.617 1.8084-24.75-10.022-27.101-26.424-2.3509-16.402 5.9713-31.164 18.588-32.972 10.34-1.482 20.684 6.2489 25.221 18.849"/>
   <path d="m395.29 84.783c0 16.569-10.332 30.002-23.078 30.002s-23.078-13.432-23.078-30.002c0-16.569 10.332-30.002 23.078-30.002 10.445 0 19.588 9.1204 22.292 22.237"/>
   <path d="m392.72 95.374c-7.6038 14.722-22.948 21.914-34.272 16.065-11.324-5.8491-14.34-22.525-6.7367-37.247 7.6038-14.722 22.948-21.914 34.272-16.065 9.2805 4.7934 13.218 17.092 9.6014 29.987"/>
  </g>
  <g transform="matrix(1.0118 0 0 1 5.2673 265.28)">
   <path d="m169.35 196.33c0-53.532-17.221-96.928-38.464-96.928s-38.464 43.396-38.464 96.928"/>
   <path d="m226.28 196.33c0-50.983-17.221-92.312-38.464-92.312s-38.464 41.33-38.464 92.312"/>
   <path d="m281.66 196.33c0-54.382-17.221-98.467-38.464-98.467s-38.464 44.085-38.464 98.467"/>
   <path d="m335.51 196.33c0-49.283-17.221-89.235-38.464-89.235s-38.464 39.952-38.464 89.235"/>
   <path d="m389.36 196.33c0-51.832-17.221-93.851-38.464-93.851s-38.464 42.018-38.464 93.851"/>
   <path d="m150.89 82.476c0 16.994-12.054 30.771-26.924 30.771s-26.924-13.776-26.924-30.771c0-16.994 12.054-30.771 26.924-30.771 12.186 0 22.853 9.3542 26.007 22.807"/>
   <path d="m206.28 87.86c0 14.87-10.332 26.924-23.078 26.924s-23.078-12.054-23.078-26.924 10.332-26.924 23.078-26.924c10.445 0 19.588 8.185 22.292 19.956"/>
   <path d="m270.1 83.096c-4.3114 15.999-17.783 26.28-30.09 22.963-12.307-3.3164-18.788-18.974-14.477-34.973 4.3114-15.999 17.783-26.28 30.09-22.963 10.086 2.7179 16.54 13.903 15.738 27.271"/>
   <path d="m332.2 86.125c2.3509 16.402-5.9713 31.164-18.588 32.972-12.617 1.8084-24.75-10.022-27.101-26.424-2.3509-16.402 5.9713-31.164 18.588-32.972 10.34-1.482 20.684 6.2489 25.221 18.849"/>
   <path d="m389.36 84.783c0 16.569-10.332 30.002-23.078 30.002s-23.078-13.432-23.078-30.002c0-16.569 10.332-30.002 23.078-30.002 10.445 0 19.588 9.1204 22.292 22.237"/>
   <path d="m386.79 95.374c-7.6038 14.722-22.948 21.914-34.272 16.065-11.324-5.8491-14.34-22.525-6.7366-37.247 7.6038-14.722 22.948-21.914 34.272-16.065 9.2805 4.7934 13.218 17.092 9.6014 29.987"/>
  </g>
 </g>
 <g transform="matrix(.87942 0 0 1 370.84 316.06)">
  <path d="m168.91 196.33c0-53.532-17.221-96.928-38.464-96.928s-38.464 43.396-38.464 96.928"/>
  <path d="m225.83 196.33c0-50.983-17.221-92.312-38.464-92.312s-38.464 41.33-38.464 92.312"/>
  <path d="m281.22 196.33c0-54.382-17.221-98.467-38.464-98.467s-38.464 44.085-38.464 98.467"/>
  <path d="m335.07 196.33c0-49.283-17.221-89.235-38.464-89.235s-38.464 39.952-38.464 89.235"/>
  <path d="m388.92 196.33c0-51.832-17.221-93.851-38.464-93.851s-38.464 42.018-38.464 93.851"/>
  <path d="m150.44 82.476c0 16.994-12.054 30.771-26.924 30.771s-26.924-13.776-26.924-30.771c0-16.994 12.054-30.771 26.924-30.771 12.186 0 22.853 9.3542 26.007 22.807"/>
  <path d="m205.83 87.86c0 14.87-10.332 26.924-23.078 26.924s-23.078-12.054-23.078-26.924 10.332-26.924 23.078-26.924c10.445 0 19.588 8.185 22.292 19.956"/>
  <path d="m269.65 83.096c-4.3114 15.999-17.783 26.28-30.09 22.963-12.307-3.3164-18.788-18.974-14.477-34.973 4.3114-15.999 17.783-26.28 30.09-22.963 10.086 2.7179 16.54 13.903 15.738 27.271"/>
  <path d="m331.76 86.125c2.3509 16.402-5.9713 31.164-18.588 32.972-12.617 1.8084-24.75-10.022-27.101-26.424-2.3509-16.402 5.9713-31.164 18.588-32.972 10.34-1.482 20.684 6.2489 25.221 18.849"/>
  <path d="m388.92 84.783c0 16.569-10.332 30.002-23.078 30.002s-23.078-13.432-23.078-30.002c0-16.569 10.332-30.002 23.078-30.002 10.445 0 19.588 9.1204 22.292 22.237"/>
  <path d="m386.34 95.374c-7.6038 14.722-22.948 21.914-34.272 16.065-11.324-5.8491-14.34-22.525-6.7366-37.247 7.6038-14.722 22.948-21.914 34.272-16.065 9.2805 4.7934 13.218 17.092 9.6014 29.987"/>
 </g>
 <g transform="matrix(.87942 0 0 1 101.59 300.67)" fill="#b3b3b3">
  <path d="m168.91 196.33c0-53.532-17.221-96.928-38.464-96.928s-38.464 43.396-38.464 96.928"/>
  <path d="m225.83 196.33c0-50.983-17.221-92.312-38.464-92.312s-38.464 41.33-38.464 92.312"/>
  <path d="m281.22 196.33c0-54.382-17.221-98.467-38.464-98.467s-38.464 44.085-38.464 98.467"/>
  <path d="m335.07 196.33c0-49.283-17.221-89.235-38.464-89.235s-38.464 39.952-38.464 89.235"/>
  <path d="m388.92 196.33c0-51.832-17.221-93.851-38.464-93.851s-38.464 42.018-38.464 93.851"/>
  <path d="m150.44 82.476c0 16.994-12.054 30.771-26.924 30.771s-26.924-13.776-26.924-30.771c0-16.994 12.054-30.771 26.924-30.771 12.186 0 22.853 9.3542 26.007 22.807"/>
  <path d="m205.83 87.86c0 14.87-10.332 26.924-23.078 26.924s-23.078-12.054-23.078-26.924 10.332-26.924 23.078-26.924c10.445 0 19.588 8.185 22.292 19.956"/>
  <path d="m269.65 83.096c-4.3114 15.999-17.783 26.28-30.09 22.963-12.307-3.3164-18.788-18.974-14.477-34.973 4.3114-15.999 17.783-26.28 30.09-22.963 10.086 2.7179 16.54 13.903 15.738 27.271"/>
  <path d="m331.76 86.125c2.3509 16.402-5.9713 31.164-18.588 32.972-12.617 1.8084-24.75-10.022-27.101-26.424-2.3509-16.402 5.9713-31.164 18.588-32.972 10.34-1.482 20.684 6.2489 25.221 18.849"/>
  <path d="m388.92 84.783c0 16.569-10.332 30.002-23.078 30.002s-23.078-13.432-23.078-30.002c0-16.569 10.332-30.002 23.078-30.002 10.445 0 19.588 9.1204 22.292 22.237"/>
  <path d="m386.34 95.374c-7.6038 14.722-22.948 21.914-34.272 16.065-11.324-5.8491-14.34-22.525-6.7366-37.247 7.6038-14.722 22.948-21.914 34.272-16.065 9.2805 4.7934 13.218 17.092 9.6014 29.987"/>
 </g>
 <g transform="matrix(.87942 0 0 1 659.85 303.75)">
  <path d="m168.91 196.33c0-53.532-17.221-96.928-38.464-96.928s-38.464 43.396-38.464 96.928"/>
  <path d="m225.83 196.33c0-50.983-17.221-92.312-38.464-92.312s-38.464 41.33-38.464 92.312"/>
  <path d="m281.22 196.33c0-54.382-17.221-98.467-38.464-98.467s-38.464 44.085-38.464 98.467"/>
  <path d="m335.07 196.33c0-49.283-17.221-89.235-38.464-89.235s-38.464 39.952-38.464 89.235"/>
  <path d="m388.92 196.33c0-51.832-17.221-93.851-38.464-93.851s-38.464 42.018-38.464 93.851"/>
  <path d="m150.44 82.476c0 16.994-12.054 30.771-26.924 30.771s-26.924-13.776-26.924-30.771c0-16.994 12.054-30.771 26.924-30.771 12.186 0 22.853 9.3542 26.007 22.807"/>
  <path d="m205.83 87.86c0 14.87-10.332 26.924-23.078 26.924s-23.078-12.054-23.078-26.924 10.332-26.924 23.078-26.924c10.445 0 19.588 8.185 22.292 19.956"/>
  <path d="m269.65 83.096c-4.3114 15.999-17.783 26.28-30.09 22.963-12.307-3.3164-18.788-18.974-14.477-34.973 4.3114-15.999 17.783-26.28 30.09-22.963 10.086 2.7179 16.54 13.903 15.738 27.271"/>
  <path d="m331.76 86.125c2.3509 16.402-5.9713 31.164-18.588 32.972-12.617 1.8084-24.75-10.022-27.101-26.424-2.3509-16.402 5.9713-31.164 18.588-32.972 10.34-1.482 20.684 6.2489 25.221 18.849"/>
  <path d="m388.92 84.783c0 16.569-10.332 30.002-23.078 30.002s-23.078-13.432-23.078-30.002c0-16.569 10.332-30.002 23.078-30.002 10.445 0 19.588 9.1204 22.292 22.237"/>
  <path d="m386.34 95.374c-7.6038 14.722-22.948 21.914-34.272 16.065-11.324-5.8491-14.34-22.525-6.7366-37.247 7.6038-14.722 22.948-21.914 34.272-16.065 9.2805 4.7934 13.218 17.092 9.6014 29.987"/>
 </g>
 <g fill="#333">
  <g transform="matrix(.87942 0 0 1 393.32 343.26)">
   <path d="m168.91 195.33c0-53.532-17.221-96.928-38.464-96.928s-38.464 43.396-38.464 96.928"/>
   <path d="m225.83 195.33c0-50.983-17.221-92.312-38.464-92.312s-38.464 41.33-38.464 92.312"/>
   <path d="m281.22 195.33c0-54.382-17.221-98.467-38.464-98.467s-38.464 44.085-38.464 98.467"/>
   <path d="m335.07 195.33c0-49.283-17.221-89.235-38.464-89.235s-38.464 39.952-38.464 89.235"/>
   <path d="m388.92 195.33c0-51.832-17.221-93.851-38.464-93.851s-38.464 42.018-38.464 93.851"/>
   <path d="m150.44 81.476c0 16.994-12.054 30.771-26.924 30.771s-26.924-13.776-26.924-30.771c0-16.994 12.054-30.771 26.924-30.771 12.186 0 22.853 9.3542 26.007 22.807"/>
   <path d="m205.83 86.86c0 14.87-10.332 26.924-23.078 26.924s-23.078-12.054-23.078-26.924 10.332-26.924 23.078-26.924c10.445 0 19.588 8.185 22.292 19.956"/>
   <path d="m269.65 82.096c-4.3114 15.999-17.783 26.28-30.09 22.963-12.307-3.3164-18.788-18.974-14.477-34.973 4.3114-15.999 17.783-26.28 30.09-22.963 10.086 2.7179 16.54 13.903 15.738 27.271"/>
   <path d="m331.76 85.125c2.3509 16.402-5.9713 31.164-18.588 32.972-12.617 1.8084-24.75-10.022-27.101-26.424-2.3509-16.402 5.9713-31.164 18.588-32.972 10.34-1.482 20.684 6.2489 25.221 18.849"/>
   <path d="m388.92 83.783c0 16.569-10.332 30.002-23.078 30.002s-23.078-13.432-23.078-30.002c0-16.569 10.332-30.002 23.078-30.002 10.445 0 19.588 9.1204 22.292 22.237"/>
   <path d="m386.34 94.374c-7.6038 14.722-22.948 21.914-34.272 16.065-11.324-5.8491-14.34-22.525-6.7366-37.247 7.6038-14.722 22.948-21.914 34.272-16.065 9.2805 4.7934 13.218 17.092 9.6014 29.987"/>
  </g>
  <g transform="matrix(-.87942 0 0 1 557.63 339.14)">
   <path d="m175.73 196.33c0-53.532-17.221-96.928-38.464-96.928s-38.464 43.396-38.464 96.928"/>
   <path d="m232.65 196.33c0-50.983-17.221-92.312-38.464-92.312s-38.464 41.33-38.464 92.312"/>
   <path d="m288.04 196.33c0-54.382-17.221-98.467-38.464-98.467s-38.464 44.085-38.464 98.467"/>
   <path d="m341.89 196.33c0-49.283-17.221-89.235-38.464-89.235s-38.464 39.952-38.464 89.235"/>
   <path d="m395.74 196.33c0-51.832-17.221-93.851-38.464-93.851s-38.464 42.018-38.464 93.851"/>
   <path d="m157.27 82.476c0 16.994-12.054 30.771-26.924 30.771s-26.924-13.776-26.924-30.771c0-16.994 12.054-30.771 26.924-30.771 12.186 0 22.853 9.3542 26.007 22.807"/>
   <path d="m212.65 87.86c0 14.87-10.332 26.924-23.078 26.924s-23.078-12.054-23.078-26.924 10.332-26.924 23.078-26.924c10.445 0 19.588 8.185 22.292 19.956"/>
   <path d="m276.48 83.096c-4.3114 15.999-17.783 26.28-30.09 22.963-12.307-3.3165-18.788-18.974-14.477-34.973 4.3114-15.999 17.783-26.28 30.09-22.963 10.086 2.7179 16.54 13.903 15.738 27.271"/>
   <path d="m338.58 86.125c2.3509 16.402-5.9713 31.164-18.588 32.972-12.617 1.8084-24.75-10.022-27.101-26.424-2.3509-16.402 5.9713-31.164 18.588-32.972 10.34-1.482 20.684 6.249 25.221 18.849"/>
   <path d="m395.74 84.783c0 16.569-10.332 30.002-23.078 30.002s-23.078-13.432-23.078-30.002c0-16.569 10.332-30.002 23.078-30.002 10.445 0 19.588 9.1204 22.292 22.237"/>
   <path d="m393.17 95.374c-7.6038 14.722-22.948 21.914-34.272 16.065-11.324-5.8491-14.34-22.525-6.7366-37.247 7.6038-14.722 22.948-21.914 34.272-16.065 9.2805 4.7934 13.218 17.092 9.6013 29.987"/>
  </g>
 </g>
 <g transform="matrix(-.87942 0 0 1 1115 352.98)" fill="#094909">
  <path d="m175.73 196.33c0-53.532-17.221-96.928-38.464-96.928s-38.464 43.396-38.464 96.928"/>
  <path d="m232.65 196.33c0-50.983-17.221-92.312-38.464-92.312s-38.464 41.33-38.464 92.312"/>
  <path d="m288.04 196.33c0-54.382-17.221-98.467-38.464-98.467s-38.464 44.085-38.464 98.467"/>
  <path d="m341.89 196.33c0-49.283-17.221-89.235-38.464-89.235s-38.464 39.952-38.464 89.235"/>
  <path d="m395.74 196.33c0-51.832-17.221-93.851-38.464-93.851s-38.464 42.018-38.464 93.851"/>
  <path d="m157.27 82.476c0 16.994-12.054 30.771-26.924 30.771s-26.924-13.776-26.924-30.771c0-16.994 12.054-30.771 26.924-30.771 12.186 0 22.853 9.3542 26.007 22.807"/>
  <path d="m212.65 87.86c0 14.87-10.332 26.924-23.078 26.924s-23.078-12.054-23.078-26.924 10.332-26.924 23.078-26.924c10.445 0 19.588 8.185 22.292 19.956"/>
  <path d="m276.48 83.096c-4.3114 15.999-17.783 26.28-30.09 22.963-12.307-3.3165-18.788-18.974-14.477-34.973 4.3114-15.999 17.783-26.28 30.09-22.963 10.086 2.7179 16.54 13.903 15.738 27.271"/>
  <path d="m338.58 86.125c2.3509 16.402-5.9713 31.164-18.588 32.972-12.617 1.8084-24.75-10.022-27.101-26.424-2.3509-16.402 5.9713-31.164 18.588-32.972 10.34-1.482 20.684 6.249 25.221 18.849"/>
  <path d="m395.74 84.783c0 16.569-10.332 30.002-23.078 30.002s-23.078-13.432-23.078-30.002c0-16.569 10.332-30.002 23.078-30.002 10.445 0 19.588 9.1204 22.292 22.237"/>
  <path d="m393.17 95.374c-7.6038 14.722-22.948 21.914-34.272 16.065-11.324-5.8491-14.34-22.525-6.7366-37.247 7.6038-14.722 22.948-21.914 34.272-16.065 9.2805 4.7934 13.218 17.092 9.6013 29.987"/>
 </g>
 <g transform="matrix(.87942 0 0 1 315.37 392.98)" fill="#666">
  <path d="m168.91 196.33c0-53.532-17.221-96.928-38.464-96.928s-38.464 43.396-38.464 96.928"/>
  <path d="m225.83 196.33c0-50.983-17.221-92.312-38.464-92.312s-38.464 41.33-38.464 92.312"/>
  <path d="m281.22 196.33c0-54.382-17.221-98.467-38.464-98.467s-38.464 44.085-38.464 98.467"/>
  <path d="m335.07 196.33c0-49.283-17.221-89.235-38.464-89.235s-38.464 39.952-38.464 89.235"/>
  <path d="m388.92 196.33c0-51.832-17.221-93.851-38.464-93.851s-38.464 42.018-38.464 93.851"/>
  <path d="m150.44 82.476c0 16.994-12.054 30.771-26.924 30.771s-26.924-13.776-26.924-30.771c0-16.994 12.054-30.771 26.924-30.771 12.186 0 22.853 9.3542 26.007 22.807"/>
  <path d="m205.83 87.86c0 14.87-10.332 26.924-23.078 26.924s-23.078-12.054-23.078-26.924 10.332-26.924 23.078-26.924c10.445 0 19.588 8.185 22.292 19.956"/>
  <path d="m269.65 83.096c-4.3114 15.999-17.783 26.28-30.09 22.963-12.307-3.3164-18.788-18.974-14.477-34.973 4.3114-15.999 17.783-26.28 30.09-22.963 10.086 2.7179 16.54 13.903 15.738 27.271"/>
  <path d="m331.76 86.125c2.3509 16.402-5.9713 31.164-18.588 32.972-12.617 1.8084-24.75-10.022-27.101-26.424-2.3509-16.402 5.9713-31.164 18.588-32.972 10.34-1.482 20.684 6.2489 25.221 18.849"/>
  <path d="m388.92 84.783c0 16.569-10.332 30.002-23.078 30.002s-23.078-13.432-23.078-30.002c0-16.569 10.332-30.002 23.078-30.002 10.445 0 19.588 9.1204 22.292 22.237"/>
  <path d="m386.34 95.374c-7.6038 14.722-22.948 21.914-34.272 16.065-11.324-5.8491-14.34-22.525-6.7366-37.247 7.6038-14.722 22.948-21.914 34.272-16.065 9.2805 4.7934 13.218 17.092 9.6014 29.987"/>
 </g>
 <g transform="matrix(.87942 0 0 1 545.38 394.52)" fill="#7f7f7f">
  <path d="m168.91 196.33c0-53.532-17.221-96.928-38.464-96.928s-38.464 43.396-38.464 96.928"/>
  <path d="m225.83 196.33c0-50.983-17.221-92.312-38.464-92.312s-38.464 41.33-38.464 92.312"/>
  <path d="m281.22 196.33c0-54.382-17.221-98.467-38.464-98.467s-38.464 44.085-38.464 98.467"/>
  <path d="m335.07 196.33c0-49.283-17.221-89.235-38.464-89.235s-38.464 39.952-38.464 89.235"/>
  <path d="m388.92 196.33c0-51.832-17.221-93.851-38.464-93.851s-38.464 42.018-38.464 93.851"/>
  <path d="m150.44 82.476c0 16.994-12.054 30.771-26.924 30.771s-26.924-13.776-26.924-30.771c0-16.994 12.054-30.771 26.924-30.771 12.186 0 22.853 9.3542 26.007 22.807"/>
  <path d="m205.83 87.86c0 14.87-10.332 26.924-23.078 26.924s-23.078-12.054-23.078-26.924 10.332-26.924 23.078-26.924c10.445 0 19.588 8.185 22.292 19.956"/>
  <path d="m269.65 83.096c-4.3114 15.999-17.783 26.28-30.09 22.963-12.307-3.3164-18.788-18.974-14.477-34.973 4.3114-15.999 17.783-26.28 30.09-22.963 10.086 2.7179 16.54 13.903 15.738 27.271"/>
  <path d="m331.76 86.125c2.3509 16.402-5.9713 31.164-18.588 32.972-12.617 1.8084-24.75-10.022-27.101-26.424-2.3509-16.402 5.9713-31.164 18.588-32.972 10.34-1.482 20.684 6.2489 25.221 18.849"/>
  <path d="m388.92 84.783c0 16.569-10.332 30.002-23.078 30.002s-23.078-13.432-23.078-30.002c0-16.569 10.332-30.002 23.078-30.002 10.445 0 19.588 9.1204 22.292 22.237"/>
  <path d="m386.34 95.374c-7.6038 14.722-22.948 21.914-34.272 16.065-11.324-5.8491-14.34-22.525-6.7366-37.247 7.6038-14.722 22.948-21.914 34.272-16.065 9.2805 4.7934 13.218 17.092 9.6014 29.987"/>
 </g>
 <g transform="matrix(.87942 0 0 1 625.21 396.12)" fill="#b3b3b3">
  <path d="m168.91 196.33c0-53.532-17.221-96.928-38.464-96.928s-38.464 43.396-38.464 96.928"/>
  <path d="m225.83 196.33c0-50.983-17.221-92.312-38.464-92.312s-38.464 41.33-38.464 92.312"/>
  <path d="m281.22 196.33c0-54.382-17.221-98.467-38.464-98.467s-38.464 44.085-38.464 98.467"/>
  <path d="m335.07 196.33c0-49.283-17.221-89.235-38.464-89.235s-38.464 39.952-38.464 89.235"/>
  <path d="m388.92 196.33c0-51.832-17.221-93.851-38.464-93.851s-38.464 42.018-38.464 93.851"/>
  <path d="m150.44 82.476c0 16.994-12.054 30.771-26.924 30.771s-26.924-13.776-26.924-30.771c0-16.994 12.054-30.771 26.924-30.771 12.186 0 22.853 9.3542 26.007 22.807"/>
  <path d="m205.83 87.86c0 14.87-10.332 26.924-23.078 26.924s-23.078-12.054-23.078-26.924 10.332-26.924 23.078-26.924c10.445 0 19.588 8.185 22.292 19.956"/>
  <path d="m269.65 83.096c-4.3114 15.999-17.783 26.28-30.09 22.963-12.307-3.3164-18.788-18.974-14.477-34.973 4.3114-15.999 17.783-26.28 30.09-22.963 10.086 2.7179 16.54 13.903 15.738 27.271"/>
  <path d="m331.76 86.125c2.3509 16.402-5.9713 31.164-18.588 32.972-12.617 1.8084-24.75-10.022-27.101-26.424-2.3509-16.402 5.9713-31.164 18.588-32.972 10.34-1.482 20.684 6.2489 25.221 18.849"/>
  <path d="m388.92 84.783c0 16.569-10.332 30.002-23.078 30.002s-23.078-13.432-23.078-30.002c0-16.569 10.332-30.002 23.078-30.002 10.445 0 19.588 9.1204 22.292 22.237"/>
  <path d="m386.34 95.374c-7.6038 14.722-22.948 21.914-34.272 16.065-11.324-5.8491-14.34-22.525-6.7366-37.247 7.6038-14.722 22.948-21.914 34.272-16.065 9.2805 4.7934 13.218 17.092 9.6014 29.987"/>
 </g>
 <g transform="matrix(-.87942 0 0 1 515.69 380.68)" fill="#09a538">
  <path d="m175.73 196.33c0-53.532-17.221-96.928-38.464-96.928s-38.464 43.396-38.464 96.928"/>
  <path d="m232.65 196.33c0-50.983-17.221-92.312-38.464-92.312s-38.464 41.33-38.464 92.312"/>
  <path d="m288.04 196.33c0-54.382-17.221-98.467-38.464-98.467s-38.464 44.085-38.464 98.467"/>
  <path d="m341.89 196.33c0-49.283-17.221-89.235-38.464-89.235s-38.464 39.952-38.464 89.235"/>
  <path d="m395.74 196.33c0-51.832-17.221-93.851-38.464-93.851s-38.464 42.018-38.464 93.851"/>
  <path d="m157.27 82.476c0 16.994-12.054 30.771-26.924 30.771s-26.924-13.776-26.924-30.771c0-16.994 12.054-30.771 26.924-30.771 12.186 0 22.853 9.3542 26.007 22.807"/>
  <path d="m212.65 87.86c0 14.87-10.332 26.924-23.078 26.924s-23.078-12.054-23.078-26.924 10.332-26.924 23.078-26.924c10.445 0 19.588 8.185 22.292 19.956"/>
  <path d="m276.48 83.096c-4.3114 15.999-17.783 26.28-30.09 22.963-12.307-3.3165-18.788-18.974-14.477-34.973 4.3114-15.999 17.783-26.28 30.09-22.963 10.086 2.7179 16.54 13.903 15.738 27.271"/>
  <path d="m338.58 86.125c2.3509 16.402-5.9713 31.164-18.588 32.972-12.617 1.8084-24.75-10.022-27.101-26.424-2.3509-16.402 5.9713-31.164 18.588-32.972 10.34-1.482 20.684 6.249 25.221 18.849"/>
  <path d="m395.74 84.783c0 16.569-10.332 30.002-23.078 30.002s-23.078-13.432-23.078-30.002c0-16.569 10.332-30.002 23.078-30.002 10.445 0 19.588 9.1204 22.292 22.237"/>
  <path d="m393.17 95.374c-7.6038 14.722-22.948 21.914-34.272 16.065-11.324-5.8491-14.34-22.525-6.7366-37.247 7.6038-14.722 22.948-21.914 34.272-16.065 9.2805 4.7934 13.218 17.092 9.6013 29.987"/>
 </g>
 <g transform="matrix(-.87942 0 0 1 796.84 434.52)" fill="#007f00">
  <path d="m175.73 196.33c0-53.532-17.221-96.928-38.464-96.928s-38.464 43.396-38.464 96.928"/>
  <path d="m232.65 196.33c0-50.983-17.221-92.312-38.464-92.312s-38.464 41.33-38.464 92.312"/>
  <path d="m288.04 196.33c0-54.382-17.221-98.467-38.464-98.467s-38.464 44.085-38.464 98.467"/>
  <path d="m341.89 196.33c0-49.283-17.221-89.235-38.464-89.235s-38.464 39.952-38.464 89.235"/>
  <path d="m395.74 196.33c0-51.832-17.221-93.851-38.464-93.851s-38.464 42.018-38.464 93.851"/>
  <path d="m157.27 82.476c0 16.994-12.054 30.771-26.924 30.771s-26.924-13.776-26.924-30.771c0-16.994 12.054-30.771 26.924-30.771 12.186 0 22.853 9.3542 26.007 22.807"/>
  <path d="m212.65 87.86c0 14.87-10.332 26.924-23.078 26.924s-23.078-12.054-23.078-26.924 10.332-26.924 23.078-26.924c10.445 0 19.588 8.185 22.292 19.956"/>
  <path d="m276.48 83.096c-4.3114 15.999-17.783 26.28-30.09 22.963-12.307-3.3165-18.788-18.974-14.477-34.973 4.3114-15.999 17.783-26.28 30.09-22.963 10.086 2.7179 16.54 13.903 15.738 27.271"/>
  <path d="m338.58 86.125c2.3509 16.402-5.9713 31.164-18.588 32.972-12.617 1.8084-24.75-10.022-27.101-26.424-2.3509-16.402 5.9713-31.164 18.588-32.972 10.34-1.482 20.684 6.249 25.221 18.849"/>
  <path d="m395.74 84.783c0 16.569-10.332 30.002-23.078 30.002s-23.078-13.432-23.078-30.002c0-16.569 10.332-30.002 23.078-30.002 10.445 0 19.588 9.1204 22.292 22.237"/>
  <path d="m393.17 95.374c-7.6038 14.722-22.948 21.914-34.272 16.065-11.324-5.8491-14.34-22.525-6.7366-37.247 7.6038-14.722 22.948-21.914 34.272-16.065 9.2805 4.7934 13.218 17.092 9.6013 29.987"/>
 </g>
 <g transform="matrix(-.87942 0 0 1 1011.2 432.99)" fill="#808080">
  <g transform="matrix(.99584 -.080134 .10362 .99584 -72.529 31.018)">
   <path d="m217.38 198.27c0-53.532-17.221-96.928-38.464-96.928s-38.464 43.396-38.464 96.928"/>
   <path d="m274.31 198.27c0-50.983-17.221-92.312-38.464-92.312s-38.464 41.33-38.464 92.312"/>
   <path d="m329.7 198.27c0-54.382-17.221-98.466-38.464-98.466s-38.464 44.085-38.464 98.466"/>
   <path d="m383.55 198.27c0-49.283-17.221-89.235-38.464-89.235s-38.464 39.952-38.464 89.235"/>
   <path d="m437.4 198.27c0-51.832-17.221-93.851-38.464-93.851s-38.464 42.018-38.464 93.851"/>
   <path d="m198.92 84.422c0 16.994-12.054 30.771-26.924 30.771s-26.924-13.776-26.924-30.771c0-16.994 12.054-30.771 26.924-30.771 12.186 0 22.853 9.3542 26.007 22.807"/>
   <path d="m254.31 89.807c0 14.87-10.332 26.924-23.078 26.924s-23.078-12.054-23.078-26.924 10.332-26.924 23.078-26.924c10.445 0 19.588 8.185 22.292 19.956"/>
   <path d="m318.13 85.042c-4.3114 15.999-17.783 26.28-30.09 22.963-12.307-3.3164-18.788-18.974-14.477-34.973 4.3114-15.999 17.783-26.28 30.09-22.963 10.086 2.7179 16.54 13.903 15.738 27.271"/>
   <path d="m380.24 88.071c2.3509 16.402-5.9712 31.164-18.588 32.972-12.617 1.8084-24.75-10.022-27.101-26.424-2.3508-16.402 5.9713-31.164 18.588-32.972 10.34-1.482 20.684 6.249 25.221 18.849"/>
   <path d="m437.4 86.73c0 16.569-10.332 30.002-23.078 30.002s-23.078-13.432-23.078-30.002c0-16.569 10.332-30.002 23.078-30.002 10.445 0 19.588 9.1204 22.292 22.236"/>
   <path d="m434.82 97.32c-7.6037 14.722-22.948 21.914-34.272 16.065-11.324-5.8491-14.34-22.525-6.7367-37.247 7.6038-14.722 22.948-21.914 34.272-16.065 9.2805 4.7934 13.219 17.092 9.6014 29.987"/>
  </g>
 </g>
 <g transform="matrix(.87887 -.031142 .035412 .99937 133.75 447.09)" fill="#074c07">
  <path d="m185.1 196.47c0-53.532-17.221-96.928-38.464-96.928s-38.464 43.396-38.464 96.928"/>
  <path d="m242.03 196.47c0-50.983-17.221-92.312-38.464-92.312s-38.464 41.33-38.464 92.312"/>
  <path d="m297.41 196.47c0-54.382-17.221-98.467-38.464-98.467s-38.464 44.085-38.464 98.467"/>
  <path d="m351.26 196.47c0-49.283-17.221-89.235-38.464-89.235s-38.464 39.952-38.464 89.235"/>
  <path d="m405.11 196.47c0-51.832-17.221-93.851-38.464-93.851s-38.464 42.018-38.464 93.851"/>
  <path d="m166.64 82.622c0 16.994-12.054 30.771-26.924 30.771s-26.924-13.776-26.924-30.771c0-16.994 12.054-30.771 26.924-30.771 12.186 0 22.853 9.3542 26.007 22.807"/>
  <path d="m222.03 88.006c0 14.87-10.332 26.924-23.078 26.924s-23.078-12.054-23.078-26.924 10.332-26.924 23.078-26.924c10.445 0 19.588 8.185 22.292 19.956"/>
  <path d="m285.85 83.242c-4.3114 15.999-17.783 26.28-30.09 22.963-12.307-3.3164-18.788-18.974-14.477-34.973 4.3114-15.999 17.783-26.28 30.09-22.963 10.086 2.7179 16.54 13.903 15.738 27.271"/>
  <path d="m347.95 86.271c2.3508 16.402-5.9713 31.164-18.588 32.972-12.617 1.8084-24.75-10.022-27.101-26.424-2.3509-16.402 5.9712-31.164 18.588-32.972 10.34-1.482 20.684 6.2489 25.221 18.849"/>
  <path d="m405.11 84.929c0 16.569-10.332 30.002-23.078 30.002s-23.078-13.432-23.078-30.002c0-16.569 10.332-30.002 23.078-30.002 10.445 0 19.588 9.1204 22.292 22.236"/>
  <path d="m402.54 95.52c-7.6038 14.722-22.948 21.914-34.272 16.065-11.324-5.8491-14.34-22.525-6.7366-37.247 7.6038-14.722 22.948-21.914 34.272-16.065 9.2805 4.7934 13.218 17.092 9.6014 29.987"/>
 </g>
 <path d="m528.49 205.81a27.241 30.771 0 1 1 -0.92822 -7.9641"/>
 <circle cx="504.25" cy="206.3" r="26.648" stroke="#000" stroke-width="5"/>
</svg>
