<?xml version="1.0" standalone="no"?>
<!DOCTYPE svg PUBLIC "-//W3C//DTD SVG 20010904//EN"
 "http://www.w3.org/TR/2001/REC-SVG-20010904/DTD/svg10.dtd">
<svg version="1.0" xmlns="http://www.w3.org/2000/svg"
 width="826.000000pt" height="1280.000000pt" viewBox="0 0 826.000000 1280.000000"
 preserveAspectRatio="xMidYMid meet">
<metadata>
Created by potrace 1.15, written by Peter Selinger 2001-2017
</metadata>
<g transform="translate(0.000000,1280.000000) scale(0.100000,-0.100000)"
fill="#000000" stroke="none">
<path d="M668 12781 c-82 -26 -144 -66 -179 -114 -63 -85 -78 -152 -89 -399
-11 -222 -16 -248 -73 -341 -59 -98 -69 -181 -41 -360 39 -254 39 -254 -22
-328 -159 -191 -228 -610 -179 -1085 21 -204 46 -317 109 -489 32 -86 31 -97
-34 -415 -164 -791 -196 -1175 -124 -1468 31 -125 111 -270 310 -552 223 -318
322 -510 358 -695 9 -44 27 -164 41 -268 85 -634 258 -1212 575 -1919 l52
-117 -125 -208 c-146 -244 -241 -430 -325 -638 -152 -378 -197 -632 -189
-1075 3 -194 9 -286 25 -385 121 -746 491 -1331 995 -1575 103 -49 263 -102
392 -130 156 -34 440 -39 604 -11 647 110 1186 605 1449 1331 39 108 95 292
122 405 52 215 66 301 86 537 3 36 12 74 19 85 13 17 19 13 88 -57 95 -97 240
-293 344 -464 l82 -136 -40 -212 c-77 -408 -121 -644 -150 -807 l-29 -165 21
-23 c12 -12 178 -102 368 -200 858 -440 1001 -497 1251 -498 129 0 195 18 230
62 32 40 63 155 150 544 287 1287 527 2075 810 2666 163 340 428 741 632 958
l76 81 -46 17 c-26 10 -189 67 -362 128 -173 61 -370 130 -438 154 -180 66
-247 79 -392 80 -140 0 -185 -9 -338 -66 -56 -22 -118 -39 -137 -39 -77 0
-262 119 -340 217 -75 96 -86 139 -185 718 -88 510 -154 813 -255 1161 -64
220 -89 371 -125 745 -49 506 -125 722 -480 1364 -133 240 -299 567 -368 725
-132 302 -263 799 -291 1102 -13 138 -27 170 -80 191 -120 48 -310 -15 -452
-150 -90 -86 -114 -92 -163 -39 -17 18 -56 77 -86 130 -107 192 -219 304 -640
646 -398 324 -568 473 -840 736 -243 235 -344 309 -492 358 -147 50 -221 34
-319 -66 l-68 -70 -29 20 c-15 11 -88 84 -161 162 -232 244 -336 294 -503 241z
m190 -224 c110 -51 253 -218 496 -577 176 -260 272 -392 354 -490 30 -36 234
-243 452 -460 410 -407 501 -509 635 -715 140 -214 231 -390 599 -1149 111
-229 172 -334 266 -461 113 -151 221 -241 339 -285 96 -37 95 1 -4 130 -243
314 -391 576 -580 1020 -267 628 -395 810 -1025 1462 -529 547 -805 876 -896
1073 -34 71 -31 97 13 135 45 40 148 90 185 90 38 0 147 -85 368 -287 297
-271 480 -433 725 -641 447 -380 599 -527 734 -707 147 -196 218 -345 364
-765 99 -284 136 -377 218 -548 178 -372 419 -715 622 -884 106 -88 107 -65 5
111 -161 277 -197 342 -313 572 -187 372 -312 660 -418 965 -91 263 -86 293
65 410 148 115 256 126 293 29 4 -11 11 -67 15 -125 22 -273 130 -751 235
-1036 55 -148 186 -413 325 -654 395 -687 474 -921 500 -1480 18 -376 29 -434
132 -695 66 -166 127 -342 169 -490 68 -239 166 -764 189 -1015 28 -305 37
-335 117 -422 26 -28 99 -84 161 -124 61 -40 112 -79 112 -85 0 -14 -42 -63
-225 -264 -463 -510 -814 -1107 -1011 -1724 -42 -133 -81 -221 -98 -221 -18 0
-45 33 -119 145 -77 116 -239 322 -356 449 -132 144 -173 174 -596 452 -304
198 -667 558 -957 948 -178 238 -317 463 -451 732 -167 333 -218 483 -388
1129 -121 460 -252 827 -701 1965 -312 789 -388 1025 -532 1640 -104 442 -120
553 -92 637 9 27 30 62 46 78 27 26 31 27 60 15 60 -25 118 -112 350 -525 299
-532 340 -615 440 -910 134 -395 269 -663 469 -929 131 -174 277 -314 302
-289 9 9 -64 173 -276 613 -144 301 -252 536 -332 725 -30 72 -82 195 -116
275 -136 321 -397 813 -550 1039 -145 213 -236 281 -384 289 -79 5 -136 -9
-171 -42 -57 -51 -98 -181 -108 -337 -8 -145 -19 -179 -74 -244 -27 -32 -52
-71 -55 -87 -9 -37 -52 -88 -76 -88 -41 0 -55 75 -70 378 -10 189 -10 278 0
414 24 350 83 484 158 361 16 -26 44 -82 62 -123 40 -92 79 -160 91 -160 36 0
10 447 -44 755 -30 168 -28 225 7 247 35 22 159 -11 257 -68 64 -37 156 -130
222 -224 25 -36 101 -157 168 -270 236 -395 347 -548 626 -865 348 -394 489
-595 649 -920 57 -115 149 -322 204 -458 213 -525 385 -867 437 -867 7 0 14 3
14 8 0 33 -182 614 -305 972 -162 475 -304 753 -534 1050 -36 47 -151 189
-256 315 -364 438 -473 585 -665 900 -245 401 -323 492 -482 569 -51 24 -138
56 -193 69 -130 33 -134 35 -141 64 -9 33 13 248 32 321 16 59 52 129 78 151
53 45 150 48 234 8z m-308 -2579 c74 -286 731 -2068 938 -2543 150 -346 173
-412 158 -470 -10 -40 -48 -33 -89 18 -72 88 -205 316 -358 611 -123 240 -205
422 -284 631 -37 99 -78 197 -92 218 -21 33 -26 37 -40 26 -13 -11 -14 -33
-10 -134 9 -222 71 -395 283 -785 67 -124 174 -331 239 -460 l117 -235 -81
-128 c-69 -111 -121 -216 -121 -247 0 -21 23 -20 63 3 23 13 103 61 177 106
75 45 164 91 199 102 87 27 102 17 135 -94 30 -97 75 -280 106 -427 12 -58 42
-188 67 -290 246 -1009 826 -1972 1533 -2543 30 -24 120 -90 200 -147 170
-120 202 -148 226 -202 16 -35 16 -46 5 -100 -13 -65 -80 -224 -137 -325 -56
-101 -150 -221 -263 -337 -179 -182 -323 -290 -515 -382 -167 -80 -237 -96
-436 -97 -254 -1 -339 30 -487 178 -66 68 -90 99 -127 176 -62 128 -87 241
-88 388 0 151 25 258 93 393 73 147 83 194 75 363 -14 310 -62 432 -284 727
-60 80 -144 207 -187 282 -212 377 -472 1013 -576 1414 -34 133 -81 394 -109
615 -66 512 -164 756 -471 1179 -45 62 -97 141 -116 175 -114 207 -109 704 13
1312 19 95 59 320 89 500 76 450 105 571 135 571 5 0 14 -19 20 -42z"/>
</g>
</svg>
