<?xml version="1.0" standalone="no"?>
<!DOCTYPE svg PUBLIC "-//W3C//DTD SVG 20010904//EN"
 "http://www.w3.org/TR/2001/REC-SVG-20010904/DTD/svg10.dtd">
<svg version="1.0" xmlns="http://www.w3.org/2000/svg"
 width="857.000000pt" height="1280.000000pt" viewBox="0 0 857.000000 1280.000000"
 preserveAspectRatio="xMidYMid meet">
<metadata>
Created by potrace 1.15, written by Peter Selinger 2001-2017
</metadata>
<g transform="translate(0.000000,1280.000000) scale(0.100000,-0.100000)"
fill="#000000" stroke="none">
<path d="M3749 12795 c-3 -2 -50 -16 -105 -31 -150 -40 -242 -92 -344 -194
-65 -65 -95 -105 -124 -163 -21 -42 -42 -80 -48 -83 -18 -12 -65 -126 -87
-214 -25 -103 -36 -234 -35 -430 0 -122 4 -155 22 -207 26 -73 72 -150 148
-245 65 -81 134 -118 267 -144 97 -19 93 -12 74 -113 l-12 -63 -120 -42 c-300
-106 -472 -226 -629 -439 -140 -190 -201 -316 -402 -827 -148 -377 -237 -524
-444 -730 -74 -74 -200 -188 -280 -252 -80 -64 -239 -193 -355 -286 -223 -179
-249 -208 -261 -294 -4 -26 -11 -49 -18 -51 -6 -3 -78 -53 -161 -112 -82 -59
-177 -121 -209 -137 -55 -28 -62 -29 -97 -18 l-37 12 -6 127 c-3 69 -11 245
-16 391 -6 146 -15 371 -20 500 -38 943 -41 837 30 1034 37 102 37 154 -1 228
-51 103 -136 160 -236 160 -131 -1 -223 -101 -223 -242 0 -57 13 -97 55 -170
18 -30 37 -71 43 -90 6 -20 15 -258 22 -555 7 -286 18 -740 24 -1010 10 -418
10 -491 -2 -500 -81 -58 -148 -130 -158 -171 -9 -36 4 -74 36 -104 25 -23 28
-31 21 -61 -11 -51 4 -94 43 -118 18 -12 41 -21 50 -21 10 0 15 -4 11 -9 -3
-5 1 -29 9 -53 16 -50 16 -54 56 -1783 6 -242 17 -719 25 -1060 8 -341 19
-813 25 -1050 5 -236 15 -617 20 -845 5 -228 14 -608 20 -845 26 -1095 31
-1272 36 -1305 14 -81 83 -163 149 -176 80 -15 180 24 231 91 54 72 54 30 8
1180 -23 583 -47 1191 -53 1350 -6 160 -16 400 -21 535 -10 239 -20 503 -40
1018 -6 138 -15 366 -20 505 -38 944 -90 2287 -90 2309 0 24 9 32 58 57 91 46
165 144 202 269 7 23 18 46 24 51 6 5 116 41 245 80 l234 71 127 -124 c135
-133 165 -150 209 -124 14 9 100 52 190 97 261 129 475 263 651 404 171 138
360 353 470 532 56 91 151 283 180 363 13 34 24 61 26 60 1 -2 -6 -107 -17
-233 -28 -324 -28 -526 0 -630 12 -44 33 -96 46 -117 14 -21 25 -46 25 -56 0
-37 32 -128 62 -174 l30 -48 -26 -30 c-37 -45 -93 -148 -117 -216 -53 -154
-82 -328 -119 -719 -50 -525 -59 -580 -240 -1440 -185 -881 -246 -1199 -335
-1763 -19 -122 -53 -300 -74 -395 -93 -409 -124 -617 -124 -837 1 -138 5 -174
36 -327 42 -199 65 -260 118 -308 61 -55 168 -76 460 -91 l136 -7 6 -161 c4
-88 17 -226 29 -306 l21 -146 -33 -119 c-67 -242 -47 -375 62 -404 24 -6 122
-20 218 -31 241 -28 336 -45 470 -85 63 -19 158 -39 210 -44 52 -6 129 -15
171 -20 124 -14 259 17 303 69 42 51 54 109 32 160 -5 13 18 15 181 12 271 -3
311 -13 448 -107 42 -29 82 -47 117 -53 186 -35 241 -42 308 -42 89 0 138 20
203 79 86 80 82 129 -15 193 -116 77 -228 121 -348 138 l-85 12 -213 212 -213
211 6 91 c4 50 12 137 19 195 l11 104 115 12 c168 18 264 40 360 80 176 74
242 120 276 190 34 69 30 116 -26 255 -62 158 -212 881 -299 1443 -99 636
-115 956 -126 2475 l-6 855 -65 320 c-85 412 -113 505 -175 571 l-29 30 17 40
c20 46 24 207 6 239 -9 16 -8 43 2 115 30 204 71 984 64 1190 l-4 95 120 -120
c129 -129 217 -190 356 -246 41 -16 88 -36 105 -44 208 -97 694 26 1284 326
334 169 584 332 815 530 106 91 142 129 143 149 0 8 5 41 12 73 26 133 -33
306 -164 477 -36 47 -62 88 -58 92 26 24 240 124 352 163 207 73 303 127 395
226 62 66 156 219 161 262 2 18 11 53 21 79 20 55 11 83 -38 112 -16 10 -27
22 -23 27 3 5 -10 25 -29 44 -28 28 -43 35 -74 35 -27 0 -46 6 -58 20 -39 43
-131 15 -204 -63 -15 -17 -58 -37 -120 -58 -102 -33 -301 -123 -350 -159 l-30
-21 -17 26 c-13 21 -16 39 -10 94 10 112 -4 281 -25 302 -26 26 -82 39 -125
29 -64 -15 -69 -26 -69 -158 0 -129 -7 -151 -72 -226 -18 -22 -38 -56 -43 -75
-13 -46 -13 -150 0 -226 l11 -60 -48 -43 c-27 -23 -63 -50 -81 -60 -17 -9
-101 -67 -185 -128 -273 -199 -540 -371 -909 -585 l-191 -112 -21 29 c-97 133
-318 398 -400 479 -132 131 -247 211 -431 301 -178 86 -247 107 -460 134 -223
28 -205 21 -205 79 0 44 3 50 30 61 16 7 40 22 53 34 15 14 39 23 61 24 48 2
72 15 129 75 47 47 49 51 46 101 -2 35 3 62 15 85 27 51 24 155 -8 264 -15 48
-31 118 -36 155 -11 74 -22 119 -50 202 -17 51 -17 59 -3 110 8 30 14 89 14
130 -1 94 -1 128 1 215 3 88 -24 145 -112 239 -103 110 -175 143 -350 161 -36
4 -108 13 -160 21 -93 14 -222 19 -231 9z m-39 -11536 c118 -13 472 -16 568
-4 l62 7 0 -59 c0 -32 7 -105 15 -163 8 -58 15 -147 15 -199 0 -81 -5 -109
-36 -205 -25 -77 -36 -132 -37 -179 l-2 -68 -45 6 c-25 4 -96 13 -157 19
l-113 12 -67 65 c-38 36 -137 125 -222 199 l-154 134 6 166 c4 91 10 193 13
227 6 57 9 62 28 58 12 -2 68 -9 126 -16z"/>
</g>
</svg>
