<?xml version="1.0" standalone="no"?>
<!DOCTYPE svg PUBLIC "-//W3C//DTD SVG 20010904//EN"
 "http://www.w3.org/TR/2001/REC-SVG-20010904/DTD/svg10.dtd">
<svg version="1.0" xmlns="http://www.w3.org/2000/svg"
 width="1175.000000pt" height="1280.000000pt" viewBox="0 0 1175.000000 1280.000000"
 preserveAspectRatio="xMidYMid meet">
<metadata>
Created by potrace 1.15, written by Peter Selinger 2001-2017
</metadata>
<g transform="translate(0.000000,1280.000000) scale(0.100000,-0.100000)"
fill="#000000" stroke="none">
<path d="M4510 12515 c-7 -8 -19 -15 -27 -15 -9 0 -56 -40 -106 -90 -60 -60
-101 -93 -124 -99 -50 -14 -95 -52 -120 -103 -19 -37 -23 -62 -24 -154 -1
-113 9 -156 42 -187 24 -23 24 -66 -1 -114 -38 -75 -90 -205 -106 -266 -24
-93 -70 -179 -166 -310 -86 -117 -103 -154 -96 -213 2 -23 9 -30 30 -32 14 -2
38 -15 53 -30 26 -26 29 -51 11 -94 -5 -11 0 -24 18 -39 28 -25 33 -54 14 -94
-10 -22 -9 -31 6 -56 19 -33 16 -83 -10 -145 -15 -36 -13 -139 4 -170 22 -42
61 -65 128 -80 46 -9 80 -24 106 -45 38 -30 78 -50 170 -83 59 -22 123 -89
138 -148 7 -23 21 -62 32 -86 24 -53 42 -171 34 -234 -3 -26 -19 -80 -36 -120
-27 -64 -32 -91 -41 -216 -12 -181 -25 -209 -115 -249 -53 -24 -131 -98 -144
-137 -22 -68 -29 -280 -11 -324 15 -35 8 -82 -12 -82 -7 0 -20 -13 -30 -29 -9
-16 -45 -48 -80 -72 -120 -82 -193 -156 -273 -278 -150 -227 -218 -327 -251
-368 -18 -23 -33 -44 -33 -47 0 -9 -137 -203 -193 -273 -29 -38 -101 -131
-159 -208 -58 -77 -136 -174 -172 -215 -36 -41 -66 -78 -66 -83 0 -8 -55 -66
-337 -352 -150 -153 -350 -324 -461 -394 -46 -29 -66 -35 -150 -43 -135 -14
-407 -3 -469 18 -38 13 -70 15 -153 11 -97 -6 -107 -8 -128 -32 -25 -30 -28
-63 -8 -90 16 -23 99 -44 176 -45 67 -1 174 -23 195 -40 20 -17 19 -53 -3 -73
-9 -9 -51 -30 -92 -48 -94 -40 -140 -37 -225 14 -95 57 -215 94 -325 100 -56
3 -119 14 -153 26 -32 11 -106 27 -164 36 l-106 16 -39 -38 c-30 -30 -38 -44
-38 -74 0 -45 11 -54 75 -64 95 -13 258 -54 271 -67 45 -46 -1 -122 -112 -184
-53 -30 -78 -37 -161 -45 -86 -9 -101 -14 -121 -36 -29 -32 -25 -57 10 -61 36
-4 58 -37 58 -84 0 -38 0 -38 39 -38 22 0 43 -5 46 -10 4 -6 23 -8 45 -5 51 8
159 -12 199 -36 24 -15 31 -26 31 -50 l0 -32 46 7 c93 12 171 -35 161 -99 -2
-16 -18 -84 -35 -150 -17 -66 -33 -138 -36 -160 -15 -93 -36 -336 -36 -410 0
-44 -4 -125 -10 -180 -24 -234 -40 -524 -50 -875 -6 -206 -16 -406 -21 -445
-6 -38 -15 -284 -20 -545 -6 -261 -12 -520 -15 -576 l-5 -100 63 -1 c64 -1
214 -33 271 -58 18 -7 97 -39 177 -71 80 -31 177 -71 215 -89 139 -65 183 -85
383 -169 111 -47 214 -86 227 -86 14 0 48 -11 75 -25 98 -49 71 -135 -41 -135
-18 0 -47 -14 -76 -36 -70 -53 -170 -100 -245 -114 -40 -7 -86 -24 -110 -40
-54 -35 -132 -53 -204 -48 -30 3 -57 1 -60 -4 -3 -4 -13 -8 -23 -8 -32 0 -79
-30 -85 -54 -6 -25 -136 -166 -153 -166 -12 0 -24 -36 -17 -53 10 -25 107 -51
189 -50 68 0 92 5 160 34 l80 34 555 2 c569 2 806 10 1875 64 110 6 322 12
472 14 226 3 274 1 284 -11 9 -11 51 -14 210 -14 181 0 209 2 307 26 87 21
148 28 327 36 218 10 397 14 445 9 14 -2 62 4 107 13 69 13 156 16 520 14 241
-1 528 1 638 4 110 3 299 0 420 -5 278 -13 462 -18 896 -24 l347 -4 11 33 c21
67 9 340 -20 471 -19 84 10 157 63 157 36 0 176 -96 248 -169 36 -36 104 -99
151 -138 47 -39 110 -98 138 -130 59 -66 120 -180 128 -241 10 -72 58 -102
213 -127 123 -21 149 -20 159 8 9 24 38 52 60 59 8 2 15 19 17 38 9 84 38 130
84 130 37 0 94 -49 122 -103 11 -22 45 -64 74 -92 39 -36 53 -57 48 -68 -9
-24 31 -22 81 3 22 11 47 20 57 20 10 0 27 5 37 11 29 19 66 2 118 -52 99
-106 245 -150 311 -94 17 14 34 25 40 25 18 0 61 40 76 72 25 48 21 171 -8
265 -25 83 -45 173 -71 318 -26 146 -37 197 -56 257 -11 32 -19 73 -19 91 0
19 -6 47 -14 63 -24 48 -38 154 -32 230 6 68 5 72 -23 108 -16 20 -32 55 -36
79 -4 23 -15 67 -25 97 -30 94 -51 190 -70 325 -10 72 -30 163 -45 203 -14 41
-29 106 -32 145 -3 40 -13 101 -23 137 -10 36 -22 88 -25 115 -4 28 -22 115
-40 195 -35 150 -55 258 -81 442 -8 59 -26 142 -41 185 -16 47 -29 114 -34
168 -4 50 -14 122 -23 160 -9 39 -23 116 -31 173 -8 57 -18 108 -21 114 -4 6
-11 41 -15 77 -4 36 -14 95 -22 131 -9 36 -25 126 -37 200 -11 74 -25 158 -30
185 -24 129 -31 172 -50 340 -25 205 -42 306 -64 385 -9 30 -16 91 -16 136 0
54 -7 103 -20 145 -11 35 -18 69 -16 76 6 15 -26 195 -60 343 -19 78 -27 153
-34 292 -5 103 -13 202 -19 220 -5 18 -15 74 -20 124 -6 50 -20 117 -31 149
-29 83 -67 267 -74 350 -4 66 -14 115 -52 260 -9 33 -22 87 -31 120 -23 91
-90 312 -119 390 -77 209 -154 400 -185 460 -12 22 -41 78 -64 125 -24 47 -65
115 -91 151 -27 36 -58 83 -68 105 -76 156 -81 163 -169 272 -33 41 -74 93
-91 117 -120 168 -569 604 -721 700 -16 11 -46 31 -65 45 -37 28 -122 74 -203
110 -78 34 -217 53 -342 47 -179 -9 -266 -49 -400 -182 -74 -73 -85 -89 -123
-180 -54 -129 -69 -182 -77 -263 -9 -94 -31 -151 -61 -158 -37 -10 -65 2 -136
54 -36 26 -116 74 -179 105 l-114 58 -145 6 -146 6 -93 -33 c-90 -31 -95 -32
-127 -16 -42 19 -125 131 -154 206 -53 134 -52 132 -46 213 4 51 17 104 36
153 17 41 30 85 30 97 1 38 37 104 84 155 46 49 56 75 35 88 -15 9 -3 83 22
141 25 59 24 85 -4 120 -13 15 -27 37 -31 48 -4 11 -7 113 -6 228 1 205 0 209
-31 315 -61 208 -128 321 -287 480 -175 175 -382 271 -683 316 -105 15 -154
35 -164 65 -6 21 -27 25 -185 40 -98 8 -131 19 -163 52 -22 23 -89 26 -107 4z
m-1119 -6678 c-6 -6 -7 -15 -2 -21 6 -7 -2 -38 -21 -81 -43 -102 -76 -188
-109 -292 -17 -51 -34 -93 -40 -93 -5 0 -27 13 -49 29 -21 15 -52 34 -68 40
l-29 12 0 125 c-1 69 -4 128 -7 131 -7 7 -11 -97 -7 -172 2 -47 2 -49 -13 -30
-8 11 -16 15 -16 8 0 -22 -39 -24 -82 -5 -90 41 -121 52 -150 52 -36 0 -83 24
-92 45 -15 39 17 58 183 109 98 30 114 31 135 10 15 -14 17 -14 22 0 4 9 4 25
1 35 -4 15 3 20 37 27 22 5 50 9 61 9 11 1 31 8 45 17 40 26 204 79 209 67 2
-6 -2 -16 -8 -22z m794 -321 c18 -13 18 -18 6 -81 -8 -37 -13 -98 -12 -135 2
-66 1 -68 -33 -94 -19 -14 -37 -26 -41 -26 -7 0 -2 71 15 233 14 125 21 136
65 103z m2920 -1536 c8 -16 15 -43 15 -60 0 -17 11 -47 25 -68 19 -29 45 -115
45 -149 0 -10 104 -113 115 -113 17 0 65 -53 65 -72 0 -9 6 -29 14 -45 8 -15
19 -75 25 -133 5 -58 19 -132 31 -164 11 -33 20 -70 20 -82 0 -26 29 -111 65
-189 13 -27 25 -57 29 -65 16 -41 98 -162 146 -215 39 -43 62 -119 75 -251 3
-34 17 -102 30 -150 27 -98 32 -162 13 -186 -7 -9 -48 -25 -91 -36 l-77 -20
-19 27 -19 26 -56 -28 c-31 -15 -67 -27 -80 -27 -12 0 -31 -9 -41 -20 -17 -19
-31 -20 -201 -20 -119 0 -185 4 -189 11 -4 6 2 21 14 33 29 31 28 86 -3 115
-23 22 -23 26 -31 284 -9 312 -9 412 -2 492 3 33 8 157 11 276 4 119 11 261
16 315 5 55 10 145 10 202 0 57 5 112 10 122 7 13 7 34 -1 67 -26 116 -3 198
36 123z m1984 -1470 c29 -22 57 -40 62 -40 19 0 89 -53 95 -72 3 -10 0 -26 -6
-34 -9 -9 -10 -28 -5 -57 14 -85 12 -102 -14 -105 -13 -2 -34 2 -47 8 -14 8
-38 10 -65 6 -47 -7 -79 12 -79 47 0 11 -5 37 -12 59 -9 31 -9 47 1 74 10 28
10 37 -3 56 -19 27 -21 69 -4 86 17 17 17 17 77 -28z"/>
<path d="M9500 9140 c0 -5 5 -10 11 -10 5 0 7 5 4 10 -3 6 -8 10 -11 10 -2 0
-4 -4 -4 -10z"/>
<path d="M1606 393 c-4 -5 -51 -7 -104 -6 l-97 1 95 -8 c96 -9 130 -6 130 11
0 11 -14 12 -24 2z"/>
</g>
</svg>
