<?xml version="1.0" standalone="no"?>
<!DOCTYPE svg PUBLIC "-//W3C//DTD SVG 20010904//EN"
 "http://www.w3.org/TR/2001/REC-SVG-20010904/DTD/svg10.dtd">
<svg version="1.0" xmlns="http://www.w3.org/2000/svg"
 width="1280.000000pt" height="1160.000000pt" viewBox="0 0 1280.000000 1160.000000"
 preserveAspectRatio="xMidYMid meet">
<metadata>
Created by potrace 1.15, written by Peter Selinger 2001-2017
</metadata>
<g transform="translate(0.000000,1160.000000) scale(0.100000,-0.100000)"
fill="#000000" stroke="none">
<path d="M1015 11590 c-11 -5 -41 -9 -68 -9 -64 -1 -207 -34 -307 -71 -447
-163 -659 -560 -637 -1195 3 -93 11 -205 17 -248 7 -46 55 -214 115 -400 304
-945 588 -1829 793 -2467 127 -393 284 -883 351 -1088 66 -206 117 -380 115
-387 -3 -7 13 -73 35 -146 22 -74 80 -271 130 -439 49 -168 149 -505 221 -750
129 -438 222 -751 400 -1355 50 -168 130 -441 179 -607 49 -167 189 -640 311
-1053 122 -412 260 -880 307 -1040 47 -160 89 -296 93 -304 4 -7 13 43 19 110
7 68 14 125 15 126 1 1 22 -46 46 -104 37 -88 51 -110 78 -126 36 -21 -162
-22 4167 13 649 5 1803 14 2565 20 762 5 1607 12 1879 16 l493 6 30 27 c23 20
31 38 35 72 5 41 2 50 -25 80 l-30 34 -263 5 -263 5 -43 80 c-218 407 -234
826 -50 1338 l32 88 481 -2 c333 -1 488 2 502 10 32 17 62 61 62 92 0 16 -81
228 -179 471 -98 244 -288 713 -421 1043 -133 330 -336 832 -450 1115 -114
283 -311 772 -438 1085 -356 883 -653 1619 -894 2215 -121 300 -323 802 -450
1115 -127 314 -324 802 -438 1085 -114 283 -292 731 -395 995 -103 264 -197
491 -209 503 -11 13 -33 30 -48 38 -23 12 -597 14 -3935 13 -2155 0 -3917 -4
-3928 -9z m2250 -10877 c23 -107 77 -250 136 -362 28 -51 48 -95 46 -98 -3 -2
-20 -6 -40 -10 -29 -4 -37 -2 -47 16 -27 52 -80 216 -94 293 -16 89 -30 238
-22 238 2 0 12 -35 21 -77z"/>
</g>
</svg>
